G75*
G70*
%OFA0B0*%
%FSLAX24Y24*%
%IPPOS*%
%LPD*%
%AMOC8*
5,1,8,0,0,1.08239X$1,22.5*
%
%ADD10C,0.0000*%
%ADD11OC8,0.0500*%
%ADD12C,0.0591*%
%ADD13R,0.0472X0.0315*%
%ADD14C,0.0480*%
%ADD15R,0.0630X0.0460*%
%ADD16R,0.0315X0.0472*%
%ADD17C,0.0460*%
%ADD18R,0.0984X0.0787*%
%ADD19R,0.0787X0.0984*%
%ADD20R,0.0984X0.0472*%
%ADD21C,0.0760*%
%ADD22C,0.0120*%
%ADD23C,0.0357*%
%ADD24C,0.0160*%
%ADD25C,0.0700*%
D10*
X001920Y000970D02*
X039920Y000970D01*
X039996Y000972D01*
X040072Y000978D01*
X040147Y000987D01*
X040222Y001001D01*
X040296Y001018D01*
X040369Y001039D01*
X040441Y001063D01*
X040512Y001092D01*
X040581Y001123D01*
X040648Y001158D01*
X040713Y001197D01*
X040777Y001239D01*
X040838Y001284D01*
X040897Y001332D01*
X040953Y001383D01*
X041007Y001437D01*
X041058Y001493D01*
X041106Y001552D01*
X041151Y001613D01*
X041193Y001677D01*
X041232Y001742D01*
X041267Y001809D01*
X041298Y001878D01*
X041327Y001949D01*
X041351Y002021D01*
X041372Y002094D01*
X041389Y002168D01*
X041403Y002243D01*
X041412Y002318D01*
X041418Y002394D01*
X041420Y002470D01*
X041420Y029720D01*
X039270Y029720D02*
X039272Y029770D01*
X039278Y029820D01*
X039288Y029870D01*
X039301Y029918D01*
X039318Y029966D01*
X039339Y030012D01*
X039363Y030056D01*
X039391Y030098D01*
X039422Y030138D01*
X039456Y030175D01*
X039493Y030210D01*
X039532Y030241D01*
X039573Y030270D01*
X039617Y030295D01*
X039663Y030317D01*
X039710Y030335D01*
X039758Y030349D01*
X039807Y030360D01*
X039857Y030367D01*
X039907Y030370D01*
X039958Y030369D01*
X040008Y030364D01*
X040058Y030355D01*
X040106Y030343D01*
X040154Y030326D01*
X040200Y030306D01*
X040245Y030283D01*
X040288Y030256D01*
X040328Y030226D01*
X040366Y030193D01*
X040401Y030157D01*
X040434Y030118D01*
X040463Y030077D01*
X040489Y030034D01*
X040512Y029989D01*
X040531Y029942D01*
X040546Y029894D01*
X040558Y029845D01*
X040566Y029795D01*
X040570Y029745D01*
X040570Y029695D01*
X040566Y029645D01*
X040558Y029595D01*
X040546Y029546D01*
X040531Y029498D01*
X040512Y029451D01*
X040489Y029406D01*
X040463Y029363D01*
X040434Y029322D01*
X040401Y029283D01*
X040366Y029247D01*
X040328Y029214D01*
X040288Y029184D01*
X040245Y029157D01*
X040200Y029134D01*
X040154Y029114D01*
X040106Y029097D01*
X040058Y029085D01*
X040008Y029076D01*
X039958Y029071D01*
X039907Y029070D01*
X039857Y029073D01*
X039807Y029080D01*
X039758Y029091D01*
X039710Y029105D01*
X039663Y029123D01*
X039617Y029145D01*
X039573Y029170D01*
X039532Y029199D01*
X039493Y029230D01*
X039456Y029265D01*
X039422Y029302D01*
X039391Y029342D01*
X039363Y029384D01*
X039339Y029428D01*
X039318Y029474D01*
X039301Y029522D01*
X039288Y029570D01*
X039278Y029620D01*
X039272Y029670D01*
X039270Y029720D01*
X039920Y031220D02*
X039996Y031218D01*
X040072Y031212D01*
X040147Y031203D01*
X040222Y031189D01*
X040296Y031172D01*
X040369Y031151D01*
X040441Y031127D01*
X040512Y031098D01*
X040581Y031067D01*
X040648Y031032D01*
X040713Y030993D01*
X040777Y030951D01*
X040838Y030906D01*
X040897Y030858D01*
X040953Y030807D01*
X041007Y030753D01*
X041058Y030697D01*
X041106Y030638D01*
X041151Y030577D01*
X041193Y030513D01*
X041232Y030448D01*
X041267Y030381D01*
X041298Y030312D01*
X041327Y030241D01*
X041351Y030169D01*
X041372Y030096D01*
X041389Y030022D01*
X041403Y029947D01*
X041412Y029872D01*
X041418Y029796D01*
X041420Y029720D01*
X039920Y031220D02*
X001920Y031220D01*
X001844Y031218D01*
X001768Y031212D01*
X001693Y031203D01*
X001618Y031189D01*
X001544Y031172D01*
X001471Y031151D01*
X001399Y031127D01*
X001328Y031098D01*
X001259Y031067D01*
X001192Y031032D01*
X001127Y030993D01*
X001063Y030951D01*
X001002Y030906D01*
X000943Y030858D01*
X000887Y030807D01*
X000833Y030753D01*
X000782Y030697D01*
X000734Y030638D01*
X000689Y030577D01*
X000647Y030513D01*
X000608Y030448D01*
X000573Y030381D01*
X000542Y030312D01*
X000513Y030241D01*
X000489Y030169D01*
X000468Y030096D01*
X000451Y030022D01*
X000437Y029947D01*
X000428Y029872D01*
X000422Y029796D01*
X000420Y029720D01*
X000420Y002470D01*
X000422Y002394D01*
X000428Y002318D01*
X000437Y002243D01*
X000451Y002168D01*
X000468Y002094D01*
X000489Y002021D01*
X000513Y001949D01*
X000542Y001878D01*
X000573Y001809D01*
X000608Y001742D01*
X000647Y001677D01*
X000689Y001613D01*
X000734Y001552D01*
X000782Y001493D01*
X000833Y001437D01*
X000887Y001383D01*
X000943Y001332D01*
X001002Y001284D01*
X001063Y001239D01*
X001127Y001197D01*
X001192Y001158D01*
X001259Y001123D01*
X001328Y001092D01*
X001399Y001063D01*
X001471Y001039D01*
X001544Y001018D01*
X001618Y001001D01*
X001693Y000987D01*
X001768Y000978D01*
X001844Y000972D01*
X001920Y000970D01*
X001844Y000972D01*
X001768Y000978D01*
X001693Y000987D01*
X001618Y001001D01*
X001544Y001018D01*
X001471Y001039D01*
X001399Y001063D01*
X001328Y001092D01*
X001259Y001123D01*
X001192Y001158D01*
X001127Y001197D01*
X001063Y001239D01*
X001002Y001284D01*
X000943Y001332D01*
X000887Y001383D01*
X000833Y001437D01*
X000782Y001493D01*
X000734Y001552D01*
X000689Y001613D01*
X000647Y001677D01*
X000608Y001742D01*
X000573Y001809D01*
X000542Y001878D01*
X000513Y001949D01*
X000489Y002021D01*
X000468Y002094D01*
X000451Y002168D01*
X000437Y002243D01*
X000428Y002318D01*
X000422Y002394D01*
X000420Y002470D01*
X003526Y002598D02*
X003528Y002637D01*
X003534Y002676D01*
X003544Y002714D01*
X003557Y002751D01*
X003574Y002786D01*
X003594Y002820D01*
X003618Y002851D01*
X003645Y002880D01*
X003674Y002906D01*
X003706Y002929D01*
X003740Y002949D01*
X003776Y002965D01*
X003813Y002977D01*
X003852Y002986D01*
X003891Y002991D01*
X003930Y002992D01*
X003969Y002989D01*
X004008Y002982D01*
X004045Y002971D01*
X004082Y002957D01*
X004117Y002939D01*
X004150Y002918D01*
X004181Y002893D01*
X004209Y002866D01*
X004234Y002836D01*
X004256Y002803D01*
X004275Y002769D01*
X004290Y002733D01*
X004302Y002695D01*
X004310Y002657D01*
X004314Y002618D01*
X004314Y002578D01*
X004310Y002539D01*
X004302Y002501D01*
X004290Y002463D01*
X004275Y002427D01*
X004256Y002393D01*
X004234Y002360D01*
X004209Y002330D01*
X004181Y002303D01*
X004150Y002278D01*
X004117Y002257D01*
X004082Y002239D01*
X004045Y002225D01*
X004008Y002214D01*
X003969Y002207D01*
X003930Y002204D01*
X003891Y002205D01*
X003852Y002210D01*
X003813Y002219D01*
X003776Y002231D01*
X003740Y002247D01*
X003706Y002267D01*
X003674Y002290D01*
X003645Y002316D01*
X003618Y002345D01*
X003594Y002376D01*
X003574Y002410D01*
X003557Y002445D01*
X003544Y002482D01*
X003534Y002520D01*
X003528Y002559D01*
X003526Y002598D01*
X003526Y005354D02*
X003528Y005393D01*
X003534Y005432D01*
X003544Y005470D01*
X003557Y005507D01*
X003574Y005542D01*
X003594Y005576D01*
X003618Y005607D01*
X003645Y005636D01*
X003674Y005662D01*
X003706Y005685D01*
X003740Y005705D01*
X003776Y005721D01*
X003813Y005733D01*
X003852Y005742D01*
X003891Y005747D01*
X003930Y005748D01*
X003969Y005745D01*
X004008Y005738D01*
X004045Y005727D01*
X004082Y005713D01*
X004117Y005695D01*
X004150Y005674D01*
X004181Y005649D01*
X004209Y005622D01*
X004234Y005592D01*
X004256Y005559D01*
X004275Y005525D01*
X004290Y005489D01*
X004302Y005451D01*
X004310Y005413D01*
X004314Y005374D01*
X004314Y005334D01*
X004310Y005295D01*
X004302Y005257D01*
X004290Y005219D01*
X004275Y005183D01*
X004256Y005149D01*
X004234Y005116D01*
X004209Y005086D01*
X004181Y005059D01*
X004150Y005034D01*
X004117Y005013D01*
X004082Y004995D01*
X004045Y004981D01*
X004008Y004970D01*
X003969Y004963D01*
X003930Y004960D01*
X003891Y004961D01*
X003852Y004966D01*
X003813Y004975D01*
X003776Y004987D01*
X003740Y005003D01*
X003706Y005023D01*
X003674Y005046D01*
X003645Y005072D01*
X003618Y005101D01*
X003594Y005132D01*
X003574Y005166D01*
X003557Y005201D01*
X003544Y005238D01*
X003534Y005276D01*
X003528Y005315D01*
X003526Y005354D01*
X008526Y005354D02*
X008528Y005393D01*
X008534Y005432D01*
X008544Y005470D01*
X008557Y005507D01*
X008574Y005542D01*
X008594Y005576D01*
X008618Y005607D01*
X008645Y005636D01*
X008674Y005662D01*
X008706Y005685D01*
X008740Y005705D01*
X008776Y005721D01*
X008813Y005733D01*
X008852Y005742D01*
X008891Y005747D01*
X008930Y005748D01*
X008969Y005745D01*
X009008Y005738D01*
X009045Y005727D01*
X009082Y005713D01*
X009117Y005695D01*
X009150Y005674D01*
X009181Y005649D01*
X009209Y005622D01*
X009234Y005592D01*
X009256Y005559D01*
X009275Y005525D01*
X009290Y005489D01*
X009302Y005451D01*
X009310Y005413D01*
X009314Y005374D01*
X009314Y005334D01*
X009310Y005295D01*
X009302Y005257D01*
X009290Y005219D01*
X009275Y005183D01*
X009256Y005149D01*
X009234Y005116D01*
X009209Y005086D01*
X009181Y005059D01*
X009150Y005034D01*
X009117Y005013D01*
X009082Y004995D01*
X009045Y004981D01*
X009008Y004970D01*
X008969Y004963D01*
X008930Y004960D01*
X008891Y004961D01*
X008852Y004966D01*
X008813Y004975D01*
X008776Y004987D01*
X008740Y005003D01*
X008706Y005023D01*
X008674Y005046D01*
X008645Y005072D01*
X008618Y005101D01*
X008594Y005132D01*
X008574Y005166D01*
X008557Y005201D01*
X008544Y005238D01*
X008534Y005276D01*
X008528Y005315D01*
X008526Y005354D01*
X008526Y002598D02*
X008528Y002637D01*
X008534Y002676D01*
X008544Y002714D01*
X008557Y002751D01*
X008574Y002786D01*
X008594Y002820D01*
X008618Y002851D01*
X008645Y002880D01*
X008674Y002906D01*
X008706Y002929D01*
X008740Y002949D01*
X008776Y002965D01*
X008813Y002977D01*
X008852Y002986D01*
X008891Y002991D01*
X008930Y002992D01*
X008969Y002989D01*
X009008Y002982D01*
X009045Y002971D01*
X009082Y002957D01*
X009117Y002939D01*
X009150Y002918D01*
X009181Y002893D01*
X009209Y002866D01*
X009234Y002836D01*
X009256Y002803D01*
X009275Y002769D01*
X009290Y002733D01*
X009302Y002695D01*
X009310Y002657D01*
X009314Y002618D01*
X009314Y002578D01*
X009310Y002539D01*
X009302Y002501D01*
X009290Y002463D01*
X009275Y002427D01*
X009256Y002393D01*
X009234Y002360D01*
X009209Y002330D01*
X009181Y002303D01*
X009150Y002278D01*
X009117Y002257D01*
X009082Y002239D01*
X009045Y002225D01*
X009008Y002214D01*
X008969Y002207D01*
X008930Y002204D01*
X008891Y002205D01*
X008852Y002210D01*
X008813Y002219D01*
X008776Y002231D01*
X008740Y002247D01*
X008706Y002267D01*
X008674Y002290D01*
X008645Y002316D01*
X008618Y002345D01*
X008594Y002376D01*
X008574Y002410D01*
X008557Y002445D01*
X008544Y002482D01*
X008534Y002520D01*
X008528Y002559D01*
X008526Y002598D01*
X013526Y002598D02*
X013528Y002637D01*
X013534Y002676D01*
X013544Y002714D01*
X013557Y002751D01*
X013574Y002786D01*
X013594Y002820D01*
X013618Y002851D01*
X013645Y002880D01*
X013674Y002906D01*
X013706Y002929D01*
X013740Y002949D01*
X013776Y002965D01*
X013813Y002977D01*
X013852Y002986D01*
X013891Y002991D01*
X013930Y002992D01*
X013969Y002989D01*
X014008Y002982D01*
X014045Y002971D01*
X014082Y002957D01*
X014117Y002939D01*
X014150Y002918D01*
X014181Y002893D01*
X014209Y002866D01*
X014234Y002836D01*
X014256Y002803D01*
X014275Y002769D01*
X014290Y002733D01*
X014302Y002695D01*
X014310Y002657D01*
X014314Y002618D01*
X014314Y002578D01*
X014310Y002539D01*
X014302Y002501D01*
X014290Y002463D01*
X014275Y002427D01*
X014256Y002393D01*
X014234Y002360D01*
X014209Y002330D01*
X014181Y002303D01*
X014150Y002278D01*
X014117Y002257D01*
X014082Y002239D01*
X014045Y002225D01*
X014008Y002214D01*
X013969Y002207D01*
X013930Y002204D01*
X013891Y002205D01*
X013852Y002210D01*
X013813Y002219D01*
X013776Y002231D01*
X013740Y002247D01*
X013706Y002267D01*
X013674Y002290D01*
X013645Y002316D01*
X013618Y002345D01*
X013594Y002376D01*
X013574Y002410D01*
X013557Y002445D01*
X013544Y002482D01*
X013534Y002520D01*
X013528Y002559D01*
X013526Y002598D01*
X013526Y005354D02*
X013528Y005393D01*
X013534Y005432D01*
X013544Y005470D01*
X013557Y005507D01*
X013574Y005542D01*
X013594Y005576D01*
X013618Y005607D01*
X013645Y005636D01*
X013674Y005662D01*
X013706Y005685D01*
X013740Y005705D01*
X013776Y005721D01*
X013813Y005733D01*
X013852Y005742D01*
X013891Y005747D01*
X013930Y005748D01*
X013969Y005745D01*
X014008Y005738D01*
X014045Y005727D01*
X014082Y005713D01*
X014117Y005695D01*
X014150Y005674D01*
X014181Y005649D01*
X014209Y005622D01*
X014234Y005592D01*
X014256Y005559D01*
X014275Y005525D01*
X014290Y005489D01*
X014302Y005451D01*
X014310Y005413D01*
X014314Y005374D01*
X014314Y005334D01*
X014310Y005295D01*
X014302Y005257D01*
X014290Y005219D01*
X014275Y005183D01*
X014256Y005149D01*
X014234Y005116D01*
X014209Y005086D01*
X014181Y005059D01*
X014150Y005034D01*
X014117Y005013D01*
X014082Y004995D01*
X014045Y004981D01*
X014008Y004970D01*
X013969Y004963D01*
X013930Y004960D01*
X013891Y004961D01*
X013852Y004966D01*
X013813Y004975D01*
X013776Y004987D01*
X013740Y005003D01*
X013706Y005023D01*
X013674Y005046D01*
X013645Y005072D01*
X013618Y005101D01*
X013594Y005132D01*
X013574Y005166D01*
X013557Y005201D01*
X013544Y005238D01*
X013534Y005276D01*
X013528Y005315D01*
X013526Y005354D01*
X018526Y005354D02*
X018528Y005393D01*
X018534Y005432D01*
X018544Y005470D01*
X018557Y005507D01*
X018574Y005542D01*
X018594Y005576D01*
X018618Y005607D01*
X018645Y005636D01*
X018674Y005662D01*
X018706Y005685D01*
X018740Y005705D01*
X018776Y005721D01*
X018813Y005733D01*
X018852Y005742D01*
X018891Y005747D01*
X018930Y005748D01*
X018969Y005745D01*
X019008Y005738D01*
X019045Y005727D01*
X019082Y005713D01*
X019117Y005695D01*
X019150Y005674D01*
X019181Y005649D01*
X019209Y005622D01*
X019234Y005592D01*
X019256Y005559D01*
X019275Y005525D01*
X019290Y005489D01*
X019302Y005451D01*
X019310Y005413D01*
X019314Y005374D01*
X019314Y005334D01*
X019310Y005295D01*
X019302Y005257D01*
X019290Y005219D01*
X019275Y005183D01*
X019256Y005149D01*
X019234Y005116D01*
X019209Y005086D01*
X019181Y005059D01*
X019150Y005034D01*
X019117Y005013D01*
X019082Y004995D01*
X019045Y004981D01*
X019008Y004970D01*
X018969Y004963D01*
X018930Y004960D01*
X018891Y004961D01*
X018852Y004966D01*
X018813Y004975D01*
X018776Y004987D01*
X018740Y005003D01*
X018706Y005023D01*
X018674Y005046D01*
X018645Y005072D01*
X018618Y005101D01*
X018594Y005132D01*
X018574Y005166D01*
X018557Y005201D01*
X018544Y005238D01*
X018534Y005276D01*
X018528Y005315D01*
X018526Y005354D01*
X018526Y002598D02*
X018528Y002637D01*
X018534Y002676D01*
X018544Y002714D01*
X018557Y002751D01*
X018574Y002786D01*
X018594Y002820D01*
X018618Y002851D01*
X018645Y002880D01*
X018674Y002906D01*
X018706Y002929D01*
X018740Y002949D01*
X018776Y002965D01*
X018813Y002977D01*
X018852Y002986D01*
X018891Y002991D01*
X018930Y002992D01*
X018969Y002989D01*
X019008Y002982D01*
X019045Y002971D01*
X019082Y002957D01*
X019117Y002939D01*
X019150Y002918D01*
X019181Y002893D01*
X019209Y002866D01*
X019234Y002836D01*
X019256Y002803D01*
X019275Y002769D01*
X019290Y002733D01*
X019302Y002695D01*
X019310Y002657D01*
X019314Y002618D01*
X019314Y002578D01*
X019310Y002539D01*
X019302Y002501D01*
X019290Y002463D01*
X019275Y002427D01*
X019256Y002393D01*
X019234Y002360D01*
X019209Y002330D01*
X019181Y002303D01*
X019150Y002278D01*
X019117Y002257D01*
X019082Y002239D01*
X019045Y002225D01*
X019008Y002214D01*
X018969Y002207D01*
X018930Y002204D01*
X018891Y002205D01*
X018852Y002210D01*
X018813Y002219D01*
X018776Y002231D01*
X018740Y002247D01*
X018706Y002267D01*
X018674Y002290D01*
X018645Y002316D01*
X018618Y002345D01*
X018594Y002376D01*
X018574Y002410D01*
X018557Y002445D01*
X018544Y002482D01*
X018534Y002520D01*
X018528Y002559D01*
X018526Y002598D01*
X023526Y002598D02*
X023528Y002637D01*
X023534Y002676D01*
X023544Y002714D01*
X023557Y002751D01*
X023574Y002786D01*
X023594Y002820D01*
X023618Y002851D01*
X023645Y002880D01*
X023674Y002906D01*
X023706Y002929D01*
X023740Y002949D01*
X023776Y002965D01*
X023813Y002977D01*
X023852Y002986D01*
X023891Y002991D01*
X023930Y002992D01*
X023969Y002989D01*
X024008Y002982D01*
X024045Y002971D01*
X024082Y002957D01*
X024117Y002939D01*
X024150Y002918D01*
X024181Y002893D01*
X024209Y002866D01*
X024234Y002836D01*
X024256Y002803D01*
X024275Y002769D01*
X024290Y002733D01*
X024302Y002695D01*
X024310Y002657D01*
X024314Y002618D01*
X024314Y002578D01*
X024310Y002539D01*
X024302Y002501D01*
X024290Y002463D01*
X024275Y002427D01*
X024256Y002393D01*
X024234Y002360D01*
X024209Y002330D01*
X024181Y002303D01*
X024150Y002278D01*
X024117Y002257D01*
X024082Y002239D01*
X024045Y002225D01*
X024008Y002214D01*
X023969Y002207D01*
X023930Y002204D01*
X023891Y002205D01*
X023852Y002210D01*
X023813Y002219D01*
X023776Y002231D01*
X023740Y002247D01*
X023706Y002267D01*
X023674Y002290D01*
X023645Y002316D01*
X023618Y002345D01*
X023594Y002376D01*
X023574Y002410D01*
X023557Y002445D01*
X023544Y002482D01*
X023534Y002520D01*
X023528Y002559D01*
X023526Y002598D01*
X023526Y005354D02*
X023528Y005393D01*
X023534Y005432D01*
X023544Y005470D01*
X023557Y005507D01*
X023574Y005542D01*
X023594Y005576D01*
X023618Y005607D01*
X023645Y005636D01*
X023674Y005662D01*
X023706Y005685D01*
X023740Y005705D01*
X023776Y005721D01*
X023813Y005733D01*
X023852Y005742D01*
X023891Y005747D01*
X023930Y005748D01*
X023969Y005745D01*
X024008Y005738D01*
X024045Y005727D01*
X024082Y005713D01*
X024117Y005695D01*
X024150Y005674D01*
X024181Y005649D01*
X024209Y005622D01*
X024234Y005592D01*
X024256Y005559D01*
X024275Y005525D01*
X024290Y005489D01*
X024302Y005451D01*
X024310Y005413D01*
X024314Y005374D01*
X024314Y005334D01*
X024310Y005295D01*
X024302Y005257D01*
X024290Y005219D01*
X024275Y005183D01*
X024256Y005149D01*
X024234Y005116D01*
X024209Y005086D01*
X024181Y005059D01*
X024150Y005034D01*
X024117Y005013D01*
X024082Y004995D01*
X024045Y004981D01*
X024008Y004970D01*
X023969Y004963D01*
X023930Y004960D01*
X023891Y004961D01*
X023852Y004966D01*
X023813Y004975D01*
X023776Y004987D01*
X023740Y005003D01*
X023706Y005023D01*
X023674Y005046D01*
X023645Y005072D01*
X023618Y005101D01*
X023594Y005132D01*
X023574Y005166D01*
X023557Y005201D01*
X023544Y005238D01*
X023534Y005276D01*
X023528Y005315D01*
X023526Y005354D01*
X028526Y005354D02*
X028528Y005393D01*
X028534Y005432D01*
X028544Y005470D01*
X028557Y005507D01*
X028574Y005542D01*
X028594Y005576D01*
X028618Y005607D01*
X028645Y005636D01*
X028674Y005662D01*
X028706Y005685D01*
X028740Y005705D01*
X028776Y005721D01*
X028813Y005733D01*
X028852Y005742D01*
X028891Y005747D01*
X028930Y005748D01*
X028969Y005745D01*
X029008Y005738D01*
X029045Y005727D01*
X029082Y005713D01*
X029117Y005695D01*
X029150Y005674D01*
X029181Y005649D01*
X029209Y005622D01*
X029234Y005592D01*
X029256Y005559D01*
X029275Y005525D01*
X029290Y005489D01*
X029302Y005451D01*
X029310Y005413D01*
X029314Y005374D01*
X029314Y005334D01*
X029310Y005295D01*
X029302Y005257D01*
X029290Y005219D01*
X029275Y005183D01*
X029256Y005149D01*
X029234Y005116D01*
X029209Y005086D01*
X029181Y005059D01*
X029150Y005034D01*
X029117Y005013D01*
X029082Y004995D01*
X029045Y004981D01*
X029008Y004970D01*
X028969Y004963D01*
X028930Y004960D01*
X028891Y004961D01*
X028852Y004966D01*
X028813Y004975D01*
X028776Y004987D01*
X028740Y005003D01*
X028706Y005023D01*
X028674Y005046D01*
X028645Y005072D01*
X028618Y005101D01*
X028594Y005132D01*
X028574Y005166D01*
X028557Y005201D01*
X028544Y005238D01*
X028534Y005276D01*
X028528Y005315D01*
X028526Y005354D01*
X028526Y002598D02*
X028528Y002637D01*
X028534Y002676D01*
X028544Y002714D01*
X028557Y002751D01*
X028574Y002786D01*
X028594Y002820D01*
X028618Y002851D01*
X028645Y002880D01*
X028674Y002906D01*
X028706Y002929D01*
X028740Y002949D01*
X028776Y002965D01*
X028813Y002977D01*
X028852Y002986D01*
X028891Y002991D01*
X028930Y002992D01*
X028969Y002989D01*
X029008Y002982D01*
X029045Y002971D01*
X029082Y002957D01*
X029117Y002939D01*
X029150Y002918D01*
X029181Y002893D01*
X029209Y002866D01*
X029234Y002836D01*
X029256Y002803D01*
X029275Y002769D01*
X029290Y002733D01*
X029302Y002695D01*
X029310Y002657D01*
X029314Y002618D01*
X029314Y002578D01*
X029310Y002539D01*
X029302Y002501D01*
X029290Y002463D01*
X029275Y002427D01*
X029256Y002393D01*
X029234Y002360D01*
X029209Y002330D01*
X029181Y002303D01*
X029150Y002278D01*
X029117Y002257D01*
X029082Y002239D01*
X029045Y002225D01*
X029008Y002214D01*
X028969Y002207D01*
X028930Y002204D01*
X028891Y002205D01*
X028852Y002210D01*
X028813Y002219D01*
X028776Y002231D01*
X028740Y002247D01*
X028706Y002267D01*
X028674Y002290D01*
X028645Y002316D01*
X028618Y002345D01*
X028594Y002376D01*
X028574Y002410D01*
X028557Y002445D01*
X028544Y002482D01*
X028534Y002520D01*
X028528Y002559D01*
X028526Y002598D01*
X033526Y002598D02*
X033528Y002637D01*
X033534Y002676D01*
X033544Y002714D01*
X033557Y002751D01*
X033574Y002786D01*
X033594Y002820D01*
X033618Y002851D01*
X033645Y002880D01*
X033674Y002906D01*
X033706Y002929D01*
X033740Y002949D01*
X033776Y002965D01*
X033813Y002977D01*
X033852Y002986D01*
X033891Y002991D01*
X033930Y002992D01*
X033969Y002989D01*
X034008Y002982D01*
X034045Y002971D01*
X034082Y002957D01*
X034117Y002939D01*
X034150Y002918D01*
X034181Y002893D01*
X034209Y002866D01*
X034234Y002836D01*
X034256Y002803D01*
X034275Y002769D01*
X034290Y002733D01*
X034302Y002695D01*
X034310Y002657D01*
X034314Y002618D01*
X034314Y002578D01*
X034310Y002539D01*
X034302Y002501D01*
X034290Y002463D01*
X034275Y002427D01*
X034256Y002393D01*
X034234Y002360D01*
X034209Y002330D01*
X034181Y002303D01*
X034150Y002278D01*
X034117Y002257D01*
X034082Y002239D01*
X034045Y002225D01*
X034008Y002214D01*
X033969Y002207D01*
X033930Y002204D01*
X033891Y002205D01*
X033852Y002210D01*
X033813Y002219D01*
X033776Y002231D01*
X033740Y002247D01*
X033706Y002267D01*
X033674Y002290D01*
X033645Y002316D01*
X033618Y002345D01*
X033594Y002376D01*
X033574Y002410D01*
X033557Y002445D01*
X033544Y002482D01*
X033534Y002520D01*
X033528Y002559D01*
X033526Y002598D01*
X033526Y005354D02*
X033528Y005393D01*
X033534Y005432D01*
X033544Y005470D01*
X033557Y005507D01*
X033574Y005542D01*
X033594Y005576D01*
X033618Y005607D01*
X033645Y005636D01*
X033674Y005662D01*
X033706Y005685D01*
X033740Y005705D01*
X033776Y005721D01*
X033813Y005733D01*
X033852Y005742D01*
X033891Y005747D01*
X033930Y005748D01*
X033969Y005745D01*
X034008Y005738D01*
X034045Y005727D01*
X034082Y005713D01*
X034117Y005695D01*
X034150Y005674D01*
X034181Y005649D01*
X034209Y005622D01*
X034234Y005592D01*
X034256Y005559D01*
X034275Y005525D01*
X034290Y005489D01*
X034302Y005451D01*
X034310Y005413D01*
X034314Y005374D01*
X034314Y005334D01*
X034310Y005295D01*
X034302Y005257D01*
X034290Y005219D01*
X034275Y005183D01*
X034256Y005149D01*
X034234Y005116D01*
X034209Y005086D01*
X034181Y005059D01*
X034150Y005034D01*
X034117Y005013D01*
X034082Y004995D01*
X034045Y004981D01*
X034008Y004970D01*
X033969Y004963D01*
X033930Y004960D01*
X033891Y004961D01*
X033852Y004966D01*
X033813Y004975D01*
X033776Y004987D01*
X033740Y005003D01*
X033706Y005023D01*
X033674Y005046D01*
X033645Y005072D01*
X033618Y005101D01*
X033594Y005132D01*
X033574Y005166D01*
X033557Y005201D01*
X033544Y005238D01*
X033534Y005276D01*
X033528Y005315D01*
X033526Y005354D01*
X038526Y005354D02*
X038528Y005393D01*
X038534Y005432D01*
X038544Y005470D01*
X038557Y005507D01*
X038574Y005542D01*
X038594Y005576D01*
X038618Y005607D01*
X038645Y005636D01*
X038674Y005662D01*
X038706Y005685D01*
X038740Y005705D01*
X038776Y005721D01*
X038813Y005733D01*
X038852Y005742D01*
X038891Y005747D01*
X038930Y005748D01*
X038969Y005745D01*
X039008Y005738D01*
X039045Y005727D01*
X039082Y005713D01*
X039117Y005695D01*
X039150Y005674D01*
X039181Y005649D01*
X039209Y005622D01*
X039234Y005592D01*
X039256Y005559D01*
X039275Y005525D01*
X039290Y005489D01*
X039302Y005451D01*
X039310Y005413D01*
X039314Y005374D01*
X039314Y005334D01*
X039310Y005295D01*
X039302Y005257D01*
X039290Y005219D01*
X039275Y005183D01*
X039256Y005149D01*
X039234Y005116D01*
X039209Y005086D01*
X039181Y005059D01*
X039150Y005034D01*
X039117Y005013D01*
X039082Y004995D01*
X039045Y004981D01*
X039008Y004970D01*
X038969Y004963D01*
X038930Y004960D01*
X038891Y004961D01*
X038852Y004966D01*
X038813Y004975D01*
X038776Y004987D01*
X038740Y005003D01*
X038706Y005023D01*
X038674Y005046D01*
X038645Y005072D01*
X038618Y005101D01*
X038594Y005132D01*
X038574Y005166D01*
X038557Y005201D01*
X038544Y005238D01*
X038534Y005276D01*
X038528Y005315D01*
X038526Y005354D01*
X038526Y002598D02*
X038528Y002637D01*
X038534Y002676D01*
X038544Y002714D01*
X038557Y002751D01*
X038574Y002786D01*
X038594Y002820D01*
X038618Y002851D01*
X038645Y002880D01*
X038674Y002906D01*
X038706Y002929D01*
X038740Y002949D01*
X038776Y002965D01*
X038813Y002977D01*
X038852Y002986D01*
X038891Y002991D01*
X038930Y002992D01*
X038969Y002989D01*
X039008Y002982D01*
X039045Y002971D01*
X039082Y002957D01*
X039117Y002939D01*
X039150Y002918D01*
X039181Y002893D01*
X039209Y002866D01*
X039234Y002836D01*
X039256Y002803D01*
X039275Y002769D01*
X039290Y002733D01*
X039302Y002695D01*
X039310Y002657D01*
X039314Y002618D01*
X039314Y002578D01*
X039310Y002539D01*
X039302Y002501D01*
X039290Y002463D01*
X039275Y002427D01*
X039256Y002393D01*
X039234Y002360D01*
X039209Y002330D01*
X039181Y002303D01*
X039150Y002278D01*
X039117Y002257D01*
X039082Y002239D01*
X039045Y002225D01*
X039008Y002214D01*
X038969Y002207D01*
X038930Y002204D01*
X038891Y002205D01*
X038852Y002210D01*
X038813Y002219D01*
X038776Y002231D01*
X038740Y002247D01*
X038706Y002267D01*
X038674Y002290D01*
X038645Y002316D01*
X038618Y002345D01*
X038594Y002376D01*
X038574Y002410D01*
X038557Y002445D01*
X038544Y002482D01*
X038534Y002520D01*
X038528Y002559D01*
X038526Y002598D01*
X039270Y011220D02*
X039272Y011270D01*
X039278Y011320D01*
X039288Y011370D01*
X039301Y011418D01*
X039318Y011466D01*
X039339Y011512D01*
X039363Y011556D01*
X039391Y011598D01*
X039422Y011638D01*
X039456Y011675D01*
X039493Y011710D01*
X039532Y011741D01*
X039573Y011770D01*
X039617Y011795D01*
X039663Y011817D01*
X039710Y011835D01*
X039758Y011849D01*
X039807Y011860D01*
X039857Y011867D01*
X039907Y011870D01*
X039958Y011869D01*
X040008Y011864D01*
X040058Y011855D01*
X040106Y011843D01*
X040154Y011826D01*
X040200Y011806D01*
X040245Y011783D01*
X040288Y011756D01*
X040328Y011726D01*
X040366Y011693D01*
X040401Y011657D01*
X040434Y011618D01*
X040463Y011577D01*
X040489Y011534D01*
X040512Y011489D01*
X040531Y011442D01*
X040546Y011394D01*
X040558Y011345D01*
X040566Y011295D01*
X040570Y011245D01*
X040570Y011195D01*
X040566Y011145D01*
X040558Y011095D01*
X040546Y011046D01*
X040531Y010998D01*
X040512Y010951D01*
X040489Y010906D01*
X040463Y010863D01*
X040434Y010822D01*
X040401Y010783D01*
X040366Y010747D01*
X040328Y010714D01*
X040288Y010684D01*
X040245Y010657D01*
X040200Y010634D01*
X040154Y010614D01*
X040106Y010597D01*
X040058Y010585D01*
X040008Y010576D01*
X039958Y010571D01*
X039907Y010570D01*
X039857Y010573D01*
X039807Y010580D01*
X039758Y010591D01*
X039710Y010605D01*
X039663Y010623D01*
X039617Y010645D01*
X039573Y010670D01*
X039532Y010699D01*
X039493Y010730D01*
X039456Y010765D01*
X039422Y010802D01*
X039391Y010842D01*
X039363Y010884D01*
X039339Y010928D01*
X039318Y010974D01*
X039301Y011022D01*
X039288Y011070D01*
X039278Y011120D01*
X039272Y011170D01*
X039270Y011220D01*
X005270Y011220D02*
X005272Y011270D01*
X005278Y011320D01*
X005288Y011370D01*
X005301Y011418D01*
X005318Y011466D01*
X005339Y011512D01*
X005363Y011556D01*
X005391Y011598D01*
X005422Y011638D01*
X005456Y011675D01*
X005493Y011710D01*
X005532Y011741D01*
X005573Y011770D01*
X005617Y011795D01*
X005663Y011817D01*
X005710Y011835D01*
X005758Y011849D01*
X005807Y011860D01*
X005857Y011867D01*
X005907Y011870D01*
X005958Y011869D01*
X006008Y011864D01*
X006058Y011855D01*
X006106Y011843D01*
X006154Y011826D01*
X006200Y011806D01*
X006245Y011783D01*
X006288Y011756D01*
X006328Y011726D01*
X006366Y011693D01*
X006401Y011657D01*
X006434Y011618D01*
X006463Y011577D01*
X006489Y011534D01*
X006512Y011489D01*
X006531Y011442D01*
X006546Y011394D01*
X006558Y011345D01*
X006566Y011295D01*
X006570Y011245D01*
X006570Y011195D01*
X006566Y011145D01*
X006558Y011095D01*
X006546Y011046D01*
X006531Y010998D01*
X006512Y010951D01*
X006489Y010906D01*
X006463Y010863D01*
X006434Y010822D01*
X006401Y010783D01*
X006366Y010747D01*
X006328Y010714D01*
X006288Y010684D01*
X006245Y010657D01*
X006200Y010634D01*
X006154Y010614D01*
X006106Y010597D01*
X006058Y010585D01*
X006008Y010576D01*
X005958Y010571D01*
X005907Y010570D01*
X005857Y010573D01*
X005807Y010580D01*
X005758Y010591D01*
X005710Y010605D01*
X005663Y010623D01*
X005617Y010645D01*
X005573Y010670D01*
X005532Y010699D01*
X005493Y010730D01*
X005456Y010765D01*
X005422Y010802D01*
X005391Y010842D01*
X005363Y010884D01*
X005339Y010928D01*
X005318Y010974D01*
X005301Y011022D01*
X005288Y011070D01*
X005278Y011120D01*
X005272Y011170D01*
X005270Y011220D01*
X001520Y029720D02*
X001522Y029770D01*
X001528Y029820D01*
X001538Y029870D01*
X001551Y029918D01*
X001568Y029966D01*
X001589Y030012D01*
X001613Y030056D01*
X001641Y030098D01*
X001672Y030138D01*
X001706Y030175D01*
X001743Y030210D01*
X001782Y030241D01*
X001823Y030270D01*
X001867Y030295D01*
X001913Y030317D01*
X001960Y030335D01*
X002008Y030349D01*
X002057Y030360D01*
X002107Y030367D01*
X002157Y030370D01*
X002208Y030369D01*
X002258Y030364D01*
X002308Y030355D01*
X002356Y030343D01*
X002404Y030326D01*
X002450Y030306D01*
X002495Y030283D01*
X002538Y030256D01*
X002578Y030226D01*
X002616Y030193D01*
X002651Y030157D01*
X002684Y030118D01*
X002713Y030077D01*
X002739Y030034D01*
X002762Y029989D01*
X002781Y029942D01*
X002796Y029894D01*
X002808Y029845D01*
X002816Y029795D01*
X002820Y029745D01*
X002820Y029695D01*
X002816Y029645D01*
X002808Y029595D01*
X002796Y029546D01*
X002781Y029498D01*
X002762Y029451D01*
X002739Y029406D01*
X002713Y029363D01*
X002684Y029322D01*
X002651Y029283D01*
X002616Y029247D01*
X002578Y029214D01*
X002538Y029184D01*
X002495Y029157D01*
X002450Y029134D01*
X002404Y029114D01*
X002356Y029097D01*
X002308Y029085D01*
X002258Y029076D01*
X002208Y029071D01*
X002157Y029070D01*
X002107Y029073D01*
X002057Y029080D01*
X002008Y029091D01*
X001960Y029105D01*
X001913Y029123D01*
X001867Y029145D01*
X001823Y029170D01*
X001782Y029199D01*
X001743Y029230D01*
X001706Y029265D01*
X001672Y029302D01*
X001641Y029342D01*
X001613Y029384D01*
X001589Y029428D01*
X001568Y029474D01*
X001551Y029522D01*
X001538Y029570D01*
X001528Y029620D01*
X001522Y029670D01*
X001520Y029720D01*
D11*
X013920Y029970D03*
X014920Y029970D03*
X015920Y029970D03*
X016920Y029970D03*
X017920Y029970D03*
X018920Y029970D03*
X020920Y029970D03*
X021920Y029970D03*
X022920Y029970D03*
X023920Y029970D03*
X024920Y029970D03*
X025920Y029970D03*
X025670Y010970D03*
X026670Y010970D03*
X027670Y010970D03*
X028670Y010970D03*
X029670Y010970D03*
X024670Y010970D03*
X023670Y010970D03*
X022670Y010970D03*
X020920Y010970D03*
X019920Y010970D03*
X018920Y010970D03*
X017920Y010970D03*
X016920Y010970D03*
X015920Y010970D03*
X014920Y010970D03*
X013920Y010970D03*
D12*
X002670Y011470D03*
X001670Y027970D03*
X037920Y011970D03*
D13*
X037420Y009324D03*
X037420Y008616D03*
X036420Y008616D03*
X036420Y009324D03*
X035420Y009324D03*
X035420Y008616D03*
X034420Y008616D03*
X034420Y009324D03*
X033420Y009324D03*
X033420Y008616D03*
X032420Y008616D03*
X032420Y009324D03*
X031420Y009324D03*
X031420Y008616D03*
X030420Y008616D03*
X030420Y009324D03*
X029420Y009324D03*
X029420Y008616D03*
X028420Y008616D03*
X028420Y009324D03*
X027420Y009324D03*
X027420Y008616D03*
X026420Y008616D03*
X026420Y009324D03*
X025420Y009324D03*
X025420Y008616D03*
X024420Y008616D03*
X024420Y009324D03*
X023420Y009324D03*
X023420Y008616D03*
X022420Y008616D03*
X022420Y009324D03*
X021420Y009324D03*
X021420Y008616D03*
X020420Y008616D03*
X020420Y009324D03*
X019420Y009324D03*
X019420Y008616D03*
X018420Y008616D03*
X018420Y009324D03*
X017420Y009324D03*
X017420Y008616D03*
X016420Y008616D03*
X016420Y009324D03*
X015420Y009324D03*
X015420Y008616D03*
X014420Y008616D03*
X014420Y009324D03*
X013420Y009324D03*
X013420Y008616D03*
X012420Y008616D03*
X012420Y009324D03*
X011420Y009324D03*
X011420Y008616D03*
X010420Y008616D03*
X010420Y009324D03*
X009420Y009324D03*
X009420Y008616D03*
X008420Y008616D03*
X008420Y009324D03*
X007420Y009324D03*
X007420Y008616D03*
X006420Y008616D03*
X006420Y009324D03*
X005420Y009324D03*
X005420Y008616D03*
X004420Y008616D03*
X004420Y009324D03*
X003420Y009324D03*
X003420Y008616D03*
X002420Y008616D03*
X002420Y009324D03*
X001420Y009324D03*
X001420Y008616D03*
X038420Y008616D03*
X038420Y009324D03*
X039420Y009324D03*
X039420Y008616D03*
X040420Y008616D03*
X040420Y009324D03*
D14*
X026420Y014980D02*
X026420Y015460D01*
X025420Y015460D02*
X025420Y014980D01*
X024420Y014980D02*
X024420Y015460D01*
X023420Y015460D02*
X023420Y014980D01*
X022420Y014980D02*
X022420Y015460D01*
X021420Y015460D02*
X021420Y014980D01*
X020420Y014980D02*
X020420Y015460D01*
X019420Y015460D02*
X019420Y014980D01*
X019420Y017980D02*
X019420Y018460D01*
X020420Y018460D02*
X020420Y017980D01*
X021420Y017980D02*
X021420Y018460D01*
X022420Y018460D02*
X022420Y017980D01*
X023420Y017980D02*
X023420Y018460D01*
X024420Y018460D02*
X024420Y017980D01*
X025420Y017980D02*
X025420Y018460D01*
X026420Y018460D02*
X026420Y017980D01*
D15*
X017170Y019045D03*
X017170Y019645D03*
X001420Y007270D03*
X001420Y006670D03*
D16*
X015316Y017470D03*
X016024Y017470D03*
X016024Y018345D03*
X015316Y018345D03*
X018753Y019470D03*
X019462Y019470D03*
X023816Y012470D03*
X024524Y012470D03*
D17*
X017681Y016770D02*
X017221Y016770D01*
X017221Y017470D02*
X017681Y017470D01*
X017681Y018170D02*
X017221Y018170D01*
D18*
X015278Y005826D03*
X017562Y002913D03*
X015278Y002204D03*
X012562Y002913D03*
X010278Y002204D03*
X007562Y002913D03*
X005278Y002204D03*
X002562Y002913D03*
X005278Y005826D03*
X010278Y005826D03*
X020278Y005826D03*
X022562Y002913D03*
X020278Y002204D03*
X025278Y002204D03*
X027562Y002913D03*
X030278Y002204D03*
X032562Y002913D03*
X035278Y002204D03*
X037562Y002913D03*
X040278Y002204D03*
X040278Y005826D03*
X035278Y005826D03*
X030278Y005826D03*
X025278Y005826D03*
D19*
X023625Y007421D03*
X028625Y007421D03*
X033625Y007421D03*
X038625Y007421D03*
X018625Y007421D03*
X013625Y007421D03*
X008625Y007421D03*
X003625Y007421D03*
D20*
X002562Y001811D03*
X007562Y001811D03*
X012562Y001811D03*
X017562Y001811D03*
X022562Y001811D03*
X027562Y001811D03*
X032562Y001811D03*
X037562Y001811D03*
D21*
X029920Y021470D03*
X028920Y021470D03*
X027920Y021470D03*
X026920Y021470D03*
X025920Y021470D03*
X024920Y021470D03*
X023920Y021470D03*
X022920Y021470D03*
X021920Y021470D03*
X020920Y021470D03*
X019920Y021470D03*
X018920Y021470D03*
X017920Y021470D03*
X016920Y021470D03*
X015920Y021470D03*
X014920Y021470D03*
X014920Y026470D03*
X013920Y026470D03*
X015920Y026470D03*
X016920Y026470D03*
X017920Y026470D03*
X018920Y026470D03*
X020920Y026470D03*
X021920Y026470D03*
X022920Y026470D03*
X023920Y026470D03*
X024920Y026470D03*
X025920Y026470D03*
D22*
X001445Y001324D02*
X001165Y001486D01*
X000936Y001715D01*
X000774Y001995D01*
X000691Y002308D01*
X000680Y002470D01*
X000680Y007536D01*
X000750Y007466D01*
X000750Y007466D01*
X000885Y007331D01*
X000885Y006349D01*
X001014Y006220D01*
X001120Y006220D01*
X001120Y003910D01*
X001166Y003800D01*
X001850Y003116D01*
X001850Y002428D01*
X001978Y002299D01*
X003145Y002299D01*
X003274Y002428D01*
X003274Y002450D01*
X003366Y002228D01*
X003550Y002044D01*
X003790Y001944D01*
X004050Y001944D01*
X004290Y002044D01*
X004474Y002228D01*
X004574Y002468D01*
X004574Y002728D01*
X004474Y002968D01*
X004290Y003152D01*
X004247Y003170D01*
X006796Y003170D01*
X006850Y003116D01*
X006850Y002428D01*
X006978Y002299D01*
X008145Y002299D01*
X008274Y002428D01*
X008274Y002450D01*
X008366Y002228D01*
X008550Y002044D01*
X008790Y001944D01*
X009050Y001944D01*
X009290Y002044D01*
X009474Y002228D01*
X009574Y002468D01*
X009574Y002728D01*
X009474Y002968D01*
X009290Y003152D01*
X009247Y003170D01*
X011796Y003170D01*
X011850Y003116D01*
X011850Y002428D01*
X011978Y002299D01*
X013145Y002299D01*
X013274Y002428D01*
X013274Y002450D01*
X013366Y002228D01*
X013550Y002044D01*
X013790Y001944D01*
X014050Y001944D01*
X014290Y002044D01*
X014474Y002228D01*
X014574Y002468D01*
X014574Y002728D01*
X014474Y002968D01*
X014290Y003152D01*
X014247Y003170D01*
X016796Y003170D01*
X016850Y003116D01*
X016850Y002428D01*
X016978Y002299D01*
X018145Y002299D01*
X018274Y002428D01*
X018274Y002450D01*
X018366Y002228D01*
X018550Y002044D01*
X018790Y001944D01*
X019050Y001944D01*
X019290Y002044D01*
X019474Y002228D01*
X019574Y002468D01*
X019574Y002728D01*
X019474Y002968D01*
X019290Y003152D01*
X019247Y003170D01*
X021796Y003170D01*
X021850Y003116D01*
X021850Y002428D01*
X021978Y002299D01*
X023145Y002299D01*
X023274Y002428D01*
X023274Y002450D01*
X023366Y002228D01*
X023550Y002044D01*
X023790Y001944D01*
X024050Y001944D01*
X024290Y002044D01*
X024474Y002228D01*
X024574Y002468D01*
X024574Y002728D01*
X024474Y002968D01*
X024290Y003152D01*
X024247Y003170D01*
X026796Y003170D01*
X026850Y003116D01*
X026850Y002428D01*
X026978Y002299D01*
X028145Y002299D01*
X028274Y002428D01*
X028274Y002450D01*
X028366Y002228D01*
X028550Y002044D01*
X028790Y001944D01*
X029050Y001944D01*
X029290Y002044D01*
X029474Y002228D01*
X029574Y002468D01*
X029574Y002728D01*
X029474Y002968D01*
X029290Y003152D01*
X029247Y003170D01*
X031796Y003170D01*
X031850Y003116D01*
X031850Y002428D01*
X031978Y002299D01*
X033145Y002299D01*
X033274Y002428D01*
X033274Y002450D01*
X033366Y002228D01*
X033550Y002044D01*
X033790Y001944D01*
X034050Y001944D01*
X034290Y002044D01*
X034474Y002228D01*
X034574Y002468D01*
X034574Y002728D01*
X034474Y002968D01*
X034290Y003152D01*
X034247Y003170D01*
X036796Y003170D01*
X036850Y003116D01*
X036850Y002428D01*
X036978Y002299D01*
X038145Y002299D01*
X038274Y002428D01*
X038274Y002450D01*
X038366Y002228D01*
X038550Y002044D01*
X038790Y001944D01*
X039050Y001944D01*
X039290Y002044D01*
X039474Y002228D01*
X039574Y002468D01*
X039574Y002728D01*
X039474Y002968D01*
X039290Y003152D01*
X039050Y003252D01*
X038790Y003252D01*
X038550Y003152D01*
X038366Y002968D01*
X038274Y002746D01*
X038274Y003398D01*
X038145Y003527D01*
X037288Y003527D01*
X037090Y003724D01*
X036980Y003770D01*
X033110Y003770D01*
X033000Y003724D01*
X032916Y003640D01*
X032802Y003527D01*
X032288Y003527D01*
X032090Y003724D01*
X031980Y003770D01*
X028110Y003770D01*
X028000Y003724D01*
X027916Y003640D01*
X027802Y003527D01*
X027288Y003527D01*
X027090Y003724D01*
X026980Y003770D01*
X026980Y009024D01*
X027015Y009024D02*
X027093Y008947D01*
X027747Y008947D01*
X027876Y009076D01*
X027876Y009252D01*
X028044Y009420D01*
X028044Y009343D01*
X028401Y009343D01*
X028401Y009306D01*
X028044Y009306D01*
X028044Y009148D01*
X028053Y009113D01*
X028072Y009081D01*
X028098Y009055D01*
X028130Y009036D01*
X028165Y009027D01*
X028401Y009027D01*
X028401Y009306D01*
X028439Y009306D01*
X028439Y009343D01*
X028796Y009343D01*
X028796Y009420D01*
X028964Y009252D01*
X028964Y009076D01*
X029070Y008970D01*
X029015Y008916D01*
X028825Y008916D01*
X028747Y008993D01*
X028093Y008993D01*
X027964Y008864D01*
X027964Y008367D01*
X028093Y008238D01*
X028747Y008238D01*
X028825Y008316D01*
X029015Y008316D01*
X029093Y008238D01*
X029120Y008238D01*
X029120Y008234D01*
X029082Y008196D01*
X029056Y008133D01*
X028140Y008133D01*
X028011Y008004D01*
X028011Y006838D01*
X028140Y006709D01*
X029110Y006709D01*
X029238Y006838D01*
X029238Y007614D01*
X029341Y007571D01*
X029499Y007571D01*
X029646Y007632D01*
X029758Y007744D01*
X029819Y007891D01*
X029819Y008049D01*
X029758Y008196D01*
X029720Y008234D01*
X029720Y008238D01*
X029747Y008238D01*
X029876Y008367D01*
X029876Y008864D01*
X029770Y008970D01*
X030070Y008970D01*
X029964Y008864D01*
X029964Y008367D01*
X030093Y008238D01*
X030120Y008238D01*
X030120Y006440D01*
X029695Y006440D01*
X029566Y006311D01*
X029566Y005502D01*
X029474Y005724D01*
X029290Y005908D01*
X029050Y006008D01*
X028790Y006008D01*
X028550Y005908D01*
X028366Y005724D01*
X028266Y005484D01*
X028266Y005224D01*
X028366Y004984D01*
X028550Y004800D01*
X028790Y004700D01*
X029050Y004700D01*
X029290Y004800D01*
X029474Y004984D01*
X029574Y005224D01*
X029574Y005334D01*
X029695Y005213D01*
X030862Y005213D01*
X030990Y005341D01*
X030990Y006311D01*
X030862Y006440D01*
X030720Y006440D01*
X030720Y008238D01*
X030747Y008238D01*
X030876Y008367D01*
X030876Y008864D01*
X030770Y008970D01*
X030876Y009076D01*
X030876Y009573D01*
X030747Y009702D01*
X030093Y009702D01*
X030015Y009624D01*
X029825Y009624D01*
X029747Y009702D01*
X029362Y009702D01*
X029174Y009890D01*
X029090Y009974D01*
X028980Y010020D01*
X027860Y010020D01*
X027750Y009974D01*
X027478Y009702D01*
X027093Y009702D01*
X027015Y009624D01*
X026825Y009624D01*
X026747Y009702D01*
X026093Y009702D01*
X025964Y009573D01*
X025964Y009076D01*
X026070Y008970D01*
X025770Y008970D01*
X025876Y009076D01*
X025876Y009573D01*
X025747Y009702D01*
X025093Y009702D01*
X025015Y009624D01*
X024825Y009624D01*
X024747Y009702D01*
X024362Y009702D01*
X024332Y009733D01*
X027323Y009733D01*
X027434Y009778D01*
X027840Y010184D01*
X027924Y010269D01*
X027970Y010379D01*
X027970Y010605D01*
X028140Y010775D01*
X028140Y011165D01*
X027865Y011440D01*
X027475Y011440D01*
X027470Y011435D01*
X027470Y011530D01*
X029370Y011530D01*
X029370Y011335D02*
X029200Y011165D01*
X029200Y010775D01*
X029475Y010500D01*
X029865Y010500D01*
X030140Y010775D01*
X030140Y011165D01*
X029970Y011335D01*
X029970Y018970D01*
X041160Y018970D01*
X041160Y002470D01*
X041149Y002308D01*
X041066Y001995D01*
X040904Y001715D01*
X040675Y001486D01*
X040395Y001324D01*
X040082Y001241D01*
X039920Y001230D01*
X001920Y001230D01*
X001758Y001241D01*
X001445Y001324D01*
X001445Y001324D01*
X001380Y001362D02*
X001380Y003586D01*
X001436Y003530D02*
X000680Y003530D01*
X000680Y003210D02*
X001756Y003210D01*
X001700Y003266D02*
X001700Y001256D01*
X001574Y001290D02*
X040266Y001290D01*
X040420Y001339D02*
X040420Y001671D01*
X040338Y001671D02*
X040789Y001671D01*
X040824Y001680D01*
X040856Y001699D01*
X040882Y001725D01*
X040901Y001757D01*
X040910Y001792D01*
X040910Y002144D01*
X040338Y002144D01*
X040338Y001671D01*
X040218Y001671D02*
X040218Y002144D01*
X040338Y002144D01*
X040338Y002264D01*
X040218Y002264D01*
X040218Y002144D01*
X039646Y002144D01*
X039646Y001792D01*
X039656Y001757D01*
X039674Y001725D01*
X039700Y001699D01*
X039732Y001680D01*
X039768Y001671D01*
X040218Y001671D01*
X040100Y001671D02*
X040100Y001245D01*
X039780Y001230D02*
X039780Y001671D01*
X039646Y001930D02*
X038274Y001930D01*
X038274Y002138D02*
X038274Y001483D01*
X038145Y001354D01*
X036978Y001354D01*
X036850Y001483D01*
X036850Y002138D01*
X036978Y002267D01*
X038145Y002267D01*
X038274Y002138D01*
X038180Y002232D02*
X038180Y002334D01*
X038162Y002250D02*
X038357Y002250D01*
X038500Y002093D02*
X038500Y001230D01*
X038820Y001230D02*
X038820Y001944D01*
X039140Y001982D02*
X039140Y001230D01*
X039460Y001230D02*
X039460Y002213D01*
X039483Y002250D02*
X040218Y002250D01*
X040218Y002264D02*
X039646Y002264D01*
X039646Y002616D01*
X039656Y002652D01*
X039674Y002684D01*
X039700Y002710D01*
X039732Y002728D01*
X039768Y002738D01*
X040218Y002738D01*
X040218Y002264D01*
X040100Y002264D02*
X040100Y002144D01*
X040218Y001930D02*
X040338Y001930D01*
X040420Y002144D02*
X040420Y002264D01*
X040338Y002264D02*
X040910Y002264D01*
X040910Y002616D01*
X040901Y002652D01*
X040882Y002684D01*
X040856Y002710D01*
X040824Y002728D01*
X040789Y002738D01*
X040338Y002738D01*
X040338Y002264D01*
X040338Y002250D02*
X041134Y002250D01*
X041060Y001986D02*
X041060Y018970D01*
X041160Y018890D02*
X029970Y018890D01*
X030180Y018970D02*
X030180Y009702D01*
X030500Y009702D02*
X030500Y018970D01*
X030820Y018970D02*
X030820Y009629D01*
X030839Y009610D02*
X031001Y009610D01*
X030964Y009573D02*
X031093Y009702D01*
X031747Y009702D01*
X031825Y009624D01*
X032015Y009624D01*
X032093Y009702D01*
X032478Y009702D01*
X032666Y009890D01*
X032750Y009974D01*
X032860Y010020D01*
X033980Y010020D01*
X034090Y009974D01*
X034174Y009890D01*
X034362Y009702D01*
X034747Y009702D01*
X034825Y009624D01*
X035015Y009624D01*
X035093Y009702D01*
X035747Y009702D01*
X035876Y009573D01*
X035876Y009076D01*
X035770Y008970D01*
X035876Y008864D01*
X035876Y008367D01*
X035747Y008238D01*
X035720Y008238D01*
X035720Y006440D01*
X035862Y006440D01*
X035990Y006311D01*
X035990Y005341D01*
X035862Y005213D01*
X034695Y005213D01*
X034574Y005334D01*
X034574Y005224D01*
X034474Y004984D01*
X034290Y004800D01*
X034050Y004700D01*
X033790Y004700D01*
X033550Y004800D01*
X033366Y004984D01*
X033266Y005224D01*
X033266Y005484D01*
X033366Y005724D01*
X033550Y005908D01*
X033790Y006008D01*
X034050Y006008D01*
X034290Y005908D01*
X034474Y005724D01*
X034566Y005502D01*
X034566Y006311D01*
X034695Y006440D01*
X035120Y006440D01*
X035120Y008238D01*
X035093Y008238D01*
X034964Y008367D01*
X034964Y008864D01*
X035070Y008970D01*
X035015Y009024D01*
X034825Y009024D01*
X034770Y008970D01*
X035070Y008970D01*
X034980Y009024D02*
X034980Y008880D01*
X034876Y008864D02*
X034770Y008970D01*
X034876Y008864D02*
X034876Y008367D01*
X034747Y008238D01*
X034720Y008238D01*
X034720Y008234D01*
X034758Y008196D01*
X034819Y008049D01*
X034819Y007891D01*
X034758Y007744D01*
X034646Y007632D01*
X034499Y007571D01*
X034341Y007571D01*
X034238Y007614D01*
X034238Y006838D01*
X034110Y006709D01*
X033140Y006709D01*
X033011Y006838D01*
X033011Y008004D01*
X033140Y008133D01*
X034056Y008133D01*
X034082Y008196D01*
X034120Y008234D01*
X034120Y008238D01*
X034093Y008238D01*
X034015Y008316D01*
X033825Y008316D01*
X033747Y008238D01*
X033093Y008238D01*
X032964Y008367D01*
X032964Y008864D01*
X033093Y008993D01*
X033747Y008993D01*
X033825Y008916D01*
X034015Y008916D01*
X034070Y008970D01*
X033964Y009076D01*
X033964Y009252D01*
X033796Y009420D01*
X033796Y009343D01*
X033439Y009343D01*
X033439Y009306D01*
X033796Y009306D01*
X033796Y009148D01*
X033787Y009113D01*
X033768Y009081D01*
X033742Y009055D01*
X033710Y009036D01*
X033675Y009027D01*
X033439Y009027D01*
X033439Y009306D01*
X033401Y009306D01*
X033044Y009306D01*
X033044Y009148D01*
X033053Y009113D01*
X033072Y009081D01*
X033098Y009055D01*
X033130Y009036D01*
X033165Y009027D01*
X033401Y009027D01*
X033401Y009306D01*
X033401Y009343D01*
X033044Y009343D01*
X033044Y009420D01*
X032876Y009252D01*
X032876Y009076D01*
X032747Y008947D01*
X032093Y008947D01*
X032015Y009024D01*
X031825Y009024D01*
X031770Y008970D01*
X032070Y008970D01*
X032100Y008947D02*
X032100Y008886D01*
X032098Y008885D02*
X032072Y008859D01*
X032053Y008827D01*
X032044Y008792D01*
X032044Y008634D01*
X032401Y008634D01*
X032401Y008597D01*
X032044Y008597D01*
X032044Y008440D01*
X032053Y008404D01*
X032072Y008372D01*
X032098Y008346D01*
X032130Y008328D01*
X032165Y008318D01*
X032401Y008318D01*
X032401Y008597D01*
X032439Y008597D01*
X032439Y008634D01*
X032796Y008634D01*
X032796Y008792D01*
X032787Y008827D01*
X032768Y008859D01*
X032742Y008885D01*
X032710Y008904D01*
X032675Y008913D01*
X032439Y008913D01*
X032439Y008634D01*
X032401Y008634D01*
X032401Y008913D01*
X032165Y008913D01*
X032130Y008904D01*
X032098Y008885D01*
X031876Y008864D02*
X031770Y008970D01*
X031780Y008960D02*
X031780Y008980D01*
X031876Y008864D02*
X031876Y008367D01*
X031747Y008238D01*
X031720Y008238D01*
X031720Y008234D01*
X031758Y008196D01*
X031819Y008049D01*
X031819Y007891D01*
X031758Y007744D01*
X031646Y007632D01*
X031499Y007571D01*
X031341Y007571D01*
X031194Y007632D01*
X031082Y007744D01*
X031021Y007891D01*
X031021Y008049D01*
X031082Y008196D01*
X031120Y008234D01*
X031120Y008238D01*
X031093Y008238D01*
X030964Y008367D01*
X030964Y008864D01*
X031070Y008970D01*
X030770Y008970D01*
X030820Y008920D02*
X030820Y009020D01*
X030964Y009076D02*
X030964Y009573D01*
X031140Y009702D02*
X031140Y018970D01*
X031460Y018970D02*
X031460Y009702D01*
X031780Y009669D02*
X031780Y018970D01*
X032100Y018970D02*
X032100Y009702D01*
X032420Y009702D02*
X032420Y018970D01*
X032740Y018970D02*
X032740Y009964D01*
X032706Y009930D02*
X029134Y009930D01*
X029174Y009890D02*
X029174Y009890D01*
X029220Y009844D02*
X029220Y010755D01*
X029140Y010775D02*
X028865Y010500D01*
X028475Y010500D01*
X028200Y010775D01*
X028200Y011165D01*
X028475Y011440D01*
X028865Y011440D01*
X029140Y011165D01*
X029140Y010775D01*
X029140Y010890D02*
X029200Y010890D01*
X029220Y011185D02*
X029220Y018970D01*
X029370Y018970D02*
X029370Y011335D01*
X029245Y011210D02*
X029095Y011210D01*
X028900Y011405D02*
X028900Y018970D01*
X028580Y018970D02*
X028580Y011440D01*
X028260Y011225D02*
X028260Y018970D01*
X027940Y018970D02*
X027940Y011365D01*
X028095Y011210D02*
X028245Y011210D01*
X028200Y010890D02*
X028140Y010890D01*
X028260Y010715D02*
X028260Y010020D01*
X027940Y010020D02*
X027940Y010307D01*
X027906Y010250D02*
X039690Y010250D01*
X039745Y010230D02*
X039417Y010349D01*
X039417Y010349D01*
X039150Y010574D01*
X039150Y010574D01*
X038975Y010876D01*
X038975Y010876D01*
X038915Y011220D01*
X038915Y011220D01*
X038975Y011564D01*
X038975Y011564D01*
X039150Y011866D01*
X039150Y011866D01*
X039150Y011866D01*
X039417Y012091D01*
X039417Y012091D01*
X039745Y012210D01*
X039745Y012210D01*
X039868Y012210D01*
X040095Y012210D01*
X040423Y012091D01*
X040423Y012091D01*
X040690Y011866D01*
X040690Y011866D01*
X040865Y011564D01*
X040865Y011564D01*
X040925Y011220D01*
X040925Y011220D01*
X040865Y010876D01*
X040865Y010876D01*
X040690Y010574D01*
X040690Y010574D01*
X040690Y010574D01*
X040423Y010349D01*
X040423Y010349D01*
X040095Y010230D01*
X039745Y010230D01*
X039780Y010230D02*
X039780Y009669D01*
X039747Y009702D02*
X039467Y009702D01*
X039194Y009974D01*
X039084Y010020D01*
X037860Y010020D01*
X037860Y011455D01*
X037818Y011455D02*
X038022Y011455D01*
X038212Y011533D01*
X038357Y011678D01*
X038435Y011868D01*
X038435Y012072D01*
X038357Y012262D01*
X038212Y012407D01*
X038022Y012485D01*
X037818Y012485D01*
X037628Y012407D01*
X037483Y012262D01*
X037405Y012072D01*
X037405Y011868D01*
X037483Y011678D01*
X037628Y011533D01*
X037818Y011455D01*
X037636Y011530D02*
X029970Y011530D01*
X029970Y011850D02*
X037412Y011850D01*
X037540Y011621D02*
X037540Y009764D01*
X037478Y009702D02*
X037093Y009702D01*
X037015Y009624D01*
X036825Y009624D01*
X036747Y009702D01*
X036093Y009702D01*
X035964Y009573D01*
X035964Y009076D01*
X036070Y008970D01*
X035964Y008864D01*
X035964Y008367D01*
X036093Y008238D01*
X036120Y008238D01*
X036120Y008234D01*
X036082Y008196D01*
X036021Y008049D01*
X036021Y007891D01*
X036082Y007744D01*
X036194Y007632D01*
X036341Y007571D01*
X036499Y007571D01*
X036646Y007632D01*
X036758Y007744D01*
X036819Y007891D01*
X036819Y008049D01*
X036758Y008196D01*
X036720Y008234D01*
X036720Y008238D01*
X036747Y008238D01*
X036876Y008367D01*
X036876Y008864D01*
X036770Y008970D01*
X036825Y009024D01*
X037015Y009024D01*
X037093Y008947D01*
X037747Y008947D01*
X037876Y009076D01*
X037876Y009252D01*
X038044Y009420D01*
X038044Y009343D01*
X038401Y009343D01*
X038401Y009306D01*
X038044Y009306D01*
X038044Y009148D01*
X038053Y009113D01*
X038072Y009081D01*
X038098Y009055D01*
X038130Y009036D01*
X038165Y009027D01*
X038401Y009027D01*
X038401Y009306D01*
X038439Y009306D01*
X038439Y009343D01*
X038796Y009343D01*
X038796Y009420D01*
X038900Y009420D01*
X038964Y009356D01*
X038964Y009076D01*
X039070Y008970D01*
X039015Y008916D01*
X038825Y008916D01*
X038747Y008993D01*
X038093Y008993D01*
X037964Y008864D01*
X037964Y008367D01*
X038093Y008238D01*
X038747Y008238D01*
X038825Y008316D01*
X039015Y008316D01*
X039093Y008238D01*
X039120Y008238D01*
X039120Y008234D01*
X039082Y008196D01*
X039056Y008133D01*
X038140Y008133D01*
X038011Y008004D01*
X038011Y006838D01*
X038140Y006709D01*
X039110Y006709D01*
X039238Y006838D01*
X039238Y007614D01*
X039341Y007571D01*
X039499Y007571D01*
X039646Y007632D01*
X039758Y007744D01*
X039819Y007891D01*
X039819Y008049D01*
X039758Y008196D01*
X039720Y008234D01*
X039720Y008238D01*
X039747Y008238D01*
X039876Y008367D01*
X039876Y008864D01*
X039770Y008970D01*
X040070Y008970D01*
X039964Y008864D01*
X039964Y008367D01*
X040093Y008238D01*
X040120Y008238D01*
X040120Y006440D01*
X039695Y006440D01*
X039566Y006311D01*
X039566Y005502D01*
X039474Y005724D01*
X039290Y005908D01*
X039050Y006008D01*
X038790Y006008D01*
X038550Y005908D01*
X038366Y005724D01*
X038266Y005484D01*
X038266Y005224D01*
X038366Y004984D01*
X038550Y004800D01*
X038790Y004700D01*
X039050Y004700D01*
X039290Y004800D01*
X039474Y004984D01*
X039574Y005224D01*
X039574Y005334D01*
X039695Y005213D01*
X040862Y005213D01*
X040990Y005341D01*
X040990Y006311D01*
X040862Y006440D01*
X040720Y006440D01*
X040720Y008238D01*
X040747Y008238D01*
X040876Y008367D01*
X040876Y008864D01*
X040770Y008970D01*
X040876Y009076D01*
X040876Y009573D01*
X040747Y009702D01*
X040093Y009702D01*
X040015Y009624D01*
X039825Y009624D01*
X039747Y009702D01*
X039460Y009709D02*
X039460Y010334D01*
X039154Y010570D02*
X029935Y010570D01*
X029860Y010500D02*
X029860Y009624D01*
X029540Y009702D02*
X029540Y010500D01*
X029405Y010570D02*
X028935Y010570D01*
X028900Y010535D02*
X028900Y010020D01*
X028580Y010020D02*
X028580Y010500D01*
X028405Y010570D02*
X027970Y010570D01*
X027620Y009964D02*
X027620Y009844D01*
X027586Y009930D02*
X027706Y009930D01*
X027300Y009733D02*
X027300Y009702D01*
X026980Y009733D02*
X026980Y009624D01*
X026660Y009702D02*
X026660Y009733D01*
X026340Y009733D02*
X026340Y009702D01*
X026020Y009733D02*
X026020Y009629D01*
X026001Y009610D02*
X025839Y009610D01*
X025700Y009702D02*
X025700Y009733D01*
X025380Y009733D02*
X025380Y009702D01*
X025060Y009669D02*
X025060Y009733D01*
X024740Y009733D02*
X024740Y009702D01*
X024420Y009702D02*
X024420Y009733D01*
X023926Y009290D02*
X023796Y009290D01*
X023796Y009306D02*
X023439Y009306D01*
X023439Y009343D01*
X023796Y009343D01*
X023796Y009420D01*
X023964Y009252D01*
X023964Y009076D01*
X024070Y008970D01*
X023770Y008970D01*
X023780Y008960D02*
X023780Y009101D01*
X023787Y009113D02*
X023796Y009148D01*
X023796Y009306D01*
X023780Y009306D02*
X023780Y009343D01*
X023787Y009113D02*
X023768Y009081D01*
X023742Y009055D01*
X023710Y009036D01*
X023675Y009027D01*
X023439Y009027D01*
X023439Y009306D01*
X023401Y009306D01*
X023044Y009306D01*
X023044Y009148D01*
X023053Y009113D01*
X023072Y009081D01*
X023098Y009055D01*
X023130Y009036D01*
X023165Y009027D01*
X023401Y009027D01*
X023401Y009306D01*
X023401Y009343D01*
X023044Y009343D01*
X023044Y009420D01*
X022876Y009252D01*
X022876Y009076D01*
X022747Y008947D01*
X022093Y008947D01*
X022015Y009024D01*
X021825Y009024D01*
X021770Y008970D01*
X022070Y008970D01*
X022098Y008885D02*
X022072Y008859D01*
X022053Y008827D01*
X022044Y008792D01*
X022044Y008634D01*
X022401Y008634D01*
X022401Y008597D01*
X022044Y008597D01*
X022044Y008440D01*
X022053Y008404D01*
X022072Y008372D01*
X022098Y008346D01*
X022130Y008328D01*
X022165Y008318D01*
X022401Y008318D01*
X022401Y008597D01*
X022439Y008597D01*
X022439Y008634D01*
X022796Y008634D01*
X022796Y008792D01*
X022787Y008827D01*
X022768Y008859D01*
X022742Y008885D01*
X022710Y008904D01*
X022675Y008913D01*
X022439Y008913D01*
X022439Y008634D01*
X022401Y008634D01*
X022401Y008913D01*
X022165Y008913D01*
X022130Y008904D01*
X022098Y008885D01*
X022180Y008913D02*
X022180Y008947D01*
X022180Y008634D02*
X022180Y008597D01*
X022044Y008650D02*
X021876Y008650D01*
X021876Y008864D02*
X021770Y008970D01*
X021860Y009024D02*
X021860Y008880D01*
X021876Y008864D02*
X021876Y008367D01*
X021747Y008238D01*
X021720Y008238D01*
X021720Y008234D01*
X021758Y008196D01*
X021819Y008049D01*
X021819Y007891D01*
X021758Y007744D01*
X021646Y007632D01*
X021499Y007571D01*
X021341Y007571D01*
X021194Y007632D01*
X021082Y007744D01*
X021021Y007891D01*
X021021Y008049D01*
X021082Y008196D01*
X021120Y008234D01*
X021120Y008238D01*
X021093Y008238D01*
X020964Y008367D01*
X020964Y008864D01*
X021070Y008970D01*
X020770Y008970D01*
X020876Y009076D01*
X020876Y009573D01*
X020747Y009702D01*
X020093Y009702D01*
X020015Y009624D01*
X019825Y009624D01*
X019747Y009702D01*
X019362Y009702D01*
X019174Y009890D01*
X019090Y009974D01*
X018980Y010020D01*
X018980Y010500D01*
X019115Y010500D02*
X019390Y010775D01*
X019390Y011165D01*
X019135Y011420D01*
X019705Y011420D01*
X019450Y011165D01*
X019450Y010775D01*
X019725Y010500D01*
X020115Y010500D01*
X020390Y010775D01*
X020390Y011165D01*
X020135Y011420D01*
X020705Y011420D01*
X020450Y011165D01*
X020450Y010775D01*
X020725Y010500D01*
X021115Y010500D01*
X021390Y010775D01*
X021390Y011165D01*
X021135Y011420D01*
X021296Y011420D01*
X021620Y011096D01*
X021620Y010234D01*
X021582Y010196D01*
X021521Y010049D01*
X021521Y009891D01*
X021582Y009744D01*
X021624Y009702D01*
X021093Y009702D01*
X020964Y009573D01*
X020964Y009076D01*
X021070Y008970D01*
X020876Y008864D02*
X020770Y008970D01*
X020876Y008864D02*
X020876Y008367D01*
X020747Y008238D01*
X020720Y008238D01*
X020720Y006440D01*
X020862Y006440D01*
X020990Y006311D01*
X020990Y005341D01*
X020862Y005213D01*
X019695Y005213D01*
X019574Y005334D01*
X019574Y005224D01*
X019474Y004984D01*
X019290Y004800D01*
X019050Y004700D01*
X018790Y004700D01*
X018550Y004800D01*
X018366Y004984D01*
X018266Y005224D01*
X018266Y005484D01*
X018366Y005724D01*
X018550Y005908D01*
X018790Y006008D01*
X019050Y006008D01*
X019290Y005908D01*
X019474Y005724D01*
X019566Y005502D01*
X019566Y006311D01*
X019695Y006440D01*
X020120Y006440D01*
X020120Y008238D01*
X020093Y008238D01*
X019964Y008367D01*
X019964Y008864D01*
X020070Y008970D01*
X020015Y009024D01*
X019825Y009024D01*
X019770Y008970D01*
X019876Y008864D01*
X019876Y008367D01*
X019747Y008238D01*
X019720Y008238D01*
X019720Y008234D01*
X019758Y008196D01*
X019819Y008049D01*
X019819Y007891D01*
X019758Y007744D01*
X019646Y007632D01*
X019499Y007571D01*
X019341Y007571D01*
X019238Y007614D01*
X019238Y006838D01*
X019110Y006709D01*
X018140Y006709D01*
X018011Y006838D01*
X018011Y007751D01*
X018008Y007744D01*
X017896Y007632D01*
X017749Y007571D01*
X017591Y007571D01*
X017444Y007632D01*
X017332Y007744D01*
X017271Y007891D01*
X017271Y008049D01*
X017332Y008196D01*
X017444Y008308D01*
X017469Y008318D01*
X017439Y008318D01*
X017439Y008597D01*
X017439Y008634D01*
X017796Y008634D01*
X017796Y008792D01*
X017787Y008827D01*
X017768Y008859D01*
X017742Y008885D01*
X017710Y008904D01*
X017675Y008913D01*
X017439Y008913D01*
X017439Y008634D01*
X017401Y008634D01*
X017401Y008597D01*
X017044Y008597D01*
X017044Y008440D01*
X017053Y008404D01*
X017072Y008372D01*
X017098Y008346D01*
X017130Y008328D01*
X017165Y008318D01*
X017401Y008318D01*
X017401Y008597D01*
X017439Y008597D01*
X017796Y008597D01*
X017796Y008440D01*
X017787Y008404D01*
X017768Y008372D01*
X017760Y008364D01*
X017896Y008308D01*
X018008Y008196D01*
X018065Y008058D01*
X018140Y008133D01*
X019056Y008133D01*
X019082Y008196D01*
X019120Y008234D01*
X019120Y008238D01*
X019093Y008238D01*
X019015Y008316D01*
X018825Y008316D01*
X018747Y008238D01*
X018093Y008238D01*
X017964Y008367D01*
X017964Y008864D01*
X018093Y008993D01*
X018747Y008993D01*
X018825Y008916D01*
X019015Y008916D01*
X019070Y008970D01*
X018964Y009076D01*
X018964Y009252D01*
X018796Y009420D01*
X018796Y009343D01*
X018439Y009343D01*
X018439Y009306D01*
X018796Y009306D01*
X018796Y009148D01*
X018787Y009113D01*
X018768Y009081D01*
X018742Y009055D01*
X018710Y009036D01*
X018675Y009027D01*
X018439Y009027D01*
X018439Y009306D01*
X018401Y009306D01*
X018044Y009306D01*
X018044Y009148D01*
X018053Y009113D01*
X018072Y009081D01*
X018098Y009055D01*
X018130Y009036D01*
X018165Y009027D01*
X018401Y009027D01*
X018401Y009306D01*
X018401Y009343D01*
X018044Y009343D01*
X018044Y009420D01*
X017876Y009252D01*
X017876Y009076D01*
X017747Y008947D01*
X017093Y008947D01*
X017015Y009024D01*
X016825Y009024D01*
X016770Y008970D01*
X017070Y008970D01*
X017060Y008980D02*
X017060Y008839D01*
X017053Y008827D02*
X017044Y008792D01*
X017044Y008634D01*
X017401Y008634D01*
X017401Y008913D01*
X017165Y008913D01*
X017130Y008904D01*
X017098Y008885D01*
X017072Y008859D01*
X017053Y008827D01*
X017044Y008650D02*
X016876Y008650D01*
X017060Y008634D02*
X017060Y008597D01*
X017060Y008393D02*
X017060Y003737D01*
X017090Y003724D02*
X016980Y003770D01*
X013110Y003770D01*
X013000Y003724D01*
X012916Y003640D01*
X012802Y003527D01*
X012288Y003527D01*
X012090Y003724D01*
X011980Y003770D01*
X008110Y003770D01*
X008000Y003724D01*
X007916Y003640D01*
X007802Y003527D01*
X007288Y003527D01*
X007090Y003724D01*
X006980Y003770D01*
X003110Y003770D01*
X003000Y003724D01*
X002916Y003640D01*
X002802Y003527D01*
X002288Y003527D01*
X001720Y004094D01*
X001720Y006220D01*
X001826Y006220D01*
X001955Y006349D01*
X001955Y007591D01*
X001826Y007720D01*
X001734Y007720D01*
X001758Y007744D01*
X001819Y007891D01*
X001819Y008049D01*
X001758Y008196D01*
X001720Y008234D01*
X001720Y008238D01*
X001747Y008238D01*
X001876Y008367D01*
X001876Y008864D01*
X001770Y008970D01*
X002070Y008970D01*
X002093Y008947D02*
X002015Y009024D01*
X001825Y009024D01*
X001770Y008970D01*
X002020Y009020D02*
X002020Y003794D01*
X001964Y003850D02*
X041160Y003850D01*
X041160Y003530D02*
X037284Y003530D01*
X037220Y003594D02*
X037220Y008318D01*
X037165Y008318D02*
X037401Y008318D01*
X037401Y008597D01*
X037044Y008597D01*
X037044Y008440D01*
X037053Y008404D01*
X037072Y008372D01*
X037098Y008346D01*
X037130Y008328D01*
X037165Y008318D01*
X037126Y008330D02*
X036839Y008330D01*
X036819Y008010D02*
X038017Y008010D01*
X038180Y008133D02*
X038180Y008238D01*
X038001Y008330D02*
X037714Y008330D01*
X037710Y008328D02*
X037742Y008346D01*
X037768Y008372D01*
X037787Y008404D01*
X037796Y008440D01*
X037796Y008597D01*
X037439Y008597D01*
X037439Y008634D01*
X037796Y008634D01*
X037796Y008792D01*
X037787Y008827D01*
X037768Y008859D01*
X037742Y008885D01*
X037710Y008904D01*
X037675Y008913D01*
X037439Y008913D01*
X037439Y008634D01*
X037401Y008634D01*
X037401Y008597D01*
X037439Y008597D01*
X037439Y008318D01*
X037675Y008318D01*
X037710Y008328D01*
X037540Y008318D02*
X037540Y003527D01*
X037860Y003527D02*
X037860Y009060D01*
X037770Y008970D02*
X038070Y008970D01*
X038180Y008993D02*
X038180Y009027D01*
X038439Y009027D02*
X038675Y009027D01*
X038710Y009036D01*
X038742Y009055D01*
X038768Y009081D01*
X038787Y009113D01*
X038796Y009148D01*
X038796Y009306D01*
X038439Y009306D01*
X038439Y009027D01*
X038500Y009027D02*
X038500Y008993D01*
X038770Y008970D02*
X039070Y008970D01*
X038820Y008920D02*
X038820Y009420D01*
X038796Y009290D02*
X038964Y009290D01*
X038500Y009306D02*
X038500Y009343D01*
X038439Y009290D02*
X038401Y009290D01*
X038180Y009306D02*
X038180Y009343D01*
X038044Y009290D02*
X037914Y009290D01*
X037540Y008947D02*
X037540Y008913D01*
X037401Y008913D02*
X037165Y008913D01*
X037130Y008904D01*
X037098Y008885D01*
X037072Y008859D01*
X037053Y008827D01*
X037044Y008792D01*
X037044Y008634D01*
X037401Y008634D01*
X037401Y008913D01*
X037220Y008913D02*
X037220Y008947D01*
X037070Y008970D02*
X036770Y008970D01*
X036900Y009024D02*
X036900Y003770D01*
X036580Y003770D02*
X036580Y007605D01*
X036704Y007690D02*
X038011Y007690D01*
X038011Y007370D02*
X035720Y007370D01*
X035720Y007050D02*
X038011Y007050D01*
X038119Y006730D02*
X035720Y006730D01*
X035892Y006410D02*
X039665Y006410D01*
X039780Y006440D02*
X039780Y007797D01*
X039704Y007690D02*
X040120Y007690D01*
X040120Y007370D02*
X039238Y007370D01*
X039460Y007571D02*
X039460Y005738D01*
X039428Y005770D02*
X039566Y005770D01*
X039566Y006090D02*
X035990Y006090D01*
X035940Y006362D02*
X035940Y018970D01*
X035620Y018970D02*
X035620Y009702D01*
X035839Y009610D02*
X036001Y009610D01*
X036260Y009702D02*
X036260Y018970D01*
X036580Y018970D02*
X036580Y009702D01*
X036900Y009624D02*
X036900Y018970D01*
X037220Y018970D02*
X037220Y009702D01*
X037478Y009702D02*
X037666Y009890D01*
X037750Y009974D01*
X037860Y010020D01*
X037706Y009930D02*
X034134Y009930D01*
X034020Y010003D02*
X034020Y018970D01*
X033700Y018970D02*
X033700Y010020D01*
X033380Y010020D02*
X033380Y018970D01*
X033060Y018970D02*
X033060Y010020D01*
X033060Y009343D02*
X033060Y009306D01*
X033044Y009290D02*
X032914Y009290D01*
X033060Y009101D02*
X033060Y008960D01*
X033070Y008970D02*
X032770Y008970D01*
X032740Y008947D02*
X032740Y008886D01*
X032796Y008650D02*
X032964Y008650D01*
X032796Y008597D02*
X032439Y008597D01*
X032439Y008318D01*
X032675Y008318D01*
X032710Y008328D01*
X032742Y008346D01*
X032768Y008372D01*
X032787Y008404D01*
X032796Y008440D01*
X032796Y008597D01*
X032740Y008597D02*
X032740Y008634D01*
X032740Y008345D02*
X032740Y003527D01*
X032806Y003530D02*
X032284Y003530D01*
X032420Y003527D02*
X032420Y008597D01*
X032420Y008634D02*
X032420Y008947D01*
X032401Y008650D02*
X032439Y008650D01*
X032439Y008330D02*
X032401Y008330D01*
X032126Y008330D02*
X031839Y008330D01*
X031780Y008271D02*
X031780Y008143D01*
X031819Y008010D02*
X033017Y008010D01*
X033060Y008053D02*
X033060Y008271D01*
X033001Y008330D02*
X032714Y008330D01*
X033380Y008238D02*
X033380Y008133D01*
X033700Y008133D02*
X033700Y008238D01*
X034020Y008311D02*
X034020Y008133D01*
X034340Y007572D02*
X034340Y005858D01*
X034428Y005770D02*
X034566Y005770D01*
X034566Y006090D02*
X030990Y006090D01*
X030990Y005770D02*
X033412Y005770D01*
X033380Y005738D02*
X033380Y006709D01*
X033119Y006730D02*
X030720Y006730D01*
X030820Y006440D02*
X030820Y008311D01*
X030839Y008330D02*
X031001Y008330D01*
X031021Y008010D02*
X030720Y008010D01*
X030720Y007690D02*
X031136Y007690D01*
X031140Y007686D02*
X031140Y003770D01*
X030820Y003770D02*
X030820Y005213D01*
X030990Y005450D02*
X033266Y005450D01*
X033305Y005130D02*
X029535Y005130D01*
X029540Y005142D02*
X029540Y003770D01*
X029220Y003770D02*
X029220Y004771D01*
X029301Y004810D02*
X033539Y004810D01*
X033700Y004737D02*
X033700Y003770D01*
X033380Y003770D02*
X033380Y004969D01*
X034020Y004700D02*
X034020Y003770D01*
X034340Y003770D02*
X034340Y004849D01*
X034301Y004810D02*
X038539Y004810D01*
X038500Y004849D02*
X038500Y003102D01*
X038689Y003210D02*
X038274Y003210D01*
X038180Y003492D02*
X038180Y006709D01*
X038500Y006709D02*
X038500Y005858D01*
X038412Y005770D02*
X035990Y005770D01*
X035990Y005450D02*
X038266Y005450D01*
X038305Y005130D02*
X034535Y005130D01*
X034660Y005248D02*
X034660Y003770D01*
X034980Y003770D02*
X034980Y005213D01*
X035300Y005213D02*
X035300Y003770D01*
X035620Y003770D02*
X035620Y005213D01*
X035940Y005291D02*
X035940Y003770D01*
X036260Y003770D02*
X036260Y007605D01*
X036136Y007690D02*
X035720Y007690D01*
X035720Y008010D02*
X036021Y008010D01*
X036001Y008330D02*
X035839Y008330D01*
X035876Y008650D02*
X035964Y008650D01*
X036070Y008970D02*
X035770Y008970D01*
X035876Y009290D02*
X035964Y009290D01*
X035300Y009702D02*
X035300Y018970D01*
X034980Y018970D02*
X034980Y009624D01*
X034660Y009702D02*
X034660Y018970D01*
X034340Y018970D02*
X034340Y009724D01*
X033926Y009290D02*
X033796Y009290D01*
X033700Y009306D02*
X033700Y009343D01*
X033439Y009290D02*
X033401Y009290D01*
X033380Y009306D02*
X033380Y009343D01*
X033380Y009027D02*
X033380Y008993D01*
X033700Y008993D02*
X033700Y009034D01*
X033770Y008970D02*
X034070Y008970D01*
X034020Y008920D02*
X034020Y009020D01*
X034876Y008650D02*
X034964Y008650D01*
X034980Y008351D02*
X034980Y006440D01*
X034665Y006410D02*
X030892Y006410D01*
X030120Y006730D02*
X029131Y006730D01*
X029220Y006819D02*
X029220Y005937D01*
X029428Y005770D02*
X029566Y005770D01*
X029540Y005565D02*
X029540Y007588D01*
X029704Y007690D02*
X030120Y007690D01*
X030120Y008010D02*
X029819Y008010D01*
X029839Y008330D02*
X030001Y008330D01*
X029860Y008351D02*
X029860Y006440D01*
X029665Y006410D02*
X025892Y006410D01*
X025862Y006440D02*
X025720Y006440D01*
X025720Y008238D01*
X025747Y008238D01*
X025876Y008367D01*
X025876Y008864D01*
X025770Y008970D01*
X025964Y008864D02*
X025964Y008367D01*
X026093Y008238D01*
X026120Y008238D01*
X026120Y008234D01*
X026082Y008196D01*
X026021Y008049D01*
X026021Y007891D01*
X026082Y007744D01*
X026194Y007632D01*
X026341Y007571D01*
X026499Y007571D01*
X026646Y007632D01*
X026758Y007744D01*
X026819Y007891D01*
X026819Y008049D01*
X026758Y008196D01*
X026720Y008234D01*
X026720Y008238D01*
X026747Y008238D01*
X026876Y008367D01*
X026876Y008864D01*
X026770Y008970D01*
X027070Y008970D01*
X027015Y009024D02*
X026825Y009024D01*
X026770Y008970D01*
X027053Y008827D02*
X027044Y008792D01*
X027044Y008634D01*
X027401Y008634D01*
X027401Y008597D01*
X027044Y008597D01*
X027044Y008440D01*
X027053Y008404D01*
X027072Y008372D01*
X027098Y008346D01*
X027130Y008328D01*
X027165Y008318D01*
X027401Y008318D01*
X027401Y008597D01*
X027439Y008597D01*
X027439Y008634D01*
X027796Y008634D01*
X027796Y008792D01*
X027787Y008827D01*
X027768Y008859D01*
X027742Y008885D01*
X027710Y008904D01*
X027675Y008913D01*
X027439Y008913D01*
X027439Y008634D01*
X027401Y008634D01*
X027401Y008913D01*
X027165Y008913D01*
X027130Y008904D01*
X027098Y008885D01*
X027072Y008859D01*
X027053Y008827D01*
X027044Y008650D02*
X026876Y008650D01*
X026839Y008330D02*
X027126Y008330D01*
X027300Y008318D02*
X027300Y003527D01*
X027284Y003530D02*
X027806Y003530D01*
X027620Y003527D02*
X027620Y008318D01*
X027675Y008318D02*
X027710Y008328D01*
X027742Y008346D01*
X027768Y008372D01*
X027787Y008404D01*
X027796Y008440D01*
X027796Y008597D01*
X027439Y008597D01*
X027439Y008318D01*
X027675Y008318D01*
X027714Y008330D02*
X028001Y008330D01*
X028260Y008238D02*
X028260Y008133D01*
X028017Y008010D02*
X026819Y008010D01*
X026704Y007690D02*
X028011Y007690D01*
X028011Y007370D02*
X025720Y007370D01*
X025720Y007050D02*
X028011Y007050D01*
X028119Y006730D02*
X025720Y006730D01*
X025862Y006440D02*
X025990Y006311D01*
X025990Y005341D01*
X025862Y005213D01*
X024695Y005213D01*
X024574Y005334D01*
X024574Y005224D01*
X024474Y004984D01*
X024290Y004800D01*
X024050Y004700D01*
X023790Y004700D01*
X023550Y004800D01*
X023366Y004984D01*
X023266Y005224D01*
X023266Y005484D01*
X023366Y005724D01*
X023550Y005908D01*
X023790Y006008D01*
X024050Y006008D01*
X024290Y005908D01*
X024474Y005724D01*
X024566Y005502D01*
X024566Y006311D01*
X024695Y006440D01*
X025120Y006440D01*
X025120Y008238D01*
X025093Y008238D01*
X024964Y008367D01*
X024964Y008864D01*
X025070Y008970D01*
X025015Y009024D01*
X024825Y009024D01*
X024770Y008970D01*
X025070Y008970D01*
X025060Y008960D02*
X025060Y008980D01*
X024876Y008864D02*
X024770Y008970D01*
X024876Y008864D02*
X024876Y008367D01*
X024747Y008238D01*
X024720Y008238D01*
X024720Y008234D01*
X024758Y008196D01*
X024819Y008049D01*
X024819Y007891D01*
X024758Y007744D01*
X024646Y007632D01*
X024499Y007571D01*
X024341Y007571D01*
X024238Y007614D01*
X024238Y006838D01*
X024110Y006709D01*
X023140Y006709D01*
X023140Y003770D01*
X023110Y003770D02*
X023000Y003724D01*
X022916Y003640D01*
X022802Y003527D01*
X022288Y003527D01*
X022090Y003724D01*
X021980Y003770D01*
X018110Y003770D01*
X018000Y003724D01*
X017916Y003640D01*
X017802Y003527D01*
X017288Y003527D01*
X017090Y003724D01*
X017284Y003530D02*
X017806Y003530D01*
X017700Y003527D02*
X017700Y007571D01*
X017954Y007690D02*
X018011Y007690D01*
X018011Y007370D02*
X015720Y007370D01*
X015720Y007050D02*
X018011Y007050D01*
X018020Y006829D02*
X018020Y003733D01*
X018340Y003770D02*
X018340Y005046D01*
X018305Y005130D02*
X014535Y005130D01*
X014500Y005046D02*
X014500Y003770D01*
X014180Y003770D02*
X014180Y004754D01*
X014290Y004800D02*
X014050Y004700D01*
X013790Y004700D01*
X013550Y004800D01*
X013366Y004984D01*
X013266Y005224D01*
X013266Y005484D01*
X013366Y005724D01*
X013550Y005908D01*
X013790Y006008D01*
X014050Y006008D01*
X014290Y005908D01*
X014474Y005724D01*
X014566Y005502D01*
X014566Y006311D01*
X014695Y006440D01*
X015120Y006440D01*
X015120Y008238D01*
X015093Y008238D01*
X014964Y008367D01*
X014964Y008864D01*
X015070Y008970D01*
X015015Y009024D01*
X014825Y009024D01*
X014770Y008970D01*
X014876Y008864D01*
X014876Y008367D01*
X014747Y008238D01*
X014720Y008238D01*
X014720Y008234D01*
X014758Y008196D01*
X014819Y008049D01*
X014819Y007891D01*
X014758Y007744D01*
X014646Y007632D01*
X014499Y007571D01*
X014341Y007571D01*
X014238Y007614D01*
X014238Y006838D01*
X014110Y006709D01*
X013140Y006709D01*
X013011Y006838D01*
X013011Y008004D01*
X013140Y008133D01*
X014056Y008133D01*
X014082Y008196D01*
X014120Y008234D01*
X014120Y008238D01*
X014093Y008238D01*
X014015Y008316D01*
X013825Y008316D01*
X013747Y008238D01*
X013093Y008238D01*
X012964Y008367D01*
X012964Y008864D01*
X013093Y008993D01*
X013747Y008993D01*
X013825Y008916D01*
X014015Y008916D01*
X014070Y008970D01*
X013964Y009076D01*
X013964Y009252D01*
X013796Y009420D01*
X013796Y009343D01*
X013439Y009343D01*
X013439Y009306D01*
X013796Y009306D01*
X013796Y009148D01*
X013787Y009113D01*
X013768Y009081D01*
X013742Y009055D01*
X013710Y009036D01*
X013675Y009027D01*
X013439Y009027D01*
X013439Y009306D01*
X013401Y009306D01*
X013044Y009306D01*
X013044Y009148D01*
X013053Y009113D01*
X013072Y009081D01*
X013098Y009055D01*
X013130Y009036D01*
X013165Y009027D01*
X013401Y009027D01*
X013401Y009306D01*
X013401Y009343D01*
X013044Y009343D01*
X013044Y009420D01*
X012876Y009252D01*
X012876Y009076D01*
X012747Y008947D01*
X012093Y008947D01*
X012015Y009024D01*
X011825Y009024D01*
X011770Y008970D01*
X012070Y008970D01*
X012098Y008885D02*
X012072Y008859D01*
X012053Y008827D01*
X012044Y008792D01*
X012044Y008634D01*
X012401Y008634D01*
X012401Y008597D01*
X012044Y008597D01*
X012044Y008440D01*
X012053Y008404D01*
X012072Y008372D01*
X012098Y008346D01*
X012130Y008328D01*
X012165Y008318D01*
X012401Y008318D01*
X012401Y008597D01*
X012439Y008597D01*
X012439Y008634D01*
X012796Y008634D01*
X012796Y008792D01*
X012787Y008827D01*
X012768Y008859D01*
X012742Y008885D01*
X012710Y008904D01*
X012675Y008913D01*
X012439Y008913D01*
X012439Y008634D01*
X012401Y008634D01*
X012401Y008913D01*
X012165Y008913D01*
X012130Y008904D01*
X012098Y008885D01*
X012260Y008913D02*
X012260Y008947D01*
X012260Y008634D02*
X012260Y008597D01*
X012401Y008650D02*
X012439Y008650D01*
X012439Y008597D02*
X012796Y008597D01*
X012796Y008440D01*
X012787Y008404D01*
X012768Y008372D01*
X012742Y008346D01*
X012710Y008328D01*
X012675Y008318D01*
X012439Y008318D01*
X012439Y008597D01*
X012580Y008597D02*
X012580Y008634D01*
X012796Y008650D02*
X012964Y008650D01*
X013001Y008330D02*
X012714Y008330D01*
X012580Y008318D02*
X012580Y003527D01*
X012806Y003530D02*
X012284Y003530D01*
X012260Y003554D02*
X012260Y008318D01*
X012126Y008330D02*
X011839Y008330D01*
X011876Y008367D02*
X011876Y008864D01*
X011770Y008970D01*
X011940Y009024D02*
X011940Y003770D01*
X011620Y003770D02*
X011620Y007621D01*
X011646Y007632D02*
X011758Y007744D01*
X011819Y007891D01*
X011819Y008049D01*
X011758Y008196D01*
X011720Y008234D01*
X011720Y008238D01*
X011747Y008238D01*
X011876Y008367D01*
X011876Y008650D02*
X012044Y008650D01*
X012401Y008330D02*
X012439Y008330D01*
X012580Y008913D02*
X012580Y008947D01*
X012770Y008970D02*
X013070Y008970D01*
X013220Y008993D02*
X013220Y009027D01*
X013220Y009306D02*
X013220Y009343D01*
X013044Y009290D02*
X012914Y009290D01*
X012900Y009276D02*
X012900Y003624D01*
X013220Y003770D02*
X013220Y006709D01*
X013119Y006730D02*
X010720Y006730D01*
X010720Y006440D02*
X010720Y008238D01*
X010747Y008238D01*
X010876Y008367D01*
X010876Y008864D01*
X010770Y008970D01*
X010876Y009076D01*
X010876Y009573D01*
X010747Y009702D01*
X010093Y009702D01*
X010015Y009624D01*
X009825Y009624D01*
X009747Y009702D01*
X009362Y009702D01*
X009174Y009890D01*
X009090Y009974D01*
X008980Y010020D01*
X007860Y010020D01*
X007750Y009974D01*
X007478Y009702D01*
X007093Y009702D01*
X007015Y009624D01*
X006825Y009624D01*
X006747Y009702D01*
X006093Y009702D01*
X005964Y009573D01*
X005964Y009076D01*
X006070Y008970D01*
X005770Y008970D01*
X005876Y009076D01*
X005876Y009573D01*
X005747Y009702D01*
X005093Y009702D01*
X005015Y009624D01*
X004825Y009624D01*
X004747Y009702D01*
X004362Y009702D01*
X004174Y009890D01*
X004090Y009974D01*
X003980Y010020D01*
X003894Y010020D01*
X004090Y010216D01*
X004100Y010226D01*
X004194Y010132D01*
X004341Y010071D01*
X004499Y010071D01*
X004646Y010132D01*
X004758Y010244D01*
X004819Y010391D01*
X004819Y010549D01*
X004758Y010696D01*
X004720Y010734D01*
X004720Y011596D01*
X005544Y012420D01*
X006296Y012420D01*
X007916Y010800D01*
X008000Y010716D01*
X008110Y010670D01*
X009071Y010670D01*
X009021Y010549D01*
X009021Y010391D01*
X009082Y010244D01*
X009194Y010132D01*
X009341Y010071D01*
X009499Y010071D01*
X009646Y010132D01*
X009684Y010170D01*
X012480Y010170D01*
X012590Y010216D01*
X012870Y010496D01*
X012870Y010484D01*
X012832Y010446D01*
X012771Y010299D01*
X012771Y010141D01*
X012827Y010006D01*
X012750Y009974D01*
X012478Y009702D01*
X012093Y009702D01*
X012015Y009624D01*
X011825Y009624D01*
X011747Y009702D01*
X011093Y009702D01*
X010964Y009573D01*
X010964Y009076D01*
X011070Y008970D01*
X010770Y008970D01*
X010964Y008864D02*
X010964Y008367D01*
X011093Y008238D01*
X011120Y008238D01*
X011120Y008234D01*
X011082Y008196D01*
X011021Y008049D01*
X011021Y007891D01*
X011082Y007744D01*
X011194Y007632D01*
X011341Y007571D01*
X011499Y007571D01*
X011646Y007632D01*
X011704Y007690D02*
X013011Y007690D01*
X013011Y007370D02*
X010720Y007370D01*
X010720Y007050D02*
X013011Y007050D01*
X013540Y006709D02*
X013540Y005898D01*
X013412Y005770D02*
X010990Y005770D01*
X010990Y005450D02*
X013266Y005450D01*
X013305Y005130D02*
X009535Y005130D01*
X009574Y005224D02*
X009474Y004984D01*
X009290Y004800D01*
X009050Y004700D01*
X008790Y004700D01*
X008550Y004800D01*
X008366Y004984D01*
X008266Y005224D01*
X008266Y005484D01*
X008366Y005724D01*
X008550Y005908D01*
X008790Y006008D01*
X009050Y006008D01*
X009290Y005908D01*
X009474Y005724D01*
X009566Y005502D01*
X009566Y006311D01*
X009695Y006440D01*
X010120Y006440D01*
X010120Y008238D01*
X010093Y008238D01*
X009964Y008367D01*
X009964Y008864D01*
X010070Y008970D01*
X010015Y009024D01*
X009825Y009024D01*
X009770Y008970D01*
X009876Y008864D01*
X009876Y008367D01*
X009747Y008238D01*
X009720Y008238D01*
X009720Y008234D01*
X009758Y008196D01*
X009819Y008049D01*
X009819Y007891D01*
X009758Y007744D01*
X009646Y007632D01*
X009499Y007571D01*
X009341Y007571D01*
X009238Y007614D01*
X009238Y006838D01*
X009110Y006709D01*
X008140Y006709D01*
X008011Y006838D01*
X008011Y008004D01*
X008140Y008133D01*
X009056Y008133D01*
X009082Y008196D01*
X009120Y008234D01*
X009120Y008238D01*
X009093Y008238D01*
X009015Y008316D01*
X008825Y008316D01*
X008747Y008238D01*
X008093Y008238D01*
X007964Y008367D01*
X007964Y008864D01*
X008093Y008993D01*
X008747Y008993D01*
X008825Y008916D01*
X009015Y008916D01*
X009070Y008970D01*
X008964Y009076D01*
X008964Y009252D01*
X008796Y009420D01*
X008796Y009343D01*
X008439Y009343D01*
X008439Y009306D01*
X008796Y009306D01*
X008796Y009148D01*
X008787Y009113D01*
X008768Y009081D01*
X008742Y009055D01*
X008710Y009036D01*
X008675Y009027D01*
X008439Y009027D01*
X008439Y009306D01*
X008401Y009306D01*
X008044Y009306D01*
X008044Y009148D01*
X008053Y009113D01*
X008072Y009081D01*
X008098Y009055D01*
X008130Y009036D01*
X008165Y009027D01*
X008401Y009027D01*
X008401Y009306D01*
X008401Y009343D01*
X008044Y009343D01*
X008044Y009420D01*
X007876Y009252D01*
X007876Y009076D01*
X007747Y008947D01*
X007093Y008947D01*
X007015Y009024D01*
X006825Y009024D01*
X006770Y008970D01*
X007070Y008970D01*
X007140Y008947D02*
X007140Y008906D01*
X007130Y008904D02*
X007098Y008885D01*
X007072Y008859D01*
X007053Y008827D01*
X007044Y008792D01*
X007044Y008634D01*
X007401Y008634D01*
X007401Y008597D01*
X007044Y008597D01*
X007044Y008440D01*
X007053Y008404D01*
X007072Y008372D01*
X007098Y008346D01*
X007130Y008328D01*
X007165Y008318D01*
X007401Y008318D01*
X007401Y008597D01*
X007439Y008597D01*
X007439Y008634D01*
X007796Y008634D01*
X007796Y008792D01*
X007787Y008827D01*
X007768Y008859D01*
X007742Y008885D01*
X007710Y008904D01*
X007675Y008913D01*
X007439Y008913D01*
X007439Y008634D01*
X007401Y008634D01*
X007401Y008913D01*
X007165Y008913D01*
X007130Y008904D01*
X006876Y008864D02*
X006876Y008367D01*
X006747Y008238D01*
X006720Y008238D01*
X006720Y008234D01*
X006758Y008196D01*
X006819Y008049D01*
X006819Y007891D01*
X006758Y007744D01*
X006646Y007632D01*
X006499Y007571D01*
X006341Y007571D01*
X006194Y007632D01*
X006082Y007744D01*
X006021Y007891D01*
X006021Y008049D01*
X006082Y008196D01*
X006120Y008234D01*
X006120Y008238D01*
X006093Y008238D01*
X005964Y008367D01*
X005964Y008864D01*
X006070Y008970D01*
X005876Y008864D02*
X005770Y008970D01*
X005860Y008880D02*
X005860Y009060D01*
X005876Y008864D02*
X005876Y008367D01*
X005747Y008238D01*
X005720Y008238D01*
X005720Y006440D01*
X005862Y006440D01*
X005990Y006311D01*
X005990Y005341D01*
X005862Y005213D01*
X004695Y005213D01*
X004574Y005334D01*
X004574Y005224D01*
X004474Y004984D01*
X004290Y004800D01*
X004050Y004700D01*
X003790Y004700D01*
X003550Y004800D01*
X003366Y004984D01*
X003266Y005224D01*
X003266Y005484D01*
X003366Y005724D01*
X003550Y005908D01*
X003790Y006008D01*
X004050Y006008D01*
X004290Y005908D01*
X004474Y005724D01*
X004566Y005502D01*
X004566Y006311D01*
X004695Y006440D01*
X005120Y006440D01*
X005120Y008238D01*
X005093Y008238D01*
X004964Y008367D01*
X004964Y008864D01*
X005070Y008970D01*
X004770Y008970D01*
X004825Y009024D01*
X005015Y009024D01*
X005070Y008970D01*
X004900Y009024D02*
X004900Y006440D01*
X004665Y006410D02*
X001955Y006410D01*
X001955Y006730D02*
X003119Y006730D01*
X003140Y006709D02*
X004110Y006709D01*
X004238Y006838D01*
X004238Y007614D01*
X004341Y007571D01*
X004499Y007571D01*
X004646Y007632D01*
X004758Y007744D01*
X004819Y007891D01*
X004819Y008049D01*
X004758Y008196D01*
X004720Y008234D01*
X004720Y008238D01*
X004747Y008238D01*
X004876Y008367D01*
X004876Y008864D01*
X004770Y008970D01*
X004876Y008650D02*
X004964Y008650D01*
X005001Y008330D02*
X004839Y008330D01*
X004819Y008010D02*
X005120Y008010D01*
X005120Y007690D02*
X004704Y007690D01*
X004580Y007605D02*
X004580Y006325D01*
X004566Y006090D02*
X001720Y006090D01*
X001720Y005770D02*
X003412Y005770D01*
X003300Y005565D02*
X003300Y006709D01*
X003140Y006709D02*
X003011Y006838D01*
X003011Y008004D01*
X003140Y008133D01*
X004056Y008133D01*
X004082Y008196D01*
X004120Y008234D01*
X004120Y008238D01*
X004093Y008238D01*
X004015Y008316D01*
X003825Y008316D01*
X003747Y008238D01*
X003093Y008238D01*
X002964Y008367D01*
X002964Y008864D01*
X003093Y008993D01*
X003747Y008993D01*
X003825Y008916D01*
X004015Y008916D01*
X004070Y008970D01*
X003964Y009076D01*
X003964Y009252D01*
X003796Y009420D01*
X003796Y009343D01*
X003439Y009343D01*
X003439Y009306D01*
X003796Y009306D01*
X003796Y009148D01*
X003787Y009113D01*
X003768Y009081D01*
X003742Y009055D01*
X003710Y009036D01*
X003675Y009027D01*
X003439Y009027D01*
X003439Y009306D01*
X003401Y009306D01*
X003044Y009306D01*
X003044Y009148D01*
X003053Y009113D01*
X003072Y009081D01*
X003098Y009055D01*
X003130Y009036D01*
X003165Y009027D01*
X003401Y009027D01*
X003401Y009306D01*
X003401Y009343D01*
X003044Y009343D01*
X003044Y009420D01*
X002876Y009252D01*
X002876Y009076D01*
X002747Y008947D01*
X002093Y008947D01*
X002130Y008904D02*
X002098Y008885D01*
X002072Y008859D01*
X002053Y008827D01*
X002044Y008792D01*
X002044Y008634D01*
X002401Y008634D01*
X002401Y008597D01*
X002044Y008597D01*
X002044Y008440D01*
X002053Y008404D01*
X002072Y008372D01*
X002098Y008346D01*
X002130Y008328D01*
X002165Y008318D01*
X002401Y008318D01*
X002401Y008597D01*
X002439Y008597D01*
X002439Y008634D01*
X002796Y008634D01*
X002796Y008792D01*
X002787Y008827D01*
X002768Y008859D01*
X002742Y008885D01*
X002710Y008904D01*
X002675Y008913D01*
X002439Y008913D01*
X002439Y008634D01*
X002401Y008634D01*
X002401Y008913D01*
X002165Y008913D01*
X002130Y008904D01*
X002340Y008913D02*
X002340Y008947D01*
X002401Y008650D02*
X002439Y008650D01*
X002439Y008597D02*
X002796Y008597D01*
X002796Y008440D01*
X002787Y008404D01*
X002768Y008372D01*
X002742Y008346D01*
X002710Y008328D01*
X002675Y008318D01*
X002439Y008318D01*
X002439Y008597D01*
X002340Y008597D02*
X002340Y008634D01*
X002044Y008650D02*
X001876Y008650D01*
X001839Y008330D02*
X002126Y008330D01*
X002340Y008318D02*
X002340Y003527D01*
X002284Y003530D02*
X002806Y003530D01*
X002660Y003527D02*
X002660Y008318D01*
X002714Y008330D02*
X003001Y008330D01*
X002980Y008351D02*
X002980Y003704D01*
X003300Y003770D02*
X003300Y005142D01*
X003305Y005130D02*
X001720Y005130D01*
X001720Y004810D02*
X003539Y004810D01*
X003620Y004771D02*
X003620Y003770D01*
X003940Y003770D02*
X003940Y004700D01*
X004260Y004787D02*
X004260Y003770D01*
X004580Y003770D02*
X004580Y005328D01*
X004535Y005130D02*
X008305Y005130D01*
X008420Y004929D02*
X008420Y003770D01*
X008740Y003770D02*
X008740Y004721D01*
X008539Y004810D02*
X004301Y004810D01*
X004900Y005213D02*
X004900Y003770D01*
X005220Y003770D02*
X005220Y005213D01*
X005540Y005213D02*
X005540Y003770D01*
X005860Y003770D02*
X005860Y005213D01*
X005990Y005450D02*
X008266Y005450D01*
X008412Y005770D02*
X005990Y005770D01*
X005990Y006090D02*
X009566Y006090D01*
X009566Y005770D02*
X009428Y005770D01*
X009380Y005818D02*
X009380Y007571D01*
X009238Y007370D02*
X010120Y007370D01*
X010120Y007690D02*
X009704Y007690D01*
X009700Y007686D02*
X009700Y006440D01*
X009665Y006410D02*
X005892Y006410D01*
X005860Y006440D02*
X005860Y008351D01*
X005839Y008330D02*
X006001Y008330D01*
X006021Y008010D02*
X005720Y008010D01*
X005720Y007690D02*
X006136Y007690D01*
X006180Y007646D02*
X006180Y003770D01*
X006500Y003770D02*
X006500Y007572D01*
X006704Y007690D02*
X008011Y007690D01*
X008011Y007370D02*
X005720Y007370D01*
X005720Y007050D02*
X008011Y007050D01*
X008100Y006749D02*
X008100Y003766D01*
X007806Y003530D02*
X007284Y003530D01*
X007460Y003527D02*
X007460Y008318D01*
X007439Y008318D02*
X007675Y008318D01*
X007710Y008328D01*
X007742Y008346D01*
X007768Y008372D01*
X007787Y008404D01*
X007796Y008440D01*
X007796Y008597D01*
X007439Y008597D01*
X007439Y008318D01*
X007439Y008330D02*
X007401Y008330D01*
X007140Y008325D02*
X007140Y003674D01*
X006820Y003770D02*
X006820Y008311D01*
X006839Y008330D02*
X007126Y008330D01*
X007140Y008597D02*
X007140Y008634D01*
X007044Y008650D02*
X006876Y008650D01*
X006876Y008864D02*
X006770Y008970D01*
X006820Y008920D02*
X006820Y009020D01*
X007460Y008947D02*
X007460Y008913D01*
X007439Y008650D02*
X007401Y008650D01*
X007460Y008634D02*
X007460Y008597D01*
X007780Y008597D02*
X007780Y008634D01*
X007796Y008650D02*
X007964Y008650D01*
X007780Y008839D02*
X007780Y008980D01*
X007770Y008970D02*
X008070Y008970D01*
X008100Y008993D02*
X008100Y009054D01*
X008044Y009290D02*
X007914Y009290D01*
X008100Y009306D02*
X008100Y009343D01*
X008401Y009290D02*
X008439Y009290D01*
X008420Y009306D02*
X008420Y008993D01*
X008740Y008993D02*
X008740Y009054D01*
X008770Y008970D02*
X009070Y008970D01*
X009060Y008960D02*
X009060Y008980D01*
X008926Y009290D02*
X008796Y009290D01*
X008740Y009306D02*
X008740Y009343D01*
X009174Y009890D02*
X009174Y009890D01*
X009134Y009930D02*
X012706Y009930D01*
X012580Y009804D02*
X012580Y010212D01*
X012624Y010250D02*
X012771Y010250D01*
X012260Y010170D02*
X012260Y009702D01*
X011940Y009624D02*
X011940Y010170D01*
X011620Y010170D02*
X011620Y009702D01*
X011300Y009702D02*
X011300Y010170D01*
X010980Y010170D02*
X010980Y009589D01*
X011001Y009610D02*
X010839Y009610D01*
X010660Y009702D02*
X010660Y010170D01*
X010340Y010170D02*
X010340Y009702D01*
X010020Y009629D02*
X010020Y010170D01*
X009700Y010170D02*
X009700Y009702D01*
X009380Y009702D02*
X009380Y010071D01*
X009060Y009987D02*
X009060Y010297D01*
X009080Y010250D02*
X006150Y010250D01*
X006180Y010261D02*
X006180Y009702D01*
X006001Y009610D02*
X005839Y009610D01*
X005860Y009589D02*
X005860Y010230D01*
X005972Y010230D02*
X006095Y010230D01*
X006423Y010349D01*
X006690Y010574D01*
X006865Y010876D01*
X006925Y011220D01*
X006865Y011564D01*
X006690Y011866D01*
X006423Y012091D01*
X006423Y012091D01*
X006095Y012210D01*
X005745Y012210D01*
X005417Y012091D01*
X005150Y011866D01*
X004975Y011564D01*
X004915Y011220D01*
X004975Y010876D01*
X005150Y010574D01*
X005150Y010574D01*
X005417Y010349D01*
X005745Y010230D01*
X005972Y010230D01*
X006095Y010230D02*
X006095Y010230D01*
X006423Y010349D02*
X006423Y010349D01*
X006500Y010414D02*
X006500Y009702D01*
X006820Y009629D02*
X006820Y010799D01*
X006865Y010876D02*
X006865Y010876D01*
X006867Y010890D02*
X007826Y010890D01*
X007780Y010936D02*
X007780Y009987D01*
X007706Y009930D02*
X004134Y009930D01*
X004260Y009804D02*
X004260Y010105D01*
X004580Y010105D02*
X004580Y009702D01*
X004900Y009624D02*
X004900Y011776D01*
X004974Y011850D02*
X005141Y011850D01*
X005150Y011866D02*
X005150Y011866D01*
X005150Y011866D01*
X005220Y011925D02*
X005220Y012096D01*
X005294Y012170D02*
X005636Y012170D01*
X005540Y012135D02*
X005540Y012416D01*
X005860Y012420D02*
X005860Y012210D01*
X006180Y012179D02*
X006180Y012420D01*
X006204Y012170D02*
X006546Y012170D01*
X006500Y012216D02*
X006500Y012026D01*
X006690Y011866D02*
X006690Y011866D01*
X006699Y011850D02*
X006866Y011850D01*
X006820Y011896D02*
X006820Y011641D01*
X006865Y011564D02*
X006865Y011564D01*
X006871Y011530D02*
X007186Y011530D01*
X007140Y011576D02*
X007140Y009702D01*
X007460Y009702D02*
X007460Y011256D01*
X007506Y011210D02*
X006924Y011210D01*
X006925Y011220D02*
X006925Y011220D01*
X006690Y010574D02*
X006690Y010574D01*
X006690Y010574D01*
X006686Y010570D02*
X009030Y010570D01*
X009060Y010643D02*
X009060Y010670D01*
X008740Y010670D02*
X008740Y010020D01*
X008420Y010020D02*
X008420Y010670D01*
X008100Y010674D02*
X008100Y010020D01*
X009770Y008970D02*
X010070Y008970D01*
X010020Y008920D02*
X010020Y009020D01*
X009964Y008650D02*
X009876Y008650D01*
X009839Y008330D02*
X010001Y008330D01*
X010020Y008311D02*
X010020Y006440D01*
X010120Y006730D02*
X009131Y006730D01*
X009060Y006709D02*
X009060Y006003D01*
X008740Y005987D02*
X008740Y006709D01*
X008420Y006709D02*
X008420Y005778D01*
X009574Y005334D02*
X009695Y005213D01*
X010862Y005213D01*
X010990Y005341D01*
X010990Y006311D01*
X010862Y006440D01*
X010720Y006440D01*
X010892Y006410D02*
X014665Y006410D01*
X014820Y006440D02*
X014820Y008311D01*
X014839Y008330D02*
X015001Y008330D01*
X014964Y008650D02*
X014876Y008650D01*
X014820Y008920D02*
X014820Y009020D01*
X014770Y008970D02*
X015070Y008970D01*
X015770Y008970D02*
X015876Y008864D01*
X015876Y008367D01*
X015747Y008238D01*
X015720Y008238D01*
X015720Y006440D01*
X015862Y006440D01*
X015990Y006311D01*
X015990Y005341D01*
X015862Y005213D01*
X014695Y005213D01*
X014574Y005334D01*
X014574Y005224D01*
X014474Y004984D01*
X014290Y004800D01*
X014301Y004810D02*
X018539Y004810D01*
X018660Y004754D02*
X018660Y003770D01*
X018980Y003770D02*
X018980Y004700D01*
X019300Y004809D02*
X019300Y003770D01*
X019620Y003770D02*
X019620Y005288D01*
X019535Y005130D02*
X023305Y005130D01*
X023460Y004889D02*
X023460Y003770D01*
X023780Y003770D02*
X023780Y004704D01*
X023539Y004810D02*
X019301Y004810D01*
X019940Y005213D02*
X019940Y003770D01*
X020260Y003770D02*
X020260Y005213D01*
X020580Y005213D02*
X020580Y003770D01*
X020900Y003770D02*
X020900Y005251D01*
X020990Y005450D02*
X023266Y005450D01*
X023412Y005770D02*
X020990Y005770D01*
X020990Y006090D02*
X024566Y006090D01*
X024566Y005770D02*
X024428Y005770D01*
X024420Y005778D02*
X024420Y007571D01*
X024238Y007370D02*
X025120Y007370D01*
X025120Y007690D02*
X024704Y007690D01*
X024740Y007726D02*
X024740Y006440D01*
X024665Y006410D02*
X020892Y006410D01*
X020900Y006402D02*
X020900Y010500D01*
X020655Y010570D02*
X020185Y010570D01*
X020260Y010645D02*
X020260Y009702D01*
X020580Y009702D02*
X020580Y010645D01*
X020450Y010890D02*
X020390Y010890D01*
X020345Y011210D02*
X020495Y011210D01*
X020580Y011295D02*
X020580Y011420D01*
X020260Y011420D02*
X020260Y011295D01*
X019620Y011335D02*
X019620Y011420D01*
X019495Y011210D02*
X019345Y011210D01*
X019300Y011255D02*
X019300Y011420D01*
X019390Y010890D02*
X019450Y010890D01*
X019300Y010685D02*
X019300Y009764D01*
X019134Y009930D02*
X021521Y009930D01*
X021540Y009845D02*
X021540Y009702D01*
X021220Y009702D02*
X021220Y010605D01*
X021185Y010570D02*
X021620Y010570D01*
X021620Y010250D02*
X013569Y010250D01*
X013569Y010299D02*
X013569Y010141D01*
X013519Y010020D01*
X013980Y010020D01*
X014090Y009974D01*
X014174Y009890D01*
X014362Y009702D01*
X014747Y009702D01*
X014825Y009624D01*
X015015Y009624D01*
X015093Y009702D01*
X015747Y009702D01*
X015876Y009573D01*
X015876Y009076D01*
X015770Y008970D01*
X016070Y008970D01*
X015964Y008864D01*
X015964Y008367D01*
X016093Y008238D01*
X016120Y008238D01*
X016120Y008234D01*
X016082Y008196D01*
X016021Y008049D01*
X016021Y007891D01*
X016082Y007744D01*
X016194Y007632D01*
X016341Y007571D01*
X016499Y007571D01*
X016646Y007632D01*
X016758Y007744D01*
X016819Y007891D01*
X016819Y008049D01*
X016758Y008196D01*
X016720Y008234D01*
X016720Y008238D01*
X016747Y008238D01*
X016876Y008367D01*
X016876Y008864D01*
X016770Y008970D01*
X017380Y008947D02*
X017380Y008913D01*
X017401Y008650D02*
X017439Y008650D01*
X017380Y008634D02*
X017380Y008597D01*
X017401Y008330D02*
X017439Y008330D01*
X017380Y008318D02*
X017380Y008244D01*
X017271Y008010D02*
X016819Y008010D01*
X016740Y008214D02*
X016740Y008238D01*
X016839Y008330D02*
X017126Y008330D01*
X017700Y008597D02*
X017700Y008634D01*
X017796Y008650D02*
X017964Y008650D01*
X018020Y008920D02*
X018020Y009396D01*
X018044Y009290D02*
X017914Y009290D01*
X017770Y008970D02*
X018070Y008970D01*
X018340Y008993D02*
X018340Y009027D01*
X018401Y009290D02*
X018439Y009290D01*
X018340Y009306D02*
X018340Y009343D01*
X018660Y009343D02*
X018660Y009306D01*
X018796Y009290D02*
X018926Y009290D01*
X018980Y009060D02*
X018980Y008916D01*
X019070Y008970D02*
X018770Y008970D01*
X018660Y008993D02*
X018660Y009027D01*
X018980Y008316D02*
X018980Y008133D01*
X018660Y008133D02*
X018660Y008238D01*
X018340Y008238D02*
X018340Y008133D01*
X018020Y008167D02*
X018020Y008311D01*
X018001Y008330D02*
X017843Y008330D01*
X017700Y008906D02*
X017700Y008947D01*
X017478Y009702D02*
X017093Y009702D01*
X017015Y009624D01*
X016825Y009624D01*
X016747Y009702D01*
X016093Y009702D01*
X015964Y009573D01*
X015964Y009076D01*
X016070Y008970D01*
X015780Y008960D02*
X015780Y008980D01*
X015876Y009290D02*
X015964Y009290D01*
X016001Y009610D02*
X015839Y009610D01*
X015780Y009669D02*
X015780Y010500D01*
X015725Y010500D02*
X016115Y010500D01*
X016390Y010775D01*
X016390Y011165D01*
X016135Y011420D01*
X016705Y011420D01*
X016450Y011165D01*
X016450Y010775D01*
X016725Y010500D01*
X017115Y010500D01*
X017390Y010775D01*
X017390Y011165D01*
X017135Y011420D01*
X017705Y011420D01*
X017450Y011165D01*
X017450Y010775D01*
X017725Y010500D01*
X018115Y010500D01*
X018390Y010775D01*
X018390Y011165D01*
X018135Y011420D01*
X018705Y011420D01*
X018450Y011165D01*
X018450Y010775D01*
X018725Y010500D01*
X019115Y010500D01*
X019185Y010570D02*
X019655Y010570D01*
X019620Y010605D02*
X019620Y009702D01*
X019940Y009624D02*
X019940Y010500D01*
X018980Y010020D02*
X017860Y010020D01*
X017750Y009974D01*
X017666Y009890D01*
X017478Y009702D01*
X017380Y009702D02*
X017380Y010765D01*
X017390Y010890D02*
X017450Y010890D01*
X017380Y011175D02*
X017380Y011420D01*
X017345Y011210D02*
X017495Y011210D01*
X017700Y011415D02*
X017700Y011420D01*
X018340Y011420D02*
X018340Y011215D01*
X018345Y011210D02*
X018495Y011210D01*
X018660Y011375D02*
X018660Y011420D01*
X018450Y010890D02*
X018390Y010890D01*
X018340Y010725D02*
X018340Y010020D01*
X018020Y010020D02*
X018020Y010500D01*
X018185Y010570D02*
X018655Y010570D01*
X018660Y010565D02*
X018660Y010020D01*
X017706Y009930D02*
X014134Y009930D01*
X014180Y009884D02*
X014180Y010565D01*
X014185Y010570D02*
X014655Y010570D01*
X014725Y010500D02*
X015115Y010500D01*
X015390Y010775D01*
X015390Y011165D01*
X015135Y011420D01*
X015705Y011420D01*
X015450Y011165D01*
X015450Y010775D01*
X015725Y010500D01*
X015655Y010570D02*
X015185Y010570D01*
X015140Y010525D02*
X015140Y009702D01*
X015460Y009702D02*
X015460Y010765D01*
X015450Y010890D02*
X015390Y010890D01*
X015460Y011175D02*
X015460Y011420D01*
X015495Y011210D02*
X015345Y011210D01*
X015140Y011415D02*
X015140Y011420D01*
X014705Y011420D02*
X014450Y011165D01*
X014450Y010775D01*
X014725Y010500D01*
X014820Y010500D02*
X014820Y009629D01*
X014500Y009702D02*
X014500Y010725D01*
X014390Y010775D02*
X014390Y011165D01*
X014135Y011420D01*
X014705Y011420D01*
X014500Y011420D02*
X014500Y011215D01*
X014495Y011210D02*
X014345Y011210D01*
X014180Y011375D02*
X014180Y011420D01*
X014390Y010890D02*
X014450Y010890D01*
X014390Y010775D02*
X014115Y010500D01*
X013725Y010500D01*
X013470Y010755D01*
X013470Y010484D01*
X013508Y010446D01*
X013569Y010299D01*
X013540Y010369D02*
X013540Y010685D01*
X013470Y010570D02*
X013655Y010570D01*
X013860Y010500D02*
X013860Y010020D01*
X013540Y010020D02*
X013540Y010071D01*
X013540Y009343D02*
X013540Y009306D01*
X013439Y009290D02*
X013401Y009290D01*
X013540Y009027D02*
X013540Y008993D01*
X013770Y008970D02*
X014070Y008970D01*
X013860Y008916D02*
X013860Y009356D01*
X013796Y009290D02*
X013926Y009290D01*
X013860Y008316D02*
X013860Y008133D01*
X013540Y008133D02*
X013540Y008238D01*
X013220Y008238D02*
X013220Y008133D01*
X013017Y008010D02*
X011819Y008010D01*
X011300Y007588D02*
X011300Y003770D01*
X010980Y003770D02*
X010980Y005331D01*
X010660Y005213D02*
X010660Y003770D01*
X010340Y003770D02*
X010340Y005213D01*
X010020Y005213D02*
X010020Y003770D01*
X009700Y003770D02*
X009700Y005213D01*
X009574Y005224D02*
X009574Y005334D01*
X009380Y004889D02*
X009380Y003770D01*
X009060Y003770D02*
X009060Y004704D01*
X009301Y004810D02*
X013539Y004810D01*
X013540Y004809D02*
X013540Y003770D01*
X013860Y003770D02*
X013860Y004700D01*
X014820Y005213D02*
X014820Y003770D01*
X015140Y003770D02*
X015140Y005213D01*
X015460Y005213D02*
X015460Y003770D01*
X015780Y003770D02*
X015780Y005213D01*
X015990Y005450D02*
X018266Y005450D01*
X018340Y005662D02*
X018340Y006709D01*
X018119Y006730D02*
X015720Y006730D01*
X015780Y006440D02*
X015780Y008271D01*
X015839Y008330D02*
X016001Y008330D01*
X016100Y008238D02*
X016100Y008214D01*
X016021Y008010D02*
X015720Y008010D01*
X015720Y007690D02*
X016136Y007690D01*
X016100Y007726D02*
X016100Y003770D01*
X016420Y003770D02*
X016420Y007571D01*
X016704Y007690D02*
X017386Y007690D01*
X017380Y007696D02*
X017380Y003527D01*
X016740Y003770D02*
X016740Y007726D01*
X015964Y008650D02*
X015876Y008650D01*
X015120Y008010D02*
X014819Y008010D01*
X014704Y007690D02*
X015120Y007690D01*
X015120Y007370D02*
X014238Y007370D01*
X014238Y007050D02*
X015120Y007050D01*
X015120Y006730D02*
X014131Y006730D01*
X014180Y006779D02*
X014180Y005954D01*
X014428Y005770D02*
X014566Y005770D01*
X014500Y005662D02*
X014500Y007572D01*
X013860Y006709D02*
X013860Y006008D01*
X014566Y006090D02*
X010990Y006090D01*
X010980Y006322D02*
X010980Y008351D01*
X011001Y008330D02*
X010839Y008330D01*
X010876Y008650D02*
X010964Y008650D01*
X010964Y008864D02*
X011070Y008970D01*
X010980Y008880D02*
X010980Y009060D01*
X010964Y009290D02*
X010876Y009290D01*
X011021Y008010D02*
X010720Y008010D01*
X010720Y007690D02*
X011136Y007690D01*
X010120Y008010D02*
X009819Y008010D01*
X009060Y008143D02*
X009060Y008271D01*
X008740Y008238D02*
X008740Y008133D01*
X008420Y008133D02*
X008420Y008238D01*
X008100Y008238D02*
X008100Y008093D01*
X008017Y008010D02*
X006819Y008010D01*
X007714Y008330D02*
X008001Y008330D01*
X007780Y008393D02*
X007780Y003527D01*
X006820Y003146D02*
X006820Y001230D01*
X006978Y001354D02*
X006850Y001483D01*
X006850Y002138D01*
X006978Y002267D01*
X008145Y002267D01*
X008274Y002138D01*
X008274Y001483D01*
X008145Y001354D01*
X006978Y001354D01*
X007140Y001354D02*
X007140Y001230D01*
X007460Y001230D02*
X007460Y001354D01*
X007780Y001354D02*
X007780Y001230D01*
X008100Y001230D02*
X008100Y001354D01*
X008274Y001610D02*
X011850Y001610D01*
X011850Y001483D02*
X011978Y001354D01*
X013145Y001354D01*
X013274Y001483D01*
X013274Y002138D01*
X013145Y002267D01*
X011978Y002267D01*
X011850Y002138D01*
X011850Y001483D01*
X011940Y001393D02*
X011940Y001230D01*
X011620Y001230D02*
X011620Y003170D01*
X011300Y003170D02*
X011300Y001230D01*
X010980Y001230D02*
X010980Y003170D01*
X010660Y003170D02*
X010660Y002738D01*
X010789Y002738D02*
X010338Y002738D01*
X010338Y002264D01*
X010218Y002264D01*
X010218Y002144D01*
X010338Y002144D01*
X010338Y001671D01*
X010789Y001671D01*
X010824Y001680D01*
X010856Y001699D01*
X010882Y001725D01*
X010901Y001757D01*
X010910Y001792D01*
X010910Y002144D01*
X010338Y002144D01*
X010338Y002264D01*
X010910Y002264D01*
X010910Y002616D01*
X010901Y002652D01*
X010882Y002684D01*
X010856Y002710D01*
X010824Y002728D01*
X010789Y002738D01*
X010910Y002570D02*
X011850Y002570D01*
X011940Y002338D02*
X011940Y002228D01*
X011962Y002250D02*
X010338Y002250D01*
X010340Y002264D02*
X010340Y002144D01*
X010218Y002144D02*
X010218Y001671D01*
X009768Y001671D01*
X009732Y001680D01*
X009700Y001699D01*
X009700Y001230D01*
X010020Y001230D02*
X010020Y001671D01*
X010340Y001671D02*
X010340Y001230D01*
X010660Y001230D02*
X010660Y001671D01*
X010910Y001930D02*
X011850Y001930D01*
X012260Y002267D02*
X012260Y002299D01*
X012580Y002299D02*
X012580Y002267D01*
X012900Y002267D02*
X012900Y002299D01*
X013162Y002250D02*
X013357Y002250D01*
X013220Y002192D02*
X013220Y002374D01*
X013274Y001930D02*
X014646Y001930D01*
X014646Y001792D02*
X014656Y001757D01*
X014674Y001725D01*
X014700Y001699D01*
X014732Y001680D01*
X014768Y001671D01*
X015218Y001671D01*
X015218Y002144D01*
X015338Y002144D01*
X015338Y001671D01*
X015789Y001671D01*
X015824Y001680D01*
X015856Y001699D01*
X015882Y001725D01*
X015901Y001757D01*
X015910Y001792D01*
X015910Y002144D01*
X015338Y002144D01*
X015338Y002264D01*
X015218Y002264D01*
X015218Y002144D01*
X014646Y002144D01*
X014646Y001792D01*
X014820Y001671D02*
X014820Y001230D01*
X015140Y001230D02*
X015140Y001671D01*
X015218Y001930D02*
X015338Y001930D01*
X015460Y002144D02*
X015460Y002264D01*
X015338Y002264D02*
X015910Y002264D01*
X015910Y002616D01*
X015901Y002652D01*
X015882Y002684D01*
X015856Y002710D01*
X015824Y002728D01*
X015789Y002738D01*
X015338Y002738D01*
X015338Y002264D01*
X015338Y002250D02*
X016962Y002250D01*
X016978Y002267D02*
X016850Y002138D01*
X016850Y001483D01*
X016978Y001354D01*
X018145Y001354D01*
X018274Y001483D01*
X018274Y002138D01*
X018145Y002267D01*
X016978Y002267D01*
X017060Y002267D02*
X017060Y002299D01*
X017380Y002299D02*
X017380Y002267D01*
X017700Y002267D02*
X017700Y002299D01*
X018020Y002299D02*
X018020Y002267D01*
X018162Y002250D02*
X018357Y002250D01*
X018340Y002290D02*
X018340Y001230D01*
X018020Y001230D02*
X018020Y001354D01*
X017700Y001354D02*
X017700Y001230D01*
X017380Y001230D02*
X017380Y001354D01*
X017060Y001354D02*
X017060Y001230D01*
X016740Y001230D02*
X016740Y003170D01*
X016850Y002890D02*
X014507Y002890D01*
X014500Y002906D02*
X014500Y003170D01*
X014820Y003170D02*
X014820Y002738D01*
X014768Y002738D02*
X014732Y002728D01*
X014700Y002710D01*
X014674Y002684D01*
X014656Y002652D01*
X014646Y002616D01*
X014646Y002264D01*
X015218Y002264D01*
X015218Y002738D01*
X014768Y002738D01*
X014646Y002570D02*
X014574Y002570D01*
X014500Y002290D02*
X014500Y001230D01*
X014180Y001230D02*
X014180Y001998D01*
X013860Y001944D02*
X013860Y001230D01*
X013540Y001230D02*
X013540Y002053D01*
X013274Y001610D02*
X016850Y001610D01*
X016850Y001930D02*
X015910Y001930D01*
X015780Y002144D02*
X015780Y002264D01*
X015910Y002570D02*
X016850Y002570D01*
X016420Y003170D02*
X016420Y001230D01*
X016100Y001230D02*
X016100Y003170D01*
X015780Y003170D02*
X015780Y002738D01*
X015460Y002738D02*
X015460Y003170D01*
X015140Y003170D02*
X015140Y002738D01*
X015218Y002570D02*
X015338Y002570D01*
X015218Y002250D02*
X014483Y002250D01*
X014820Y002264D02*
X014820Y002144D01*
X015140Y002144D02*
X015140Y002264D01*
X015460Y001671D02*
X015460Y001230D01*
X015780Y001230D02*
X015780Y001671D01*
X018274Y001610D02*
X021850Y001610D01*
X021850Y001483D02*
X021978Y001354D01*
X023145Y001354D01*
X023274Y001483D01*
X023274Y002138D01*
X023145Y002267D01*
X021978Y002267D01*
X021850Y002138D01*
X021850Y001483D01*
X021860Y001473D02*
X021860Y001230D01*
X021540Y001230D02*
X021540Y003170D01*
X021220Y003170D02*
X021220Y001230D01*
X020900Y001230D02*
X020900Y001755D01*
X020901Y001757D02*
X020910Y001792D01*
X020910Y002144D01*
X020338Y002144D01*
X020338Y001671D01*
X020789Y001671D01*
X020824Y001680D01*
X020856Y001699D01*
X020882Y001725D01*
X020901Y001757D01*
X020910Y001930D02*
X021850Y001930D01*
X021860Y002148D02*
X021860Y002418D01*
X021850Y002570D02*
X020910Y002570D01*
X020910Y002616D02*
X020901Y002652D01*
X020882Y002684D01*
X020856Y002710D01*
X020824Y002728D01*
X020789Y002738D01*
X020338Y002738D01*
X020338Y002264D01*
X020218Y002264D01*
X020218Y002144D01*
X020338Y002144D01*
X020338Y002264D01*
X020910Y002264D01*
X020910Y002616D01*
X020900Y002653D02*
X020900Y003170D01*
X020580Y003170D02*
X020580Y002738D01*
X020338Y002570D02*
X020218Y002570D01*
X020218Y002738D02*
X019768Y002738D01*
X019732Y002728D01*
X019700Y002710D01*
X019674Y002684D01*
X019656Y002652D01*
X019646Y002616D01*
X019646Y002264D01*
X020218Y002264D01*
X020218Y002738D01*
X019940Y002738D02*
X019940Y003170D01*
X019620Y003170D02*
X019620Y001230D01*
X019300Y001230D02*
X019300Y002053D01*
X019483Y002250D02*
X020218Y002250D01*
X020260Y002264D02*
X020260Y003170D01*
X019507Y002890D02*
X021850Y002890D01*
X021962Y002250D02*
X020338Y002250D01*
X020260Y002144D02*
X020260Y001230D01*
X019940Y001230D02*
X019940Y001671D01*
X019768Y001671D02*
X020218Y001671D01*
X020218Y002144D01*
X019646Y002144D01*
X019646Y001792D01*
X019656Y001757D01*
X019674Y001725D01*
X019700Y001699D01*
X019732Y001680D01*
X019768Y001671D01*
X019646Y001930D02*
X018274Y001930D01*
X018660Y001998D02*
X018660Y001230D01*
X018980Y001230D02*
X018980Y001944D01*
X019574Y002570D02*
X019646Y002570D01*
X019940Y002264D02*
X019940Y002144D01*
X020218Y001930D02*
X020338Y001930D01*
X020580Y002144D02*
X020580Y002264D01*
X020900Y002264D02*
X020900Y002144D01*
X020580Y001671D02*
X020580Y001230D01*
X022180Y001230D02*
X022180Y001354D01*
X022500Y001354D02*
X022500Y001230D01*
X022820Y001230D02*
X022820Y001354D01*
X023140Y001354D02*
X023140Y001230D01*
X023460Y001230D02*
X023460Y002133D01*
X023357Y002250D02*
X023162Y002250D01*
X023140Y002267D02*
X023140Y002299D01*
X022820Y002299D02*
X022820Y002267D01*
X022500Y002267D02*
X022500Y002299D01*
X022180Y002299D02*
X022180Y002267D01*
X023274Y001930D02*
X024646Y001930D01*
X024646Y001792D02*
X024656Y001757D01*
X024674Y001725D01*
X024700Y001699D01*
X024732Y001680D01*
X024768Y001671D01*
X025218Y001671D01*
X025218Y002144D01*
X025338Y002144D01*
X025338Y001671D01*
X025789Y001671D01*
X025824Y001680D01*
X025856Y001699D01*
X025882Y001725D01*
X025901Y001757D01*
X025910Y001792D01*
X025910Y002144D01*
X025338Y002144D01*
X025338Y002264D01*
X025218Y002264D01*
X025218Y002144D01*
X024646Y002144D01*
X024646Y001792D01*
X024740Y001678D02*
X024740Y001230D01*
X025060Y001230D02*
X025060Y001671D01*
X025218Y001930D02*
X025338Y001930D01*
X025380Y002144D02*
X025380Y002264D01*
X025338Y002264D02*
X025910Y002264D01*
X025910Y002616D01*
X025901Y002652D01*
X025882Y002684D01*
X025856Y002710D01*
X025824Y002728D01*
X025789Y002738D01*
X025338Y002738D01*
X025338Y002264D01*
X025338Y002250D02*
X026962Y002250D01*
X026978Y002267D02*
X026850Y002138D01*
X026850Y001483D01*
X026978Y001354D01*
X028145Y001354D01*
X028274Y001483D01*
X028274Y002138D01*
X028145Y002267D01*
X026978Y002267D01*
X026980Y002267D02*
X026980Y002299D01*
X026850Y002570D02*
X025910Y002570D01*
X025700Y002738D02*
X025700Y003170D01*
X025380Y003170D02*
X025380Y002738D01*
X025218Y002738D02*
X024768Y002738D01*
X024732Y002728D01*
X024700Y002710D01*
X024674Y002684D01*
X024656Y002652D01*
X024646Y002616D01*
X024646Y002264D01*
X025218Y002264D01*
X025218Y002738D01*
X025060Y002738D02*
X025060Y003170D01*
X024740Y003170D02*
X024740Y002731D01*
X024646Y002570D02*
X024574Y002570D01*
X024507Y002890D02*
X026850Y002890D01*
X026660Y003170D02*
X026660Y001230D01*
X026340Y001230D02*
X026340Y003170D01*
X026020Y003170D02*
X026020Y001230D01*
X025700Y001230D02*
X025700Y001671D01*
X025380Y001671D02*
X025380Y001230D01*
X025910Y001930D02*
X026850Y001930D01*
X026850Y001610D02*
X023274Y001610D01*
X023780Y001948D02*
X023780Y001230D01*
X024100Y001230D02*
X024100Y001965D01*
X024420Y002173D02*
X024420Y001230D01*
X024740Y002144D02*
X024740Y002264D01*
X024483Y002250D02*
X025218Y002250D01*
X025060Y002264D02*
X025060Y002144D01*
X025218Y002570D02*
X025338Y002570D01*
X025700Y002264D02*
X025700Y002144D01*
X026980Y001354D02*
X026980Y001230D01*
X027300Y001230D02*
X027300Y001354D01*
X027620Y001354D02*
X027620Y001230D01*
X027940Y001230D02*
X027940Y001354D01*
X028260Y001469D02*
X028260Y001230D01*
X028580Y001230D02*
X028580Y002031D01*
X028357Y002250D02*
X028162Y002250D01*
X028260Y002152D02*
X028260Y002414D01*
X027940Y002299D02*
X027940Y002267D01*
X027620Y002267D02*
X027620Y002299D01*
X027300Y002299D02*
X027300Y002267D01*
X028274Y001930D02*
X029646Y001930D01*
X029646Y001792D02*
X029656Y001757D01*
X029674Y001725D01*
X029700Y001699D01*
X029732Y001680D01*
X029768Y001671D01*
X030218Y001671D01*
X030218Y002144D01*
X030338Y002144D01*
X030338Y001671D01*
X030789Y001671D01*
X030824Y001680D01*
X030856Y001699D01*
X030882Y001725D01*
X030901Y001757D01*
X030910Y001792D01*
X030910Y002144D01*
X030338Y002144D01*
X030338Y002264D01*
X030218Y002264D01*
X030218Y002144D01*
X029646Y002144D01*
X029646Y001792D01*
X029860Y001671D02*
X029860Y001230D01*
X030180Y001230D02*
X030180Y001671D01*
X030218Y001930D02*
X030338Y001930D01*
X030180Y002144D02*
X030180Y002264D01*
X030218Y002264D02*
X029646Y002264D01*
X029646Y002616D01*
X029656Y002652D01*
X029674Y002684D01*
X029700Y002710D01*
X029732Y002728D01*
X029768Y002738D01*
X030218Y002738D01*
X030218Y002264D01*
X030218Y002250D02*
X029483Y002250D01*
X029540Y002387D02*
X029540Y001230D01*
X029220Y001230D02*
X029220Y002015D01*
X028900Y001944D02*
X028900Y001230D01*
X028274Y001610D02*
X031850Y001610D01*
X031850Y001483D02*
X031978Y001354D01*
X033145Y001354D01*
X033274Y001483D01*
X033274Y002138D01*
X033145Y002267D01*
X031978Y002267D01*
X031850Y002138D01*
X031850Y001483D01*
X031780Y001230D02*
X031780Y003170D01*
X031850Y002890D02*
X029507Y002890D01*
X029540Y002809D02*
X029540Y003170D01*
X029860Y003170D02*
X029860Y002738D01*
X029646Y002570D02*
X029574Y002570D01*
X029860Y002264D02*
X029860Y002144D01*
X030338Y002250D02*
X031962Y002250D01*
X032100Y002267D02*
X032100Y002299D01*
X032420Y002299D02*
X032420Y002267D01*
X032740Y002267D02*
X032740Y002299D01*
X033060Y002299D02*
X033060Y002267D01*
X033162Y002250D02*
X033357Y002250D01*
X033380Y002213D02*
X033380Y001230D01*
X033060Y001230D02*
X033060Y001354D01*
X032740Y001354D02*
X032740Y001230D01*
X032420Y001230D02*
X032420Y001354D01*
X032100Y001354D02*
X032100Y001230D01*
X031460Y001230D02*
X031460Y003170D01*
X031140Y003170D02*
X031140Y001230D01*
X030820Y001230D02*
X030820Y001679D01*
X030910Y001930D02*
X031850Y001930D01*
X031850Y002570D02*
X030910Y002570D01*
X030910Y002616D02*
X030901Y002652D01*
X030882Y002684D01*
X030856Y002710D01*
X030824Y002728D01*
X030789Y002738D01*
X030338Y002738D01*
X030338Y002264D01*
X030910Y002264D01*
X030910Y002616D01*
X030820Y002730D02*
X030820Y003170D01*
X030500Y003170D02*
X030500Y002738D01*
X030338Y002570D02*
X030218Y002570D01*
X030180Y002738D02*
X030180Y003170D01*
X030180Y003770D02*
X030180Y005213D01*
X030500Y005213D02*
X030500Y003770D01*
X029860Y003770D02*
X029860Y005213D01*
X029566Y006090D02*
X025990Y006090D01*
X025990Y005770D02*
X028412Y005770D01*
X028580Y005921D02*
X028580Y006709D01*
X028260Y006709D02*
X028260Y003770D01*
X028580Y003770D02*
X028580Y004787D01*
X028539Y004810D02*
X024301Y004810D01*
X024420Y004929D02*
X024420Y003770D01*
X024100Y003770D02*
X024100Y004721D01*
X024535Y005130D02*
X028305Y005130D01*
X028266Y005450D02*
X025990Y005450D01*
X025700Y005213D02*
X025700Y003770D01*
X025380Y003770D02*
X025380Y005213D01*
X025060Y005213D02*
X025060Y003770D01*
X024740Y003770D02*
X024740Y005213D01*
X024100Y005987D02*
X024100Y006709D01*
X024131Y006730D02*
X025120Y006730D01*
X025060Y006440D02*
X025060Y008271D01*
X025001Y008330D02*
X024839Y008330D01*
X024740Y008238D02*
X024740Y008214D01*
X024819Y008010D02*
X025120Y008010D01*
X025720Y008010D02*
X026021Y008010D01*
X026020Y008311D02*
X026020Y003770D01*
X026340Y003770D02*
X026340Y007572D01*
X026136Y007690D02*
X025720Y007690D01*
X025839Y008330D02*
X026001Y008330D01*
X025964Y008650D02*
X025876Y008650D01*
X025964Y008864D02*
X026070Y008970D01*
X026020Y008920D02*
X026020Y009020D01*
X025964Y009290D02*
X025876Y009290D01*
X024964Y008650D02*
X024876Y008650D01*
X024120Y008238D02*
X024120Y008234D01*
X024082Y008196D01*
X024056Y008133D01*
X023140Y008133D01*
X023140Y008238D01*
X023093Y008238D02*
X023747Y008238D01*
X023825Y008316D01*
X024015Y008316D01*
X024093Y008238D01*
X024120Y008238D01*
X024100Y008238D02*
X024100Y008214D01*
X023780Y008271D02*
X023780Y008133D01*
X023460Y008133D02*
X023460Y008238D01*
X023140Y008133D02*
X023011Y008004D01*
X023011Y006838D01*
X023140Y006709D01*
X023119Y006730D02*
X020720Y006730D01*
X020720Y007050D02*
X023011Y007050D01*
X023011Y007370D02*
X020720Y007370D01*
X020720Y007690D02*
X021136Y007690D01*
X021220Y007621D02*
X021220Y003770D01*
X021540Y003770D02*
X021540Y007588D01*
X021704Y007690D02*
X023011Y007690D01*
X023017Y008010D02*
X021819Y008010D01*
X021839Y008330D02*
X022126Y008330D01*
X022180Y008318D02*
X022180Y003634D01*
X022284Y003530D02*
X022806Y003530D01*
X022820Y003544D02*
X022820Y009020D01*
X022770Y008970D02*
X023070Y008970D01*
X023093Y008993D02*
X022964Y008864D01*
X022964Y008367D01*
X023093Y008238D01*
X023001Y008330D02*
X022714Y008330D01*
X022710Y008328D02*
X022742Y008346D01*
X022768Y008372D01*
X022787Y008404D01*
X022796Y008440D01*
X022796Y008597D01*
X022439Y008597D01*
X022439Y008318D01*
X022675Y008318D01*
X022710Y008328D01*
X022500Y008318D02*
X022500Y003527D01*
X021860Y003770D02*
X021860Y008351D01*
X022401Y008330D02*
X022439Y008330D01*
X022500Y008597D02*
X022500Y008634D01*
X022439Y008650D02*
X022401Y008650D01*
X022500Y008913D02*
X022500Y008947D01*
X022796Y008650D02*
X022964Y008650D01*
X023093Y008993D02*
X023747Y008993D01*
X023825Y008916D01*
X024015Y008916D01*
X024070Y008970D01*
X023460Y008993D02*
X023460Y009027D01*
X023439Y009290D02*
X023401Y009290D01*
X023460Y009306D02*
X023460Y009343D01*
X023140Y009343D02*
X023140Y009306D01*
X023044Y009290D02*
X022914Y009290D01*
X023140Y009034D02*
X023140Y008993D01*
X021540Y010095D02*
X021540Y011176D01*
X021506Y011210D02*
X021345Y011210D01*
X021220Y011335D02*
X021220Y011420D01*
X021480Y012020D02*
X021590Y011974D01*
X021920Y011644D01*
X022000Y011724D01*
X022120Y011844D01*
X022120Y014280D01*
X022166Y014390D01*
X022250Y014474D01*
X022305Y014530D01*
X022159Y014590D01*
X022030Y014719D01*
X021960Y014888D01*
X021960Y015551D01*
X022030Y015721D01*
X022159Y015850D01*
X022305Y015910D01*
X022166Y016050D01*
X022120Y016160D01*
X022120Y017629D01*
X022030Y017719D01*
X021960Y017888D01*
X021960Y018551D01*
X022030Y018721D01*
X022159Y018850D01*
X022328Y018920D01*
X022511Y018920D01*
X022620Y018875D01*
X022620Y018970D01*
X019720Y018970D01*
X019720Y018811D01*
X019810Y018721D01*
X019880Y018551D01*
X019880Y018104D01*
X019960Y018184D01*
X019960Y018551D01*
X020030Y018721D01*
X020159Y018850D01*
X020328Y018920D01*
X020511Y018920D01*
X020681Y018850D01*
X020810Y018721D01*
X020880Y018551D01*
X020880Y017888D01*
X020810Y017719D01*
X020681Y017590D01*
X020511Y017520D01*
X020328Y017520D01*
X020198Y017574D01*
X019840Y017216D01*
X019730Y017170D01*
X018018Y017170D01*
X017936Y017089D01*
X017896Y017072D01*
X017917Y017057D01*
X017969Y017006D01*
X018009Y016945D01*
X018037Y016878D01*
X018051Y016806D01*
X018051Y016785D01*
X017466Y016785D01*
X017466Y016755D01*
X017466Y016400D01*
X017718Y016400D01*
X017789Y016414D01*
X017857Y016442D01*
X017917Y016483D01*
X017969Y016534D01*
X018009Y016595D01*
X018037Y016662D01*
X018051Y016734D01*
X018051Y016755D01*
X017466Y016755D01*
X017436Y016755D01*
X016851Y016755D01*
X016851Y016734D01*
X016865Y016662D01*
X016893Y016595D01*
X016934Y016534D01*
X016985Y016483D01*
X017046Y016442D01*
X017113Y016414D01*
X017185Y016400D01*
X017436Y016400D01*
X017436Y016755D01*
X017436Y016785D01*
X016851Y016785D01*
X016851Y016806D01*
X016865Y016878D01*
X016893Y016945D01*
X016934Y017006D01*
X016985Y017057D01*
X017007Y017072D01*
X016966Y017089D01*
X016885Y017170D01*
X016402Y017170D01*
X016402Y017143D01*
X016273Y017014D01*
X015776Y017014D01*
X015647Y017143D01*
X015647Y017797D01*
X015757Y017908D01*
X015647Y018018D01*
X015647Y018631D01*
X015608Y018670D01*
X015582Y018670D01*
X015585Y018667D01*
X015604Y018635D01*
X015613Y018600D01*
X015613Y018364D01*
X015334Y018364D01*
X015334Y018326D01*
X015334Y017969D01*
X015492Y017969D01*
X015527Y017978D01*
X015559Y017997D01*
X015585Y018023D01*
X015604Y018055D01*
X015613Y018090D01*
X015613Y018326D01*
X015334Y018326D01*
X015297Y018326D01*
X015297Y017969D01*
X015140Y017969D01*
X015140Y017846D01*
X015104Y017837D01*
X015072Y017818D01*
X015046Y017792D01*
X015028Y017760D01*
X015018Y017725D01*
X015018Y017489D01*
X015297Y017489D01*
X015297Y017846D01*
X015140Y017846D01*
X015140Y017969D02*
X015104Y017978D01*
X015072Y017997D01*
X015046Y018023D01*
X015028Y018055D01*
X015018Y018090D01*
X015018Y018326D01*
X015297Y018326D01*
X015297Y018364D01*
X015018Y018364D01*
X015018Y018600D01*
X015028Y018635D01*
X015046Y018667D01*
X015049Y018670D01*
X015044Y018670D01*
X014924Y018550D01*
X014920Y018546D01*
X014920Y014470D01*
X000680Y014470D01*
X000680Y010154D01*
X000916Y010390D01*
X001000Y010474D01*
X001110Y010520D01*
X003546Y010520D01*
X003620Y010594D01*
X003620Y012030D01*
X003620Y014470D01*
X003300Y014470D02*
X003300Y010520D01*
X003596Y010570D02*
X000680Y010570D01*
X000680Y010250D02*
X000776Y010250D01*
X000740Y010214D02*
X000740Y014470D01*
X000680Y014410D02*
X014936Y014410D01*
X014820Y014470D02*
X014820Y014294D01*
X014616Y014090D02*
X000680Y014090D01*
X000680Y013770D02*
X014296Y013770D01*
X014180Y013654D02*
X014180Y014470D01*
X013860Y014470D02*
X013860Y013520D01*
X014046Y013520D02*
X013434Y013520D01*
X013396Y013558D01*
X013249Y013619D01*
X013091Y013619D01*
X012944Y013558D01*
X012906Y013520D01*
X012610Y013520D01*
X012500Y013474D01*
X012416Y013390D01*
X011666Y012640D01*
X011620Y012530D01*
X011620Y014470D01*
X011300Y014470D02*
X011300Y011770D01*
X011546Y011770D02*
X008544Y011770D01*
X006840Y013474D01*
X006730Y013520D01*
X005110Y013520D01*
X005000Y013474D01*
X004916Y013390D01*
X003666Y012140D01*
X003620Y012030D01*
X003696Y012170D02*
X000680Y012170D01*
X000680Y011850D02*
X002321Y011850D01*
X002340Y011869D02*
X002340Y014470D01*
X002020Y014470D02*
X002020Y010520D01*
X001700Y010520D02*
X001700Y014470D01*
X001380Y014470D02*
X001380Y010520D01*
X001060Y010499D02*
X001060Y014470D01*
X001060Y014970D02*
X001060Y030599D01*
X001165Y030704D02*
X001445Y030866D01*
X001758Y030949D01*
X001920Y030960D01*
X039920Y030960D01*
X040082Y030949D01*
X040395Y030866D01*
X040675Y030704D01*
X040904Y030475D01*
X041066Y030195D01*
X041149Y029882D01*
X041160Y029720D01*
X041160Y019470D01*
X029970Y019470D01*
X029970Y019846D01*
X030090Y019966D01*
X030174Y020050D01*
X030220Y020160D01*
X030220Y020945D01*
X030260Y020961D01*
X030429Y021130D01*
X030520Y021351D01*
X030520Y021589D01*
X030429Y021810D01*
X030260Y021979D01*
X030242Y021986D01*
X030243Y021987D01*
X030403Y022147D01*
X030490Y022357D01*
X030490Y022583D01*
X030403Y022793D01*
X030243Y022953D01*
X030202Y022970D01*
X030243Y022987D01*
X030403Y023147D01*
X030490Y023357D01*
X030490Y023583D01*
X030403Y023793D01*
X030243Y023953D01*
X030202Y023970D01*
X030243Y023987D01*
X030403Y024147D01*
X030490Y024357D01*
X030490Y024583D01*
X030403Y024793D01*
X030243Y024953D01*
X030202Y024970D01*
X030243Y024987D01*
X030403Y025147D01*
X030490Y025357D01*
X030490Y025583D01*
X030403Y025793D01*
X030243Y025953D01*
X030202Y025970D01*
X030243Y025987D01*
X030403Y026147D01*
X030490Y026357D01*
X030490Y026583D01*
X030403Y026793D01*
X030243Y026953D01*
X030033Y027040D01*
X029807Y027040D01*
X029597Y026953D01*
X029437Y026793D01*
X029420Y026752D01*
X029403Y026793D01*
X029243Y026953D01*
X029033Y027040D01*
X028807Y027040D01*
X028597Y026953D01*
X028437Y026793D01*
X028420Y026752D01*
X028403Y026793D01*
X028243Y026953D01*
X028033Y027040D01*
X027807Y027040D01*
X027597Y026953D01*
X027437Y026793D01*
X027420Y026752D01*
X027403Y026793D01*
X027243Y026953D01*
X027033Y027040D01*
X026807Y027040D01*
X026597Y026953D01*
X026437Y026793D01*
X026436Y026792D01*
X026429Y026810D01*
X026260Y026979D01*
X026039Y027070D01*
X025801Y027070D01*
X025580Y026979D01*
X025420Y026819D01*
X025260Y026979D01*
X025039Y027070D01*
X024801Y027070D01*
X024580Y026979D01*
X024420Y026819D01*
X024420Y030960D01*
X024100Y030960D02*
X024100Y030440D01*
X024115Y030440D02*
X023725Y030440D01*
X023450Y030165D01*
X023450Y029775D01*
X023725Y029500D01*
X024115Y029500D01*
X024390Y029775D01*
X024390Y030165D01*
X024115Y030440D01*
X024145Y030410D02*
X024695Y030410D01*
X024725Y030440D02*
X024450Y030165D01*
X024450Y029775D01*
X024725Y029500D01*
X025115Y029500D01*
X025390Y029775D01*
X025390Y030165D01*
X025115Y030440D01*
X024725Y030440D01*
X024740Y030440D02*
X024740Y030960D01*
X025060Y030960D02*
X025060Y030440D01*
X025145Y030410D02*
X025695Y030410D01*
X025700Y030415D02*
X025700Y030960D01*
X025380Y030960D02*
X025380Y030175D01*
X025450Y030165D02*
X025450Y029775D01*
X025725Y029500D01*
X026115Y029500D01*
X026390Y029775D01*
X026390Y030165D01*
X026115Y030440D01*
X025725Y030440D01*
X025450Y030165D01*
X025450Y030090D02*
X025390Y030090D01*
X025385Y029770D02*
X025455Y029770D01*
X025380Y029765D02*
X025380Y026859D01*
X025349Y026890D02*
X025491Y026890D01*
X025700Y027028D02*
X025700Y029525D01*
X026020Y029500D02*
X026020Y027070D01*
X026340Y026899D02*
X026340Y029725D01*
X026385Y029770D02*
X038924Y029770D01*
X038915Y029720D02*
X038915Y029720D01*
X038975Y029376D01*
X039150Y029074D01*
X039150Y029074D01*
X039417Y028849D01*
X039745Y028730D01*
X039972Y028730D01*
X040095Y028730D01*
X040423Y028849D01*
X040690Y029074D01*
X040865Y029376D01*
X040925Y029720D01*
X040865Y030064D01*
X040690Y030366D01*
X040423Y030591D01*
X040423Y030591D01*
X040095Y030710D01*
X039745Y030710D01*
X039417Y030591D01*
X039150Y030366D01*
X038975Y030064D01*
X038915Y029720D01*
X038962Y029450D02*
X003128Y029450D01*
X003115Y029376D02*
X003175Y029720D01*
X003115Y030064D01*
X002940Y030366D01*
X002673Y030591D01*
X002673Y030591D01*
X002345Y030710D01*
X001995Y030710D01*
X001667Y030591D01*
X001400Y030366D01*
X001225Y030064D01*
X001165Y029720D01*
X001225Y029376D01*
X001400Y029074D01*
X001400Y029074D01*
X001667Y028849D01*
X001995Y028730D01*
X002118Y028730D01*
X002345Y028730D01*
X002673Y028849D01*
X002673Y028849D01*
X002940Y029074D01*
X003115Y029376D01*
X002980Y029143D02*
X002980Y027040D01*
X003033Y027040D02*
X002807Y027040D01*
X002597Y026953D01*
X002437Y026793D01*
X002350Y026583D01*
X002350Y026357D01*
X002359Y026334D01*
X001750Y025724D01*
X001666Y025640D01*
X001620Y025530D01*
X001620Y019160D01*
X001666Y019050D01*
X001750Y018966D01*
X002250Y018466D01*
X002360Y018420D01*
X014420Y018420D01*
X014420Y014970D01*
X000680Y014970D01*
X000680Y029720D01*
X000691Y029882D01*
X000774Y030195D01*
X000936Y030475D01*
X001165Y030704D01*
X001211Y030730D02*
X040629Y030730D01*
X040740Y030639D02*
X040740Y030280D01*
X040690Y030366D02*
X040690Y030366D01*
X040638Y030410D02*
X040941Y030410D01*
X041060Y030204D02*
X041060Y019470D01*
X041160Y019530D02*
X029970Y019530D01*
X030180Y019470D02*
X030180Y020064D01*
X030220Y020170D02*
X041160Y020170D01*
X041160Y019850D02*
X029974Y019850D01*
X029370Y019850D02*
X027220Y019850D01*
X027220Y019734D02*
X027220Y020945D01*
X027260Y020961D01*
X027420Y021121D01*
X027580Y020961D01*
X027801Y020870D01*
X028039Y020870D01*
X028260Y020961D01*
X028429Y021130D01*
X028465Y021218D01*
X028475Y021197D01*
X028523Y021131D01*
X028581Y021073D01*
X028647Y021025D01*
X028720Y020988D01*
X028798Y020963D01*
X028879Y020950D01*
X028880Y020950D01*
X028880Y021430D01*
X028960Y021430D01*
X028960Y020950D01*
X028961Y020950D01*
X029042Y020963D01*
X029120Y020988D01*
X029193Y021025D01*
X029259Y021073D01*
X029317Y021131D01*
X029365Y021197D01*
X029375Y021218D01*
X029411Y021130D01*
X029580Y020961D01*
X029620Y020945D01*
X029620Y020344D01*
X029416Y020140D01*
X029370Y020030D01*
X029370Y019470D01*
X027319Y019470D01*
X027319Y019549D01*
X027258Y019696D01*
X027220Y019734D01*
X027300Y019595D02*
X027300Y021001D01*
X027220Y020810D02*
X029620Y020810D01*
X029540Y021001D02*
X029540Y020264D01*
X029446Y020170D02*
X027220Y020170D01*
X027220Y020490D02*
X029620Y020490D01*
X030220Y020490D02*
X041160Y020490D01*
X041160Y020810D02*
X030220Y020810D01*
X030429Y021130D02*
X041160Y021130D01*
X041160Y021450D02*
X030520Y021450D01*
X030500Y021302D02*
X030500Y019470D01*
X030820Y019470D02*
X030820Y030960D01*
X030500Y030960D02*
X030500Y021638D01*
X030445Y021770D02*
X041160Y021770D01*
X041160Y022090D02*
X030346Y022090D01*
X030490Y022410D02*
X041160Y022410D01*
X041160Y022730D02*
X030429Y022730D01*
X030306Y023050D02*
X041160Y023050D01*
X041160Y023370D02*
X030490Y023370D01*
X030446Y023690D02*
X041160Y023690D01*
X041160Y024010D02*
X030266Y024010D01*
X030479Y024330D02*
X041160Y024330D01*
X041160Y024650D02*
X030462Y024650D01*
X030202Y024970D02*
X041160Y024970D01*
X041160Y025290D02*
X030462Y025290D01*
X030479Y025610D02*
X041160Y025610D01*
X041160Y025930D02*
X030266Y025930D01*
X030446Y026250D02*
X041160Y026250D01*
X041160Y026570D02*
X030490Y026570D01*
X030306Y026890D02*
X041160Y026890D01*
X041160Y027210D02*
X023604Y027210D01*
X023460Y027354D02*
X023460Y029765D01*
X023455Y029770D02*
X023272Y029770D01*
X023310Y029808D02*
X023310Y029951D01*
X022939Y029951D01*
X022939Y029989D01*
X022901Y029989D01*
X022901Y030360D01*
X022758Y030360D01*
X022530Y030132D01*
X022530Y029989D01*
X022901Y029989D01*
X022901Y029951D01*
X022530Y029951D01*
X022530Y029808D01*
X022758Y029580D01*
X022901Y029580D01*
X022901Y029951D01*
X022939Y029951D01*
X022939Y029580D01*
X023082Y029580D01*
X023310Y029808D01*
X023310Y029989D02*
X022939Y029989D01*
X022939Y030360D01*
X023082Y030360D01*
X023310Y030132D01*
X023310Y029989D01*
X023310Y030090D02*
X023450Y030090D01*
X023460Y030175D02*
X023460Y030960D01*
X023780Y030960D02*
X023780Y030440D01*
X023695Y030410D02*
X021145Y030410D01*
X021115Y030440D02*
X020725Y030440D01*
X020450Y030165D01*
X020450Y029775D01*
X020725Y029500D01*
X021115Y029500D01*
X021390Y029775D01*
X021390Y030165D01*
X021115Y030440D01*
X021220Y030335D02*
X021220Y030960D01*
X020900Y030960D02*
X020900Y030440D01*
X020695Y030410D02*
X019145Y030410D01*
X019115Y030440D02*
X018725Y030440D01*
X018450Y030165D01*
X018450Y029775D01*
X018725Y029500D01*
X019115Y029500D01*
X019390Y029775D01*
X019390Y030165D01*
X019115Y030440D01*
X018980Y030440D02*
X018980Y030960D01*
X018660Y030960D02*
X018660Y030375D01*
X018695Y030410D02*
X018145Y030410D01*
X018115Y030440D02*
X017725Y030440D01*
X017450Y030165D01*
X017450Y029775D01*
X017725Y029500D01*
X018115Y029500D01*
X018390Y029775D01*
X018390Y030165D01*
X018115Y030440D01*
X018020Y030440D02*
X018020Y030960D01*
X018340Y030960D02*
X018340Y030215D01*
X018390Y030090D02*
X018450Y030090D01*
X018455Y029770D02*
X018385Y029770D01*
X018340Y029725D02*
X018340Y027770D01*
X018020Y027770D02*
X018020Y029500D01*
X017700Y029525D02*
X017700Y027770D01*
X017380Y027770D02*
X017380Y029765D01*
X017385Y029770D02*
X017455Y029770D01*
X017390Y029775D02*
X017115Y029500D01*
X016725Y029500D01*
X016450Y029775D01*
X016450Y030165D01*
X016725Y030440D01*
X017115Y030440D01*
X017390Y030165D01*
X017390Y029775D01*
X017390Y030090D02*
X017450Y030090D01*
X017380Y030175D02*
X017380Y030960D01*
X017060Y030960D02*
X017060Y030440D01*
X017145Y030410D02*
X017695Y030410D01*
X017700Y030415D02*
X017700Y030960D01*
X016740Y030960D02*
X016740Y030440D01*
X016695Y030410D02*
X016145Y030410D01*
X016115Y030440D02*
X015725Y030440D01*
X015450Y030165D01*
X015450Y029775D01*
X015725Y029500D01*
X016115Y029500D01*
X016390Y029775D01*
X016390Y030165D01*
X016115Y030440D01*
X016100Y030440D02*
X016100Y030960D01*
X015780Y030960D02*
X015780Y030440D01*
X015695Y030410D02*
X015145Y030410D01*
X015140Y030415D02*
X015140Y030960D01*
X015460Y030960D02*
X015460Y030175D01*
X015390Y030165D02*
X015115Y030440D01*
X014725Y030440D01*
X014450Y030165D01*
X014450Y029775D01*
X014725Y029500D01*
X015115Y029500D01*
X015390Y029775D01*
X015390Y030165D01*
X015390Y030090D02*
X015450Y030090D01*
X015455Y029770D02*
X015385Y029770D01*
X015460Y029765D02*
X015460Y027770D01*
X015140Y027770D02*
X015140Y029525D01*
X014820Y029500D02*
X014820Y027770D01*
X014500Y027770D02*
X014500Y029725D01*
X014455Y029770D02*
X014385Y029770D01*
X014390Y029775D02*
X014115Y029500D01*
X013725Y029500D01*
X013450Y029775D01*
X013450Y030165D01*
X013725Y030440D01*
X014115Y030440D01*
X014390Y030165D01*
X014390Y029775D01*
X014180Y029565D02*
X014180Y027770D01*
X013860Y027770D02*
X013750Y027724D01*
X013666Y027640D01*
X013056Y027031D01*
X013033Y027040D01*
X012807Y027040D01*
X012597Y026953D01*
X012437Y026793D01*
X012427Y026770D01*
X012413Y026770D01*
X012403Y026793D01*
X012243Y026953D01*
X012033Y027040D01*
X011807Y027040D01*
X011597Y026953D01*
X011437Y026793D01*
X011427Y026770D01*
X011413Y026770D01*
X011403Y026793D01*
X011243Y026953D01*
X011033Y027040D01*
X010807Y027040D01*
X010597Y026953D01*
X010437Y026793D01*
X010427Y026770D01*
X010413Y026770D01*
X010403Y026793D01*
X010243Y026953D01*
X010033Y027040D01*
X009807Y027040D01*
X009597Y026953D01*
X009437Y026793D01*
X009427Y026770D01*
X009413Y026770D01*
X009403Y026793D01*
X009243Y026953D01*
X009033Y027040D01*
X008807Y027040D01*
X008597Y026953D01*
X008437Y026793D01*
X008427Y026770D01*
X008413Y026770D01*
X008403Y026793D01*
X008243Y026953D01*
X008033Y027040D01*
X007807Y027040D01*
X007597Y026953D01*
X007437Y026793D01*
X007427Y026770D01*
X007413Y026770D01*
X007403Y026793D01*
X007243Y026953D01*
X007033Y027040D01*
X006807Y027040D01*
X006597Y026953D01*
X006437Y026793D01*
X006427Y026770D01*
X006413Y026770D01*
X006403Y026793D01*
X006243Y026953D01*
X006033Y027040D01*
X005807Y027040D01*
X005597Y026953D01*
X005437Y026793D01*
X005427Y026770D01*
X005413Y026770D01*
X005403Y026793D01*
X005243Y026953D01*
X005033Y027040D01*
X004807Y027040D01*
X004597Y026953D01*
X004437Y026793D01*
X004427Y026770D01*
X004413Y026770D01*
X004403Y026793D01*
X004243Y026953D01*
X004033Y027040D01*
X003807Y027040D01*
X003597Y026953D01*
X003437Y026793D01*
X003427Y026770D01*
X003413Y026770D01*
X003403Y026793D01*
X003243Y026953D01*
X003033Y027040D01*
X003300Y026896D02*
X003300Y030960D01*
X002980Y030960D02*
X002980Y030297D01*
X002940Y030366D02*
X002940Y030366D01*
X002888Y030410D02*
X013695Y030410D01*
X013860Y030440D02*
X013860Y030960D01*
X014180Y030960D02*
X014180Y030375D01*
X014145Y030410D02*
X014695Y030410D01*
X014820Y030440D02*
X014820Y030960D01*
X014500Y030960D02*
X014500Y030215D01*
X014450Y030090D02*
X014390Y030090D01*
X013860Y029500D02*
X013860Y027770D01*
X022980Y027770D01*
X023090Y027724D01*
X023761Y027053D01*
X023801Y027070D01*
X024039Y027070D01*
X024260Y026979D01*
X024420Y026819D01*
X024349Y026890D02*
X024491Y026890D01*
X024740Y027045D02*
X024740Y029500D01*
X025060Y029500D02*
X025060Y027061D01*
X024100Y027045D02*
X024100Y029500D01*
X023780Y029500D02*
X023780Y027061D01*
X023284Y027530D02*
X041160Y027530D01*
X041160Y027850D02*
X002178Y027850D01*
X002185Y027868D02*
X002107Y027678D01*
X001962Y027533D01*
X001772Y027455D01*
X001568Y027455D01*
X001378Y027533D01*
X001233Y027678D01*
X001155Y027868D01*
X001155Y028072D01*
X001233Y028262D01*
X001378Y028407D01*
X001568Y028485D01*
X001772Y028485D01*
X001962Y028407D01*
X002107Y028262D01*
X002185Y028072D01*
X002185Y027868D01*
X002145Y028170D02*
X041160Y028170D01*
X041160Y028490D02*
X000680Y028490D01*
X000680Y028810D02*
X001776Y028810D01*
X001700Y028838D02*
X001700Y028485D01*
X001380Y028408D02*
X001380Y029108D01*
X001367Y029130D02*
X000680Y029130D01*
X000680Y029450D02*
X001212Y029450D01*
X001225Y029376D02*
X001225Y029376D01*
X001165Y029720D02*
X001165Y029720D01*
X001174Y029770D02*
X000683Y029770D01*
X000740Y030066D02*
X000740Y014970D01*
X000680Y015050D02*
X014420Y015050D01*
X014180Y014970D02*
X014180Y018420D01*
X014420Y018250D02*
X000680Y018250D01*
X000680Y017930D02*
X014420Y017930D01*
X014420Y017610D02*
X000680Y017610D01*
X000680Y017290D02*
X014420Y017290D01*
X014420Y016970D02*
X000680Y016970D01*
X000680Y016650D02*
X014420Y016650D01*
X014420Y016330D02*
X000680Y016330D01*
X000680Y016010D02*
X014420Y016010D01*
X014420Y015690D02*
X000680Y015690D01*
X000680Y015370D02*
X014420Y015370D01*
X014920Y015370D02*
X015896Y015370D01*
X015780Y015254D02*
X015780Y017014D01*
X015585Y017148D02*
X015604Y017180D01*
X015613Y017215D01*
X015613Y017451D01*
X015334Y017451D01*
X015334Y017094D01*
X015492Y017094D01*
X015527Y017103D01*
X015559Y017122D01*
X015585Y017148D01*
X015460Y017094D02*
X015460Y014934D01*
X015576Y015050D02*
X014920Y015050D01*
X014920Y014730D02*
X015256Y014730D01*
X015140Y014614D02*
X015140Y017094D01*
X015297Y017094D01*
X015297Y017451D01*
X015334Y017451D01*
X015334Y017489D01*
X015297Y017489D01*
X015297Y017451D01*
X015018Y017451D01*
X015018Y017215D01*
X015028Y017180D01*
X015046Y017148D01*
X015072Y017122D01*
X015104Y017103D01*
X015140Y017094D01*
X015018Y017290D02*
X014920Y017290D01*
X015140Y017451D02*
X015140Y017489D01*
X015018Y017610D02*
X014920Y017610D01*
X014920Y017930D02*
X015735Y017930D01*
X015585Y017792D02*
X015559Y017818D01*
X015527Y017837D01*
X015492Y017846D01*
X015334Y017846D01*
X015334Y017489D01*
X015613Y017489D01*
X015613Y017725D01*
X015604Y017760D01*
X015585Y017792D01*
X015460Y017846D02*
X015460Y017969D01*
X015334Y018250D02*
X015297Y018250D01*
X015140Y018326D02*
X015140Y018364D01*
X015018Y018250D02*
X014920Y018250D01*
X014944Y018570D02*
X015018Y018570D01*
X015460Y018364D02*
X015460Y018326D01*
X015613Y018250D02*
X015647Y018250D01*
X015647Y018570D02*
X015613Y018570D01*
X016157Y018970D02*
X016371Y018970D01*
X016416Y018863D01*
X016500Y018778D01*
X016610Y018733D01*
X016730Y018733D01*
X016739Y018736D01*
X016743Y018729D01*
X016769Y018703D01*
X016801Y018685D01*
X016837Y018675D01*
X017115Y018675D01*
X017115Y018970D01*
X017225Y018970D01*
X017225Y018675D01*
X017503Y018675D01*
X017539Y018685D01*
X017571Y018703D01*
X017597Y018729D01*
X017615Y018761D01*
X017625Y018797D01*
X017625Y018970D01*
X019120Y018970D01*
X019120Y018811D01*
X019030Y018721D01*
X018960Y018551D01*
X018960Y018184D01*
X018796Y018020D01*
X018294Y018020D01*
X018131Y018183D01*
X018131Y018260D01*
X018063Y018425D01*
X017936Y018551D01*
X017771Y018620D01*
X017132Y018620D01*
X016966Y018551D01*
X016885Y018470D01*
X016844Y018470D01*
X016715Y018599D01*
X016605Y018645D01*
X016402Y018645D01*
X016402Y018672D01*
X016316Y018758D01*
X016279Y018848D01*
X016157Y018970D01*
X016237Y018890D02*
X016404Y018890D01*
X016420Y018858D02*
X016420Y018645D01*
X016740Y018574D02*
X016740Y018734D01*
X016744Y018570D02*
X017011Y018570D01*
X017060Y018590D02*
X017060Y018675D01*
X017115Y018890D02*
X017225Y018890D01*
X017380Y018675D02*
X017380Y018620D01*
X017700Y018620D02*
X017700Y018970D01*
X017625Y018890D02*
X019120Y018890D01*
X018980Y018970D02*
X018980Y018600D01*
X018968Y018570D02*
X017891Y018570D01*
X018020Y018468D02*
X018020Y018970D01*
X018340Y018970D02*
X018340Y018020D01*
X018131Y018250D02*
X018960Y018250D01*
X018660Y018020D02*
X018660Y018970D01*
X018376Y019470D02*
X017625Y019470D01*
X017625Y019590D01*
X017225Y019590D01*
X017225Y019700D01*
X017115Y019700D01*
X017115Y020015D01*
X016837Y020015D01*
X016801Y020005D01*
X016769Y019987D01*
X016743Y019961D01*
X016725Y019929D01*
X016715Y019893D01*
X016715Y019700D01*
X017115Y019700D01*
X017115Y019590D01*
X016849Y019590D01*
X016840Y019599D01*
X016730Y019645D01*
X016610Y019645D01*
X016500Y019599D01*
X016416Y019515D01*
X016397Y019470D01*
X014420Y019470D01*
X014420Y019020D01*
X002544Y019020D01*
X002220Y019344D01*
X002220Y025346D01*
X002350Y025476D01*
X002350Y025357D01*
X002437Y025147D01*
X002597Y024987D01*
X002638Y024970D01*
X002220Y024970D01*
X002437Y024793D02*
X002350Y024583D01*
X002350Y024357D01*
X002437Y024147D01*
X002597Y023987D01*
X002638Y023970D01*
X002597Y023953D01*
X002437Y023793D01*
X002350Y023583D01*
X002350Y023357D01*
X002437Y023147D01*
X002597Y022987D01*
X002638Y022970D01*
X002597Y022953D01*
X002437Y022793D01*
X002350Y022583D01*
X002350Y022357D01*
X002437Y022147D01*
X002597Y021987D01*
X002638Y021970D01*
X002597Y021953D01*
X002437Y021793D01*
X002350Y021583D01*
X002350Y021357D01*
X002437Y021147D01*
X002597Y020987D01*
X002807Y020900D01*
X003033Y020900D01*
X003243Y020987D01*
X003403Y021147D01*
X003420Y021188D01*
X003437Y021147D01*
X003597Y020987D01*
X003807Y020900D01*
X004033Y020900D01*
X004243Y020987D01*
X004403Y021147D01*
X004420Y021188D01*
X004437Y021147D01*
X004597Y020987D01*
X004807Y020900D01*
X005033Y020900D01*
X005243Y020987D01*
X005403Y021147D01*
X005420Y021188D01*
X005437Y021147D01*
X005597Y020987D01*
X005807Y020900D01*
X006033Y020900D01*
X006243Y020987D01*
X006403Y021147D01*
X006420Y021188D01*
X006437Y021147D01*
X006597Y020987D01*
X006807Y020900D01*
X007033Y020900D01*
X007243Y020987D01*
X007403Y021147D01*
X007420Y021188D01*
X007437Y021147D01*
X007597Y020987D01*
X007807Y020900D01*
X008033Y020900D01*
X008243Y020987D01*
X008403Y021147D01*
X008420Y021188D01*
X008437Y021147D01*
X008597Y020987D01*
X008807Y020900D01*
X009033Y020900D01*
X009243Y020987D01*
X009403Y021147D01*
X009420Y021188D01*
X009437Y021147D01*
X009597Y020987D01*
X009807Y020900D01*
X010033Y020900D01*
X010243Y020987D01*
X010403Y021147D01*
X010420Y021188D01*
X010437Y021147D01*
X010597Y020987D01*
X010807Y020900D01*
X011033Y020900D01*
X011243Y020987D01*
X011403Y021147D01*
X011420Y021188D01*
X011437Y021147D01*
X011597Y020987D01*
X011807Y020900D01*
X012033Y020900D01*
X012243Y020987D01*
X012403Y021147D01*
X012420Y021188D01*
X012437Y021147D01*
X012597Y020987D01*
X012807Y020900D01*
X013033Y020900D01*
X013243Y020987D01*
X013403Y021147D01*
X013420Y021188D01*
X013437Y021147D01*
X013597Y020987D01*
X013807Y020900D01*
X014033Y020900D01*
X014243Y020987D01*
X014403Y021147D01*
X014404Y021148D01*
X014411Y021130D01*
X014580Y020961D01*
X014801Y020870D01*
X015039Y020870D01*
X015260Y020961D01*
X015420Y021121D01*
X015580Y020961D01*
X015801Y020870D01*
X016039Y020870D01*
X016260Y020961D01*
X016420Y021121D01*
X016420Y019519D01*
X016431Y019530D02*
X002220Y019530D01*
X002220Y019850D02*
X016715Y019850D01*
X016740Y019956D02*
X016740Y020895D01*
X016801Y020870D02*
X017039Y020870D01*
X017260Y020961D01*
X017420Y021121D01*
X017580Y020961D01*
X017801Y020870D01*
X018039Y020870D01*
X018260Y020961D01*
X018420Y021121D01*
X018580Y020961D01*
X018801Y020870D01*
X019039Y020870D01*
X019260Y020961D01*
X019420Y021121D01*
X019580Y020961D01*
X019801Y020870D01*
X020039Y020870D01*
X020260Y020961D01*
X020420Y021121D01*
X020580Y020961D01*
X020801Y020870D01*
X021039Y020870D01*
X021260Y020961D01*
X021420Y021121D01*
X021580Y020961D01*
X021801Y020870D01*
X022039Y020870D01*
X022260Y020961D01*
X022420Y021121D01*
X022580Y020961D01*
X022620Y020945D01*
X022620Y019470D01*
X019839Y019470D01*
X019839Y019797D01*
X019710Y019926D01*
X019213Y019926D01*
X019107Y019820D01*
X019002Y019926D01*
X018505Y019926D01*
X018376Y019797D01*
X018376Y019470D01*
X018340Y019470D02*
X018340Y021041D01*
X018660Y020928D02*
X018660Y019926D01*
X018428Y019850D02*
X017625Y019850D01*
X017625Y019893D02*
X017615Y019929D01*
X017597Y019961D01*
X017571Y019987D01*
X017539Y020005D01*
X017503Y020015D01*
X017225Y020015D01*
X017225Y019700D01*
X017625Y019700D01*
X017625Y019893D01*
X017380Y020015D02*
X017380Y021081D01*
X017700Y020912D02*
X017700Y019470D01*
X017625Y019530D02*
X018376Y019530D01*
X018020Y019470D02*
X018020Y020870D01*
X018980Y020870D02*
X018980Y019926D01*
X019078Y019850D02*
X019137Y019850D01*
X019300Y019926D02*
X019300Y021001D01*
X019620Y020945D02*
X019620Y019926D01*
X019787Y019850D02*
X022620Y019850D01*
X022620Y019530D02*
X019839Y019530D01*
X019940Y019470D02*
X019940Y020870D01*
X020260Y020961D02*
X020260Y019470D01*
X020580Y019470D02*
X020580Y020961D01*
X020900Y020870D02*
X020900Y019470D01*
X021220Y019470D02*
X021220Y020945D01*
X021540Y021001D02*
X021540Y019470D01*
X021860Y019470D02*
X021860Y020870D01*
X022180Y020928D02*
X022180Y019470D01*
X022500Y019470D02*
X022500Y021041D01*
X022620Y020810D02*
X002220Y020810D01*
X002220Y020490D02*
X022620Y020490D01*
X022620Y020170D02*
X002220Y020170D01*
X001620Y020170D02*
X000680Y020170D01*
X000680Y019850D02*
X001620Y019850D01*
X001620Y019530D02*
X000680Y019530D01*
X000680Y019210D02*
X001620Y019210D01*
X001700Y019016D02*
X001700Y014970D01*
X002020Y014970D02*
X002020Y018696D01*
X002146Y018570D02*
X000680Y018570D01*
X000680Y018890D02*
X001826Y018890D01*
X002340Y019224D02*
X002340Y025466D01*
X002378Y025290D02*
X002220Y025290D01*
X002597Y024953D02*
X002437Y024793D01*
X002378Y024650D02*
X002220Y024650D01*
X002220Y024330D02*
X002361Y024330D01*
X002220Y024010D02*
X002574Y024010D01*
X002394Y023690D02*
X002220Y023690D01*
X002220Y023370D02*
X002350Y023370D01*
X002220Y023050D02*
X002534Y023050D01*
X002411Y022730D02*
X002220Y022730D01*
X002220Y022410D02*
X002350Y022410D01*
X002220Y022090D02*
X002494Y022090D01*
X002427Y021770D02*
X002220Y021770D01*
X002220Y021450D02*
X002350Y021450D01*
X002454Y021130D02*
X002220Y021130D01*
X002660Y020961D02*
X002660Y019020D01*
X002980Y019020D02*
X002980Y020900D01*
X003300Y021044D02*
X003300Y019020D01*
X003620Y019020D02*
X003620Y020977D01*
X003454Y021130D02*
X003386Y021130D01*
X003940Y020900D02*
X003940Y019020D01*
X004260Y019020D02*
X004260Y021004D01*
X004386Y021130D02*
X004454Y021130D01*
X004580Y021004D02*
X004580Y019020D01*
X004900Y019020D02*
X004900Y020900D01*
X005220Y020977D02*
X005220Y019020D01*
X005540Y019020D02*
X005540Y021044D01*
X005454Y021130D02*
X005386Y021130D01*
X005860Y020900D02*
X005860Y019020D01*
X006180Y019020D02*
X006180Y020961D01*
X006386Y021130D02*
X006454Y021130D01*
X006500Y021084D02*
X006500Y019020D01*
X006820Y019020D02*
X006820Y020900D01*
X007140Y020944D02*
X007140Y019020D01*
X007460Y019020D02*
X007460Y021124D01*
X007454Y021130D02*
X007386Y021130D01*
X007780Y020911D02*
X007780Y019020D01*
X008100Y019020D02*
X008100Y020928D01*
X008386Y021130D02*
X008454Y021130D01*
X008420Y021188D02*
X008420Y019020D01*
X008740Y019020D02*
X008740Y020928D01*
X009060Y020911D02*
X009060Y019020D01*
X009380Y019020D02*
X009380Y021124D01*
X009386Y021130D02*
X009454Y021130D01*
X009700Y020944D02*
X009700Y019020D01*
X010020Y019020D02*
X010020Y020900D01*
X010340Y021084D02*
X010340Y019020D01*
X010660Y019020D02*
X010660Y020961D01*
X010454Y021130D02*
X010386Y021130D01*
X010980Y020900D02*
X010980Y019020D01*
X011300Y019020D02*
X011300Y021044D01*
X011386Y021130D02*
X011454Y021130D01*
X011620Y020977D02*
X011620Y019020D01*
X011940Y019020D02*
X011940Y020900D01*
X012260Y021004D02*
X012260Y019020D01*
X012580Y019020D02*
X012580Y021004D01*
X012454Y021130D02*
X012386Y021130D01*
X012900Y020900D02*
X012900Y019020D01*
X013220Y019020D02*
X013220Y020977D01*
X013386Y021130D02*
X013454Y021130D01*
X013540Y021044D02*
X013540Y019020D01*
X013860Y019020D02*
X013860Y020900D01*
X014180Y020961D02*
X014180Y019020D01*
X014420Y019210D02*
X002354Y019210D01*
X002340Y018428D02*
X002340Y014970D01*
X002660Y014970D02*
X002660Y018420D01*
X002980Y018420D02*
X002980Y014970D01*
X003300Y014970D02*
X003300Y018420D01*
X003620Y018420D02*
X003620Y014970D01*
X003940Y014970D02*
X003940Y018420D01*
X004260Y018420D02*
X004260Y014970D01*
X004580Y014970D02*
X004580Y018420D01*
X004900Y018420D02*
X004900Y014970D01*
X005220Y014970D02*
X005220Y018420D01*
X005540Y018420D02*
X005540Y014970D01*
X005860Y014970D02*
X005860Y018420D01*
X006180Y018420D02*
X006180Y014970D01*
X006500Y014970D02*
X006500Y018420D01*
X006820Y018420D02*
X006820Y014970D01*
X007140Y014970D02*
X007140Y018420D01*
X007460Y018420D02*
X007460Y014970D01*
X007780Y014970D02*
X007780Y018420D01*
X008100Y018420D02*
X008100Y014970D01*
X008420Y014970D02*
X008420Y018420D01*
X008740Y018420D02*
X008740Y014970D01*
X009060Y014970D02*
X009060Y018420D01*
X009380Y018420D02*
X009380Y014970D01*
X009700Y014970D02*
X009700Y018420D01*
X010020Y018420D02*
X010020Y014970D01*
X010340Y014970D02*
X010340Y018420D01*
X010660Y018420D02*
X010660Y014970D01*
X010980Y014970D02*
X010980Y018420D01*
X011300Y018420D02*
X011300Y014970D01*
X011620Y014970D02*
X011620Y018420D01*
X011940Y018420D02*
X011940Y014970D01*
X012260Y014970D02*
X012260Y018420D01*
X012580Y018420D02*
X012580Y014970D01*
X012900Y014970D02*
X012900Y018420D01*
X013220Y018420D02*
X013220Y014970D01*
X013540Y014970D02*
X013540Y018420D01*
X013860Y018420D02*
X013860Y014970D01*
X013540Y014470D02*
X013540Y013520D01*
X013220Y013619D02*
X013220Y014470D01*
X012900Y014470D02*
X012900Y013520D01*
X012580Y013507D02*
X012580Y014470D01*
X012260Y014470D02*
X012260Y013234D01*
X012156Y013130D02*
X007184Y013130D01*
X007140Y013174D02*
X007140Y014470D01*
X007460Y014470D02*
X007460Y012854D01*
X007504Y012810D02*
X011836Y012810D01*
X011940Y012914D02*
X011940Y014470D01*
X010980Y014470D02*
X010980Y011770D01*
X010660Y011770D02*
X010660Y014470D01*
X010340Y014470D02*
X010340Y011770D01*
X010020Y011770D02*
X010020Y014470D01*
X009700Y014470D02*
X009700Y011770D01*
X009380Y011770D02*
X009380Y014470D01*
X009060Y014470D02*
X009060Y011770D01*
X008740Y011770D02*
X008740Y014470D01*
X008420Y014470D02*
X008420Y011894D01*
X008464Y011850D02*
X011620Y011850D01*
X011620Y011844D02*
X011546Y011770D01*
X011620Y011844D02*
X011620Y012530D01*
X011620Y012490D02*
X007824Y012490D01*
X007780Y012534D02*
X007780Y014470D01*
X008100Y014470D02*
X008100Y012214D01*
X008144Y012170D02*
X011620Y012170D01*
X012476Y013450D02*
X006864Y013450D01*
X006820Y013483D02*
X006820Y014470D01*
X006500Y014470D02*
X006500Y013520D01*
X006180Y013520D02*
X006180Y014470D01*
X005860Y014470D02*
X005860Y013520D01*
X005540Y013520D02*
X005540Y014470D01*
X005220Y014470D02*
X005220Y013520D01*
X004976Y013450D02*
X000680Y013450D01*
X000680Y013130D02*
X004656Y013130D01*
X004580Y013054D02*
X004580Y014470D01*
X004260Y014470D02*
X004260Y012734D01*
X004336Y012810D02*
X000680Y012810D01*
X000680Y012490D02*
X004016Y012490D01*
X003940Y012414D02*
X003940Y014470D01*
X002980Y014470D02*
X002980Y011889D01*
X002962Y011907D02*
X002772Y011985D01*
X002568Y011985D01*
X002378Y011907D01*
X002233Y011762D01*
X002155Y011572D01*
X002155Y011368D01*
X002233Y011178D01*
X002378Y011033D01*
X002568Y010955D01*
X002772Y010955D01*
X002962Y011033D01*
X003107Y011178D01*
X003185Y011368D01*
X003185Y011572D01*
X003107Y011762D01*
X002962Y011907D01*
X003019Y011850D02*
X003620Y011850D01*
X003620Y011530D02*
X003185Y011530D01*
X003120Y011210D02*
X003620Y011210D01*
X003620Y010890D02*
X000680Y010890D01*
X000680Y011210D02*
X002220Y011210D01*
X002340Y011071D02*
X002340Y010520D01*
X002660Y010520D02*
X002660Y010955D01*
X002980Y011051D02*
X002980Y010520D01*
X003940Y010066D02*
X003940Y010020D01*
X003926Y009290D02*
X003796Y009290D01*
X003940Y009276D02*
X003940Y008916D01*
X004070Y008970D02*
X003770Y008970D01*
X003620Y008993D02*
X003620Y009027D01*
X003620Y009306D02*
X003620Y009343D01*
X003439Y009290D02*
X003401Y009290D01*
X003300Y009306D02*
X003300Y009343D01*
X003044Y009290D02*
X002914Y009290D01*
X002980Y009356D02*
X002980Y008880D01*
X003070Y008970D02*
X002770Y008970D01*
X002660Y008947D02*
X002660Y008913D01*
X002660Y008634D02*
X002660Y008597D01*
X002796Y008650D02*
X002964Y008650D01*
X003300Y008993D02*
X003300Y009027D01*
X003300Y008238D02*
X003300Y008133D01*
X003017Y008010D02*
X001819Y008010D01*
X001856Y007690D02*
X003011Y007690D01*
X003011Y007370D02*
X001955Y007370D01*
X001955Y007050D02*
X003011Y007050D01*
X003620Y006709D02*
X003620Y005937D01*
X003940Y006008D02*
X003940Y006709D01*
X004131Y006730D02*
X005120Y006730D01*
X005120Y007050D02*
X004238Y007050D01*
X004238Y007370D02*
X005120Y007370D01*
X005720Y006730D02*
X008119Y006730D01*
X009238Y007050D02*
X010120Y007050D01*
X005964Y008650D02*
X005876Y008650D01*
X005876Y009290D02*
X005964Y009290D01*
X005540Y009702D02*
X005540Y010305D01*
X005417Y010349D02*
X005417Y010349D01*
X005220Y010515D02*
X005220Y009702D01*
X004760Y010250D02*
X005690Y010250D01*
X005154Y010570D02*
X004810Y010570D01*
X004720Y010890D02*
X004973Y010890D01*
X004975Y010876D02*
X004975Y010876D01*
X004916Y011210D02*
X004720Y011210D01*
X004915Y011220D02*
X004915Y011220D01*
X004969Y011530D02*
X004720Y011530D01*
X004975Y011564D02*
X004975Y011564D01*
X005417Y012091D02*
X005417Y012091D01*
X004900Y013374D02*
X004900Y014470D01*
X002660Y014470D02*
X002660Y011985D01*
X002155Y011530D02*
X000680Y011530D01*
X002401Y008330D02*
X002439Y008330D01*
X003620Y008238D02*
X003620Y008133D01*
X003940Y008133D02*
X003940Y008316D01*
X004260Y007605D02*
X004260Y005921D01*
X004428Y005770D02*
X004566Y005770D01*
X003266Y005450D02*
X001720Y005450D01*
X001120Y005450D02*
X000680Y005450D01*
X000680Y005130D02*
X001120Y005130D01*
X001120Y004810D02*
X000680Y004810D01*
X000680Y004490D02*
X001120Y004490D01*
X001120Y004170D02*
X000680Y004170D01*
X000680Y003850D02*
X001145Y003850D01*
X001720Y004170D02*
X041160Y004170D01*
X041160Y004490D02*
X001720Y004490D01*
X001120Y005770D02*
X000680Y005770D01*
X000680Y006090D02*
X001120Y006090D01*
X001060Y006220D02*
X001060Y001591D01*
X001041Y001610D02*
X001850Y001610D01*
X001850Y001483D02*
X001978Y001354D01*
X003145Y001354D01*
X003274Y001483D01*
X003274Y002138D01*
X003145Y002267D01*
X001978Y002267D01*
X001850Y002138D01*
X001850Y001483D01*
X002020Y001354D02*
X002020Y001230D01*
X002340Y001230D02*
X002340Y001354D01*
X002660Y001354D02*
X002660Y001230D01*
X002980Y001230D02*
X002980Y001354D01*
X003300Y001230D02*
X003300Y002387D01*
X003357Y002250D02*
X003162Y002250D01*
X002980Y002267D02*
X002980Y002299D01*
X002660Y002299D02*
X002660Y002267D01*
X002340Y002267D02*
X002340Y002299D01*
X002020Y002299D02*
X002020Y002267D01*
X001962Y002250D02*
X000706Y002250D01*
X000740Y002124D02*
X000740Y007476D01*
X000680Y007370D02*
X000846Y007370D01*
X000885Y007050D02*
X000680Y007050D01*
X000680Y006730D02*
X000885Y006730D01*
X000885Y006410D02*
X000680Y006410D01*
X004260Y003170D02*
X004260Y003165D01*
X004580Y003170D02*
X004580Y001230D01*
X004260Y001230D02*
X004260Y002031D01*
X004483Y002250D02*
X005218Y002250D01*
X005218Y002264D02*
X005218Y002144D01*
X005338Y002144D01*
X005338Y001671D01*
X005789Y001671D01*
X005824Y001680D01*
X005856Y001699D01*
X005882Y001725D01*
X005901Y001757D01*
X005910Y001792D01*
X005910Y002144D01*
X005338Y002144D01*
X005338Y002264D01*
X005218Y002264D01*
X004646Y002264D01*
X004646Y002616D01*
X004656Y002652D01*
X004674Y002684D01*
X004700Y002710D01*
X004732Y002728D01*
X004768Y002738D01*
X005218Y002738D01*
X005218Y002264D01*
X005220Y002264D02*
X005220Y003170D01*
X004900Y003170D02*
X004900Y002738D01*
X004646Y002570D02*
X004574Y002570D01*
X004507Y002890D02*
X006850Y002890D01*
X006850Y002570D02*
X005910Y002570D01*
X005910Y002616D02*
X005901Y002652D01*
X005882Y002684D01*
X005856Y002710D01*
X005824Y002728D01*
X005789Y002738D01*
X005338Y002738D01*
X005338Y002264D01*
X005910Y002264D01*
X005910Y002616D01*
X005860Y002706D02*
X005860Y003170D01*
X006180Y003170D02*
X006180Y001230D01*
X005860Y001230D02*
X005860Y001702D01*
X005910Y001930D02*
X006850Y001930D01*
X006850Y001610D02*
X003274Y001610D01*
X003274Y001930D02*
X004646Y001930D01*
X004646Y001792D02*
X004656Y001757D01*
X004674Y001725D01*
X004700Y001699D01*
X004732Y001680D01*
X004768Y001671D01*
X005218Y001671D01*
X005218Y002144D01*
X004646Y002144D01*
X004646Y001792D01*
X004900Y001671D02*
X004900Y001230D01*
X005220Y001230D02*
X005220Y002144D01*
X005338Y002250D02*
X006962Y002250D01*
X007140Y002267D02*
X007140Y002299D01*
X007460Y002299D02*
X007460Y002267D01*
X007780Y002267D02*
X007780Y002299D01*
X008100Y002299D02*
X008100Y002267D01*
X008162Y002250D02*
X008357Y002250D01*
X008420Y002173D02*
X008420Y001230D01*
X008740Y001230D02*
X008740Y001965D01*
X009060Y001948D02*
X009060Y001230D01*
X009380Y001230D02*
X009380Y002133D01*
X009483Y002250D02*
X010218Y002250D01*
X010218Y002264D02*
X009646Y002264D01*
X009646Y002616D01*
X009656Y002652D01*
X009674Y002684D01*
X009700Y002710D01*
X009732Y002728D01*
X009768Y002738D01*
X010218Y002738D01*
X010218Y002264D01*
X010218Y002144D02*
X009646Y002144D01*
X009646Y001792D01*
X009656Y001757D01*
X009674Y001725D01*
X009700Y001699D01*
X009646Y001930D02*
X008274Y001930D01*
X009574Y002570D02*
X009646Y002570D01*
X009700Y002710D02*
X009700Y003170D01*
X010020Y003170D02*
X010020Y002738D01*
X010218Y002570D02*
X010338Y002570D01*
X010340Y002738D02*
X010340Y003170D01*
X009507Y002890D02*
X011850Y002890D01*
X010660Y002264D02*
X010660Y002144D01*
X010338Y001930D02*
X010218Y001930D01*
X010020Y002144D02*
X010020Y002264D01*
X009700Y002264D02*
X009700Y002144D01*
X009380Y003062D02*
X009380Y003170D01*
X006500Y003170D02*
X006500Y001230D01*
X005540Y001230D02*
X005540Y001671D01*
X005338Y001930D02*
X005218Y001930D01*
X004900Y002144D02*
X004900Y002264D01*
X005218Y002570D02*
X005338Y002570D01*
X005540Y002738D02*
X005540Y003170D01*
X005540Y002264D02*
X005540Y002144D01*
X005860Y002144D02*
X005860Y002264D01*
X003940Y001944D02*
X003940Y001230D01*
X003620Y001230D02*
X003620Y002015D01*
X001850Y001930D02*
X000812Y001930D01*
X000680Y002570D02*
X001850Y002570D01*
X001850Y002890D02*
X000680Y002890D01*
X012260Y001354D02*
X012260Y001230D01*
X012580Y001230D02*
X012580Y001354D01*
X012900Y001354D02*
X012900Y001230D01*
X013220Y001230D02*
X013220Y001429D01*
X015990Y005770D02*
X018412Y005770D01*
X018660Y005954D02*
X018660Y006709D01*
X018980Y006709D02*
X018980Y006008D01*
X019300Y005898D02*
X019300Y007588D01*
X019238Y007370D02*
X020120Y007370D01*
X020120Y007690D02*
X019704Y007690D01*
X019620Y007621D02*
X019620Y006365D01*
X019665Y006410D02*
X015892Y006410D01*
X015990Y006090D02*
X019566Y006090D01*
X019566Y005770D02*
X019428Y005770D01*
X019940Y006440D02*
X019940Y009024D01*
X020070Y008970D02*
X019770Y008970D01*
X019876Y008650D02*
X019964Y008650D01*
X020001Y008330D02*
X019839Y008330D01*
X019819Y008010D02*
X020120Y008010D01*
X020720Y008010D02*
X021021Y008010D01*
X021001Y008330D02*
X020839Y008330D01*
X020876Y008650D02*
X020964Y008650D01*
X020964Y009290D02*
X020876Y009290D01*
X020839Y009610D02*
X021001Y009610D01*
X021390Y010890D02*
X021620Y010890D01*
X021860Y011704D02*
X021860Y014840D01*
X021880Y014888D02*
X021880Y015551D01*
X021810Y015721D01*
X021681Y015850D01*
X021511Y015920D01*
X021328Y015920D01*
X021159Y015850D01*
X021030Y015721D01*
X020960Y015551D01*
X020960Y015184D01*
X020880Y015104D01*
X020880Y015551D01*
X020810Y015721D01*
X020681Y015850D01*
X020511Y015920D01*
X020328Y015920D01*
X020159Y015850D01*
X020030Y015721D01*
X019960Y015551D01*
X019960Y015184D01*
X019880Y015104D01*
X019880Y015551D01*
X019810Y015721D01*
X019681Y015850D01*
X019511Y015920D01*
X019328Y015920D01*
X019159Y015850D01*
X019030Y015721D01*
X018960Y015551D01*
X018960Y015520D01*
X018860Y015520D01*
X018750Y015474D01*
X018546Y015270D01*
X016644Y015270D01*
X016674Y015300D01*
X016720Y015410D01*
X016720Y016206D01*
X016758Y016244D01*
X016819Y016391D01*
X016819Y016549D01*
X016758Y016696D01*
X016646Y016808D01*
X016499Y016869D01*
X016341Y016869D01*
X016194Y016808D01*
X016082Y016696D01*
X016021Y016549D01*
X016021Y016391D01*
X016082Y016244D01*
X016120Y016206D01*
X016120Y015594D01*
X014046Y013520D01*
X014500Y013974D02*
X014500Y014470D01*
X014920Y015690D02*
X016120Y015690D01*
X016100Y015574D02*
X016100Y016226D01*
X016046Y016330D02*
X014920Y016330D01*
X014920Y016010D02*
X016120Y016010D01*
X016720Y016010D02*
X022206Y016010D01*
X022180Y016036D02*
X022180Y015858D01*
X022017Y015690D02*
X021823Y015690D01*
X021860Y015600D02*
X021860Y018970D01*
X021662Y018755D02*
X021600Y018797D01*
X021531Y018825D01*
X021457Y018840D01*
X021440Y018840D01*
X021440Y018240D01*
X021800Y018240D01*
X021800Y018497D01*
X021785Y018571D01*
X021757Y018640D01*
X021715Y018702D01*
X021662Y018755D01*
X021540Y018822D02*
X021540Y018970D01*
X021400Y018840D02*
X021383Y018840D01*
X021309Y018825D01*
X021240Y018797D01*
X021178Y018755D01*
X021125Y018702D01*
X021083Y018640D01*
X021055Y018571D01*
X021040Y018497D01*
X021040Y018240D01*
X021400Y018240D01*
X021400Y018840D01*
X021220Y018783D02*
X021220Y018970D01*
X020900Y018970D02*
X020900Y015124D01*
X020880Y015370D02*
X020960Y015370D01*
X021017Y015690D02*
X020823Y015690D01*
X020580Y015892D02*
X020580Y017548D01*
X020701Y017610D02*
X021332Y017610D01*
X021309Y017615D02*
X021383Y017600D01*
X021400Y017600D01*
X021400Y018200D01*
X021440Y018200D01*
X021440Y018240D01*
X021400Y018240D01*
X021400Y018200D01*
X021040Y018200D01*
X021040Y017943D01*
X021055Y017869D01*
X021083Y017800D01*
X021125Y017738D01*
X021178Y017685D01*
X021240Y017643D01*
X021309Y017615D01*
X021400Y017610D02*
X021440Y017610D01*
X021440Y017600D02*
X021457Y017600D01*
X021531Y017615D01*
X021600Y017643D01*
X021662Y017685D01*
X021715Y017738D01*
X021757Y017800D01*
X021785Y017869D01*
X021800Y017943D01*
X021800Y018200D01*
X021440Y018200D01*
X021440Y017600D01*
X021508Y017610D02*
X022120Y017610D01*
X022120Y017290D02*
X019914Y017290D01*
X019940Y017316D02*
X019940Y015164D01*
X019960Y015370D02*
X019880Y015370D01*
X019823Y015690D02*
X020017Y015690D01*
X020260Y015892D02*
X020260Y017548D01*
X019940Y018164D02*
X019940Y018970D01*
X019720Y018890D02*
X020256Y018890D01*
X020260Y018892D02*
X020260Y018970D01*
X020580Y018970D02*
X020580Y018892D01*
X020584Y018890D02*
X022256Y018890D01*
X022180Y018858D02*
X022180Y018970D01*
X022500Y018970D02*
X022500Y018920D01*
X022584Y018890D02*
X022620Y018890D01*
X021968Y018570D02*
X021786Y018570D01*
X021800Y018250D02*
X021960Y018250D01*
X021960Y017930D02*
X021797Y017930D01*
X021440Y017930D02*
X021400Y017930D01*
X021540Y018200D02*
X021540Y018240D01*
X021440Y018250D02*
X021400Y018250D01*
X021220Y018240D02*
X021220Y018200D01*
X021040Y018250D02*
X020880Y018250D01*
X020880Y017930D02*
X021043Y017930D01*
X021220Y017657D02*
X021220Y015875D01*
X021540Y015908D02*
X021540Y017618D01*
X022120Y016970D02*
X017993Y016970D01*
X018020Y016919D02*
X018020Y017170D01*
X018340Y017170D02*
X018340Y015270D01*
X018020Y015270D02*
X018020Y016621D01*
X018032Y016650D02*
X022120Y016650D01*
X022120Y016330D02*
X016794Y016330D01*
X016740Y016226D02*
X016740Y015270D01*
X016703Y015370D02*
X018646Y015370D01*
X018660Y015384D02*
X018660Y017170D01*
X018980Y017170D02*
X018980Y015600D01*
X019017Y015690D02*
X016720Y015690D01*
X017060Y015270D02*
X017060Y016436D01*
X016870Y016650D02*
X016777Y016650D01*
X016740Y016714D02*
X016740Y017170D01*
X016910Y016970D02*
X014920Y016970D01*
X014920Y016650D02*
X016063Y016650D01*
X016100Y016714D02*
X016100Y017014D01*
X016420Y016869D02*
X016420Y017170D01*
X017060Y016785D02*
X017060Y016755D01*
X017380Y016755D02*
X017380Y016785D01*
X017436Y016650D02*
X017466Y016650D01*
X017700Y016755D02*
X017700Y016785D01*
X018020Y016785D02*
X018020Y016755D01*
X017700Y016400D02*
X017700Y015270D01*
X017380Y015270D02*
X017380Y016400D01*
X015647Y017290D02*
X015613Y017290D01*
X015460Y017451D02*
X015460Y017489D01*
X015334Y017610D02*
X015297Y017610D01*
X015613Y017610D02*
X015647Y017610D01*
X015334Y017290D02*
X015297Y017290D01*
X015140Y019470D02*
X015140Y020912D01*
X014820Y020870D02*
X014820Y019470D01*
X014500Y019470D02*
X014500Y021041D01*
X014411Y021130D02*
X014386Y021130D01*
X015460Y021081D02*
X015460Y019470D01*
X015780Y019470D02*
X015780Y020879D01*
X016100Y020895D02*
X016100Y019470D01*
X016740Y019641D02*
X016740Y019700D01*
X017060Y019700D02*
X017060Y019590D01*
X017115Y019850D02*
X017225Y019850D01*
X017380Y019700D02*
X017380Y019590D01*
X017060Y020015D02*
X017060Y020879D01*
X016801Y020870D02*
X016580Y020961D01*
X016420Y021121D01*
X019872Y018570D02*
X019968Y018570D01*
X019960Y018250D02*
X019880Y018250D01*
X020872Y018570D02*
X021054Y018570D01*
X021400Y018570D02*
X021440Y018570D01*
X019620Y017170D02*
X019620Y015875D01*
X019300Y015908D02*
X019300Y017170D01*
X021880Y015370D02*
X021960Y015370D01*
X021960Y015050D02*
X021880Y015050D01*
X021880Y014888D02*
X021810Y014719D01*
X021681Y014590D01*
X021511Y014520D01*
X021328Y014520D01*
X021198Y014574D01*
X020424Y013800D01*
X020340Y013716D01*
X020230Y013670D01*
X017294Y013670D01*
X015819Y012194D01*
X015819Y012141D01*
X015769Y012020D01*
X021480Y012020D01*
X021540Y011995D02*
X021540Y014532D01*
X021220Y014565D02*
X021220Y012020D01*
X020900Y012020D02*
X020900Y014276D01*
X021034Y014410D02*
X022186Y014410D01*
X022180Y014404D02*
X022180Y014582D01*
X022026Y014730D02*
X021814Y014730D01*
X022120Y014090D02*
X020714Y014090D01*
X020580Y013956D02*
X020580Y012020D01*
X020260Y012020D02*
X020260Y013683D01*
X020394Y013770D02*
X022120Y013770D01*
X022120Y013450D02*
X017074Y013450D01*
X017060Y013436D02*
X017060Y012020D01*
X016740Y012020D02*
X016740Y013116D01*
X016754Y013130D02*
X022120Y013130D01*
X022120Y012810D02*
X016434Y012810D01*
X016420Y012796D02*
X016420Y012020D01*
X016100Y012020D02*
X016100Y012476D01*
X016114Y012490D02*
X022120Y012490D01*
X022120Y012170D02*
X015819Y012170D01*
X015780Y012047D02*
X015780Y012020D01*
X016420Y011420D02*
X016420Y009702D01*
X016100Y009702D02*
X016100Y010500D01*
X016185Y010570D02*
X016655Y010570D01*
X016740Y010500D02*
X016740Y009702D01*
X017060Y009669D02*
X017060Y010500D01*
X017185Y010570D02*
X017655Y010570D01*
X017700Y010525D02*
X017700Y009924D01*
X016450Y010890D02*
X016390Y010890D01*
X016345Y011210D02*
X016495Y011210D01*
X017380Y012020D02*
X017380Y013670D01*
X017700Y013670D02*
X017700Y012020D01*
X018020Y012020D02*
X018020Y013670D01*
X018340Y013670D02*
X018340Y012020D01*
X018660Y012020D02*
X018660Y013670D01*
X018980Y013670D02*
X018980Y012020D01*
X019300Y012020D02*
X019300Y013670D01*
X019620Y013670D02*
X019620Y012020D01*
X019940Y012020D02*
X019940Y013670D01*
X021714Y011850D02*
X022120Y011850D01*
X025220Y013844D02*
X025220Y014565D01*
X025328Y014520D01*
X025511Y014520D01*
X025681Y014590D01*
X025810Y014719D01*
X025880Y014888D01*
X025880Y015551D01*
X025810Y015721D01*
X025681Y015850D01*
X025535Y015910D01*
X026174Y016550D01*
X026220Y016660D01*
X026220Y017565D01*
X026328Y017520D01*
X026511Y017520D01*
X026681Y017590D01*
X026810Y017719D01*
X026880Y017888D01*
X026880Y018256D01*
X027594Y018970D01*
X029370Y018970D01*
X029370Y018890D02*
X027514Y018890D01*
X027620Y018970D02*
X027620Y011440D01*
X027470Y011530D02*
X027424Y011640D01*
X027340Y011724D01*
X025220Y013844D01*
X025294Y013770D02*
X029370Y013770D01*
X029370Y013450D02*
X025614Y013450D01*
X025700Y013364D02*
X025700Y014609D01*
X025814Y014730D02*
X026026Y014730D01*
X026030Y014719D02*
X026159Y014590D01*
X026328Y014520D01*
X026511Y014520D01*
X026681Y014590D01*
X026810Y014719D01*
X026880Y014888D01*
X026880Y015551D01*
X026810Y015721D01*
X026681Y015850D01*
X026511Y015920D01*
X026328Y015920D01*
X026159Y015850D01*
X026030Y015721D01*
X025960Y015551D01*
X025960Y014888D01*
X026030Y014719D01*
X026020Y014744D02*
X026020Y013044D01*
X025934Y013130D02*
X029370Y013130D01*
X029370Y012810D02*
X026254Y012810D01*
X026340Y012724D02*
X026340Y014520D01*
X026660Y014582D02*
X026660Y012404D01*
X026574Y012490D02*
X029370Y012490D01*
X029370Y012170D02*
X026894Y012170D01*
X026980Y012084D02*
X026980Y018356D01*
X026880Y018250D02*
X029370Y018250D01*
X029370Y017930D02*
X026880Y017930D01*
X026701Y017610D02*
X029370Y017610D01*
X029370Y017290D02*
X026220Y017290D01*
X026340Y017520D02*
X026340Y015920D01*
X026660Y015858D02*
X026660Y017582D01*
X026220Y016970D02*
X029370Y016970D01*
X029370Y016650D02*
X026216Y016650D01*
X026020Y016396D02*
X026020Y015696D01*
X026017Y015690D02*
X025823Y015690D01*
X025700Y015831D02*
X025700Y016076D01*
X025634Y016010D02*
X029370Y016010D01*
X029370Y015690D02*
X026823Y015690D01*
X026880Y015370D02*
X029370Y015370D01*
X029370Y015050D02*
X026880Y015050D01*
X026814Y014730D02*
X029370Y014730D01*
X029370Y014410D02*
X025220Y014410D01*
X025380Y014520D02*
X025380Y013684D01*
X025220Y014090D02*
X029370Y014090D01*
X029970Y014090D02*
X041160Y014090D01*
X041160Y013770D02*
X029970Y013770D01*
X029970Y013450D02*
X041160Y013450D01*
X041160Y013130D02*
X029970Y013130D01*
X029970Y012810D02*
X041160Y012810D01*
X041160Y012490D02*
X029970Y012490D01*
X029970Y012170D02*
X037445Y012170D01*
X037540Y012319D02*
X037540Y018970D01*
X037860Y018970D02*
X037860Y012485D01*
X038180Y012420D02*
X038180Y018970D01*
X038500Y018970D02*
X038500Y010020D01*
X038820Y010020D02*
X038820Y018970D01*
X039140Y018970D02*
X039140Y011849D01*
X039141Y011850D02*
X038428Y011850D01*
X038395Y012170D02*
X039636Y012170D01*
X039780Y012210D02*
X039780Y018970D01*
X040100Y018970D02*
X040100Y012208D01*
X040204Y012170D02*
X041160Y012170D01*
X041160Y011850D02*
X040699Y011850D01*
X040740Y011780D02*
X040740Y018970D01*
X040420Y018970D02*
X040420Y012092D01*
X040871Y011530D02*
X041160Y011530D01*
X041160Y011210D02*
X040924Y011210D01*
X040867Y010890D02*
X041160Y010890D01*
X041160Y010570D02*
X040686Y010570D01*
X040740Y010660D02*
X040740Y009702D01*
X040839Y009610D02*
X041160Y009610D01*
X041160Y009930D02*
X039239Y009930D01*
X039140Y009997D02*
X039140Y010591D01*
X038973Y010890D02*
X030140Y010890D01*
X030095Y011210D02*
X038916Y011210D01*
X038969Y011530D02*
X038204Y011530D01*
X038180Y011520D02*
X038180Y010020D01*
X037964Y008650D02*
X037796Y008650D01*
X037540Y008634D02*
X037540Y008597D01*
X037439Y008650D02*
X037401Y008650D01*
X037220Y008634D02*
X037220Y008597D01*
X037044Y008650D02*
X036876Y008650D01*
X037401Y008330D02*
X037439Y008330D01*
X038500Y008238D02*
X038500Y008133D01*
X038820Y008133D02*
X038820Y008311D01*
X039780Y008271D02*
X039780Y008143D01*
X039819Y008010D02*
X040120Y008010D01*
X040100Y008238D02*
X040100Y006440D01*
X040120Y006730D02*
X039131Y006730D01*
X039140Y006739D02*
X039140Y005970D01*
X038820Y006008D02*
X038820Y006709D01*
X039238Y007050D02*
X040120Y007050D01*
X040720Y007050D02*
X041160Y007050D01*
X041160Y006730D02*
X040720Y006730D01*
X040740Y006440D02*
X040740Y008238D01*
X040839Y008330D02*
X041160Y008330D01*
X041160Y008010D02*
X040720Y008010D01*
X040720Y007690D02*
X041160Y007690D01*
X041160Y007370D02*
X040720Y007370D01*
X040892Y006410D02*
X041160Y006410D01*
X041160Y006090D02*
X040990Y006090D01*
X040990Y005770D02*
X041160Y005770D01*
X041160Y005450D02*
X040990Y005450D01*
X040740Y005213D02*
X040740Y002738D01*
X040910Y002570D02*
X041160Y002570D01*
X041160Y002890D02*
X039507Y002890D01*
X039460Y002982D02*
X039460Y004969D01*
X039535Y005130D02*
X041160Y005130D01*
X041160Y004810D02*
X039301Y004810D01*
X039140Y004737D02*
X039140Y003214D01*
X039151Y003210D02*
X041160Y003210D01*
X040420Y002738D02*
X040420Y005213D01*
X040100Y005213D02*
X040100Y002738D01*
X040218Y002570D02*
X040338Y002570D01*
X040740Y002264D02*
X040740Y002144D01*
X040910Y001930D02*
X041028Y001930D01*
X040740Y001671D02*
X040740Y001551D01*
X040799Y001610D02*
X038274Y001610D01*
X038180Y001389D02*
X038180Y001230D01*
X037860Y001230D02*
X037860Y001354D01*
X037540Y001354D02*
X037540Y001230D01*
X037220Y001230D02*
X037220Y001354D01*
X036900Y001433D02*
X036900Y001230D01*
X036580Y001230D02*
X036580Y003170D01*
X036260Y003170D02*
X036260Y001230D01*
X035940Y001230D02*
X035940Y003170D01*
X035620Y003170D02*
X035620Y002738D01*
X035789Y002738D02*
X035338Y002738D01*
X035338Y002264D01*
X035218Y002264D01*
X035218Y002144D01*
X035338Y002144D01*
X035338Y001671D01*
X035789Y001671D01*
X035824Y001680D01*
X035856Y001699D01*
X035882Y001725D01*
X035901Y001757D01*
X035910Y001792D01*
X035910Y002144D01*
X035338Y002144D01*
X035338Y002264D01*
X035910Y002264D01*
X035910Y002616D01*
X035901Y002652D01*
X035882Y002684D01*
X035856Y002710D01*
X035824Y002728D01*
X035789Y002738D01*
X035910Y002570D02*
X036850Y002570D01*
X036900Y002378D02*
X036900Y002188D01*
X036962Y002250D02*
X035338Y002250D01*
X035300Y002264D02*
X035300Y003170D01*
X034980Y003170D02*
X034980Y002738D01*
X034768Y002738D02*
X034732Y002728D01*
X034700Y002710D01*
X034674Y002684D01*
X034656Y002652D01*
X034646Y002616D01*
X034646Y002264D01*
X035218Y002264D01*
X035218Y002738D01*
X034768Y002738D01*
X034660Y002659D02*
X034660Y003170D01*
X034507Y002890D02*
X036850Y002890D01*
X037220Y002299D02*
X037220Y002267D01*
X037540Y002267D02*
X037540Y002299D01*
X037860Y002299D02*
X037860Y002267D01*
X038274Y002890D02*
X038333Y002890D01*
X038820Y003252D02*
X038820Y004700D01*
X039780Y005213D02*
X039780Y002738D01*
X039646Y002570D02*
X039574Y002570D01*
X039780Y002264D02*
X039780Y002144D01*
X036850Y001930D02*
X035910Y001930D01*
X035620Y002144D02*
X035620Y002264D01*
X035300Y002144D02*
X035300Y001230D01*
X034980Y001230D02*
X034980Y001671D01*
X034768Y001671D02*
X035218Y001671D01*
X035218Y002144D01*
X034646Y002144D01*
X034646Y001792D01*
X034656Y001757D01*
X034674Y001725D01*
X034700Y001699D01*
X034732Y001680D01*
X034768Y001671D01*
X034660Y001749D02*
X034660Y001230D01*
X034340Y001230D02*
X034340Y002093D01*
X034483Y002250D02*
X035218Y002250D01*
X034980Y002264D02*
X034980Y002144D01*
X034660Y002144D02*
X034660Y002264D01*
X034646Y002570D02*
X034574Y002570D01*
X034340Y003102D02*
X034340Y003170D01*
X035218Y002570D02*
X035338Y002570D01*
X035338Y001930D02*
X035218Y001930D01*
X035620Y001671D02*
X035620Y001230D01*
X034646Y001930D02*
X033274Y001930D01*
X033274Y001610D02*
X036850Y001610D01*
X034020Y001944D02*
X034020Y001230D01*
X033700Y001230D02*
X033700Y001982D01*
X033060Y003749D02*
X033060Y006789D01*
X033011Y007050D02*
X030720Y007050D01*
X030720Y007370D02*
X033011Y007370D01*
X033011Y007690D02*
X031704Y007690D01*
X031780Y007797D02*
X031780Y003770D01*
X031460Y003770D02*
X031460Y007571D01*
X032100Y008345D02*
X032100Y003714D01*
X030820Y002264D02*
X030820Y002144D01*
X030500Y002144D02*
X030500Y002264D01*
X030500Y001671D02*
X030500Y001230D01*
X028900Y003770D02*
X028900Y004700D01*
X027940Y003664D02*
X027940Y009316D01*
X027914Y009290D02*
X028044Y009290D01*
X028260Y009306D02*
X028260Y009343D01*
X028401Y009290D02*
X028439Y009290D01*
X028439Y009306D02*
X028439Y009027D01*
X028675Y009027D01*
X028710Y009036D01*
X028742Y009055D01*
X028768Y009081D01*
X028787Y009113D01*
X028796Y009148D01*
X028796Y009306D01*
X028439Y009306D01*
X028580Y009306D02*
X028580Y009343D01*
X028796Y009290D02*
X028926Y009290D01*
X028900Y009316D02*
X028900Y008916D01*
X028770Y008970D02*
X029070Y008970D01*
X028580Y008993D02*
X028580Y009027D01*
X028260Y009027D02*
X028260Y008993D01*
X028070Y008970D02*
X027770Y008970D01*
X027620Y008947D02*
X027620Y008913D01*
X027620Y008634D02*
X027620Y008597D01*
X027796Y008650D02*
X027964Y008650D01*
X027439Y008650D02*
X027401Y008650D01*
X027300Y008634D02*
X027300Y008597D01*
X027401Y008330D02*
X027439Y008330D01*
X027300Y008913D02*
X027300Y008947D01*
X028580Y008238D02*
X028580Y008133D01*
X028900Y008133D02*
X028900Y008316D01*
X029876Y008650D02*
X029964Y008650D01*
X029860Y008880D02*
X029860Y009024D01*
X029825Y009024D02*
X030015Y009024D01*
X030070Y008970D01*
X029825Y009024D02*
X029770Y008970D01*
X030876Y008650D02*
X030964Y008650D01*
X031070Y008970D02*
X030964Y009076D01*
X030964Y009290D02*
X030876Y009290D01*
X031876Y008650D02*
X032044Y008650D01*
X032100Y008634D02*
X032100Y008597D01*
X030120Y007370D02*
X029238Y007370D01*
X029238Y007050D02*
X030120Y007050D01*
X028900Y006709D02*
X028900Y006008D01*
X026660Y007646D02*
X026660Y003770D01*
X026980Y003770D02*
X023110Y003770D01*
X024420Y003170D02*
X024420Y003022D01*
X023460Y005818D02*
X023460Y006709D01*
X023780Y006709D02*
X023780Y006003D01*
X024238Y007050D02*
X025120Y007050D01*
X020120Y007050D02*
X019238Y007050D01*
X019131Y006730D02*
X020120Y006730D01*
X019300Y003170D02*
X019300Y003142D01*
X027300Y011764D02*
X027300Y018676D01*
X027194Y018570D02*
X029370Y018570D01*
X029970Y018570D02*
X041160Y018570D01*
X041160Y018250D02*
X029970Y018250D01*
X029970Y017930D02*
X041160Y017930D01*
X041160Y017610D02*
X029970Y017610D01*
X029970Y017290D02*
X041160Y017290D01*
X041160Y016970D02*
X029970Y016970D01*
X029970Y016650D02*
X041160Y016650D01*
X041160Y016330D02*
X029970Y016330D01*
X029970Y016010D02*
X041160Y016010D01*
X041160Y015690D02*
X029970Y015690D01*
X029970Y015370D02*
X041160Y015370D01*
X041160Y015050D02*
X029970Y015050D01*
X029970Y014730D02*
X041160Y014730D01*
X041160Y014410D02*
X029970Y014410D01*
X029370Y016330D02*
X025954Y016330D01*
X025960Y015370D02*
X025880Y015370D01*
X025880Y015050D02*
X025960Y015050D01*
X027214Y011850D02*
X029370Y011850D01*
X034660Y007646D02*
X034660Y006405D01*
X035120Y006730D02*
X034131Y006730D01*
X034020Y006709D02*
X034020Y006008D01*
X033700Y005970D02*
X033700Y006709D01*
X034238Y007050D02*
X035120Y007050D01*
X035120Y007370D02*
X034238Y007370D01*
X034704Y007690D02*
X035120Y007690D01*
X035120Y008010D02*
X034819Y008010D01*
X034839Y008330D02*
X035001Y008330D01*
X039460Y012106D02*
X039460Y018970D01*
X039460Y019470D02*
X039460Y028834D01*
X039417Y028849D02*
X039417Y028849D01*
X039526Y028810D02*
X002564Y028810D01*
X002660Y028845D02*
X002660Y026979D01*
X002534Y026890D02*
X000680Y026890D01*
X000680Y026570D02*
X002350Y026570D01*
X002340Y026314D02*
X002340Y028730D01*
X002020Y028730D02*
X002020Y028349D01*
X001667Y028849D02*
X001667Y028849D01*
X001195Y028170D02*
X000680Y028170D01*
X000680Y027850D02*
X001162Y027850D01*
X001380Y027532D02*
X001380Y014970D01*
X001620Y020490D02*
X000680Y020490D01*
X000680Y020810D02*
X001620Y020810D01*
X001620Y021130D02*
X000680Y021130D01*
X000680Y021450D02*
X001620Y021450D01*
X001620Y021770D02*
X000680Y021770D01*
X000680Y022090D02*
X001620Y022090D01*
X001620Y022410D02*
X000680Y022410D01*
X000680Y022730D02*
X001620Y022730D01*
X001620Y023050D02*
X000680Y023050D01*
X000680Y023370D02*
X001620Y023370D01*
X001620Y023690D02*
X000680Y023690D01*
X000680Y024010D02*
X001620Y024010D01*
X001620Y024330D02*
X000680Y024330D01*
X000680Y024650D02*
X001620Y024650D01*
X001620Y024970D02*
X000680Y024970D01*
X000680Y025290D02*
X001620Y025290D01*
X001653Y025610D02*
X000680Y025610D01*
X000680Y025930D02*
X001956Y025930D01*
X002020Y025994D02*
X002020Y027591D01*
X001954Y027530D02*
X013556Y027530D01*
X013540Y027514D02*
X013540Y029685D01*
X013455Y029770D02*
X003166Y029770D01*
X003175Y029720D02*
X003175Y029720D01*
X003115Y030064D02*
X003115Y030064D01*
X003100Y030090D02*
X013450Y030090D01*
X013540Y030255D02*
X013540Y030960D01*
X013220Y030960D02*
X013220Y027194D01*
X013236Y027210D02*
X000680Y027210D01*
X000680Y027530D02*
X001386Y027530D01*
X001700Y027455D02*
X001700Y025674D01*
X001750Y025724D02*
X001750Y025724D01*
X002276Y026250D02*
X000680Y026250D01*
X002597Y024953D02*
X002638Y024970D01*
X003306Y026890D02*
X003534Y026890D01*
X003620Y026963D02*
X003620Y030960D01*
X003940Y030960D02*
X003940Y027040D01*
X004260Y026936D02*
X004260Y030960D01*
X004580Y030960D02*
X004580Y026936D01*
X004534Y026890D02*
X004306Y026890D01*
X004900Y027040D02*
X004900Y030960D01*
X005220Y030960D02*
X005220Y026963D01*
X005306Y026890D02*
X005534Y026890D01*
X005540Y026896D02*
X005540Y030960D01*
X005860Y030960D02*
X005860Y027040D01*
X006180Y026979D02*
X006180Y030960D01*
X006500Y030960D02*
X006500Y026856D01*
X006534Y026890D02*
X006306Y026890D01*
X006820Y027040D02*
X006820Y030960D01*
X007140Y030960D02*
X007140Y026996D01*
X007306Y026890D02*
X007534Y026890D01*
X007460Y026816D02*
X007460Y030960D01*
X007780Y030960D02*
X007780Y027029D01*
X008100Y027012D02*
X008100Y030960D01*
X008420Y030960D02*
X008420Y026770D01*
X008306Y026890D02*
X008534Y026890D01*
X008740Y027012D02*
X008740Y030960D01*
X009060Y030960D02*
X009060Y027029D01*
X009306Y026890D02*
X009534Y026890D01*
X009380Y026816D02*
X009380Y030960D01*
X009700Y030960D02*
X009700Y026996D01*
X010020Y027040D02*
X010020Y030960D01*
X010340Y030960D02*
X010340Y026856D01*
X010306Y026890D02*
X010534Y026890D01*
X010660Y026979D02*
X010660Y030960D01*
X010980Y030960D02*
X010980Y027040D01*
X011300Y026896D02*
X011300Y030960D01*
X011620Y030960D02*
X011620Y026963D01*
X011534Y026890D02*
X011306Y026890D01*
X011940Y027040D02*
X011940Y030960D01*
X012260Y030960D02*
X012260Y026936D01*
X012306Y026890D02*
X012534Y026890D01*
X012580Y026936D02*
X012580Y030960D01*
X012900Y030960D02*
X012900Y027040D01*
X013666Y027640D02*
X013666Y027640D01*
X014044Y027170D02*
X022796Y027170D01*
X022979Y026987D01*
X022961Y026990D01*
X022960Y026990D01*
X022960Y026510D01*
X022880Y026510D01*
X022880Y026990D01*
X022879Y026990D01*
X022798Y026977D01*
X022720Y026952D01*
X022647Y026915D01*
X022581Y026867D01*
X022523Y026809D01*
X022475Y026743D01*
X022438Y026670D01*
X022420Y026614D01*
X022402Y026670D01*
X022365Y026743D01*
X022317Y026809D01*
X022259Y026867D01*
X022193Y026915D01*
X022120Y026952D01*
X022042Y026977D01*
X021961Y026990D01*
X021960Y026990D01*
X021960Y026510D01*
X021880Y026510D01*
X021880Y026990D01*
X021879Y026990D01*
X021798Y026977D01*
X021720Y026952D01*
X021647Y026915D01*
X021581Y026867D01*
X021523Y026809D01*
X021475Y026743D01*
X021465Y026722D01*
X021429Y026810D01*
X021260Y026979D01*
X021039Y027070D01*
X020801Y027070D01*
X020580Y026979D01*
X020411Y026810D01*
X020404Y026792D01*
X020403Y026793D01*
X020243Y026953D01*
X020033Y027040D01*
X019807Y027040D01*
X019597Y026953D01*
X019437Y026793D01*
X019436Y026792D01*
X019429Y026810D01*
X019260Y026979D01*
X019039Y027070D01*
X018801Y027070D01*
X018580Y026979D01*
X018420Y026819D01*
X018260Y026979D01*
X018039Y027070D01*
X017801Y027070D01*
X017580Y026979D01*
X017420Y026819D01*
X017260Y026979D01*
X017039Y027070D01*
X016801Y027070D01*
X016580Y026979D01*
X016420Y026819D01*
X016420Y027170D01*
X016260Y026979D02*
X016039Y027070D01*
X015801Y027070D01*
X015580Y026979D01*
X015420Y026819D01*
X015260Y026979D01*
X015039Y027070D01*
X014801Y027070D01*
X014580Y026979D01*
X014420Y026819D01*
X014260Y026979D01*
X014039Y027070D01*
X013944Y027070D01*
X014044Y027170D01*
X014180Y027170D02*
X014180Y027012D01*
X014349Y026890D02*
X014491Y026890D01*
X014500Y026899D02*
X014500Y027170D01*
X014820Y027170D02*
X014820Y027070D01*
X015140Y027028D02*
X015140Y027170D01*
X015460Y027170D02*
X015460Y026859D01*
X015491Y026890D02*
X015349Y026890D01*
X015780Y027061D02*
X015780Y027170D01*
X016100Y027170D02*
X016100Y027045D01*
X016260Y026979D02*
X016420Y026819D01*
X016349Y026890D02*
X016491Y026890D01*
X016740Y027045D02*
X016740Y027170D01*
X017060Y027170D02*
X017060Y027061D01*
X017349Y026890D02*
X017491Y026890D01*
X017380Y026859D02*
X017380Y027170D01*
X017700Y027170D02*
X017700Y027028D01*
X018020Y027070D02*
X018020Y027170D01*
X018340Y027170D02*
X018340Y026899D01*
X018349Y026890D02*
X018491Y026890D01*
X018660Y027012D02*
X018660Y027170D01*
X018980Y027170D02*
X018980Y027070D01*
X019300Y027170D02*
X019300Y026939D01*
X019349Y026890D02*
X019534Y026890D01*
X019620Y026963D02*
X019620Y027170D01*
X019940Y027170D02*
X019940Y027040D01*
X020260Y026936D02*
X020260Y027170D01*
X020306Y026890D02*
X020491Y026890D01*
X020580Y026979D02*
X020580Y027170D01*
X020900Y027170D02*
X020900Y027070D01*
X021220Y026995D02*
X021220Y027170D01*
X021349Y026890D02*
X021613Y026890D01*
X021540Y026825D02*
X021540Y027170D01*
X021860Y027170D02*
X021860Y026987D01*
X021880Y026890D02*
X021960Y026890D01*
X022180Y026921D02*
X022180Y027170D01*
X022227Y026890D02*
X022613Y026890D01*
X022500Y026777D02*
X022500Y027170D01*
X022820Y027146D02*
X022820Y026981D01*
X022880Y026890D02*
X022960Y026890D01*
X022960Y026570D02*
X022880Y026570D01*
X022880Y026510D02*
X022880Y026430D01*
X022400Y026430D01*
X021960Y026430D01*
X021960Y026510D01*
X022880Y026510D01*
X022820Y026510D02*
X022820Y026430D01*
X022500Y026430D02*
X022500Y026510D01*
X022180Y026510D02*
X022180Y026430D01*
X021960Y026570D02*
X021880Y026570D01*
X021860Y027770D02*
X021860Y029580D01*
X021901Y029580D02*
X021901Y029951D01*
X021530Y029951D01*
X021530Y029808D01*
X021758Y029580D01*
X021901Y029580D01*
X021939Y029580D02*
X022082Y029580D01*
X022310Y029808D01*
X022310Y029951D01*
X021939Y029951D01*
X021939Y029989D01*
X021901Y029989D01*
X021901Y030360D01*
X021758Y030360D01*
X021530Y030132D01*
X021530Y029989D01*
X021901Y029989D01*
X021901Y029951D01*
X021939Y029951D01*
X021939Y029580D01*
X021939Y029770D02*
X021901Y029770D01*
X021860Y029951D02*
X021860Y029989D01*
X021939Y029989D02*
X021939Y030360D01*
X022082Y030360D01*
X022310Y030132D01*
X022310Y029989D01*
X021939Y029989D01*
X021939Y030090D02*
X021901Y030090D01*
X021860Y030360D02*
X021860Y030960D01*
X021540Y030960D02*
X021540Y030142D01*
X021530Y030090D02*
X021390Y030090D01*
X021540Y029989D02*
X021540Y029951D01*
X021540Y029798D02*
X021540Y027770D01*
X021220Y027770D02*
X021220Y029605D01*
X021385Y029770D02*
X021568Y029770D01*
X022180Y029678D02*
X022180Y027770D01*
X022500Y027770D02*
X022500Y030960D01*
X022180Y030960D02*
X022180Y030262D01*
X022310Y030090D02*
X022530Y030090D01*
X022820Y029989D02*
X022820Y029951D01*
X022901Y030090D02*
X022939Y030090D01*
X023140Y029989D02*
X023140Y029951D01*
X022939Y029770D02*
X022901Y029770D01*
X022820Y029580D02*
X022820Y027770D01*
X023140Y027674D02*
X023140Y029638D01*
X022568Y029770D02*
X022272Y029770D01*
X022180Y029951D02*
X022180Y029989D01*
X022820Y030360D02*
X022820Y030960D01*
X023140Y030960D02*
X023140Y030302D01*
X024390Y030090D02*
X024450Y030090D01*
X024455Y029770D02*
X024385Y029770D01*
X026020Y030440D02*
X026020Y030960D01*
X026340Y030960D02*
X026340Y030215D01*
X026390Y030090D02*
X038990Y030090D01*
X038975Y030064D02*
X038975Y030064D01*
X039140Y030349D02*
X039140Y030960D01*
X039460Y030960D02*
X039460Y030606D01*
X039417Y030591D02*
X039417Y030591D01*
X039202Y030410D02*
X026145Y030410D01*
X026660Y030960D02*
X026660Y026979D01*
X026534Y026890D02*
X026349Y026890D01*
X026980Y027040D02*
X026980Y030960D01*
X027300Y030960D02*
X027300Y026896D01*
X027306Y026890D02*
X027534Y026890D01*
X027620Y026963D02*
X027620Y030960D01*
X027940Y030960D02*
X027940Y027040D01*
X028260Y026936D02*
X028260Y030960D01*
X028580Y030960D02*
X028580Y026936D01*
X028534Y026890D02*
X028306Y026890D01*
X028900Y027040D02*
X028900Y030960D01*
X029220Y030960D02*
X029220Y026963D01*
X029306Y026890D02*
X029534Y026890D01*
X029540Y026896D02*
X029540Y030960D01*
X029860Y030960D02*
X029860Y027040D01*
X030180Y026979D02*
X030180Y030960D01*
X031140Y030960D02*
X031140Y019470D01*
X031460Y019470D02*
X031460Y030960D01*
X031780Y030960D02*
X031780Y019470D01*
X032100Y019470D02*
X032100Y030960D01*
X032420Y030960D02*
X032420Y019470D01*
X032740Y019470D02*
X032740Y030960D01*
X033060Y030960D02*
X033060Y019470D01*
X033380Y019470D02*
X033380Y030960D01*
X033700Y030960D02*
X033700Y019470D01*
X034020Y019470D02*
X034020Y030960D01*
X034340Y030960D02*
X034340Y019470D01*
X034660Y019470D02*
X034660Y030960D01*
X034980Y030960D02*
X034980Y019470D01*
X035300Y019470D02*
X035300Y030960D01*
X035620Y030960D02*
X035620Y019470D01*
X035940Y019470D02*
X035940Y030960D01*
X036260Y030960D02*
X036260Y019470D01*
X036580Y019470D02*
X036580Y030960D01*
X036900Y030960D02*
X036900Y019470D01*
X037220Y019470D02*
X037220Y030960D01*
X037540Y030960D02*
X037540Y019470D01*
X037860Y019470D02*
X037860Y030960D01*
X038180Y030960D02*
X038180Y019470D01*
X038500Y019470D02*
X038500Y030960D01*
X038820Y030960D02*
X038820Y019470D01*
X039140Y019470D02*
X039140Y029091D01*
X039117Y029130D02*
X002973Y029130D01*
X002940Y029074D02*
X002940Y029074D01*
X001452Y030410D02*
X000899Y030410D01*
X000746Y030090D02*
X001240Y030090D01*
X001225Y030064D02*
X001225Y030064D01*
X001380Y030332D02*
X001380Y030828D01*
X001700Y030934D02*
X001700Y030602D01*
X001667Y030591D02*
X001667Y030591D01*
X001400Y030366D02*
X001400Y030366D01*
X001400Y030366D01*
X002020Y030710D02*
X002020Y030960D01*
X002340Y030960D02*
X002340Y030710D01*
X002660Y030595D02*
X002660Y030960D01*
X015780Y029500D02*
X015780Y027770D01*
X016100Y027770D02*
X016100Y029500D01*
X016385Y029770D02*
X016455Y029770D01*
X016450Y030090D02*
X016390Y030090D01*
X016740Y029500D02*
X016740Y027770D01*
X017060Y027770D02*
X017060Y029500D01*
X016420Y030960D02*
X016420Y027770D01*
X018660Y027770D02*
X018660Y029565D01*
X018980Y029500D02*
X018980Y027770D01*
X019300Y027770D02*
X019300Y029685D01*
X019385Y029770D02*
X020455Y029770D01*
X020580Y029645D02*
X020580Y027770D01*
X020900Y027770D02*
X020900Y029500D01*
X020450Y030090D02*
X019390Y030090D01*
X019300Y030255D02*
X019300Y030960D01*
X019620Y030960D02*
X019620Y027770D01*
X019940Y027770D02*
X019940Y030960D01*
X020260Y030960D02*
X020260Y027770D01*
X020580Y030295D02*
X020580Y030960D01*
X028900Y021430D02*
X028900Y019470D01*
X029220Y019470D02*
X029220Y021045D01*
X029315Y021130D02*
X029411Y021130D01*
X028960Y021130D02*
X028880Y021130D01*
X028580Y021075D02*
X028580Y019470D01*
X028260Y019470D02*
X028260Y020961D01*
X028429Y021130D02*
X028525Y021130D01*
X027940Y020870D02*
X027940Y019470D01*
X027620Y019470D02*
X027620Y020945D01*
X027319Y019530D02*
X029370Y019530D01*
X039780Y019470D02*
X039780Y028730D01*
X040095Y028730D02*
X040095Y028730D01*
X040100Y028732D02*
X040100Y019470D01*
X040420Y019470D02*
X040420Y028848D01*
X040423Y028849D02*
X040423Y028849D01*
X040314Y028810D02*
X041160Y028810D01*
X041160Y029130D02*
X040723Y029130D01*
X040740Y029160D02*
X040740Y019470D01*
X040420Y010348D02*
X040420Y009702D01*
X040100Y009702D02*
X040100Y010232D01*
X040150Y010250D02*
X041160Y010250D01*
X041160Y009290D02*
X040876Y009290D01*
X040770Y008970D02*
X041160Y008970D01*
X041160Y008650D02*
X040876Y008650D01*
X040070Y008970D02*
X040015Y009024D01*
X039825Y009024D01*
X039770Y008970D01*
X039780Y008960D02*
X039780Y008980D01*
X039876Y008650D02*
X039964Y008650D01*
X040001Y008330D02*
X039839Y008330D01*
X040690Y029074D02*
X040690Y029074D01*
X040690Y029074D01*
X040865Y029376D02*
X040865Y029376D01*
X040878Y029450D02*
X041160Y029450D01*
X041157Y029770D02*
X040916Y029770D01*
X040925Y029720D02*
X040925Y029720D01*
X040865Y030064D02*
X040865Y030064D01*
X040850Y030090D02*
X041094Y030090D01*
X040420Y030592D02*
X040420Y030851D01*
X040100Y030945D02*
X040100Y030708D01*
X039780Y030710D02*
X039780Y030960D01*
X039150Y030366D02*
X039150Y030366D01*
X039150Y030366D01*
X038975Y029376D02*
X038975Y029376D01*
D23*
X026920Y019470D03*
X023920Y019470D03*
X022920Y017220D03*
X018545Y016970D03*
X018545Y018158D03*
X016420Y016470D03*
X013170Y013220D03*
X015420Y012220D03*
X015920Y010220D03*
X016420Y007970D03*
X016420Y007220D03*
X017670Y007970D03*
X019420Y007970D03*
X021420Y007970D03*
X021920Y009970D03*
X023170Y010470D03*
X025170Y012470D03*
X024420Y007970D03*
X026420Y007970D03*
X029420Y007970D03*
X031420Y007970D03*
X034420Y007970D03*
X036420Y007970D03*
X039420Y007970D03*
X014420Y007970D03*
X013170Y010220D03*
X011420Y007970D03*
X009420Y007970D03*
X009420Y010470D03*
X006420Y007970D03*
X004420Y007970D03*
X004420Y010470D03*
X001420Y007970D03*
D24*
X001420Y008616D01*
X001420Y009324D02*
X002420Y009324D01*
X002524Y009324D01*
X002920Y009720D01*
X003920Y009720D01*
X004316Y009324D01*
X004420Y009324D01*
X005420Y009324D01*
X005420Y008616D02*
X005420Y005968D01*
X005278Y005826D01*
X006920Y003470D02*
X003170Y003470D01*
X002613Y002913D01*
X002562Y002913D01*
X002505Y002970D01*
X002420Y002970D01*
X001420Y003970D01*
X001420Y006670D01*
X001420Y007270D02*
X001370Y007270D01*
X000920Y007720D01*
X000920Y009970D01*
X001170Y010220D01*
X003670Y010220D01*
X003920Y010470D01*
X003920Y011970D01*
X005170Y013220D01*
X006670Y013220D01*
X008420Y011470D01*
X011670Y011470D01*
X011920Y011720D01*
X011920Y012470D01*
X012670Y013220D01*
X013170Y013220D01*
X014170Y013220D01*
X016420Y015470D01*
X016420Y016470D01*
X016024Y017470D02*
X017451Y017470D01*
X019670Y017470D01*
X020420Y018220D01*
X019420Y018220D02*
X019370Y018170D01*
X019420Y018220D02*
X018920Y017720D01*
X018170Y017720D01*
X017720Y018170D01*
X017451Y018170D01*
X016720Y018170D01*
X016545Y018345D01*
X016024Y018345D01*
X016024Y018678D01*
X015733Y018970D01*
X014920Y018970D01*
X014670Y018720D01*
X002420Y018720D01*
X001920Y019220D01*
X001920Y025470D01*
X002920Y026470D01*
X003920Y026470D01*
X004920Y026470D01*
X005920Y026470D01*
X006920Y026470D01*
X007920Y026470D01*
X008920Y026470D01*
X009920Y026470D01*
X010920Y026470D01*
X011920Y026470D01*
X012920Y026470D01*
X013920Y027470D01*
X022920Y027470D01*
X023920Y026470D01*
X023920Y021470D02*
X023920Y020470D01*
X023295Y019845D01*
X023295Y019345D01*
X023670Y018970D01*
X024670Y018970D01*
X025420Y018220D01*
X024420Y018220D02*
X024420Y016220D01*
X024920Y015720D01*
X025920Y016720D01*
X025920Y021470D01*
X024920Y021470D02*
X024920Y020470D01*
X023920Y019470D01*
X023420Y018220D02*
X023920Y017720D01*
X023920Y014220D01*
X026670Y011470D01*
X026670Y010970D01*
X027170Y010595D02*
X027170Y011470D01*
X024920Y013720D01*
X024920Y015720D01*
X022920Y015720D02*
X022920Y014720D01*
X022420Y014220D01*
X022420Y011720D01*
X022170Y011470D01*
X022170Y010470D01*
X022608Y010033D01*
X027264Y010033D01*
X027670Y010439D01*
X027670Y010970D01*
X027170Y010595D02*
X026920Y010345D01*
X026295Y010345D01*
X025670Y010970D01*
X025420Y009324D02*
X024420Y009324D01*
X024316Y009324D01*
X023920Y009720D01*
X022920Y009720D01*
X022524Y009324D01*
X022420Y009324D01*
X021420Y009324D01*
X021420Y008616D02*
X021420Y007970D01*
X020420Y008616D02*
X020420Y005968D01*
X020278Y005826D01*
X021920Y003470D02*
X018170Y003470D01*
X017613Y002913D01*
X017562Y002913D01*
X017505Y002970D01*
X017420Y002970D01*
X016920Y003470D01*
X013170Y003470D01*
X012613Y002913D01*
X012562Y002913D01*
X012505Y002970D01*
X012420Y002970D01*
X011920Y003470D01*
X008170Y003470D01*
X007613Y002913D01*
X007562Y002913D01*
X007505Y002970D01*
X007420Y002970D01*
X006920Y003470D01*
X010278Y005826D02*
X010420Y005968D01*
X010420Y008616D01*
X010420Y009324D02*
X009420Y009324D01*
X009316Y009324D01*
X008920Y009720D01*
X007920Y009720D01*
X007524Y009324D01*
X007420Y009324D01*
X006420Y009324D01*
X006420Y008616D02*
X006420Y007970D01*
X004420Y007970D02*
X004420Y008616D01*
X003420Y008616D01*
X004420Y009251D02*
X004420Y009324D01*
X004420Y010470D02*
X004420Y011720D01*
X005420Y012720D01*
X006420Y012720D01*
X008170Y010970D01*
X012170Y010970D01*
X012420Y011220D01*
X012420Y012220D01*
X012920Y012720D01*
X014420Y012720D01*
X016670Y014970D01*
X018670Y014970D01*
X018920Y015220D01*
X019420Y015220D01*
X019670Y014470D02*
X016920Y014470D01*
X014670Y012220D01*
X013170Y012220D01*
X012920Y011970D01*
X012920Y010970D01*
X012420Y010470D01*
X009420Y010470D01*
X009420Y008616D02*
X008420Y008616D01*
X009420Y008616D02*
X009420Y007970D01*
X011420Y007970D02*
X011420Y008616D01*
X011420Y009324D02*
X012420Y009324D01*
X012524Y009324D01*
X012920Y009720D01*
X013920Y009720D01*
X014316Y009324D01*
X014420Y009324D01*
X015420Y009324D01*
X015420Y008616D02*
X015420Y005968D01*
X015278Y005826D01*
X014420Y007970D02*
X014420Y008616D01*
X013420Y008616D01*
X013170Y010220D02*
X013170Y011470D01*
X013420Y011720D01*
X021420Y011720D01*
X021920Y011220D01*
X021920Y009970D01*
X023170Y010470D02*
X023170Y011824D01*
X023816Y012470D01*
X024524Y012470D02*
X024524Y012324D01*
X023670Y011470D01*
X023670Y010970D01*
X024524Y012470D02*
X025170Y012470D01*
X027920Y009720D02*
X028920Y009720D01*
X029316Y009324D01*
X029420Y009324D01*
X030420Y009324D01*
X030420Y008616D02*
X030420Y005968D01*
X030278Y005826D01*
X031920Y003470D02*
X028170Y003470D01*
X027613Y002913D01*
X027562Y002913D01*
X027505Y002970D01*
X027420Y002970D01*
X026920Y003470D01*
X023170Y003470D01*
X022613Y002913D01*
X022562Y002913D01*
X022505Y002970D01*
X022420Y002970D01*
X021920Y003470D01*
X025278Y005826D02*
X025420Y005968D01*
X025420Y008616D01*
X024420Y008616D02*
X023420Y008616D01*
X024399Y008616D01*
X024420Y008595D01*
X024420Y007970D01*
X026420Y007970D02*
X026420Y008616D01*
X026420Y009324D02*
X027420Y009324D01*
X027524Y009324D01*
X027920Y009720D01*
X028420Y008616D02*
X029409Y008616D01*
X029420Y008626D01*
X029420Y007970D01*
X029420Y008616D02*
X028420Y008616D01*
X029670Y010970D02*
X029670Y019970D01*
X029920Y020220D01*
X029920Y021470D01*
X027670Y019470D02*
X026420Y018220D01*
X026920Y019470D02*
X026920Y021470D01*
X022920Y021470D02*
X022920Y017220D01*
X022420Y016220D02*
X022920Y015720D01*
X022420Y016220D02*
X022420Y018220D01*
X019420Y018220D02*
X019420Y019428D01*
X019462Y019470D01*
X018753Y019470D02*
X018753Y018887D01*
X018920Y018720D01*
X018941Y018741D01*
X016670Y019033D02*
X016670Y019345D01*
X020420Y015220D02*
X019670Y014470D01*
X020170Y013970D02*
X017170Y013970D01*
X015420Y012220D01*
X017920Y009720D02*
X018920Y009720D01*
X019316Y009324D01*
X019420Y009324D01*
X020420Y009324D01*
X019420Y008616D02*
X019420Y007970D01*
X019420Y008616D02*
X018420Y008616D01*
X017524Y009324D02*
X017920Y009720D01*
X017524Y009324D02*
X017420Y009324D01*
X016420Y009324D01*
X016420Y008616D02*
X016420Y007970D01*
X020170Y013970D02*
X021420Y015220D01*
X031420Y009324D02*
X032420Y009324D01*
X032524Y009324D01*
X032920Y009720D01*
X033920Y009720D01*
X034316Y009324D01*
X034420Y009324D01*
X035420Y009324D01*
X035420Y008616D02*
X035420Y005968D01*
X035278Y005826D01*
X036920Y003470D02*
X033170Y003470D01*
X032613Y002913D01*
X032562Y002913D01*
X032505Y002970D01*
X032420Y002970D01*
X031920Y003470D01*
X036920Y003470D02*
X037420Y002970D01*
X037505Y002970D01*
X037562Y002913D01*
X040278Y005826D02*
X040420Y005968D01*
X040420Y008616D01*
X040420Y009324D02*
X039420Y009324D01*
X039024Y009720D01*
X037920Y009720D01*
X037524Y009324D01*
X037420Y009324D01*
X036420Y009324D01*
X036420Y008616D02*
X036420Y007970D01*
X038420Y008616D02*
X039409Y008616D01*
X039420Y008626D01*
X039420Y007970D01*
X039420Y008616D02*
X038420Y008616D01*
X034420Y008616D02*
X033420Y008616D01*
X034409Y008616D01*
X034420Y008626D01*
X034420Y007970D01*
X031420Y007970D02*
X031420Y008616D01*
X002420Y009314D02*
X002420Y009324D01*
D25*
X002920Y020470D03*
X002920Y021470D03*
X002920Y022470D03*
X002920Y023470D03*
X002920Y024470D03*
X002920Y025470D03*
X002920Y026470D03*
X003920Y026470D03*
X004920Y026470D03*
X004920Y025470D03*
X003920Y025470D03*
X003920Y024470D03*
X004920Y024470D03*
X004920Y023470D03*
X003920Y023470D03*
X003920Y022470D03*
X004920Y022470D03*
X004920Y021470D03*
X003920Y021470D03*
X003920Y020470D03*
X004920Y020470D03*
X005920Y020470D03*
X006920Y020470D03*
X007920Y020470D03*
X007920Y021470D03*
X006920Y021470D03*
X005920Y021470D03*
X005920Y022470D03*
X006920Y022470D03*
X007920Y022470D03*
X007920Y023470D03*
X006920Y023470D03*
X005920Y023470D03*
X005920Y024470D03*
X006920Y024470D03*
X007920Y024470D03*
X007920Y025470D03*
X006920Y025470D03*
X005920Y025470D03*
X005920Y026470D03*
X006920Y026470D03*
X007920Y026470D03*
X008920Y026470D03*
X009920Y026470D03*
X009920Y025470D03*
X008920Y025470D03*
X008920Y024470D03*
X009920Y024470D03*
X009920Y023470D03*
X008920Y023470D03*
X008920Y022470D03*
X009920Y022470D03*
X009920Y021470D03*
X008920Y021470D03*
X008920Y020470D03*
X009920Y020470D03*
X010920Y020470D03*
X011920Y020470D03*
X012920Y020470D03*
X012920Y021470D03*
X011920Y021470D03*
X010920Y021470D03*
X010920Y022470D03*
X011920Y022470D03*
X012920Y022470D03*
X012920Y023470D03*
X011920Y023470D03*
X010920Y023470D03*
X010920Y024470D03*
X011920Y024470D03*
X012920Y024470D03*
X012920Y025470D03*
X011920Y025470D03*
X010920Y025470D03*
X010920Y026470D03*
X011920Y026470D03*
X012920Y026470D03*
X013920Y025470D03*
X014920Y025470D03*
X014920Y024470D03*
X013920Y024470D03*
X013920Y023470D03*
X014920Y023470D03*
X014920Y022470D03*
X013920Y022470D03*
X013920Y021470D03*
X015920Y022470D03*
X016920Y022470D03*
X017920Y022470D03*
X017920Y023470D03*
X016920Y023470D03*
X015920Y023470D03*
X015920Y024470D03*
X016920Y024470D03*
X017920Y024470D03*
X017920Y025470D03*
X016920Y025470D03*
X015920Y025470D03*
X018920Y025470D03*
X019920Y025470D03*
X019920Y024470D03*
X018920Y024470D03*
X018920Y023470D03*
X019920Y023470D03*
X019920Y022470D03*
X018920Y022470D03*
X020920Y022470D03*
X021920Y022470D03*
X022920Y022470D03*
X022920Y023470D03*
X021920Y023470D03*
X020920Y023470D03*
X020920Y024470D03*
X021920Y024470D03*
X022920Y024470D03*
X022920Y025470D03*
X021920Y025470D03*
X020920Y025470D03*
X019920Y026470D03*
X023920Y025470D03*
X024920Y025470D03*
X025920Y025470D03*
X025920Y024470D03*
X024920Y024470D03*
X023920Y024470D03*
X023920Y023470D03*
X024920Y023470D03*
X025920Y023470D03*
X025920Y022470D03*
X024920Y022470D03*
X023920Y022470D03*
X026920Y022470D03*
X027920Y022470D03*
X027920Y023470D03*
X026920Y023470D03*
X026920Y024470D03*
X027920Y024470D03*
X027920Y025470D03*
X026920Y025470D03*
X026920Y026470D03*
X027920Y026470D03*
X028920Y026470D03*
X029920Y026470D03*
X029920Y025470D03*
X028920Y025470D03*
X028920Y024470D03*
X029920Y024470D03*
X029920Y023470D03*
X028920Y023470D03*
X028920Y022470D03*
X029920Y022470D03*
M02*
