G75*
G70*
%OFA0B0*%
%FSLAX24Y24*%
%IPPOS*%
%LPD*%
%AMOC8*
5,1,8,0,0,1.08239X$1,22.5*
%
%ADD10C,0.1360*%
%ADD11OC8,0.0560*%
%ADD12C,0.0500*%
%ADD13C,0.0651*%
%ADD14R,0.0532X0.0375*%
%ADD15C,0.0540*%
%ADD16R,0.0690X0.0520*%
%ADD17R,0.0720X0.0060*%
%ADD18R,0.0375X0.0532*%
%ADD19C,0.0520*%
%ADD20R,0.1044X0.0847*%
%ADD21R,0.0847X0.1044*%
%ADD22R,0.1044X0.0532*%
%ADD23C,0.0847*%
%ADD24C,0.0820*%
%ADD25C,0.0760*%
D10*
X005920Y011220D03*
X002170Y029720D03*
X039920Y029720D03*
X039920Y011220D03*
D11*
X029670Y010970D03*
X028670Y010970D03*
X027670Y010970D03*
X026670Y010970D03*
X025670Y010970D03*
X024670Y010970D03*
X023670Y010970D03*
X022670Y010970D03*
X020920Y010970D03*
X019920Y010970D03*
X018920Y010970D03*
X017920Y010970D03*
X016920Y010970D03*
X015920Y010970D03*
X014920Y010970D03*
X013920Y010970D03*
X013920Y029970D03*
X014920Y029970D03*
X015920Y029970D03*
X016920Y029970D03*
X017920Y029970D03*
X018920Y029970D03*
X020920Y029970D03*
X021920Y029970D03*
X022920Y029970D03*
X023920Y029970D03*
X024920Y029970D03*
X025920Y029970D03*
D12*
X037564Y011970D02*
X037566Y012007D01*
X037572Y012044D01*
X037581Y012080D01*
X037595Y012115D01*
X037612Y012148D01*
X037632Y012179D01*
X037655Y012208D01*
X037682Y012235D01*
X037711Y012258D01*
X037742Y012278D01*
X037775Y012295D01*
X037810Y012309D01*
X037846Y012318D01*
X037883Y012324D01*
X037920Y012326D01*
X037957Y012324D01*
X037994Y012318D01*
X038030Y012309D01*
X038065Y012295D01*
X038098Y012278D01*
X038129Y012258D01*
X038158Y012235D01*
X038185Y012208D01*
X038208Y012179D01*
X038228Y012148D01*
X038245Y012115D01*
X038259Y012080D01*
X038268Y012044D01*
X038274Y012007D01*
X038276Y011970D01*
X038274Y011933D01*
X038268Y011896D01*
X038259Y011860D01*
X038245Y011825D01*
X038228Y011792D01*
X038208Y011761D01*
X038185Y011732D01*
X038158Y011705D01*
X038129Y011682D01*
X038098Y011662D01*
X038065Y011645D01*
X038030Y011631D01*
X037994Y011622D01*
X037957Y011616D01*
X037920Y011614D01*
X037883Y011616D01*
X037846Y011622D01*
X037810Y011631D01*
X037775Y011645D01*
X037742Y011662D01*
X037711Y011682D01*
X037682Y011705D01*
X037655Y011732D01*
X037632Y011761D01*
X037612Y011792D01*
X037595Y011825D01*
X037581Y011860D01*
X037572Y011896D01*
X037566Y011933D01*
X037564Y011970D01*
X002314Y011470D02*
X002316Y011507D01*
X002322Y011544D01*
X002331Y011580D01*
X002345Y011615D01*
X002362Y011648D01*
X002382Y011679D01*
X002405Y011708D01*
X002432Y011735D01*
X002461Y011758D01*
X002492Y011778D01*
X002525Y011795D01*
X002560Y011809D01*
X002596Y011818D01*
X002633Y011824D01*
X002670Y011826D01*
X002707Y011824D01*
X002744Y011818D01*
X002780Y011809D01*
X002815Y011795D01*
X002848Y011778D01*
X002879Y011758D01*
X002908Y011735D01*
X002935Y011708D01*
X002958Y011679D01*
X002978Y011648D01*
X002995Y011615D01*
X003009Y011580D01*
X003018Y011544D01*
X003024Y011507D01*
X003026Y011470D01*
X003024Y011433D01*
X003018Y011396D01*
X003009Y011360D01*
X002995Y011325D01*
X002978Y011292D01*
X002958Y011261D01*
X002935Y011232D01*
X002908Y011205D01*
X002879Y011182D01*
X002848Y011162D01*
X002815Y011145D01*
X002780Y011131D01*
X002744Y011122D01*
X002707Y011116D01*
X002670Y011114D01*
X002633Y011116D01*
X002596Y011122D01*
X002560Y011131D01*
X002525Y011145D01*
X002492Y011162D01*
X002461Y011182D01*
X002432Y011205D01*
X002405Y011232D01*
X002382Y011261D01*
X002362Y011292D01*
X002345Y011325D01*
X002331Y011360D01*
X002322Y011396D01*
X002316Y011433D01*
X002314Y011470D01*
X001314Y027970D02*
X001316Y028007D01*
X001322Y028044D01*
X001331Y028080D01*
X001345Y028115D01*
X001362Y028148D01*
X001382Y028179D01*
X001405Y028208D01*
X001432Y028235D01*
X001461Y028258D01*
X001492Y028278D01*
X001525Y028295D01*
X001560Y028309D01*
X001596Y028318D01*
X001633Y028324D01*
X001670Y028326D01*
X001707Y028324D01*
X001744Y028318D01*
X001780Y028309D01*
X001815Y028295D01*
X001848Y028278D01*
X001879Y028258D01*
X001908Y028235D01*
X001935Y028208D01*
X001958Y028179D01*
X001978Y028148D01*
X001995Y028115D01*
X002009Y028080D01*
X002018Y028044D01*
X002024Y028007D01*
X002026Y027970D01*
X002024Y027933D01*
X002018Y027896D01*
X002009Y027860D01*
X001995Y027825D01*
X001978Y027792D01*
X001958Y027761D01*
X001935Y027732D01*
X001908Y027705D01*
X001879Y027682D01*
X001848Y027662D01*
X001815Y027645D01*
X001780Y027631D01*
X001744Y027622D01*
X001707Y027616D01*
X001670Y027614D01*
X001633Y027616D01*
X001596Y027622D01*
X001560Y027631D01*
X001525Y027645D01*
X001492Y027662D01*
X001461Y027682D01*
X001432Y027705D01*
X001405Y027732D01*
X001382Y027761D01*
X001362Y027792D01*
X001345Y027825D01*
X001331Y027860D01*
X001322Y027896D01*
X001316Y027933D01*
X001314Y027970D01*
D13*
X001670Y027970D03*
X002670Y011470D03*
X037920Y011970D03*
D14*
X037420Y009324D03*
X037420Y008616D03*
X036420Y008616D03*
X036420Y009324D03*
X035420Y009324D03*
X035420Y008616D03*
X034420Y008616D03*
X034420Y009324D03*
X033420Y009324D03*
X033420Y008616D03*
X032420Y008616D03*
X032420Y009324D03*
X031420Y009324D03*
X031420Y008616D03*
X030420Y008616D03*
X030420Y009324D03*
X029420Y009324D03*
X029420Y008616D03*
X028420Y008616D03*
X028420Y009324D03*
X027420Y009324D03*
X027420Y008616D03*
X026420Y008616D03*
X026420Y009324D03*
X025420Y009324D03*
X025420Y008616D03*
X024420Y008616D03*
X024420Y009324D03*
X023420Y009324D03*
X023420Y008616D03*
X022420Y008616D03*
X022420Y009324D03*
X021420Y009324D03*
X021420Y008616D03*
X020420Y008616D03*
X020420Y009324D03*
X019420Y009324D03*
X019420Y008616D03*
X018420Y008616D03*
X018420Y009324D03*
X017420Y009324D03*
X017420Y008616D03*
X016420Y008616D03*
X016420Y009324D03*
X015420Y009324D03*
X015420Y008616D03*
X014420Y008616D03*
X014420Y009324D03*
X013420Y009324D03*
X013420Y008616D03*
X012420Y008616D03*
X012420Y009324D03*
X011420Y009324D03*
X011420Y008616D03*
X010420Y008616D03*
X010420Y009324D03*
X009420Y009324D03*
X009420Y008616D03*
X008420Y008616D03*
X008420Y009324D03*
X007420Y009324D03*
X007420Y008616D03*
X006420Y008616D03*
X006420Y009324D03*
X005420Y009324D03*
X005420Y008616D03*
X004420Y008616D03*
X004420Y009324D03*
X003420Y009324D03*
X003420Y008616D03*
X002420Y008616D03*
X002420Y009324D03*
X001420Y009324D03*
X001420Y008616D03*
X038420Y008616D03*
X038420Y009324D03*
X039420Y009324D03*
X039420Y008616D03*
X040420Y008616D03*
X040420Y009324D03*
D15*
X026420Y014980D02*
X026420Y015460D01*
X025420Y015460D02*
X025420Y014980D01*
X024420Y014980D02*
X024420Y015460D01*
X023420Y015460D02*
X023420Y014980D01*
X022420Y014980D02*
X022420Y015460D01*
X021420Y015460D02*
X021420Y014980D01*
X020420Y014980D02*
X020420Y015460D01*
X019420Y015460D02*
X019420Y014980D01*
X019420Y017980D02*
X019420Y018460D01*
X020420Y018460D02*
X020420Y017980D01*
X021420Y017980D02*
X021420Y018460D01*
X022420Y018460D02*
X022420Y017980D01*
X023420Y017980D02*
X023420Y018460D01*
X024420Y018460D02*
X024420Y017980D01*
X025420Y017980D02*
X025420Y018460D01*
X026420Y018460D02*
X026420Y017980D01*
D16*
X016670Y018920D03*
X016670Y019520D03*
X001420Y007270D03*
X001420Y006670D03*
D17*
X001420Y006970D03*
X016670Y019220D03*
D18*
X016024Y018345D03*
X015316Y018345D03*
X015316Y017470D03*
X016024Y017470D03*
X018753Y019470D03*
X019462Y019470D03*
X023816Y012470D03*
X024524Y012470D03*
D19*
X017681Y016770D02*
X017221Y016770D01*
X017221Y017470D02*
X017681Y017470D01*
X017681Y018170D02*
X017221Y018170D01*
D20*
X015278Y005826D03*
X017562Y002913D03*
X015278Y002204D03*
X012562Y002913D03*
X010278Y002204D03*
X007562Y002913D03*
X005278Y002204D03*
X002562Y002913D03*
X005278Y005826D03*
X010278Y005826D03*
X020278Y005826D03*
X022562Y002913D03*
X020278Y002204D03*
X025278Y002204D03*
X027562Y002913D03*
X030278Y002204D03*
X032562Y002913D03*
X035278Y002204D03*
X037562Y002913D03*
X040278Y002204D03*
X040278Y005826D03*
X035278Y005826D03*
X030278Y005826D03*
X025278Y005826D03*
D21*
X023625Y007421D03*
X028625Y007421D03*
X033625Y007421D03*
X038625Y007421D03*
X018625Y007421D03*
X013625Y007421D03*
X008625Y007421D03*
X003625Y007421D03*
D22*
X002562Y001811D03*
X007562Y001811D03*
X012562Y001811D03*
X017562Y001811D03*
X022562Y001811D03*
X027562Y001811D03*
X032562Y001811D03*
X037562Y001811D03*
D23*
X038920Y002598D03*
X038920Y005354D03*
X033920Y005354D03*
X033920Y002598D03*
X028920Y002598D03*
X028920Y005354D03*
X023920Y005354D03*
X023920Y002598D03*
X018920Y002598D03*
X018920Y005354D03*
X013920Y005354D03*
X013920Y002598D03*
X008920Y002598D03*
X008920Y005354D03*
X003920Y005354D03*
X003920Y002598D03*
D24*
X014920Y021470D03*
X015920Y021470D03*
X016920Y021470D03*
X017920Y021470D03*
X018920Y021470D03*
X019920Y021470D03*
X020920Y021470D03*
X021920Y021470D03*
X022920Y021470D03*
X023920Y021470D03*
X024920Y021470D03*
X025920Y021470D03*
X026920Y021470D03*
X027920Y021470D03*
X028920Y021470D03*
X029920Y021470D03*
X025920Y026470D03*
X024920Y026470D03*
X023920Y026470D03*
X022920Y026470D03*
X021920Y026470D03*
X020920Y026470D03*
X018920Y026470D03*
X017920Y026470D03*
X016920Y026470D03*
X015920Y026470D03*
X014920Y026470D03*
X013920Y026470D03*
D25*
X013920Y025470D03*
X014920Y025470D03*
X014920Y024470D03*
X013920Y024470D03*
X013920Y023470D03*
X014920Y023470D03*
X014920Y022470D03*
X013920Y022470D03*
X012920Y022470D03*
X011920Y022470D03*
X010920Y022470D03*
X010920Y023470D03*
X011920Y023470D03*
X012920Y023470D03*
X012920Y024470D03*
X011920Y024470D03*
X010920Y024470D03*
X010920Y025470D03*
X011920Y025470D03*
X012920Y025470D03*
X012920Y026470D03*
X011920Y026470D03*
X010920Y026470D03*
X009920Y026470D03*
X008920Y026470D03*
X008920Y025470D03*
X009920Y025470D03*
X009920Y024470D03*
X008920Y024470D03*
X008920Y023470D03*
X009920Y023470D03*
X009920Y022470D03*
X008920Y022470D03*
X007920Y022470D03*
X006920Y022470D03*
X005920Y022470D03*
X005920Y023470D03*
X006920Y023470D03*
X007920Y023470D03*
X007920Y024470D03*
X006920Y024470D03*
X005920Y024470D03*
X005920Y025470D03*
X006920Y025470D03*
X007920Y025470D03*
X007920Y026470D03*
X006920Y026470D03*
X005920Y026470D03*
X004920Y026470D03*
X003920Y026470D03*
X003920Y025470D03*
X004920Y025470D03*
X004920Y024470D03*
X003920Y024470D03*
X003920Y023470D03*
X004920Y023470D03*
X004920Y022470D03*
X003920Y022470D03*
X002920Y022470D03*
X002920Y023470D03*
X002920Y024470D03*
X002920Y025470D03*
X002920Y026470D03*
X002920Y021470D03*
X002920Y020470D03*
X003920Y020470D03*
X004920Y020470D03*
X004920Y021470D03*
X003920Y021470D03*
X005920Y021470D03*
X006920Y021470D03*
X007920Y021470D03*
X007920Y020470D03*
X006920Y020470D03*
X005920Y020470D03*
X008920Y020470D03*
X009920Y020470D03*
X009920Y021470D03*
X008920Y021470D03*
X010920Y021470D03*
X011920Y021470D03*
X012920Y021470D03*
X012920Y020470D03*
X011920Y020470D03*
X010920Y020470D03*
X013920Y021470D03*
X015920Y022470D03*
X016920Y022470D03*
X017920Y022470D03*
X017920Y023470D03*
X016920Y023470D03*
X015920Y023470D03*
X015920Y024470D03*
X016920Y024470D03*
X017920Y024470D03*
X017920Y025470D03*
X016920Y025470D03*
X015920Y025470D03*
X018920Y025470D03*
X019920Y025470D03*
X019920Y024470D03*
X018920Y024470D03*
X018920Y023470D03*
X019920Y023470D03*
X019920Y022470D03*
X018920Y022470D03*
X020920Y022470D03*
X021920Y022470D03*
X022920Y022470D03*
X022920Y023470D03*
X021920Y023470D03*
X020920Y023470D03*
X020920Y024470D03*
X021920Y024470D03*
X022920Y024470D03*
X022920Y025470D03*
X021920Y025470D03*
X020920Y025470D03*
X019920Y026470D03*
X023920Y025470D03*
X024920Y025470D03*
X025920Y025470D03*
X025920Y024470D03*
X024920Y024470D03*
X023920Y024470D03*
X023920Y023470D03*
X024920Y023470D03*
X025920Y023470D03*
X025920Y022470D03*
X024920Y022470D03*
X023920Y022470D03*
X026920Y022470D03*
X027920Y022470D03*
X027920Y023470D03*
X026920Y023470D03*
X026920Y024470D03*
X027920Y024470D03*
X027920Y025470D03*
X026920Y025470D03*
X026920Y026470D03*
X027920Y026470D03*
X028920Y026470D03*
X029920Y026470D03*
X029920Y025470D03*
X028920Y025470D03*
X028920Y024470D03*
X029920Y024470D03*
X029920Y023470D03*
X028920Y023470D03*
X028920Y022470D03*
X029920Y022470D03*
M02*
