%
M48
M72
T01C0.0157
T02C0.0300
T03C0.0315
T04C0.0320
T05C0.0354
T06C0.0400
T07C0.0787
T08C0.1300
%
T01
X1420Y7970
X4420Y7970
X6420Y7970
X9420Y7970
X11420Y7970
X13170Y10220
X15420Y12220
X13170Y13220
X15920Y10220
X16420Y7970
X16420Y7220
X17670Y7970
X19420Y7970
X21420Y7970
X21920Y9970
X23170Y10470
X25170Y12470
X24420Y7970
X26420Y7970
X29420Y7970
X31420Y7970
X34420Y7970
X36420Y7970
X39420Y7970
X26920Y19470
X23920Y19470
X22920Y17220
X18545Y16970
X18545Y18158
X16420Y16470
X9420Y10470
X4420Y10470
X14420Y7970
T02
X17451Y16770
X17451Y17470
X17451Y18170
T03
X17920Y10970
X16920Y10970
X15920Y10970
X14920Y10970
X13920Y10970
X18920Y10970
X19920Y10970
X20920Y10970
X22670Y10970
X23670Y10970
X24670Y10970
X25670Y10970
X26670Y10970
X27670Y10970
X28670Y10970
X29670Y10970
X25920Y29970
X24920Y29970
X23920Y29970
X22920Y29970
X21920Y29970
X20920Y29970
X18920Y29970
X17920Y29970
X16920Y29970
X15920Y29970
X14920Y29970
X13920Y29970
T04
X19420Y18220
X20420Y18220
X21420Y18220
X22420Y18220
X23420Y18220
X24420Y18220
X25420Y18220
X26420Y18220
X26420Y15220
X25420Y15220
X24420Y15220
X23420Y15220
X22420Y15220
X21420Y15220
X20420Y15220
X19420Y15220
T05
X12920Y20470
X11920Y20470
X10920Y20470
X10920Y21470
X11920Y21470
X12920Y21470
X13920Y21470
X13920Y22470
X14920Y22470
X14920Y23470
X13920Y23470
X13920Y24470
X14920Y24470
X14920Y25470
X13920Y25470
X12920Y25470
X11920Y25470
X10920Y25470
X10920Y24470
X11920Y24470
X12920Y24470
X12920Y23470
X11920Y23470
X10920Y23470
X10920Y22470
X11920Y22470
X12920Y22470
X9920Y22470
X8920Y22470
X8920Y23470
X9920Y23470
X9920Y24470
X8920Y24470
X8920Y25470
X9920Y25470
X9920Y26470
X8920Y26470
X7920Y26470
X6920Y26470
X5920Y26470
X5920Y25470
X6920Y25470
X7920Y25470
X7920Y24470
X6920Y24470
X5920Y24470
X5920Y23470
X6920Y23470
X7920Y23470
X7920Y22470
X6920Y22470
X5920Y22470
X4920Y22470
X3920Y22470
X3920Y23470
X4920Y23470
X4920Y24470
X3920Y24470
X3920Y25470
X4920Y25470
X4920Y26470
X3920Y26470
X2920Y26470
X2920Y25470
X2920Y24470
X2920Y23470
X2920Y22470
X2920Y21470
X2920Y20470
X3920Y20470
X4920Y20470
X4920Y21470
X3920Y21470
X5920Y21470
X6920Y21470
X7920Y21470
X7920Y20470
X6920Y20470
X5920Y20470
X8920Y20470
X9920Y20470
X9920Y21470
X8920Y21470
X10920Y26470
X11920Y26470
X12920Y26470
X15920Y25470
X16920Y25470
X17920Y25470
X17920Y24470
X16920Y24470
X15920Y24470
X15920Y23470
X16920Y23470
X17920Y23470
X17920Y22470
X16920Y22470
X15920Y22470
X18920Y22470
X19920Y22470
X19920Y23470
X18920Y23470
X18920Y24470
X19920Y24470
X19920Y25470
X18920Y25470
X19920Y26470
X20920Y25470
X21920Y25470
X22920Y25470
X22920Y24470
X21920Y24470
X20920Y24470
X20920Y23470
X21920Y23470
X22920Y23470
X22920Y22470
X21920Y22470
X20920Y22470
X23920Y22470
X24920Y22470
X25920Y22470
X25920Y23470
X24920Y23470
X23920Y23470
X23920Y24470
X24920Y24470
X25920Y24470
X25920Y25470
X24920Y25470
X23920Y25470
X26920Y25470
X27920Y25470
X27920Y24470
X26920Y24470
X26920Y23470
X27920Y23470
X27920Y22470
X26920Y22470
X28920Y22470
X29920Y22470
X29920Y23470
X28920Y23470
X28920Y24470
X29920Y24470
X29920Y25470
X28920Y25470
X28920Y26470
X29920Y26470
X27920Y26470
X26920Y26470
T06
X25920Y26470
X24920Y26470
X23920Y26470
X22920Y26470
X21920Y26470
X20920Y26470
X18920Y26470
X17920Y26470
X16920Y26470
X15920Y26470
X14920Y26470
X13920Y26470
X14920Y21470
X15920Y21470
X16920Y21470
X17920Y21470
X18920Y21470
X19920Y21470
X20920Y21470
X21920Y21470
X22920Y21470
X23920Y21470
X24920Y21470
X25920Y21470
X26920Y21470
X27920Y21470
X28920Y21470
X29920Y21470
T07
X3920Y2598
X3920Y5354
X8920Y5354
X8920Y2598
X13920Y2598
X13920Y5354
X18920Y5354
X18920Y2598
X23920Y2598
X23920Y5354
X28920Y5354
X28920Y2598
X33920Y2598
X33920Y5354
X38920Y5354
X38920Y2598
T08
X39920Y11220
X39920Y29720
X5920Y11220
X2170Y29720
M30
