G75*
G70*
%OFA0B0*%
%FSLAX24Y24*%
%IPPOS*%
%LPD*%
%AMOC8*
5,1,8,0,0,1.08239X$1,22.5*
%
%ADD10C,0.1360*%
%ADD11OC8,0.0560*%
%ADD12C,0.0540*%
%ADD13C,0.0520*%
%ADD14C,0.0847*%
%ADD15C,0.0820*%
%ADD16C,0.0760*%
D10*
X005920Y011220D03*
X002170Y029720D03*
X039920Y029720D03*
X039920Y011220D03*
D11*
X029670Y010970D03*
X028670Y010970D03*
X027670Y010970D03*
X026670Y010970D03*
X025670Y010970D03*
X024670Y010970D03*
X023670Y010970D03*
X022670Y010970D03*
X020920Y010970D03*
X019920Y010970D03*
X018920Y010970D03*
X017920Y010970D03*
X016920Y010970D03*
X015920Y010970D03*
X014920Y010970D03*
X013920Y010970D03*
X013920Y029970D03*
X014920Y029970D03*
X015920Y029970D03*
X016920Y029970D03*
X017920Y029970D03*
X018920Y029970D03*
X020920Y029970D03*
X021920Y029970D03*
X022920Y029970D03*
X023920Y029970D03*
X024920Y029970D03*
X025920Y029970D03*
D12*
X025420Y018460D02*
X025420Y017980D01*
X024420Y017980D02*
X024420Y018460D01*
X023420Y018460D02*
X023420Y017980D01*
X022420Y017980D02*
X022420Y018460D01*
X021420Y018460D02*
X021420Y017980D01*
X020420Y017980D02*
X020420Y018460D01*
X019420Y018460D02*
X019420Y017980D01*
X019420Y015460D02*
X019420Y014980D01*
X020420Y014980D02*
X020420Y015460D01*
X021420Y015460D02*
X021420Y014980D01*
X022420Y014980D02*
X022420Y015460D01*
X023420Y015460D02*
X023420Y014980D01*
X024420Y014980D02*
X024420Y015460D01*
X025420Y015460D02*
X025420Y014980D01*
X026420Y014980D02*
X026420Y015460D01*
X026420Y017980D02*
X026420Y018460D01*
D13*
X017681Y018170D02*
X017221Y018170D01*
X017221Y017470D02*
X017681Y017470D01*
X017681Y016770D02*
X017221Y016770D01*
D14*
X003920Y002598D03*
X003920Y005354D03*
X008920Y005354D03*
X008920Y002598D03*
X013920Y002598D03*
X013920Y005354D03*
X018920Y005354D03*
X018920Y002598D03*
X023920Y002598D03*
X023920Y005354D03*
X028920Y005354D03*
X028920Y002598D03*
X033920Y002598D03*
X033920Y005354D03*
X038920Y005354D03*
X038920Y002598D03*
D15*
X029920Y021470D03*
X028920Y021470D03*
X027920Y021470D03*
X026920Y021470D03*
X025920Y021470D03*
X024920Y021470D03*
X023920Y021470D03*
X022920Y021470D03*
X021920Y021470D03*
X020920Y021470D03*
X019920Y021470D03*
X018920Y021470D03*
X017920Y021470D03*
X016920Y021470D03*
X015920Y021470D03*
X014920Y021470D03*
X014920Y026470D03*
X013920Y026470D03*
X015920Y026470D03*
X016920Y026470D03*
X017920Y026470D03*
X018920Y026470D03*
X020920Y026470D03*
X021920Y026470D03*
X022920Y026470D03*
X023920Y026470D03*
X024920Y026470D03*
X025920Y026470D03*
D16*
X025920Y025470D03*
X024920Y025470D03*
X023920Y025470D03*
X023920Y024470D03*
X024920Y024470D03*
X025920Y024470D03*
X025920Y023470D03*
X024920Y023470D03*
X023920Y023470D03*
X023920Y022470D03*
X024920Y022470D03*
X025920Y022470D03*
X026920Y022470D03*
X027920Y022470D03*
X027920Y023470D03*
X026920Y023470D03*
X026920Y024470D03*
X027920Y024470D03*
X027920Y025470D03*
X026920Y025470D03*
X026920Y026470D03*
X027920Y026470D03*
X028920Y026470D03*
X029920Y026470D03*
X029920Y025470D03*
X028920Y025470D03*
X028920Y024470D03*
X029920Y024470D03*
X029920Y023470D03*
X028920Y023470D03*
X028920Y022470D03*
X029920Y022470D03*
X022920Y022470D03*
X021920Y022470D03*
X020920Y022470D03*
X020920Y023470D03*
X021920Y023470D03*
X022920Y023470D03*
X022920Y024470D03*
X021920Y024470D03*
X020920Y024470D03*
X020920Y025470D03*
X021920Y025470D03*
X022920Y025470D03*
X019920Y025470D03*
X018920Y025470D03*
X018920Y024470D03*
X019920Y024470D03*
X019920Y023470D03*
X018920Y023470D03*
X018920Y022470D03*
X019920Y022470D03*
X017920Y022470D03*
X016920Y022470D03*
X015920Y022470D03*
X015920Y023470D03*
X016920Y023470D03*
X017920Y023470D03*
X017920Y024470D03*
X016920Y024470D03*
X015920Y024470D03*
X015920Y025470D03*
X016920Y025470D03*
X017920Y025470D03*
X019920Y026470D03*
X014920Y025470D03*
X013920Y025470D03*
X013920Y024470D03*
X014920Y024470D03*
X014920Y023470D03*
X013920Y023470D03*
X013920Y022470D03*
X014920Y022470D03*
X013920Y021470D03*
X012920Y021470D03*
X011920Y021470D03*
X010920Y021470D03*
X010920Y020470D03*
X011920Y020470D03*
X012920Y020470D03*
X012920Y022470D03*
X011920Y022470D03*
X010920Y022470D03*
X010920Y023470D03*
X011920Y023470D03*
X012920Y023470D03*
X012920Y024470D03*
X011920Y024470D03*
X010920Y024470D03*
X010920Y025470D03*
X011920Y025470D03*
X012920Y025470D03*
X012920Y026470D03*
X011920Y026470D03*
X010920Y026470D03*
X009920Y026470D03*
X008920Y026470D03*
X008920Y025470D03*
X009920Y025470D03*
X009920Y024470D03*
X008920Y024470D03*
X008920Y023470D03*
X009920Y023470D03*
X009920Y022470D03*
X008920Y022470D03*
X008920Y021470D03*
X009920Y021470D03*
X009920Y020470D03*
X008920Y020470D03*
X007920Y020470D03*
X006920Y020470D03*
X005920Y020470D03*
X005920Y021470D03*
X006920Y021470D03*
X007920Y021470D03*
X007920Y022470D03*
X006920Y022470D03*
X005920Y022470D03*
X005920Y023470D03*
X006920Y023470D03*
X007920Y023470D03*
X007920Y024470D03*
X006920Y024470D03*
X005920Y024470D03*
X005920Y025470D03*
X006920Y025470D03*
X007920Y025470D03*
X007920Y026470D03*
X006920Y026470D03*
X005920Y026470D03*
X004920Y026470D03*
X003920Y026470D03*
X003920Y025470D03*
X004920Y025470D03*
X004920Y024470D03*
X003920Y024470D03*
X003920Y023470D03*
X004920Y023470D03*
X004920Y022470D03*
X003920Y022470D03*
X003920Y021470D03*
X004920Y021470D03*
X004920Y020470D03*
X003920Y020470D03*
X002920Y020470D03*
X002920Y021470D03*
X002920Y022470D03*
X002920Y023470D03*
X002920Y024470D03*
X002920Y025470D03*
X002920Y026470D03*
M02*
