G75*
G70*
%OFA0B0*%
%FSLAX24Y24*%
%IPPOS*%
%LPD*%
%AMOC8*
5,1,8,0,0,1.08239X$1,22.5*
%
%ADD10C,0.0040*%
%ADD11C,0.0090*%
%ADD12C,0.0110*%
%ADD13C,0.0050*%
%ADD14C,0.0060*%
%ADD15C,0.0160*%
%ADD16C,0.0080*%
%ADD17C,0.0010*%
%ADD18C,0.0100*%
D10*
X001328Y009579D02*
X001414Y009709D01*
X001501Y009579D01*
X001588Y009709D02*
X001328Y009709D01*
X001371Y009812D02*
X001328Y009855D01*
X001328Y009942D01*
X001371Y009985D01*
X001544Y009812D01*
X001371Y009812D01*
X001371Y009985D02*
X001544Y009985D01*
X001588Y009942D01*
X001588Y009855D01*
X001544Y009812D01*
X001544Y010088D02*
X001588Y010131D01*
X001588Y010218D01*
X001544Y010261D01*
X001544Y010364D02*
X001588Y010407D01*
X001588Y010494D01*
X001544Y010538D01*
X001544Y010364D02*
X001501Y010364D01*
X001328Y010538D01*
X001328Y010364D01*
X001328Y010261D02*
X001501Y010088D01*
X001544Y010088D01*
X001328Y010088D02*
X001328Y010261D01*
X002328Y010261D02*
X002501Y010088D01*
X002544Y010088D01*
X002588Y010131D01*
X002588Y010218D01*
X002544Y010261D01*
X002544Y010364D02*
X002501Y010364D01*
X002328Y010538D01*
X002328Y010364D01*
X002328Y010261D02*
X002328Y010088D01*
X002371Y009985D02*
X002544Y009812D01*
X002371Y009812D01*
X002328Y009855D01*
X002328Y009942D01*
X002371Y009985D01*
X002544Y009985D01*
X002588Y009942D01*
X002588Y009855D01*
X002544Y009812D01*
X002588Y009709D02*
X002328Y009709D01*
X002414Y009709D02*
X002501Y009579D01*
X002414Y009709D02*
X002328Y009579D01*
X003328Y009745D02*
X003588Y009745D01*
X003588Y009572D01*
X003458Y009658D02*
X003458Y009745D01*
X003458Y009848D02*
X003328Y009848D01*
X003458Y009848D02*
X003501Y009891D01*
X003501Y010021D01*
X003328Y010021D01*
X003371Y010124D02*
X003328Y010167D01*
X003328Y010254D01*
X003371Y010298D01*
X003544Y010124D01*
X003371Y010124D01*
X003544Y010124D02*
X003588Y010167D01*
X003588Y010254D01*
X003544Y010298D01*
X003371Y010298D01*
X003371Y010400D02*
X003328Y010444D01*
X003328Y010530D01*
X003371Y010574D01*
X003544Y010400D01*
X003371Y010400D01*
X003544Y010400D02*
X003588Y010444D01*
X003588Y010530D01*
X003544Y010574D01*
X003371Y010574D01*
X003328Y010677D02*
X003328Y010850D01*
X003328Y010763D02*
X003588Y010763D01*
X003501Y010850D01*
X002588Y010494D02*
X002544Y010538D01*
X002588Y010494D02*
X002588Y010407D01*
X002544Y010364D01*
X004328Y009975D02*
X004328Y009802D01*
X004328Y009888D02*
X004588Y009888D01*
X004501Y009975D01*
X004588Y009699D02*
X004328Y009699D01*
X004414Y009699D02*
X004501Y009569D01*
X004414Y009699D02*
X004328Y009569D01*
X005328Y009735D02*
X005588Y009735D01*
X005588Y009562D01*
X005458Y009648D02*
X005458Y009735D01*
X005501Y009838D02*
X005328Y009838D01*
X005328Y009968D01*
X005371Y010011D01*
X005501Y010011D01*
X005328Y010114D02*
X005328Y010288D01*
X005328Y010201D02*
X005588Y010201D01*
X005501Y010288D01*
X006328Y010261D02*
X006501Y010088D01*
X006544Y010088D01*
X006588Y010131D01*
X006588Y010218D01*
X006544Y010261D01*
X006544Y010364D02*
X006588Y010407D01*
X006588Y010494D01*
X006544Y010538D01*
X006544Y010364D02*
X006501Y010364D01*
X006328Y010538D01*
X006328Y010364D01*
X006328Y010261D02*
X006328Y010088D01*
X006371Y009985D02*
X006544Y009812D01*
X006371Y009812D01*
X006328Y009855D01*
X006328Y009942D01*
X006371Y009985D01*
X006544Y009985D01*
X006588Y009942D01*
X006588Y009855D01*
X006544Y009812D01*
X006588Y009709D02*
X006328Y009709D01*
X006414Y009709D02*
X006501Y009579D01*
X006414Y009709D02*
X006328Y009579D01*
X007328Y009579D02*
X007414Y009709D01*
X007501Y009579D01*
X007588Y009709D02*
X007328Y009709D01*
X007371Y009812D02*
X007328Y009855D01*
X007328Y009942D01*
X007371Y009985D01*
X007544Y009812D01*
X007371Y009812D01*
X007371Y009985D02*
X007544Y009985D01*
X007588Y009942D01*
X007588Y009855D01*
X007544Y009812D01*
X007544Y010088D02*
X007501Y010088D01*
X007328Y010261D01*
X007328Y010088D01*
X007544Y010088D02*
X007588Y010131D01*
X007588Y010218D01*
X007544Y010261D01*
X007544Y010364D02*
X007501Y010364D01*
X007328Y010538D01*
X007328Y010364D01*
X007544Y010364D02*
X007588Y010407D01*
X007588Y010494D01*
X007544Y010538D01*
X008265Y010530D02*
X008308Y010574D01*
X008482Y010400D01*
X008308Y010400D01*
X008265Y010444D01*
X008265Y010530D01*
X008308Y010574D02*
X008482Y010574D01*
X008525Y010530D01*
X008525Y010444D01*
X008482Y010400D01*
X008482Y010298D02*
X008525Y010254D01*
X008525Y010167D01*
X008482Y010124D01*
X008308Y010298D01*
X008265Y010254D01*
X008265Y010167D01*
X008308Y010124D01*
X008482Y010124D01*
X008438Y010021D02*
X008438Y009891D01*
X008395Y009848D01*
X008265Y009848D01*
X008265Y009745D02*
X008525Y009745D01*
X008525Y009572D01*
X008395Y009658D02*
X008395Y009745D01*
X008438Y010021D02*
X008265Y010021D01*
X008308Y010298D02*
X008482Y010298D01*
X008265Y010677D02*
X008265Y010850D01*
X008265Y010763D02*
X008525Y010763D01*
X008438Y010850D01*
X009328Y009975D02*
X009328Y009802D01*
X009328Y009888D02*
X009588Y009888D01*
X009501Y009975D01*
X009588Y009699D02*
X009328Y009699D01*
X009414Y009699D02*
X009501Y009569D01*
X009414Y009699D02*
X009328Y009569D01*
X010328Y009735D02*
X010588Y009735D01*
X010588Y009562D01*
X010458Y009648D02*
X010458Y009735D01*
X010501Y009838D02*
X010328Y009838D01*
X010328Y009968D01*
X010371Y010011D01*
X010501Y010011D01*
X010328Y010114D02*
X010328Y010288D01*
X010328Y010201D02*
X010588Y010201D01*
X010501Y010288D01*
X011328Y010261D02*
X011501Y010088D01*
X011544Y010088D01*
X011588Y010131D01*
X011588Y010218D01*
X011544Y010261D01*
X011544Y010364D02*
X011588Y010407D01*
X011588Y010494D01*
X011544Y010538D01*
X011544Y010364D02*
X011501Y010364D01*
X011328Y010538D01*
X011328Y010364D01*
X011328Y010261D02*
X011328Y010088D01*
X011371Y009985D02*
X011544Y009812D01*
X011371Y009812D01*
X011328Y009855D01*
X011328Y009942D01*
X011371Y009985D01*
X011544Y009985D01*
X011588Y009942D01*
X011588Y009855D01*
X011544Y009812D01*
X011588Y009709D02*
X011328Y009709D01*
X011414Y009709D02*
X011501Y009579D01*
X011414Y009709D02*
X011328Y009579D01*
X012328Y009579D02*
X012414Y009709D01*
X012501Y009579D01*
X012588Y009709D02*
X012328Y009709D01*
X012371Y009812D02*
X012328Y009855D01*
X012328Y009942D01*
X012371Y009985D01*
X012544Y009812D01*
X012371Y009812D01*
X012371Y009985D02*
X012544Y009985D01*
X012588Y009942D01*
X012588Y009855D01*
X012544Y009812D01*
X012544Y010088D02*
X012588Y010131D01*
X012588Y010218D01*
X012544Y010261D01*
X012544Y010364D02*
X012588Y010407D01*
X012588Y010494D01*
X012544Y010538D01*
X012544Y010364D02*
X012501Y010364D01*
X012328Y010538D01*
X012328Y010364D01*
X012328Y010261D02*
X012501Y010088D01*
X012544Y010088D01*
X012328Y010088D02*
X012328Y010261D01*
X013265Y010254D02*
X013308Y010298D01*
X013482Y010124D01*
X013308Y010124D01*
X013265Y010167D01*
X013265Y010254D01*
X013308Y010298D02*
X013482Y010298D01*
X013525Y010254D01*
X013525Y010167D01*
X013482Y010124D01*
X013438Y010021D02*
X013438Y009891D01*
X013395Y009848D01*
X013265Y009848D01*
X013265Y009745D02*
X013525Y009745D01*
X013525Y009572D01*
X013395Y009658D02*
X013395Y009745D01*
X013438Y010021D02*
X013265Y010021D01*
X013308Y010400D02*
X013265Y010444D01*
X013265Y010530D01*
X013308Y010574D01*
X013482Y010400D01*
X013308Y010400D01*
X013308Y010574D02*
X013482Y010574D01*
X013525Y010530D01*
X013525Y010444D01*
X013482Y010400D01*
X013265Y010677D02*
X013265Y010850D01*
X013265Y010763D02*
X013525Y010763D01*
X013438Y010850D01*
X014328Y009975D02*
X014328Y009802D01*
X014328Y009888D02*
X014588Y009888D01*
X014501Y009975D01*
X014588Y009699D02*
X014328Y009699D01*
X014414Y009699D02*
X014501Y009569D01*
X014414Y009699D02*
X014328Y009569D01*
X015328Y009735D02*
X015588Y009735D01*
X015588Y009562D01*
X015458Y009648D02*
X015458Y009735D01*
X015501Y009838D02*
X015328Y009838D01*
X015328Y009968D01*
X015371Y010011D01*
X015501Y010011D01*
X015328Y010114D02*
X015328Y010288D01*
X015328Y010201D02*
X015588Y010201D01*
X015501Y010288D01*
X016328Y010261D02*
X016501Y010088D01*
X016544Y010088D01*
X016588Y010131D01*
X016588Y010218D01*
X016544Y010261D01*
X016544Y010364D02*
X016588Y010407D01*
X016588Y010494D01*
X016544Y010538D01*
X016544Y010364D02*
X016501Y010364D01*
X016328Y010538D01*
X016328Y010364D01*
X016328Y010261D02*
X016328Y010088D01*
X016371Y009985D02*
X016544Y009812D01*
X016371Y009812D01*
X016328Y009855D01*
X016328Y009942D01*
X016371Y009985D01*
X016544Y009985D01*
X016588Y009942D01*
X016588Y009855D01*
X016544Y009812D01*
X016588Y009709D02*
X016328Y009709D01*
X016414Y009709D02*
X016501Y009579D01*
X016414Y009709D02*
X016328Y009579D01*
X017328Y009579D02*
X017414Y009709D01*
X017501Y009579D01*
X017588Y009709D02*
X017328Y009709D01*
X017371Y009812D02*
X017328Y009855D01*
X017328Y009942D01*
X017371Y009985D01*
X017544Y009812D01*
X017371Y009812D01*
X017371Y009985D02*
X017544Y009985D01*
X017588Y009942D01*
X017588Y009855D01*
X017544Y009812D01*
X017544Y010088D02*
X017588Y010131D01*
X017588Y010218D01*
X017544Y010261D01*
X017544Y010364D02*
X017588Y010407D01*
X017588Y010494D01*
X017544Y010538D01*
X017544Y010364D02*
X017501Y010364D01*
X017328Y010538D01*
X017328Y010364D01*
X017328Y010261D02*
X017501Y010088D01*
X017544Y010088D01*
X017328Y010088D02*
X017328Y010261D01*
X018265Y010254D02*
X018308Y010298D01*
X018482Y010124D01*
X018308Y010124D01*
X018265Y010167D01*
X018265Y010254D01*
X018308Y010298D02*
X018482Y010298D01*
X018525Y010254D01*
X018525Y010167D01*
X018482Y010124D01*
X018438Y010021D02*
X018438Y009891D01*
X018395Y009848D01*
X018265Y009848D01*
X018265Y009745D02*
X018525Y009745D01*
X018525Y009572D01*
X018395Y009658D02*
X018395Y009745D01*
X018438Y010021D02*
X018265Y010021D01*
X018308Y010400D02*
X018265Y010444D01*
X018265Y010530D01*
X018308Y010574D01*
X018482Y010400D01*
X018308Y010400D01*
X018308Y010574D02*
X018482Y010574D01*
X018525Y010530D01*
X018525Y010444D01*
X018482Y010400D01*
X018265Y010677D02*
X018265Y010850D01*
X018265Y010763D02*
X018525Y010763D01*
X018438Y010850D01*
X019328Y009975D02*
X019328Y009802D01*
X019328Y009888D02*
X019588Y009888D01*
X019501Y009975D01*
X019588Y009699D02*
X019328Y009699D01*
X019414Y009699D02*
X019501Y009569D01*
X019414Y009699D02*
X019328Y009569D01*
X020328Y009735D02*
X020588Y009735D01*
X020588Y009562D01*
X020458Y009648D02*
X020458Y009735D01*
X020501Y009838D02*
X020328Y009838D01*
X020328Y009968D01*
X020371Y010011D01*
X020501Y010011D01*
X020328Y010114D02*
X020328Y010288D01*
X020328Y010201D02*
X020588Y010201D01*
X020501Y010288D01*
X021328Y010261D02*
X021501Y010088D01*
X021544Y010088D01*
X021588Y010131D01*
X021588Y010218D01*
X021544Y010261D01*
X021544Y010364D02*
X021588Y010407D01*
X021588Y010494D01*
X021544Y010538D01*
X021544Y010364D02*
X021501Y010364D01*
X021328Y010538D01*
X021328Y010364D01*
X021328Y010261D02*
X021328Y010088D01*
X021371Y009985D02*
X021328Y009942D01*
X021328Y009855D01*
X021371Y009812D01*
X021544Y009812D01*
X021371Y009985D01*
X021544Y009985D01*
X021588Y009942D01*
X021588Y009855D01*
X021544Y009812D01*
X021588Y009709D02*
X021328Y009709D01*
X021414Y009709D02*
X021328Y009579D01*
X021414Y009709D02*
X021501Y009579D01*
X022328Y009579D02*
X022414Y009709D01*
X022501Y009579D01*
X022588Y009709D02*
X022328Y009709D01*
X022371Y009812D02*
X022328Y009855D01*
X022328Y009942D01*
X022371Y009985D01*
X022544Y009812D01*
X022371Y009812D01*
X022371Y009985D02*
X022544Y009985D01*
X022588Y009942D01*
X022588Y009855D01*
X022544Y009812D01*
X022544Y010088D02*
X022588Y010131D01*
X022588Y010218D01*
X022544Y010261D01*
X022544Y010364D02*
X022588Y010407D01*
X022588Y010494D01*
X022544Y010538D01*
X022544Y010364D02*
X022501Y010364D01*
X022328Y010538D01*
X022328Y010364D01*
X022328Y010261D02*
X022501Y010088D01*
X022544Y010088D01*
X022328Y010088D02*
X022328Y010261D01*
X023265Y010280D02*
X023308Y010324D01*
X023482Y010150D01*
X023308Y010150D01*
X023265Y010194D01*
X023265Y010280D01*
X023308Y010324D02*
X023482Y010324D01*
X023525Y010280D01*
X023525Y010194D01*
X023482Y010150D01*
X023482Y010048D02*
X023525Y010004D01*
X023525Y009917D01*
X023482Y009874D01*
X023308Y010048D01*
X023265Y010004D01*
X023265Y009917D01*
X023308Y009874D01*
X023482Y009874D01*
X023438Y009771D02*
X023438Y009641D01*
X023395Y009598D01*
X023265Y009598D01*
X023265Y009771D02*
X023438Y009771D01*
X023482Y010048D02*
X023308Y010048D01*
X023265Y010427D02*
X023265Y010600D01*
X023265Y010513D02*
X023525Y010513D01*
X023438Y010600D01*
X024328Y009975D02*
X024328Y009802D01*
X024328Y009888D02*
X024588Y009888D01*
X024501Y009975D01*
X024588Y009699D02*
X024328Y009699D01*
X024414Y009699D02*
X024501Y009569D01*
X024414Y009699D02*
X024328Y009569D01*
X025328Y009735D02*
X025588Y009735D01*
X025588Y009562D01*
X025458Y009648D02*
X025458Y009735D01*
X025501Y009838D02*
X025328Y009838D01*
X025328Y009968D01*
X025371Y010011D01*
X025501Y010011D01*
X025328Y010114D02*
X025328Y010288D01*
X025328Y010201D02*
X025588Y010201D01*
X025501Y010288D01*
X026328Y010261D02*
X026501Y010088D01*
X026544Y010088D01*
X026588Y010131D01*
X026588Y010218D01*
X026544Y010261D01*
X026544Y010364D02*
X026588Y010407D01*
X026588Y010494D01*
X026544Y010538D01*
X026544Y010364D02*
X026501Y010364D01*
X026328Y010538D01*
X026328Y010364D01*
X026328Y010261D02*
X026328Y010088D01*
X026371Y009985D02*
X026328Y009942D01*
X026328Y009855D01*
X026371Y009812D01*
X026544Y009812D01*
X026371Y009985D01*
X026544Y009985D01*
X026588Y009942D01*
X026588Y009855D01*
X026544Y009812D01*
X026588Y009709D02*
X026328Y009709D01*
X026414Y009709D02*
X026328Y009579D01*
X026414Y009709D02*
X026501Y009579D01*
X027328Y009579D02*
X027414Y009709D01*
X027501Y009579D01*
X027588Y009709D02*
X027328Y009709D01*
X027371Y009812D02*
X027328Y009855D01*
X027328Y009942D01*
X027371Y009985D01*
X027544Y009812D01*
X027371Y009812D01*
X027371Y009985D02*
X027544Y009985D01*
X027588Y009942D01*
X027588Y009855D01*
X027544Y009812D01*
X027544Y010088D02*
X027588Y010131D01*
X027588Y010218D01*
X027544Y010261D01*
X027544Y010364D02*
X027588Y010407D01*
X027588Y010494D01*
X027544Y010538D01*
X027544Y010364D02*
X027501Y010364D01*
X027328Y010538D01*
X027328Y010364D01*
X027328Y010261D02*
X027501Y010088D01*
X027544Y010088D01*
X027328Y010088D02*
X027328Y010261D01*
X028328Y010280D02*
X028371Y010324D01*
X028544Y010150D01*
X028371Y010150D01*
X028328Y010194D01*
X028328Y010280D01*
X028371Y010324D02*
X028544Y010324D01*
X028588Y010280D01*
X028588Y010194D01*
X028544Y010150D01*
X028544Y010048D02*
X028588Y010004D01*
X028588Y009917D01*
X028544Y009874D01*
X028371Y010048D01*
X028328Y010004D01*
X028328Y009917D01*
X028371Y009874D01*
X028544Y009874D01*
X028501Y009771D02*
X028501Y009641D01*
X028458Y009598D01*
X028328Y009598D01*
X028328Y009771D02*
X028501Y009771D01*
X028544Y010048D02*
X028371Y010048D01*
X028328Y010427D02*
X028328Y010600D01*
X028328Y010513D02*
X028588Y010513D01*
X028501Y010600D01*
X029328Y009975D02*
X029328Y009802D01*
X029328Y009888D02*
X029588Y009888D01*
X029501Y009975D01*
X029588Y009699D02*
X029328Y009699D01*
X029414Y009699D02*
X029501Y009569D01*
X029414Y009699D02*
X029328Y009569D01*
X030328Y009735D02*
X030588Y009735D01*
X030588Y009562D01*
X030458Y009648D02*
X030458Y009735D01*
X030501Y009838D02*
X030328Y009838D01*
X030328Y009968D01*
X030371Y010011D01*
X030501Y010011D01*
X030328Y010114D02*
X030328Y010288D01*
X030328Y010201D02*
X030588Y010201D01*
X030501Y010288D01*
X031328Y010261D02*
X031501Y010088D01*
X031544Y010088D01*
X031588Y010131D01*
X031588Y010218D01*
X031544Y010261D01*
X031544Y010364D02*
X031588Y010407D01*
X031588Y010494D01*
X031544Y010538D01*
X031544Y010364D02*
X031501Y010364D01*
X031328Y010538D01*
X031328Y010364D01*
X031328Y010261D02*
X031328Y010088D01*
X031371Y009985D02*
X031544Y009812D01*
X031371Y009812D01*
X031328Y009855D01*
X031328Y009942D01*
X031371Y009985D01*
X031544Y009985D01*
X031588Y009942D01*
X031588Y009855D01*
X031544Y009812D01*
X031588Y009709D02*
X031328Y009709D01*
X031414Y009709D02*
X031328Y009579D01*
X031414Y009709D02*
X031501Y009579D01*
X032328Y009579D02*
X032414Y009709D01*
X032501Y009579D01*
X032588Y009709D02*
X032328Y009709D01*
X032371Y009812D02*
X032328Y009855D01*
X032328Y009942D01*
X032371Y009985D01*
X032544Y009812D01*
X032371Y009812D01*
X032371Y009985D02*
X032544Y009985D01*
X032588Y009942D01*
X032588Y009855D01*
X032544Y009812D01*
X032544Y010088D02*
X032588Y010131D01*
X032588Y010218D01*
X032544Y010261D01*
X032544Y010364D02*
X032588Y010407D01*
X032588Y010494D01*
X032544Y010538D01*
X032544Y010364D02*
X032501Y010364D01*
X032328Y010538D01*
X032328Y010364D01*
X032328Y010261D02*
X032501Y010088D01*
X032544Y010088D01*
X032328Y010088D02*
X032328Y010261D01*
X033265Y010254D02*
X033308Y010298D01*
X033482Y010124D01*
X033308Y010124D01*
X033265Y010167D01*
X033265Y010254D01*
X033308Y010298D02*
X033482Y010298D01*
X033525Y010254D01*
X033525Y010167D01*
X033482Y010124D01*
X033438Y010021D02*
X033438Y009891D01*
X033395Y009848D01*
X033265Y009848D01*
X033265Y009745D02*
X033525Y009745D01*
X033525Y009572D01*
X033395Y009658D02*
X033395Y009745D01*
X033438Y010021D02*
X033265Y010021D01*
X033308Y010400D02*
X033265Y010444D01*
X033265Y010530D01*
X033308Y010574D01*
X033482Y010400D01*
X033308Y010400D01*
X033308Y010574D02*
X033482Y010574D01*
X033525Y010530D01*
X033525Y010444D01*
X033482Y010400D01*
X033265Y010677D02*
X033265Y010850D01*
X033265Y010763D02*
X033525Y010763D01*
X033438Y010850D01*
X034328Y009975D02*
X034328Y009802D01*
X034328Y009888D02*
X034588Y009888D01*
X034501Y009975D01*
X034588Y009699D02*
X034328Y009699D01*
X034414Y009699D02*
X034501Y009569D01*
X034414Y009699D02*
X034328Y009569D01*
X035328Y009735D02*
X035588Y009735D01*
X035588Y009562D01*
X035458Y009648D02*
X035458Y009735D01*
X035501Y009838D02*
X035328Y009838D01*
X035328Y009968D01*
X035371Y010011D01*
X035501Y010011D01*
X035328Y010114D02*
X035328Y010288D01*
X035328Y010201D02*
X035588Y010201D01*
X035501Y010288D01*
X036328Y010261D02*
X036501Y010088D01*
X036544Y010088D01*
X036588Y010131D01*
X036588Y010218D01*
X036544Y010261D01*
X036544Y010364D02*
X036588Y010407D01*
X036588Y010494D01*
X036544Y010538D01*
X036544Y010364D02*
X036501Y010364D01*
X036328Y010538D01*
X036328Y010364D01*
X036328Y010261D02*
X036328Y010088D01*
X036371Y009985D02*
X036544Y009812D01*
X036371Y009812D01*
X036328Y009855D01*
X036328Y009942D01*
X036371Y009985D01*
X036544Y009985D01*
X036588Y009942D01*
X036588Y009855D01*
X036544Y009812D01*
X036588Y009709D02*
X036328Y009709D01*
X036414Y009709D02*
X036328Y009579D01*
X036414Y009709D02*
X036501Y009579D01*
X037328Y009579D02*
X037414Y009709D01*
X037501Y009579D01*
X037588Y009709D02*
X037328Y009709D01*
X037371Y009812D02*
X037328Y009855D01*
X037328Y009942D01*
X037371Y009985D01*
X037544Y009812D01*
X037371Y009812D01*
X037371Y009985D02*
X037544Y009985D01*
X037588Y009942D01*
X037588Y009855D01*
X037544Y009812D01*
X037544Y010088D02*
X037588Y010131D01*
X037588Y010218D01*
X037544Y010261D01*
X037544Y010364D02*
X037588Y010407D01*
X037588Y010494D01*
X037544Y010538D01*
X037544Y010364D02*
X037501Y010364D01*
X037328Y010538D01*
X037328Y010364D01*
X037328Y010261D02*
X037501Y010088D01*
X037544Y010088D01*
X037328Y010088D02*
X037328Y010261D01*
X038265Y010254D02*
X038308Y010298D01*
X038482Y010124D01*
X038308Y010124D01*
X038265Y010167D01*
X038265Y010254D01*
X038308Y010298D02*
X038482Y010298D01*
X038525Y010254D01*
X038525Y010167D01*
X038482Y010124D01*
X038438Y010021D02*
X038438Y009891D01*
X038395Y009848D01*
X038265Y009848D01*
X038265Y009745D02*
X038525Y009745D01*
X038525Y009572D01*
X038395Y009658D02*
X038395Y009745D01*
X038438Y010021D02*
X038265Y010021D01*
X038308Y010400D02*
X038265Y010444D01*
X038265Y010530D01*
X038308Y010574D01*
X038482Y010400D01*
X038308Y010400D01*
X038308Y010574D02*
X038482Y010574D01*
X038525Y010530D01*
X038525Y010444D01*
X038482Y010400D01*
X038265Y010677D02*
X038265Y010850D01*
X038265Y010763D02*
X038525Y010763D01*
X038438Y010850D01*
X039328Y009975D02*
X039328Y009802D01*
X039328Y009888D02*
X039588Y009888D01*
X039501Y009975D01*
X039588Y009699D02*
X039328Y009699D01*
X039414Y009699D02*
X039501Y009569D01*
X039414Y009699D02*
X039328Y009569D01*
X040328Y009735D02*
X040588Y009735D01*
X040588Y009562D01*
X040458Y009648D02*
X040458Y009735D01*
X040501Y009838D02*
X040328Y009838D01*
X040328Y009968D01*
X040371Y010011D01*
X040501Y010011D01*
X040328Y010114D02*
X040328Y010288D01*
X040328Y010201D02*
X040588Y010201D01*
X040501Y010288D01*
X037102Y015240D02*
X036968Y015240D01*
X037102Y015373D01*
X037102Y015407D01*
X037068Y015440D01*
X037001Y015440D01*
X036968Y015407D01*
X036814Y015440D02*
X036814Y015240D01*
X036747Y015240D02*
X036881Y015240D01*
X036747Y015373D02*
X036814Y015440D01*
X036660Y015407D02*
X036526Y015273D01*
X036559Y015240D01*
X036626Y015240D01*
X036660Y015273D01*
X036660Y015407D01*
X036626Y015440D01*
X036559Y015440D01*
X036526Y015407D01*
X036526Y015273D01*
X036439Y015240D02*
X036305Y015240D01*
X036439Y015373D01*
X036439Y015407D01*
X036405Y015440D01*
X036338Y015440D01*
X036305Y015407D01*
X036004Y015273D02*
X035970Y015273D01*
X035970Y015240D01*
X036004Y015240D01*
X036004Y015273D01*
X036004Y015240D02*
X035937Y015173D01*
X035849Y015240D02*
X035849Y015340D01*
X035816Y015373D01*
X035716Y015373D01*
X035716Y015240D01*
X035628Y015273D02*
X035628Y015340D01*
X035595Y015373D01*
X035528Y015373D01*
X035495Y015340D01*
X035495Y015273D01*
X035528Y015240D01*
X035595Y015240D01*
X035628Y015273D01*
X035414Y015240D02*
X035381Y015273D01*
X035381Y015407D01*
X035348Y015373D02*
X035414Y015373D01*
X035260Y015373D02*
X035160Y015373D01*
X035127Y015340D01*
X035160Y015307D01*
X035227Y015307D01*
X035260Y015273D01*
X035227Y015240D01*
X035127Y015240D01*
X035039Y015307D02*
X034906Y015307D01*
X034906Y015340D02*
X034939Y015373D01*
X035006Y015373D01*
X035039Y015340D01*
X035039Y015307D01*
X035006Y015240D02*
X034939Y015240D01*
X034906Y015273D01*
X034906Y015340D01*
X034818Y015240D02*
X034818Y015440D01*
X034685Y015440D02*
X034685Y015240D01*
X034751Y015307D01*
X034818Y015240D01*
X034376Y015307D02*
X034243Y015307D01*
X034243Y015340D02*
X034276Y015373D01*
X034343Y015373D01*
X034376Y015340D01*
X034376Y015307D01*
X034343Y015240D02*
X034276Y015240D01*
X034243Y015273D01*
X034243Y015340D01*
X034159Y015373D02*
X034058Y015307D01*
X034159Y015240D01*
X034058Y015240D02*
X034058Y015440D01*
X033971Y015373D02*
X033971Y015240D01*
X033871Y015240D01*
X033837Y015273D01*
X033837Y015373D01*
X033750Y015240D02*
X033616Y015240D01*
X033616Y015440D01*
X033308Y015373D02*
X033308Y015207D01*
X033275Y015173D01*
X033241Y015173D01*
X033208Y015240D02*
X033308Y015240D01*
X033208Y015240D02*
X033174Y015273D01*
X033174Y015373D01*
X033087Y015340D02*
X033054Y015373D01*
X032953Y015373D01*
X032953Y015440D02*
X032953Y015240D01*
X033054Y015240D01*
X033087Y015273D01*
X033087Y015340D01*
X032645Y015340D02*
X032645Y015240D01*
X032645Y015340D02*
X032612Y015373D01*
X032512Y015373D01*
X032512Y015240D01*
X032424Y015240D02*
X032324Y015240D01*
X032291Y015273D01*
X032291Y015340D01*
X032324Y015373D01*
X032424Y015373D01*
X032424Y015207D01*
X032391Y015173D01*
X032357Y015173D01*
X032210Y015240D02*
X032143Y015240D01*
X032177Y015240D02*
X032177Y015373D01*
X032143Y015373D01*
X032177Y015440D02*
X032177Y015474D01*
X032056Y015373D02*
X031956Y015373D01*
X031922Y015340D01*
X031956Y015307D01*
X032022Y015307D01*
X032056Y015273D01*
X032022Y015240D01*
X031922Y015240D01*
X031835Y015307D02*
X031701Y015307D01*
X031701Y015340D02*
X031735Y015373D01*
X031801Y015373D01*
X031835Y015340D01*
X031835Y015307D01*
X031801Y015240D02*
X031735Y015240D01*
X031701Y015273D01*
X031701Y015340D01*
X031614Y015373D02*
X031514Y015373D01*
X031480Y015340D01*
X031480Y015273D01*
X031514Y015240D01*
X031614Y015240D01*
X031614Y015440D01*
X031172Y015340D02*
X031172Y015307D01*
X031038Y015307D01*
X031038Y015340D02*
X031072Y015373D01*
X031138Y015373D01*
X031172Y015340D01*
X031138Y015240D02*
X031072Y015240D01*
X031038Y015273D01*
X031038Y015340D01*
X030954Y015373D02*
X030921Y015373D01*
X030854Y015307D01*
X030854Y015373D02*
X030854Y015240D01*
X030767Y015240D02*
X030666Y015240D01*
X030633Y015273D01*
X030666Y015307D01*
X030767Y015307D01*
X030767Y015340D02*
X030767Y015240D01*
X030767Y015340D02*
X030733Y015373D01*
X030666Y015373D01*
X030546Y015373D02*
X030546Y015273D01*
X030512Y015240D01*
X030479Y015273D01*
X030445Y015240D01*
X030412Y015273D01*
X030412Y015373D01*
X030325Y015373D02*
X030224Y015373D01*
X030191Y015340D01*
X030191Y015273D01*
X030224Y015240D01*
X030325Y015240D01*
X030325Y015440D01*
X030107Y015373D02*
X030074Y015373D01*
X030007Y015307D01*
X030007Y015373D02*
X030007Y015240D01*
X029919Y015240D02*
X029819Y015240D01*
X029786Y015273D01*
X029819Y015307D01*
X029919Y015307D01*
X029919Y015340D02*
X029919Y015240D01*
X029919Y015340D02*
X029886Y015373D01*
X029819Y015373D01*
X029698Y015340D02*
X029565Y015340D01*
X029565Y015240D02*
X029565Y015440D01*
X029698Y015440D02*
X029698Y015240D01*
X024473Y012988D02*
X024342Y012902D01*
X024473Y012815D01*
X024342Y012815D02*
X024342Y013075D01*
X024240Y013032D02*
X024066Y012858D01*
X024110Y012815D01*
X024196Y012815D01*
X024240Y012858D01*
X024240Y013032D01*
X024196Y013075D01*
X024110Y013075D01*
X024066Y013032D01*
X024066Y012858D01*
X023963Y012815D02*
X023790Y012815D01*
X023877Y012815D02*
X023877Y013075D01*
X023790Y012988D01*
X020758Y014283D02*
X020715Y014240D01*
X020628Y014240D01*
X020585Y014283D01*
X020585Y014327D01*
X020628Y014370D01*
X020715Y014370D01*
X020758Y014327D01*
X020758Y014283D01*
X020715Y014370D02*
X020758Y014413D01*
X020758Y014457D01*
X020715Y014500D01*
X020628Y014500D01*
X020585Y014457D01*
X020585Y014413D01*
X020628Y014370D01*
X020482Y014457D02*
X020482Y014283D01*
X020439Y014240D01*
X020352Y014240D01*
X020309Y014283D01*
X020482Y014457D01*
X020439Y014500D01*
X020352Y014500D01*
X020309Y014457D01*
X020309Y014283D01*
X020206Y014240D02*
X020032Y014240D01*
X020206Y014413D01*
X020206Y014457D01*
X020163Y014500D01*
X020076Y014500D01*
X020032Y014457D01*
X019930Y014457D02*
X019930Y014413D01*
X019886Y014370D01*
X019930Y014327D01*
X019930Y014283D01*
X019886Y014240D01*
X019800Y014240D01*
X019756Y014283D01*
X019843Y014370D02*
X019886Y014370D01*
X019930Y014457D02*
X019886Y014500D01*
X019800Y014500D01*
X019756Y014457D01*
X019653Y014457D02*
X019653Y014370D01*
X019610Y014327D01*
X019480Y014327D01*
X019480Y014240D02*
X019480Y014500D01*
X019610Y014500D01*
X019653Y014457D01*
X019377Y014457D02*
X019334Y014500D01*
X019247Y014500D01*
X019204Y014457D01*
X019204Y014283D01*
X019247Y014240D01*
X019334Y014240D01*
X019377Y014283D01*
X019101Y014240D02*
X019101Y014500D01*
X019014Y014413D01*
X018928Y014500D01*
X018928Y014240D01*
X018396Y016021D02*
X018222Y016021D01*
X018309Y016021D02*
X018309Y016281D01*
X018222Y016195D01*
X018120Y016151D02*
X017946Y016151D01*
X018076Y016281D01*
X018076Y016021D01*
X017843Y016065D02*
X017843Y016151D01*
X017800Y016195D01*
X017757Y016195D01*
X017670Y016151D01*
X017670Y016281D01*
X017843Y016281D01*
X017843Y016065D02*
X017800Y016021D01*
X017713Y016021D01*
X017670Y016065D01*
X017567Y016021D02*
X017394Y016021D01*
X017480Y016021D02*
X017480Y016281D01*
X017394Y016195D01*
X017291Y016238D02*
X017291Y016151D01*
X017248Y016108D01*
X017117Y016108D01*
X017117Y016021D02*
X017117Y016281D01*
X017248Y016281D01*
X017291Y016238D01*
X017015Y016238D02*
X016971Y016281D01*
X016885Y016281D01*
X016841Y016238D01*
X016841Y016065D01*
X016885Y016021D01*
X016971Y016021D01*
X017015Y016065D01*
X016738Y016021D02*
X016738Y016281D01*
X016652Y016195D01*
X016565Y016281D01*
X016565Y016021D01*
X014905Y017253D02*
X014905Y017513D01*
X015078Y017513D01*
X014992Y017383D02*
X014905Y017383D01*
X014802Y017426D02*
X014802Y017253D01*
X014672Y017253D01*
X014629Y017296D01*
X014629Y017426D01*
X014526Y017253D02*
X014353Y017253D01*
X014439Y017253D02*
X014439Y017513D01*
X014353Y017426D01*
X014386Y018128D02*
X014342Y018171D01*
X014516Y018344D01*
X014516Y018171D01*
X014473Y018128D01*
X014386Y018128D01*
X014342Y018171D02*
X014342Y018344D01*
X014386Y018388D01*
X014473Y018388D01*
X014516Y018344D01*
X014619Y018301D02*
X014749Y018301D01*
X014792Y018258D01*
X014792Y018128D01*
X014895Y018128D02*
X014895Y018388D01*
X015068Y018388D01*
X014982Y018258D02*
X014895Y018258D01*
X014619Y018301D02*
X014619Y018128D01*
X014240Y018171D02*
X014196Y018128D01*
X014110Y018128D01*
X014066Y018171D01*
X014240Y018344D01*
X014240Y018171D01*
X014240Y018344D02*
X014196Y018388D01*
X014110Y018388D01*
X014066Y018344D01*
X014066Y018171D01*
X013963Y018128D02*
X013790Y018128D01*
X013877Y018128D02*
X013877Y018388D01*
X013790Y018301D01*
X017790Y019315D02*
X017963Y019315D01*
X017877Y019315D02*
X017877Y019575D01*
X017790Y019488D01*
X018066Y019488D02*
X018066Y019358D01*
X018110Y019315D01*
X018240Y019315D01*
X018240Y019488D01*
X018342Y019445D02*
X018429Y019445D01*
X018342Y019315D02*
X018342Y019575D01*
X018516Y019575D01*
D11*
X016659Y027796D02*
X016402Y027796D01*
X016274Y027925D01*
X016274Y028182D02*
X016531Y028310D01*
X016659Y028310D01*
X016788Y028182D01*
X016788Y027925D01*
X016659Y027796D01*
X016274Y028182D02*
X016274Y028567D01*
X016788Y028567D01*
X016006Y027925D02*
X016006Y027796D01*
X015878Y027796D01*
X015878Y027925D01*
X016006Y027925D01*
X015600Y027796D02*
X015086Y027796D01*
X015343Y027796D02*
X015343Y028567D01*
X015086Y028310D01*
X014808Y028310D02*
X014551Y027796D01*
X014294Y028310D01*
X013224Y028310D02*
X012839Y028310D01*
X012711Y028182D01*
X012711Y027925D01*
X012839Y027796D01*
X013224Y027796D01*
X013224Y028567D01*
X012311Y028567D02*
X012311Y027796D01*
X012183Y027796D02*
X012440Y027796D01*
X011905Y028053D02*
X011905Y028182D01*
X011776Y028310D01*
X011519Y028310D01*
X011391Y028182D01*
X011391Y027925D01*
X011519Y027796D01*
X011776Y027796D01*
X011905Y028053D02*
X011391Y028053D01*
X011120Y027796D02*
X010863Y027796D01*
X010991Y027796D02*
X010991Y028310D01*
X010863Y028310D01*
X010991Y028567D02*
X010991Y028695D01*
X010585Y028182D02*
X010585Y027796D01*
X010585Y028182D02*
X010456Y028310D01*
X010199Y028310D01*
X010071Y028182D01*
X009793Y028053D02*
X009793Y027925D01*
X009664Y027796D01*
X009408Y027796D01*
X009279Y027925D01*
X009408Y028182D02*
X009664Y028182D01*
X009793Y028053D01*
X010071Y027796D02*
X010071Y028567D01*
X009793Y028438D02*
X009664Y028567D01*
X009408Y028567D01*
X009279Y028438D01*
X009279Y028310D01*
X009408Y028182D01*
X009005Y028310D02*
X008876Y028310D01*
X008619Y028053D01*
X008619Y027796D02*
X008619Y028310D01*
X008341Y028182D02*
X008341Y028053D01*
X007827Y028053D01*
X007827Y027925D02*
X007827Y028182D01*
X007956Y028310D01*
X008213Y028310D01*
X008341Y028182D01*
X008213Y027796D02*
X007956Y027796D01*
X007827Y027925D01*
X007556Y027796D02*
X007428Y027925D01*
X007428Y028438D01*
X007299Y028310D02*
X007556Y028310D01*
X007021Y028182D02*
X007021Y028053D01*
X006508Y028053D01*
X006508Y027925D02*
X006508Y028182D01*
X006636Y028310D01*
X006893Y028310D01*
X007021Y028182D01*
X006893Y027796D02*
X006636Y027796D01*
X006508Y027925D01*
X006229Y027796D02*
X006229Y028182D01*
X006101Y028310D01*
X005973Y028182D01*
X005973Y027796D01*
X005716Y027796D02*
X005716Y028310D01*
X005844Y028310D01*
X005973Y028182D01*
X005438Y028182D02*
X005438Y027925D01*
X005309Y027796D01*
X005052Y027796D01*
X004924Y027925D01*
X004924Y028438D01*
X005052Y028567D01*
X005309Y028567D01*
X005438Y028438D01*
X005438Y028182D02*
X005181Y028182D01*
X004646Y028567D02*
X004132Y028567D01*
X004132Y027796D01*
X004646Y027796D01*
X004389Y028182D02*
X004132Y028182D01*
X003854Y028053D02*
X003854Y027925D01*
X003725Y027796D01*
X003468Y027796D01*
X003340Y027925D01*
X003468Y028182D02*
X003340Y028310D01*
X003340Y028438D01*
X003468Y028567D01*
X003725Y028567D01*
X003854Y028438D01*
X003725Y028182D02*
X003854Y028053D01*
X003725Y028182D02*
X003468Y028182D01*
X012183Y028567D02*
X012311Y028567D01*
D12*
X012481Y028797D02*
X012481Y029387D01*
X012776Y029387D01*
X012875Y029289D01*
X012875Y029092D01*
X012776Y028994D01*
X012481Y028994D01*
X012230Y028994D02*
X012230Y029387D01*
X012230Y028994D02*
X011935Y028994D01*
X011837Y029092D01*
X011837Y029387D01*
X011586Y029289D02*
X011586Y029092D01*
X011487Y028994D01*
X011290Y028994D01*
X011192Y029092D01*
X011192Y029289D01*
X011290Y029387D01*
X011487Y029387D01*
X011586Y029289D01*
X010950Y029387D02*
X010852Y029387D01*
X010655Y029191D01*
X010655Y029387D02*
X010655Y028994D01*
X010404Y028994D02*
X010109Y028994D01*
X010010Y029092D01*
X010010Y029289D01*
X010109Y029387D01*
X010404Y029387D01*
X010404Y028895D01*
X010306Y028797D01*
X010207Y028797D01*
X009759Y028895D02*
X009661Y028797D01*
X009563Y028797D01*
X009759Y028895D02*
X009759Y029387D01*
X009366Y029387D02*
X009366Y029092D01*
X009464Y028994D01*
X009759Y028994D01*
X009115Y028994D02*
X008820Y028994D01*
X008721Y029092D01*
X008721Y029289D01*
X008820Y029387D01*
X009115Y029387D01*
X009115Y028895D01*
X009016Y028797D01*
X008918Y028797D01*
X008479Y029387D02*
X008381Y029387D01*
X008184Y029191D01*
X008184Y029387D02*
X008184Y028994D01*
X007933Y029191D02*
X007540Y029191D01*
X007540Y029289D02*
X007638Y029387D01*
X007835Y029387D01*
X007933Y029289D01*
X007933Y029191D01*
X007835Y028994D02*
X007638Y028994D01*
X007540Y029092D01*
X007540Y029289D01*
X007289Y029289D02*
X007289Y028994D01*
X007289Y029289D02*
X007190Y029387D01*
X006895Y029387D01*
X006895Y028994D01*
X006644Y029191D02*
X006250Y029191D01*
X006250Y029289D02*
X006349Y029387D01*
X006546Y029387D01*
X006644Y029289D01*
X006644Y029191D01*
X006546Y028994D02*
X006349Y028994D01*
X006250Y029092D01*
X006250Y029289D01*
X006018Y029387D02*
X005821Y029387D01*
X005919Y029486D02*
X005919Y029092D01*
X006018Y028994D01*
X005579Y029387D02*
X005480Y029387D01*
X005284Y029191D01*
X005284Y029387D02*
X005284Y028994D01*
X005033Y028994D02*
X004738Y028994D01*
X004639Y029092D01*
X004738Y029191D01*
X005033Y029191D01*
X005033Y029289D02*
X005033Y028994D01*
X005033Y029289D02*
X004934Y029387D01*
X004738Y029387D01*
X004388Y029289D02*
X004388Y028994D01*
X004191Y028994D02*
X004191Y029289D01*
X004290Y029387D01*
X004388Y029289D01*
X004191Y029289D02*
X004093Y029387D01*
X003995Y029387D01*
X003995Y028994D01*
X003744Y029092D02*
X003645Y029191D01*
X003448Y029191D01*
X003350Y029289D01*
X003448Y029387D01*
X003744Y029387D01*
X003744Y029092D02*
X003645Y028994D01*
X003350Y028994D01*
X013126Y028994D02*
X013421Y028994D01*
X013519Y029092D01*
X013421Y029191D01*
X013224Y029191D01*
X013126Y029289D01*
X013224Y029387D01*
X013519Y029387D01*
X013770Y029092D02*
X013869Y029092D01*
X013869Y028994D01*
X013770Y028994D01*
X013770Y029092D01*
X014092Y029092D02*
X014092Y029289D01*
X014191Y029387D01*
X014486Y029387D01*
X014737Y029289D02*
X014737Y029092D01*
X014835Y028994D01*
X015032Y028994D01*
X015131Y029092D01*
X015131Y029289D01*
X015032Y029387D01*
X014835Y029387D01*
X014737Y029289D01*
X014486Y028994D02*
X014191Y028994D01*
X014092Y029092D01*
X015382Y028994D02*
X015382Y029387D01*
X015480Y029387D01*
X015578Y029289D01*
X015677Y029387D01*
X015775Y029289D01*
X015775Y028994D01*
X015578Y028994D02*
X015578Y029289D01*
D13*
X015695Y030495D02*
X015695Y030675D01*
X015785Y030765D01*
X015875Y030675D01*
X015875Y030495D01*
X015990Y030540D02*
X016035Y030495D01*
X016125Y030495D01*
X016170Y030540D01*
X016170Y030585D01*
X016125Y030630D01*
X016080Y030630D01*
X016125Y030630D02*
X016170Y030675D01*
X016170Y030720D01*
X016125Y030765D01*
X016035Y030765D01*
X015990Y030720D01*
X015875Y030630D02*
X015695Y030630D01*
X015170Y030630D02*
X014990Y030630D01*
X015125Y030765D01*
X015125Y030495D01*
X014875Y030495D02*
X014875Y030675D01*
X014785Y030765D01*
X014695Y030675D01*
X014695Y030495D01*
X014695Y030630D02*
X014875Y030630D01*
X014170Y030630D02*
X014170Y030540D01*
X014125Y030495D01*
X014035Y030495D01*
X013990Y030540D01*
X013990Y030630D02*
X014080Y030675D01*
X014125Y030675D01*
X014170Y030630D01*
X014170Y030765D02*
X013990Y030765D01*
X013990Y030630D01*
X013875Y030630D02*
X013695Y030630D01*
X013695Y030675D02*
X013785Y030765D01*
X013875Y030675D01*
X013875Y030495D01*
X013695Y030495D02*
X013695Y030675D01*
X016695Y030675D02*
X016695Y030495D01*
X016695Y030630D02*
X016875Y030630D01*
X016875Y030675D02*
X016875Y030495D01*
X016990Y030495D02*
X017170Y030675D01*
X017170Y030720D01*
X017125Y030765D01*
X017035Y030765D01*
X016990Y030720D01*
X016875Y030675D02*
X016785Y030765D01*
X016695Y030675D01*
X016990Y030495D02*
X017170Y030495D01*
X017695Y030495D02*
X017695Y030675D01*
X017785Y030765D01*
X017875Y030675D01*
X017875Y030495D01*
X017990Y030495D02*
X018170Y030495D01*
X018080Y030495D02*
X018080Y030765D01*
X017990Y030675D01*
X017875Y030630D02*
X017695Y030630D01*
X018695Y030630D02*
X018875Y030630D01*
X018875Y030675D02*
X018875Y030495D01*
X018990Y030540D02*
X019035Y030495D01*
X019125Y030495D01*
X019170Y030540D01*
X019170Y030720D01*
X018990Y030540D01*
X018990Y030720D01*
X019035Y030765D01*
X019125Y030765D01*
X019170Y030720D01*
X018875Y030675D02*
X018785Y030765D01*
X018695Y030675D01*
X018695Y030495D01*
X020195Y030630D02*
X020375Y030630D01*
X020490Y030675D02*
X020580Y030765D01*
X020580Y030495D01*
X020490Y030495D02*
X020670Y030495D01*
X020784Y030495D02*
X020964Y030675D01*
X020964Y030720D01*
X020919Y030765D01*
X020829Y030765D01*
X020784Y030720D01*
X020784Y030495D02*
X020964Y030495D01*
X021079Y030585D02*
X021169Y030495D01*
X021259Y030585D01*
X021259Y030765D01*
X021079Y030765D02*
X021079Y030585D01*
X021508Y030540D02*
X021553Y030495D01*
X021643Y030495D01*
X021688Y030540D01*
X021688Y030630D01*
X021598Y030630D01*
X021688Y030720D02*
X021643Y030765D01*
X021553Y030765D01*
X021508Y030720D01*
X021508Y030540D01*
X021802Y030495D02*
X021802Y030765D01*
X021982Y030495D01*
X021982Y030765D01*
X022097Y030765D02*
X022232Y030765D01*
X022277Y030720D01*
X022277Y030540D01*
X022232Y030495D01*
X022097Y030495D01*
X022097Y030765D01*
X022508Y030720D02*
X022508Y030540D01*
X022553Y030495D01*
X022643Y030495D01*
X022688Y030540D01*
X022688Y030630D01*
X022598Y030630D01*
X022688Y030720D02*
X022643Y030765D01*
X022553Y030765D01*
X022508Y030720D01*
X022802Y030765D02*
X022982Y030495D01*
X022982Y030765D01*
X023097Y030765D02*
X023097Y030495D01*
X023232Y030495D01*
X023277Y030540D01*
X023277Y030720D01*
X023232Y030765D01*
X023097Y030765D01*
X022802Y030765D02*
X022802Y030495D01*
X023445Y030630D02*
X023625Y030630D01*
X023740Y030630D02*
X023830Y030675D01*
X023875Y030675D01*
X023920Y030630D01*
X023920Y030540D01*
X023875Y030495D01*
X023785Y030495D01*
X023740Y030540D01*
X023740Y030630D02*
X023740Y030765D01*
X023920Y030765D01*
X024034Y030765D02*
X024034Y030585D01*
X024124Y030495D01*
X024214Y030585D01*
X024214Y030765D01*
X024508Y030630D02*
X024688Y030630D01*
X024598Y030720D02*
X024598Y030540D01*
X024802Y030540D02*
X024847Y030495D01*
X024937Y030495D01*
X024982Y030540D01*
X024982Y030585D01*
X024937Y030630D01*
X024892Y030630D01*
X024937Y030630D02*
X024982Y030675D01*
X024982Y030720D01*
X024937Y030765D01*
X024847Y030765D01*
X024802Y030720D01*
X025097Y030765D02*
X025097Y030585D01*
X025187Y030495D01*
X025277Y030585D01*
X025277Y030765D01*
X025483Y030865D02*
X026366Y030865D01*
X026277Y030765D02*
X026097Y030765D01*
X026187Y030765D02*
X026187Y030495D01*
X025982Y030540D02*
X025937Y030495D01*
X025847Y030495D01*
X025802Y030540D01*
X025847Y030630D02*
X025937Y030630D01*
X025982Y030585D01*
X025982Y030540D01*
X025847Y030630D02*
X025802Y030675D01*
X025802Y030720D01*
X025847Y030765D01*
X025937Y030765D01*
X025982Y030720D01*
X025688Y030720D02*
X025688Y030630D01*
X025643Y030585D01*
X025508Y030585D01*
X025598Y030585D02*
X025688Y030495D01*
X025508Y030495D02*
X025508Y030765D01*
X025643Y030765D01*
X025688Y030720D01*
X023535Y030720D02*
X023535Y030540D01*
X020285Y030540D02*
X020285Y030720D01*
X020705Y027328D02*
X020705Y027058D01*
X020615Y027058D02*
X020795Y027058D01*
X020909Y027058D02*
X021089Y027238D01*
X021089Y027283D01*
X021044Y027328D01*
X020954Y027328D01*
X020909Y027283D01*
X020705Y027328D02*
X020615Y027238D01*
X020500Y027193D02*
X020320Y027193D01*
X020410Y027283D02*
X020410Y027103D01*
X020909Y027058D02*
X021089Y027058D01*
X021204Y027148D02*
X021294Y027058D01*
X021384Y027148D01*
X021384Y027328D01*
X021204Y027328D02*
X021204Y027148D01*
X021570Y027103D02*
X021615Y027058D01*
X021705Y027058D01*
X021750Y027103D01*
X021750Y027193D01*
X021660Y027193D01*
X021570Y027283D02*
X021570Y027103D01*
X021570Y027283D02*
X021615Y027328D01*
X021705Y027328D01*
X021750Y027283D01*
X021865Y027328D02*
X022045Y027058D01*
X022045Y027328D01*
X022159Y027328D02*
X022294Y027328D01*
X022339Y027283D01*
X022339Y027103D01*
X022294Y027058D01*
X022159Y027058D01*
X022159Y027328D01*
X021865Y027328D02*
X021865Y027058D01*
X022508Y027103D02*
X022553Y027058D01*
X022643Y027058D01*
X022688Y027103D01*
X022688Y027193D01*
X022598Y027193D01*
X022688Y027283D02*
X022643Y027328D01*
X022553Y027328D01*
X022508Y027283D01*
X022508Y027103D01*
X022802Y027058D02*
X022802Y027328D01*
X022982Y027058D01*
X022982Y027328D01*
X023097Y027328D02*
X023097Y027058D01*
X023232Y027058D01*
X023277Y027103D01*
X023277Y027283D01*
X023232Y027328D01*
X023097Y027328D01*
X023508Y027193D02*
X023688Y027193D01*
X023802Y027193D02*
X023892Y027238D01*
X023937Y027238D01*
X023982Y027193D01*
X023982Y027103D01*
X023937Y027058D01*
X023847Y027058D01*
X023802Y027103D01*
X023802Y027193D02*
X023802Y027328D01*
X023982Y027328D01*
X024097Y027328D02*
X024097Y027148D01*
X024187Y027058D01*
X024277Y027148D01*
X024277Y027328D01*
X024508Y027193D02*
X024688Y027193D01*
X024598Y027283D02*
X024598Y027103D01*
X024802Y027103D02*
X024847Y027058D01*
X024937Y027058D01*
X024982Y027103D01*
X024982Y027148D01*
X024937Y027193D01*
X024892Y027193D01*
X024937Y027193D02*
X024982Y027238D01*
X024982Y027283D01*
X024937Y027328D01*
X024847Y027328D01*
X024802Y027283D01*
X025097Y027328D02*
X025097Y027148D01*
X025187Y027058D01*
X025277Y027148D01*
X025277Y027328D01*
X025545Y027428D02*
X026429Y027428D01*
X026339Y027328D02*
X026159Y027328D01*
X026249Y027328D02*
X026249Y027058D01*
X026045Y027103D02*
X026000Y027058D01*
X025910Y027058D01*
X025865Y027103D01*
X025910Y027193D02*
X026000Y027193D01*
X026045Y027148D01*
X026045Y027103D01*
X025910Y027193D02*
X025865Y027238D01*
X025865Y027283D01*
X025910Y027328D01*
X026000Y027328D01*
X026045Y027283D01*
X025750Y027283D02*
X025750Y027193D01*
X025705Y027148D01*
X025570Y027148D01*
X025660Y027148D02*
X025750Y027058D01*
X025570Y027058D02*
X025570Y027328D01*
X025705Y027328D01*
X025750Y027283D01*
X023598Y027283D02*
X023598Y027103D01*
X019170Y027103D02*
X019125Y027058D01*
X019035Y027058D01*
X018990Y027103D01*
X019170Y027283D01*
X019170Y027103D01*
X019170Y027283D02*
X019125Y027328D01*
X019035Y027328D01*
X018990Y027283D01*
X018990Y027103D01*
X018875Y027058D02*
X018875Y027238D01*
X018785Y027328D01*
X018695Y027238D01*
X018695Y027058D01*
X018695Y027193D02*
X018875Y027193D01*
X018170Y027058D02*
X017990Y027058D01*
X018080Y027058D02*
X018080Y027328D01*
X017990Y027238D01*
X017875Y027238D02*
X017875Y027058D01*
X017875Y027193D02*
X017695Y027193D01*
X017695Y027238D02*
X017785Y027328D01*
X017875Y027238D01*
X017695Y027238D02*
X017695Y027058D01*
X017170Y027058D02*
X016990Y027058D01*
X017170Y027238D01*
X017170Y027283D01*
X017125Y027328D01*
X017035Y027328D01*
X016990Y027283D01*
X016875Y027238D02*
X016875Y027058D01*
X016875Y027193D02*
X016695Y027193D01*
X016695Y027238D02*
X016785Y027328D01*
X016875Y027238D01*
X016695Y027238D02*
X016695Y027058D01*
X016170Y027103D02*
X016125Y027058D01*
X016035Y027058D01*
X015990Y027103D01*
X015875Y027058D02*
X015875Y027238D01*
X015785Y027328D01*
X015695Y027238D01*
X015695Y027058D01*
X015695Y027193D02*
X015875Y027193D01*
X015990Y027283D02*
X016035Y027328D01*
X016125Y027328D01*
X016170Y027283D01*
X016170Y027238D01*
X016125Y027193D01*
X016170Y027148D01*
X016170Y027103D01*
X016125Y027193D02*
X016080Y027193D01*
X015170Y027193D02*
X014990Y027193D01*
X015125Y027328D01*
X015125Y027058D01*
X014875Y027058D02*
X014875Y027238D01*
X014785Y027328D01*
X014695Y027238D01*
X014695Y027058D01*
X014695Y027193D02*
X014875Y027193D01*
X014170Y027193D02*
X014170Y027103D01*
X014125Y027058D01*
X014035Y027058D01*
X013990Y027103D01*
X013990Y027193D02*
X014080Y027238D01*
X014125Y027238D01*
X014170Y027193D01*
X014170Y027328D02*
X013990Y027328D01*
X013990Y027193D01*
X013875Y027193D02*
X013695Y027193D01*
X013695Y027238D02*
X013785Y027328D01*
X013875Y027238D01*
X013875Y027058D01*
X013695Y027058D02*
X013695Y027238D01*
X013339Y027210D02*
X013339Y027390D01*
X013159Y027390D02*
X013159Y027210D01*
X013249Y027120D01*
X013339Y027210D01*
X013045Y027165D02*
X013000Y027120D01*
X012910Y027120D01*
X012865Y027165D01*
X012865Y027255D02*
X012955Y027300D01*
X013000Y027300D01*
X013045Y027255D01*
X013045Y027165D01*
X012865Y027255D02*
X012865Y027390D01*
X013045Y027390D01*
X012750Y027255D02*
X012570Y027255D01*
X012660Y027345D02*
X012660Y027165D01*
X011339Y027210D02*
X011339Y027390D01*
X011159Y027390D02*
X011159Y027210D01*
X011249Y027120D01*
X011339Y027210D01*
X011045Y027165D02*
X011000Y027120D01*
X010910Y027120D01*
X010865Y027165D01*
X010865Y027255D02*
X010955Y027300D01*
X011000Y027300D01*
X011045Y027255D01*
X011045Y027165D01*
X010865Y027255D02*
X010865Y027390D01*
X011045Y027390D01*
X010750Y027255D02*
X010570Y027255D01*
X010660Y027345D02*
X010660Y027165D01*
X009339Y027210D02*
X009339Y027390D01*
X009159Y027390D02*
X009159Y027210D01*
X009249Y027120D01*
X009339Y027210D01*
X009045Y027165D02*
X009000Y027120D01*
X008910Y027120D01*
X008865Y027165D01*
X008865Y027255D02*
X008955Y027300D01*
X009000Y027300D01*
X009045Y027255D01*
X009045Y027165D01*
X008865Y027255D02*
X008865Y027390D01*
X009045Y027390D01*
X008750Y027255D02*
X008570Y027255D01*
X008660Y027345D02*
X008660Y027165D01*
X007339Y027210D02*
X007339Y027390D01*
X007159Y027390D02*
X007159Y027210D01*
X007249Y027120D01*
X007339Y027210D01*
X007045Y027165D02*
X007000Y027120D01*
X006910Y027120D01*
X006865Y027165D01*
X006865Y027255D02*
X006955Y027300D01*
X007000Y027300D01*
X007045Y027255D01*
X007045Y027165D01*
X006865Y027255D02*
X006865Y027390D01*
X007045Y027390D01*
X006750Y027255D02*
X006570Y027255D01*
X006660Y027345D02*
X006660Y027165D01*
X005339Y027210D02*
X005339Y027390D01*
X005159Y027390D02*
X005159Y027210D01*
X005249Y027120D01*
X005339Y027210D01*
X005045Y027165D02*
X005000Y027120D01*
X004910Y027120D01*
X004865Y027165D01*
X004865Y027255D02*
X004955Y027300D01*
X005000Y027300D01*
X005045Y027255D01*
X005045Y027165D01*
X004865Y027255D02*
X004865Y027390D01*
X005045Y027390D01*
X004750Y027255D02*
X004570Y027255D01*
X004660Y027345D02*
X004660Y027165D01*
X003339Y027210D02*
X003339Y027390D01*
X003159Y027390D02*
X003159Y027210D01*
X003249Y027120D01*
X003339Y027210D01*
X003045Y027165D02*
X003000Y027120D01*
X002910Y027120D01*
X002865Y027165D01*
X002865Y027255D02*
X002955Y027300D01*
X003000Y027300D01*
X003045Y027255D01*
X003045Y027165D01*
X002865Y027255D02*
X002865Y027390D01*
X003045Y027390D01*
X002750Y027255D02*
X002570Y027255D01*
X002660Y027345D02*
X002660Y027165D01*
X002615Y019828D02*
X002570Y019783D01*
X002570Y019603D01*
X002615Y019558D01*
X002705Y019558D01*
X002750Y019603D01*
X002750Y019693D01*
X002660Y019693D01*
X002750Y019783D02*
X002705Y019828D01*
X002615Y019828D01*
X002865Y019828D02*
X003045Y019558D01*
X003045Y019828D01*
X003159Y019828D02*
X003294Y019828D01*
X003339Y019783D01*
X003339Y019603D01*
X003294Y019558D01*
X003159Y019558D01*
X003159Y019828D01*
X002865Y019828D02*
X002865Y019558D01*
X004570Y019603D02*
X004615Y019558D01*
X004705Y019558D01*
X004750Y019603D01*
X004750Y019693D01*
X004660Y019693D01*
X004570Y019783D02*
X004615Y019828D01*
X004705Y019828D01*
X004750Y019783D01*
X004865Y019828D02*
X005045Y019558D01*
X005045Y019828D01*
X005159Y019828D02*
X005294Y019828D01*
X005339Y019783D01*
X005339Y019603D01*
X005294Y019558D01*
X005159Y019558D01*
X005159Y019828D01*
X004865Y019828D02*
X004865Y019558D01*
X004570Y019603D02*
X004570Y019783D01*
X006570Y019783D02*
X006570Y019603D01*
X006615Y019558D01*
X006705Y019558D01*
X006750Y019603D01*
X006750Y019693D01*
X006660Y019693D01*
X006570Y019783D02*
X006615Y019828D01*
X006705Y019828D01*
X006750Y019783D01*
X006865Y019828D02*
X007045Y019558D01*
X007045Y019828D01*
X007159Y019828D02*
X007294Y019828D01*
X007339Y019783D01*
X007339Y019603D01*
X007294Y019558D01*
X007159Y019558D01*
X007159Y019828D01*
X006865Y019828D02*
X006865Y019558D01*
X008570Y019603D02*
X008615Y019558D01*
X008705Y019558D01*
X008750Y019603D01*
X008750Y019693D01*
X008660Y019693D01*
X008570Y019783D02*
X008570Y019603D01*
X008570Y019783D02*
X008615Y019828D01*
X008705Y019828D01*
X008750Y019783D01*
X008865Y019828D02*
X009045Y019558D01*
X009045Y019828D01*
X009159Y019828D02*
X009294Y019828D01*
X009339Y019783D01*
X009339Y019603D01*
X009294Y019558D01*
X009159Y019558D01*
X009159Y019828D01*
X008865Y019828D02*
X008865Y019558D01*
X010570Y019603D02*
X010615Y019558D01*
X010705Y019558D01*
X010750Y019603D01*
X010750Y019693D01*
X010660Y019693D01*
X010570Y019783D02*
X010570Y019603D01*
X010570Y019783D02*
X010615Y019828D01*
X010705Y019828D01*
X010750Y019783D01*
X010865Y019828D02*
X011045Y019558D01*
X011045Y019828D01*
X011159Y019828D02*
X011294Y019828D01*
X011339Y019783D01*
X011339Y019603D01*
X011294Y019558D01*
X011159Y019558D01*
X011159Y019828D01*
X010865Y019828D02*
X010865Y019558D01*
X012570Y019603D02*
X012615Y019558D01*
X012705Y019558D01*
X012750Y019603D01*
X012750Y019693D01*
X012660Y019693D01*
X012570Y019783D02*
X012570Y019603D01*
X012570Y019783D02*
X012615Y019828D01*
X012705Y019828D01*
X012750Y019783D01*
X012865Y019828D02*
X013045Y019558D01*
X013045Y019828D01*
X013159Y019828D02*
X013294Y019828D01*
X013339Y019783D01*
X013339Y019603D01*
X013294Y019558D01*
X013159Y019558D01*
X013159Y019828D01*
X012865Y019828D02*
X012865Y019558D01*
X014695Y020558D02*
X014830Y020558D01*
X014875Y020603D01*
X014875Y020783D01*
X014830Y020828D01*
X014695Y020828D01*
X014695Y020558D01*
X014990Y020603D02*
X015035Y020558D01*
X015125Y020558D01*
X015170Y020603D01*
X015170Y020783D01*
X014990Y020603D01*
X014990Y020783D01*
X015035Y020828D01*
X015125Y020828D01*
X015170Y020783D01*
X015695Y020828D02*
X015695Y020558D01*
X015830Y020558D01*
X015875Y020603D01*
X015875Y020783D01*
X015830Y020828D01*
X015695Y020828D01*
X015990Y020738D02*
X016080Y020828D01*
X016080Y020558D01*
X015990Y020558D02*
X016170Y020558D01*
X016695Y020558D02*
X016695Y020828D01*
X016830Y020828D01*
X016875Y020783D01*
X016875Y020603D01*
X016830Y020558D01*
X016695Y020558D01*
X016990Y020558D02*
X017170Y020738D01*
X017170Y020783D01*
X017125Y020828D01*
X017035Y020828D01*
X016990Y020783D01*
X016990Y020558D02*
X017170Y020558D01*
X017695Y020558D02*
X017695Y020828D01*
X017830Y020828D01*
X017875Y020783D01*
X017875Y020603D01*
X017830Y020558D01*
X017695Y020558D01*
X017990Y020603D02*
X018035Y020558D01*
X018125Y020558D01*
X018170Y020603D01*
X018170Y020648D01*
X018125Y020693D01*
X018080Y020693D01*
X018125Y020693D02*
X018170Y020738D01*
X018170Y020783D01*
X018125Y020828D01*
X018035Y020828D01*
X017990Y020783D01*
X018695Y020828D02*
X018695Y020558D01*
X018830Y020558D01*
X018875Y020603D01*
X018875Y020783D01*
X018830Y020828D01*
X018695Y020828D01*
X018990Y020693D02*
X019170Y020693D01*
X019125Y020828D02*
X018990Y020693D01*
X019125Y020558D02*
X019125Y020828D01*
X019695Y020828D02*
X019695Y020558D01*
X019830Y020558D01*
X019875Y020603D01*
X019875Y020783D01*
X019830Y020828D01*
X019695Y020828D01*
X019990Y020828D02*
X019990Y020693D01*
X020080Y020738D01*
X020125Y020738D01*
X020170Y020693D01*
X020170Y020603D01*
X020125Y020558D01*
X020035Y020558D01*
X019990Y020603D01*
X019990Y020828D02*
X020170Y020828D01*
X020695Y020828D02*
X020695Y020558D01*
X020830Y020558D01*
X020875Y020603D01*
X020875Y020783D01*
X020830Y020828D01*
X020695Y020828D01*
X020990Y020693D02*
X021125Y020693D01*
X021170Y020648D01*
X021170Y020603D01*
X021125Y020558D01*
X021035Y020558D01*
X020990Y020603D01*
X020990Y020693D01*
X021080Y020783D01*
X021170Y020828D01*
X021695Y020828D02*
X021695Y020558D01*
X021830Y020558D01*
X021875Y020603D01*
X021875Y020783D01*
X021830Y020828D01*
X021695Y020828D01*
X021990Y020828D02*
X022170Y020828D01*
X022170Y020783D01*
X021990Y020603D01*
X021990Y020558D01*
X022695Y020558D02*
X022830Y020558D01*
X022875Y020603D01*
X022875Y020783D01*
X022830Y020828D01*
X022695Y020828D01*
X022695Y020558D01*
X022990Y020603D02*
X022990Y020648D01*
X023035Y020693D01*
X023125Y020693D01*
X023170Y020648D01*
X023170Y020603D01*
X023125Y020558D01*
X023035Y020558D01*
X022990Y020603D01*
X023035Y020693D02*
X022990Y020738D01*
X022990Y020783D01*
X023035Y020828D01*
X023125Y020828D01*
X023170Y020783D01*
X023170Y020738D01*
X023125Y020693D01*
X023695Y020828D02*
X023695Y020558D01*
X023830Y020558D01*
X023875Y020603D01*
X023875Y020783D01*
X023830Y020828D01*
X023695Y020828D01*
X023990Y020783D02*
X023990Y020738D01*
X024035Y020693D01*
X024170Y020693D01*
X024170Y020783D02*
X024125Y020828D01*
X024035Y020828D01*
X023990Y020783D01*
X024170Y020783D02*
X024170Y020603D01*
X024125Y020558D01*
X024035Y020558D01*
X023990Y020603D01*
X024508Y020558D02*
X024643Y020558D01*
X024688Y020603D01*
X024688Y020783D01*
X024643Y020828D01*
X024508Y020828D01*
X024508Y020558D01*
X024802Y020558D02*
X024982Y020558D01*
X024892Y020558D02*
X024892Y020828D01*
X024802Y020738D01*
X025097Y020783D02*
X025142Y020828D01*
X025232Y020828D01*
X025277Y020783D01*
X025097Y020603D01*
X025142Y020558D01*
X025232Y020558D01*
X025277Y020603D01*
X025277Y020783D01*
X025097Y020783D02*
X025097Y020603D01*
X025570Y020558D02*
X025705Y020558D01*
X025750Y020603D01*
X025750Y020783D01*
X025705Y020828D01*
X025570Y020828D01*
X025570Y020558D01*
X025865Y020558D02*
X026045Y020558D01*
X025955Y020558D02*
X025955Y020828D01*
X025865Y020738D01*
X026159Y020738D02*
X026249Y020828D01*
X026249Y020558D01*
X026159Y020558D02*
X026339Y020558D01*
X026508Y020558D02*
X026508Y020828D01*
X026643Y020828D01*
X026688Y020783D01*
X026688Y020603D01*
X026643Y020558D01*
X026508Y020558D01*
X026802Y020558D02*
X026982Y020558D01*
X026892Y020558D02*
X026892Y020828D01*
X026802Y020738D01*
X027097Y020783D02*
X027142Y020828D01*
X027232Y020828D01*
X027277Y020783D01*
X027277Y020738D01*
X027097Y020558D01*
X027277Y020558D01*
X027508Y020558D02*
X027643Y020558D01*
X027688Y020603D01*
X027688Y020783D01*
X027643Y020828D01*
X027508Y020828D01*
X027508Y020558D01*
X027802Y020558D02*
X027982Y020558D01*
X027892Y020558D02*
X027892Y020828D01*
X027802Y020738D01*
X028097Y020783D02*
X028142Y020828D01*
X028232Y020828D01*
X028277Y020783D01*
X028277Y020738D01*
X028232Y020693D01*
X028277Y020648D01*
X028277Y020603D01*
X028232Y020558D01*
X028142Y020558D01*
X028097Y020603D01*
X028187Y020693D02*
X028232Y020693D01*
X028508Y020783D02*
X028508Y020603D01*
X028553Y020558D01*
X028643Y020558D01*
X028688Y020603D01*
X028688Y020693D01*
X028598Y020693D01*
X028688Y020783D02*
X028643Y020828D01*
X028553Y020828D01*
X028508Y020783D01*
X028802Y020828D02*
X028982Y020558D01*
X028982Y020828D01*
X029097Y020828D02*
X029232Y020828D01*
X029277Y020783D01*
X029277Y020603D01*
X029232Y020558D01*
X029097Y020558D01*
X029097Y020828D01*
X028802Y020828D02*
X028802Y020558D01*
X029570Y020558D02*
X029570Y020828D01*
X029705Y020828D01*
X029750Y020783D01*
X029750Y020693D01*
X029705Y020648D01*
X029570Y020648D01*
X029660Y020648D02*
X029750Y020558D01*
X029865Y020558D02*
X030045Y020558D01*
X030159Y020558D02*
X030159Y020828D01*
X030339Y020828D01*
X030249Y020693D02*
X030159Y020693D01*
X030045Y020828D02*
X029865Y020828D01*
X029865Y020558D01*
X029865Y020693D02*
X029955Y020693D01*
X029580Y015015D02*
X029490Y015015D01*
X029445Y014970D01*
X029445Y014790D01*
X029490Y014745D01*
X029580Y014745D01*
X029625Y014790D01*
X029740Y014790D02*
X029785Y014745D01*
X029875Y014745D01*
X029920Y014790D01*
X029920Y014880D01*
X029875Y014925D01*
X029785Y014925D01*
X029740Y014880D01*
X029740Y014790D01*
X029625Y014970D02*
X029580Y015015D01*
X030034Y014925D02*
X030034Y014745D01*
X030124Y014745D02*
X030124Y014880D01*
X030169Y014925D01*
X030214Y014880D01*
X030214Y014745D01*
X030329Y014745D02*
X030464Y014745D01*
X030509Y014790D01*
X030509Y014880D01*
X030464Y014925D01*
X030329Y014925D01*
X030329Y014655D01*
X030124Y014880D02*
X030079Y014925D01*
X030034Y014925D01*
X030624Y014790D02*
X030669Y014745D01*
X030804Y014745D01*
X030804Y014880D01*
X030759Y014925D01*
X030669Y014925D01*
X030669Y014835D02*
X030804Y014835D01*
X030669Y014835D02*
X030624Y014790D01*
X030918Y014925D02*
X031008Y014925D01*
X030963Y014970D02*
X030963Y014790D01*
X031008Y014745D01*
X031115Y014745D02*
X031205Y014745D01*
X031160Y014745D02*
X031160Y014925D01*
X031115Y014925D01*
X031160Y015015D02*
X031160Y015060D01*
X031311Y015015D02*
X031311Y014745D01*
X031446Y014745D01*
X031491Y014790D01*
X031491Y014880D01*
X031446Y014925D01*
X031311Y014925D01*
X031606Y015015D02*
X031651Y015015D01*
X031651Y014745D01*
X031606Y014745D02*
X031696Y014745D01*
X031802Y014790D02*
X031802Y014880D01*
X031847Y014925D01*
X031937Y014925D01*
X031982Y014880D01*
X031982Y014835D01*
X031802Y014835D01*
X031802Y014790D02*
X031847Y014745D01*
X031937Y014745D01*
X032392Y014790D02*
X032437Y014745D01*
X032482Y014790D01*
X032527Y014745D01*
X032572Y014790D01*
X032572Y014925D01*
X032686Y014925D02*
X032731Y014925D01*
X032731Y014745D01*
X032686Y014745D02*
X032776Y014745D01*
X032928Y014790D02*
X032973Y014745D01*
X032928Y014790D02*
X032928Y014970D01*
X032883Y014925D02*
X032973Y014925D01*
X033079Y014880D02*
X033124Y014925D01*
X033214Y014925D01*
X033259Y014880D01*
X033259Y014745D01*
X033079Y014745D02*
X033079Y015015D01*
X032731Y015015D02*
X032731Y015060D01*
X032392Y014925D02*
X032392Y014790D01*
X033668Y014745D02*
X033668Y014925D01*
X033713Y014925D01*
X033758Y014880D01*
X033803Y014925D01*
X033848Y014880D01*
X033848Y014745D01*
X033758Y014745D02*
X033758Y014880D01*
X033963Y014880D02*
X033963Y014790D01*
X034008Y014745D01*
X034098Y014745D01*
X034143Y014790D01*
X034143Y014880D01*
X034098Y014925D01*
X034008Y014925D01*
X033963Y014880D01*
X034258Y014880D02*
X034303Y014925D01*
X034438Y014925D01*
X034393Y014835D02*
X034303Y014835D01*
X034258Y014880D01*
X034258Y014745D02*
X034393Y014745D01*
X034438Y014790D01*
X034393Y014835D01*
X034552Y014925D02*
X034642Y014925D01*
X034597Y014970D02*
X034597Y014790D01*
X034642Y014745D01*
X035043Y014745D02*
X035043Y014925D01*
X035133Y015015D01*
X035224Y014925D01*
X035224Y014745D01*
X035338Y014745D02*
X035338Y014925D01*
X035338Y014835D02*
X035428Y014925D01*
X035473Y014925D01*
X035584Y014880D02*
X035629Y014925D01*
X035764Y014925D01*
X035764Y015015D02*
X035764Y014745D01*
X035629Y014745D01*
X035584Y014790D01*
X035584Y014880D01*
X035878Y014925D02*
X035878Y014790D01*
X035923Y014745D01*
X036058Y014745D01*
X036058Y014925D01*
X036173Y014925D02*
X036218Y014925D01*
X036218Y014745D01*
X036173Y014745D02*
X036263Y014745D01*
X036369Y014745D02*
X036369Y014925D01*
X036504Y014925D01*
X036549Y014880D01*
X036549Y014745D01*
X036664Y014790D02*
X036709Y014745D01*
X036799Y014745D01*
X036844Y014790D01*
X036844Y014880D01*
X036799Y014925D01*
X036709Y014925D01*
X036664Y014880D01*
X036664Y014790D01*
X036959Y014880D02*
X037139Y014880D01*
X037253Y014745D02*
X037343Y014745D01*
X037298Y014745D02*
X037298Y015015D01*
X037253Y015015D01*
X037450Y014925D02*
X037495Y014925D01*
X037495Y014745D01*
X037450Y014745D02*
X037540Y014745D01*
X037646Y014745D02*
X037646Y015015D01*
X037495Y015015D02*
X037495Y015060D01*
X037646Y014835D02*
X037781Y014925D01*
X037892Y014880D02*
X037937Y014925D01*
X038027Y014925D01*
X038072Y014880D01*
X038072Y014835D01*
X037892Y014835D01*
X037892Y014790D02*
X037892Y014880D01*
X037892Y014790D02*
X037937Y014745D01*
X038027Y014745D01*
X037781Y014745D02*
X037646Y014835D01*
X038481Y014790D02*
X038481Y014880D01*
X038526Y014925D01*
X038661Y014925D01*
X038661Y015015D02*
X038661Y014745D01*
X038526Y014745D01*
X038481Y014790D01*
X038776Y014790D02*
X038821Y014745D01*
X038911Y014745D01*
X038956Y014835D02*
X038776Y014835D01*
X038776Y014790D02*
X038776Y014880D01*
X038821Y014925D01*
X038911Y014925D01*
X038956Y014880D01*
X038956Y014835D01*
X039070Y014925D02*
X039160Y014745D01*
X039250Y014925D01*
X039365Y014925D02*
X039410Y014925D01*
X039410Y014745D01*
X039365Y014745D02*
X039455Y014745D01*
X039561Y014790D02*
X039606Y014745D01*
X039742Y014745D01*
X039856Y014790D02*
X039901Y014745D01*
X039991Y014745D01*
X040036Y014835D02*
X039856Y014835D01*
X039856Y014790D02*
X039856Y014880D01*
X039901Y014925D01*
X039991Y014925D01*
X040036Y014880D01*
X040036Y014835D01*
X040151Y014880D02*
X040196Y014925D01*
X040331Y014925D01*
X040286Y014835D02*
X040196Y014835D01*
X040151Y014880D01*
X040151Y014745D02*
X040286Y014745D01*
X040331Y014790D01*
X040286Y014835D01*
X039742Y014925D02*
X039606Y014925D01*
X039561Y014880D01*
X039561Y014790D01*
X039410Y015015D02*
X039410Y015060D01*
X038995Y013310D02*
X038995Y013265D01*
X038995Y013175D02*
X038995Y012995D01*
X038950Y012995D02*
X039040Y012995D01*
X039146Y013040D02*
X039191Y012995D01*
X039326Y012995D01*
X039441Y013040D02*
X039486Y012995D01*
X039576Y012995D01*
X039621Y013085D02*
X039441Y013085D01*
X039441Y013040D02*
X039441Y013130D01*
X039486Y013175D01*
X039576Y013175D01*
X039621Y013130D01*
X039621Y013085D01*
X039735Y012995D02*
X039735Y013175D01*
X039871Y013175D01*
X039916Y013130D01*
X039916Y012995D01*
X040030Y012995D02*
X040165Y012995D01*
X040210Y013040D01*
X040165Y013085D01*
X040075Y013085D01*
X040030Y013130D01*
X040075Y013175D01*
X040210Y013175D01*
X040325Y013130D02*
X040370Y013175D01*
X040460Y013175D01*
X040505Y013130D01*
X040505Y013085D01*
X040325Y013085D01*
X040325Y013040D02*
X040325Y013130D01*
X040325Y013040D02*
X040370Y012995D01*
X040460Y012995D01*
X040619Y012995D02*
X040619Y013040D01*
X040664Y013040D01*
X040664Y012995D01*
X040619Y012995D01*
X040619Y013130D02*
X040619Y013175D01*
X040664Y013175D01*
X040664Y013130D01*
X040619Y013130D01*
X039326Y013175D02*
X039191Y013175D01*
X039146Y013130D01*
X039146Y013040D01*
X038995Y013175D02*
X038950Y013175D01*
X038835Y012995D02*
X038655Y012995D01*
X038655Y013265D01*
X038246Y013265D02*
X038246Y012995D01*
X038246Y013130D02*
X038066Y013130D01*
X038066Y012995D02*
X038066Y013265D01*
X037951Y013220D02*
X037906Y013265D01*
X037816Y013265D01*
X037771Y013220D01*
X037771Y013040D01*
X037816Y012995D01*
X037906Y012995D01*
X037951Y013040D01*
X037951Y013220D01*
X037362Y013265D02*
X037362Y012995D01*
X037182Y013265D01*
X037182Y012995D01*
X037067Y012995D02*
X036977Y013085D01*
X037022Y013085D02*
X036887Y013085D01*
X036887Y012995D02*
X036887Y013265D01*
X037022Y013265D01*
X037067Y013220D01*
X037067Y013130D01*
X037022Y013085D01*
X036773Y012995D02*
X036592Y012995D01*
X036592Y013265D01*
X036773Y013265D01*
X036683Y013130D02*
X036592Y013130D01*
X036478Y013040D02*
X036433Y012995D01*
X036343Y012995D01*
X036298Y013040D01*
X036298Y013220D01*
X036343Y013265D01*
X036433Y013265D01*
X036478Y013220D01*
X036494Y012765D02*
X036494Y012495D01*
X036380Y012540D02*
X036380Y012630D01*
X036335Y012675D01*
X036245Y012675D01*
X036200Y012630D01*
X036200Y012540D01*
X036245Y012495D01*
X036335Y012495D01*
X036380Y012540D01*
X036494Y012630D02*
X036539Y012675D01*
X036629Y012675D01*
X036674Y012630D01*
X036674Y012495D01*
X036789Y012495D02*
X036879Y012495D01*
X036834Y012495D02*
X036834Y012765D01*
X036789Y012765D01*
X036085Y012630D02*
X036085Y012495D01*
X036085Y012630D02*
X036040Y012675D01*
X035905Y012675D01*
X035905Y012495D01*
X035795Y012675D02*
X035750Y012675D01*
X035659Y012585D01*
X035659Y012495D02*
X035659Y012675D01*
X035545Y012630D02*
X035545Y012585D01*
X035365Y012585D01*
X035365Y012540D02*
X035365Y012630D01*
X035410Y012675D01*
X035500Y012675D01*
X035545Y012630D01*
X035500Y012495D02*
X035410Y012495D01*
X035365Y012540D01*
X035250Y012495D02*
X035115Y012495D01*
X035070Y012540D01*
X035070Y012630D01*
X035115Y012675D01*
X035250Y012675D01*
X034956Y012765D02*
X034775Y012495D01*
X034661Y012495D02*
X034526Y012495D01*
X034481Y012540D01*
X034481Y012630D01*
X034526Y012675D01*
X034661Y012675D01*
X034661Y012450D01*
X034616Y012405D01*
X034571Y012405D01*
X034370Y012675D02*
X034325Y012675D01*
X034235Y012585D01*
X034235Y012495D02*
X034235Y012675D01*
X034121Y012630D02*
X034076Y012675D01*
X033986Y012675D01*
X033941Y012630D01*
X033941Y012540D01*
X033986Y012495D01*
X034076Y012495D01*
X034121Y012540D01*
X034121Y012630D01*
X033838Y012540D02*
X033838Y012495D01*
X033793Y012495D01*
X033793Y012540D01*
X033838Y012540D01*
X033683Y012675D02*
X033638Y012675D01*
X033548Y012585D01*
X033548Y012495D02*
X033548Y012675D01*
X033433Y012675D02*
X033433Y012540D01*
X033388Y012495D01*
X033343Y012540D01*
X033298Y012495D01*
X033253Y012540D01*
X033253Y012675D01*
X033139Y012630D02*
X033139Y012495D01*
X033139Y012630D02*
X033094Y012675D01*
X033003Y012675D01*
X032958Y012630D01*
X032844Y012630D02*
X032799Y012675D01*
X032709Y012675D01*
X032664Y012630D01*
X032664Y012540D01*
X032709Y012495D01*
X032799Y012495D01*
X032844Y012540D01*
X032844Y012630D01*
X032958Y012765D02*
X032958Y012495D01*
X032549Y012765D02*
X032369Y012495D01*
X032255Y012765D02*
X032074Y012495D01*
X031972Y012495D02*
X031927Y012495D01*
X031927Y012540D01*
X031972Y012540D01*
X031972Y012495D01*
X031972Y012630D02*
X031927Y012630D01*
X031927Y012675D01*
X031972Y012675D01*
X031972Y012630D01*
X031813Y012630D02*
X031813Y012540D01*
X031768Y012495D01*
X031633Y012495D01*
X031633Y012405D02*
X031633Y012675D01*
X031768Y012675D01*
X031813Y012630D01*
X031526Y012675D02*
X031436Y012675D01*
X031481Y012720D02*
X031481Y012540D01*
X031526Y012495D01*
X031330Y012495D02*
X031285Y012540D01*
X031285Y012720D01*
X031240Y012675D02*
X031330Y012675D01*
X031125Y012630D02*
X031125Y012495D01*
X031125Y012630D02*
X031080Y012675D01*
X030990Y012675D01*
X030945Y012630D01*
X030945Y012765D02*
X030945Y012495D01*
X030945Y012995D02*
X030945Y013265D01*
X031080Y013265D01*
X031125Y013220D01*
X031125Y013130D01*
X031080Y013085D01*
X030945Y013085D01*
X031035Y013085D02*
X031125Y012995D01*
X031240Y013040D02*
X031285Y012995D01*
X031375Y012995D01*
X031420Y013085D02*
X031240Y013085D01*
X031240Y013040D02*
X031240Y013130D01*
X031285Y013175D01*
X031375Y013175D01*
X031420Y013130D01*
X031420Y013085D01*
X031534Y012995D02*
X031624Y012995D01*
X031579Y012995D02*
X031579Y013265D01*
X031534Y013265D01*
X031731Y013130D02*
X031776Y013175D01*
X031866Y013175D01*
X031911Y013130D01*
X031911Y013085D01*
X031731Y013085D01*
X031731Y013040D02*
X031731Y013130D01*
X031731Y013040D02*
X031776Y012995D01*
X031866Y012995D01*
X032025Y013040D02*
X032070Y012995D01*
X032206Y012995D01*
X032206Y013130D01*
X032161Y013175D01*
X032070Y013175D01*
X032070Y013085D02*
X032206Y013085D01*
X032320Y013130D02*
X032365Y013175D01*
X032500Y013175D01*
X032455Y013085D02*
X032365Y013085D01*
X032320Y013130D01*
X032320Y012995D02*
X032455Y012995D01*
X032500Y013040D01*
X032455Y013085D01*
X032615Y013085D02*
X032795Y013085D01*
X032795Y013130D01*
X032750Y013175D01*
X032660Y013175D01*
X032615Y013130D01*
X032615Y013040D01*
X032660Y012995D01*
X032750Y012995D01*
X032909Y013040D02*
X032954Y012995D01*
X033089Y012995D01*
X033089Y013265D01*
X033089Y013175D02*
X032954Y013175D01*
X032909Y013130D01*
X032909Y013040D01*
X033499Y013040D02*
X033544Y012995D01*
X033679Y012995D01*
X033679Y013175D01*
X033793Y013175D02*
X033928Y013175D01*
X033973Y013130D01*
X033973Y012995D01*
X034088Y013040D02*
X034133Y012995D01*
X034268Y012995D01*
X034268Y013265D01*
X034268Y013175D02*
X034133Y013175D01*
X034088Y013130D01*
X034088Y013040D01*
X034383Y013040D02*
X034428Y012995D01*
X034518Y012995D01*
X034563Y013085D02*
X034383Y013085D01*
X034383Y013040D02*
X034383Y013130D01*
X034428Y013175D01*
X034518Y013175D01*
X034563Y013130D01*
X034563Y013085D01*
X034677Y013085D02*
X034767Y013175D01*
X034812Y013175D01*
X034677Y013175D02*
X034677Y012995D01*
X035217Y013175D02*
X035308Y013175D01*
X035262Y013220D02*
X035262Y013040D01*
X035308Y012995D01*
X035414Y012995D02*
X035414Y013265D01*
X035459Y013175D02*
X035549Y013175D01*
X035594Y013130D01*
X035594Y012995D01*
X035709Y013040D02*
X035754Y012995D01*
X035844Y012995D01*
X035889Y013085D02*
X035709Y013085D01*
X035709Y013040D02*
X035709Y013130D01*
X035754Y013175D01*
X035844Y013175D01*
X035889Y013130D01*
X035889Y013085D01*
X035459Y013175D02*
X035414Y013130D01*
X033793Y013175D02*
X033793Y012995D01*
X033499Y013040D02*
X033499Y013175D01*
X032070Y013085D02*
X032025Y013040D01*
X030089Y011765D02*
X029909Y011765D01*
X029909Y011495D01*
X029795Y011495D02*
X029615Y011495D01*
X029615Y011765D01*
X029795Y011765D01*
X029705Y011630D02*
X029615Y011630D01*
X029500Y011630D02*
X029455Y011585D01*
X029320Y011585D01*
X029320Y011495D02*
X029320Y011765D01*
X029455Y011765D01*
X029500Y011720D01*
X029500Y011630D01*
X029410Y011585D02*
X029500Y011495D01*
X029089Y011540D02*
X029089Y011720D01*
X029044Y011765D01*
X028909Y011765D01*
X028909Y011495D01*
X029044Y011495D01*
X029089Y011540D01*
X028795Y011495D02*
X028795Y011765D01*
X028615Y011765D02*
X028795Y011495D01*
X028615Y011495D02*
X028615Y011765D01*
X028500Y011720D02*
X028455Y011765D01*
X028365Y011765D01*
X028320Y011720D01*
X028320Y011540D01*
X028365Y011495D01*
X028455Y011495D01*
X028500Y011540D01*
X028500Y011630D01*
X028410Y011630D01*
X028027Y011585D02*
X028027Y011540D01*
X027982Y011495D01*
X027892Y011495D01*
X027847Y011540D01*
X027732Y011495D02*
X027552Y011495D01*
X027642Y011495D02*
X027642Y011765D01*
X027552Y011675D01*
X027438Y011720D02*
X027393Y011765D01*
X027258Y011765D01*
X027258Y011495D01*
X027393Y011495D01*
X027438Y011540D01*
X027438Y011720D01*
X027847Y011720D02*
X027892Y011765D01*
X027982Y011765D01*
X028027Y011720D01*
X028027Y011675D01*
X027982Y011630D01*
X028027Y011585D01*
X027982Y011630D02*
X027937Y011630D01*
X027027Y011675D02*
X026847Y011495D01*
X027027Y011495D01*
X027027Y011675D02*
X027027Y011720D01*
X026982Y011765D01*
X026892Y011765D01*
X026847Y011720D01*
X026642Y011765D02*
X026642Y011495D01*
X026552Y011495D02*
X026732Y011495D01*
X026552Y011675D02*
X026642Y011765D01*
X026438Y011720D02*
X026393Y011765D01*
X026258Y011765D01*
X026258Y011495D01*
X026393Y011495D01*
X026438Y011540D01*
X026438Y011720D01*
X026089Y011495D02*
X025909Y011495D01*
X025999Y011495D02*
X025999Y011765D01*
X025909Y011675D01*
X025795Y011495D02*
X025615Y011495D01*
X025705Y011495D02*
X025705Y011765D01*
X025615Y011675D01*
X025500Y011720D02*
X025500Y011540D01*
X025455Y011495D01*
X025320Y011495D01*
X025320Y011765D01*
X025455Y011765D01*
X025500Y011720D01*
X025027Y011720D02*
X024847Y011540D01*
X024892Y011495D01*
X024982Y011495D01*
X025027Y011540D01*
X025027Y011720D01*
X024982Y011765D01*
X024892Y011765D01*
X024847Y011720D01*
X024847Y011540D01*
X024732Y011495D02*
X024552Y011495D01*
X024642Y011495D02*
X024642Y011765D01*
X024552Y011675D01*
X024438Y011720D02*
X024393Y011765D01*
X024258Y011765D01*
X024258Y011495D01*
X024393Y011495D01*
X024438Y011540D01*
X024438Y011720D01*
X023920Y011720D02*
X023920Y011540D01*
X023875Y011495D01*
X023785Y011495D01*
X023740Y011540D01*
X023785Y011630D02*
X023920Y011630D01*
X023920Y011720D02*
X023875Y011765D01*
X023785Y011765D01*
X023740Y011720D01*
X023740Y011675D01*
X023785Y011630D01*
X023625Y011540D02*
X023625Y011720D01*
X023580Y011765D01*
X023445Y011765D01*
X023445Y011495D01*
X023580Y011495D01*
X023625Y011540D01*
X022920Y011540D02*
X022875Y011495D01*
X022785Y011495D01*
X022740Y011540D01*
X022740Y011585D01*
X022785Y011630D01*
X022875Y011630D01*
X022920Y011585D01*
X022920Y011540D01*
X022875Y011630D02*
X022920Y011675D01*
X022920Y011720D01*
X022875Y011765D01*
X022785Y011765D01*
X022740Y011720D01*
X022740Y011675D01*
X022785Y011630D01*
X022625Y011540D02*
X022625Y011720D01*
X022580Y011765D01*
X022445Y011765D01*
X022445Y011495D01*
X022580Y011495D01*
X022625Y011540D01*
X021170Y011720D02*
X020990Y011540D01*
X020990Y011495D01*
X020875Y011540D02*
X020875Y011720D01*
X020830Y011765D01*
X020695Y011765D01*
X020695Y011495D01*
X020830Y011495D01*
X020875Y011540D01*
X020990Y011765D02*
X021170Y011765D01*
X021170Y011720D01*
X020170Y011765D02*
X020080Y011720D01*
X019990Y011630D01*
X020125Y011630D01*
X020170Y011585D01*
X020170Y011540D01*
X020125Y011495D01*
X020035Y011495D01*
X019990Y011540D01*
X019990Y011630D01*
X019875Y011540D02*
X019875Y011720D01*
X019830Y011765D01*
X019695Y011765D01*
X019695Y011495D01*
X019830Y011495D01*
X019875Y011540D01*
X019170Y011540D02*
X019125Y011495D01*
X019035Y011495D01*
X018990Y011540D01*
X018990Y011630D02*
X019080Y011675D01*
X019125Y011675D01*
X019170Y011630D01*
X019170Y011540D01*
X018990Y011630D02*
X018990Y011765D01*
X019170Y011765D01*
X018875Y011720D02*
X018830Y011765D01*
X018695Y011765D01*
X018695Y011495D01*
X018830Y011495D01*
X018875Y011540D01*
X018875Y011720D01*
X018170Y011630D02*
X017990Y011630D01*
X018125Y011765D01*
X018125Y011495D01*
X017875Y011540D02*
X017875Y011720D01*
X017830Y011765D01*
X017695Y011765D01*
X017695Y011495D01*
X017830Y011495D01*
X017875Y011540D01*
X017170Y011540D02*
X017125Y011495D01*
X017035Y011495D01*
X016990Y011540D01*
X016875Y011540D02*
X016875Y011720D01*
X016830Y011765D01*
X016695Y011765D01*
X016695Y011495D01*
X016830Y011495D01*
X016875Y011540D01*
X016990Y011720D02*
X017035Y011765D01*
X017125Y011765D01*
X017170Y011720D01*
X017170Y011675D01*
X017125Y011630D01*
X017170Y011585D01*
X017170Y011540D01*
X017125Y011630D02*
X017080Y011630D01*
X016170Y011675D02*
X015990Y011495D01*
X016170Y011495D01*
X016170Y011675D02*
X016170Y011720D01*
X016125Y011765D01*
X016035Y011765D01*
X015990Y011720D01*
X015875Y011720D02*
X015875Y011540D01*
X015830Y011495D01*
X015695Y011495D01*
X015695Y011765D01*
X015830Y011765D01*
X015875Y011720D01*
X015170Y011495D02*
X014990Y011495D01*
X015080Y011495D02*
X015080Y011765D01*
X014990Y011675D01*
X014875Y011720D02*
X014830Y011765D01*
X014695Y011765D01*
X014695Y011495D01*
X014830Y011495D01*
X014875Y011540D01*
X014875Y011720D01*
X014170Y011720D02*
X013990Y011540D01*
X014035Y011495D01*
X014125Y011495D01*
X014170Y011540D01*
X014170Y011720D01*
X014125Y011765D01*
X014035Y011765D01*
X013990Y011720D01*
X013990Y011540D01*
X013875Y011540D02*
X013875Y011720D01*
X013830Y011765D01*
X013695Y011765D01*
X013695Y011495D01*
X013830Y011495D01*
X013875Y011540D01*
X015570Y018933D02*
X015570Y019113D01*
X015660Y019203D01*
X015750Y019113D01*
X015750Y018933D01*
X015865Y018978D02*
X015910Y018933D01*
X016000Y018933D01*
X016045Y018978D01*
X016045Y019068D01*
X015955Y019068D01*
X016045Y019158D02*
X016000Y019203D01*
X015910Y019203D01*
X015865Y019158D01*
X015865Y018978D01*
X015750Y019068D02*
X015570Y019068D01*
X015615Y019370D02*
X015705Y019370D01*
X015750Y019415D01*
X015750Y019505D01*
X015660Y019505D01*
X015570Y019415D02*
X015615Y019370D01*
X015570Y019415D02*
X015570Y019595D01*
X015615Y019640D01*
X015705Y019640D01*
X015750Y019595D01*
X015865Y019640D02*
X016045Y019370D01*
X016045Y019640D01*
X016159Y019640D02*
X016294Y019640D01*
X016339Y019595D01*
X016339Y019415D01*
X016294Y019370D01*
X016159Y019370D01*
X016159Y019640D01*
X015865Y019640D02*
X015865Y019370D01*
X016159Y019203D02*
X016339Y018933D01*
X016339Y019203D01*
X016454Y019203D02*
X016589Y019203D01*
X016634Y019158D01*
X016634Y018978D01*
X016589Y018933D01*
X016454Y018933D01*
X016454Y019203D01*
X016454Y019370D02*
X016634Y019640D01*
X016159Y019203D02*
X016159Y018933D01*
X029909Y011630D02*
X029999Y011630D01*
X035043Y014880D02*
X035224Y014880D01*
X036218Y015015D02*
X036218Y015060D01*
X001715Y006195D02*
X001715Y006015D01*
X001625Y006060D02*
X001580Y006015D01*
X001490Y006015D01*
X001445Y006060D01*
X001445Y006150D01*
X001490Y006195D01*
X001580Y006195D02*
X001625Y006105D01*
X001625Y006060D01*
X001580Y006195D02*
X001715Y006195D01*
X001715Y005900D02*
X001535Y005900D01*
X001445Y005810D01*
X001535Y005720D01*
X001715Y005720D01*
X001340Y006060D02*
X001340Y006150D01*
X001295Y006195D01*
X001250Y006195D01*
X001205Y006150D01*
X001205Y006060D01*
X001160Y006015D01*
X001115Y006015D01*
X001070Y006060D01*
X001070Y006150D01*
X001115Y006195D01*
X001295Y006015D02*
X001340Y006060D01*
X001205Y005900D02*
X001250Y005855D01*
X001250Y005765D01*
X001205Y005720D01*
X001160Y005720D01*
X001160Y005900D01*
X001115Y005900D02*
X001205Y005900D01*
X001115Y005900D02*
X001070Y005855D01*
X001070Y005765D01*
X001070Y005606D02*
X001250Y005606D01*
X001250Y005471D01*
X001205Y005426D01*
X001070Y005426D01*
X001070Y005311D02*
X001070Y005176D01*
X001115Y005131D01*
X001160Y005176D01*
X001160Y005266D01*
X001205Y005311D01*
X001250Y005266D01*
X001250Y005131D01*
X001205Y005016D02*
X001115Y005016D01*
X001070Y004971D01*
X001070Y004881D01*
X001115Y004836D01*
X001205Y004836D01*
X001250Y004881D01*
X001250Y004971D01*
X001205Y005016D01*
X001160Y004722D02*
X001250Y004632D01*
X001250Y004587D01*
X001205Y004476D02*
X001250Y004431D01*
X001250Y004296D01*
X001160Y004341D02*
X001160Y004431D01*
X001205Y004476D01*
X001070Y004476D02*
X001070Y004341D01*
X001115Y004296D01*
X001160Y004341D01*
X001070Y004722D02*
X001250Y004722D01*
D14*
X001120Y006320D02*
X001720Y006320D01*
X001737Y006322D01*
X001754Y006326D01*
X001770Y006333D01*
X001784Y006343D01*
X001797Y006356D01*
X001807Y006370D01*
X001814Y006386D01*
X001818Y006403D01*
X001820Y006420D01*
X001820Y007520D01*
X001818Y007537D01*
X001814Y007554D01*
X001807Y007570D01*
X001797Y007584D01*
X001784Y007597D01*
X001770Y007607D01*
X001754Y007614D01*
X001737Y007618D01*
X001720Y007620D01*
X001120Y007620D01*
X001103Y007618D01*
X001086Y007614D01*
X001070Y007607D01*
X001056Y007597D01*
X001043Y007584D01*
X001033Y007570D01*
X001026Y007554D01*
X001022Y007537D01*
X001020Y007520D01*
X001020Y006420D01*
X001022Y006403D01*
X001026Y006386D01*
X001033Y006370D01*
X001043Y006356D01*
X001056Y006343D01*
X001070Y006333D01*
X001086Y006326D01*
X001103Y006322D01*
X001120Y006320D01*
X001184Y008852D02*
X001184Y009088D01*
X001656Y009088D02*
X001656Y008852D01*
X002184Y008852D02*
X002184Y009088D01*
X002656Y009088D02*
X002656Y008852D01*
X003184Y008852D02*
X003184Y009088D01*
X003656Y009088D02*
X003656Y008852D01*
X004184Y008852D02*
X004184Y009088D01*
X004656Y009088D02*
X004656Y008852D01*
X005184Y008852D02*
X005184Y009088D01*
X005656Y009088D02*
X005656Y008852D01*
X006184Y008852D02*
X006184Y009088D01*
X006656Y009088D02*
X006656Y008852D01*
X007184Y008852D02*
X007184Y009088D01*
X007656Y009088D02*
X007656Y008852D01*
X008184Y008852D02*
X008184Y009088D01*
X008656Y009088D02*
X008656Y008852D01*
X009184Y008852D02*
X009184Y009088D01*
X009656Y009088D02*
X009656Y008852D01*
X010184Y008852D02*
X010184Y009088D01*
X010656Y009088D02*
X010656Y008852D01*
X011184Y008852D02*
X011184Y009088D01*
X011656Y009088D02*
X011656Y008852D01*
X012184Y008852D02*
X012184Y009088D01*
X012656Y009088D02*
X012656Y008852D01*
X013184Y008852D02*
X013184Y009088D01*
X013656Y009088D02*
X013656Y008852D01*
X014184Y008852D02*
X014184Y009088D01*
X014656Y009088D02*
X014656Y008852D01*
X015184Y008852D02*
X015184Y009088D01*
X015656Y009088D02*
X015656Y008852D01*
X016184Y008852D02*
X016184Y009088D01*
X016656Y009088D02*
X016656Y008852D01*
X017184Y008852D02*
X017184Y009088D01*
X017656Y009088D02*
X017656Y008852D01*
X018184Y008852D02*
X018184Y009088D01*
X018656Y009088D02*
X018656Y008852D01*
X019184Y008852D02*
X019184Y009088D01*
X019656Y009088D02*
X019656Y008852D01*
X020184Y008852D02*
X020184Y009088D01*
X020656Y009088D02*
X020656Y008852D01*
X021184Y008852D02*
X021184Y009088D01*
X021656Y009088D02*
X021656Y008852D01*
X022184Y008852D02*
X022184Y009088D01*
X022656Y009088D02*
X022656Y008852D01*
X023184Y008852D02*
X023184Y009088D01*
X023656Y009088D02*
X023656Y008852D01*
X024184Y008852D02*
X024184Y009088D01*
X024656Y009088D02*
X024656Y008852D01*
X025184Y008852D02*
X025184Y009088D01*
X025656Y009088D02*
X025656Y008852D01*
X026184Y008852D02*
X026184Y009088D01*
X026656Y009088D02*
X026656Y008852D01*
X027184Y008852D02*
X027184Y009088D01*
X027656Y009088D02*
X027656Y008852D01*
X028184Y008852D02*
X028184Y009088D01*
X028656Y009088D02*
X028656Y008852D01*
X029184Y008852D02*
X029184Y009088D01*
X029656Y009088D02*
X029656Y008852D01*
X030184Y008852D02*
X030184Y009088D01*
X030656Y009088D02*
X030656Y008852D01*
X031184Y008852D02*
X031184Y009088D01*
X031656Y009088D02*
X031656Y008852D01*
X032184Y008852D02*
X032184Y009088D01*
X032656Y009088D02*
X032656Y008852D01*
X033184Y008852D02*
X033184Y009088D01*
X033656Y009088D02*
X033656Y008852D01*
X034184Y008852D02*
X034184Y009088D01*
X034656Y009088D02*
X034656Y008852D01*
X035184Y008852D02*
X035184Y009088D01*
X035656Y009088D02*
X035656Y008852D01*
X036184Y008852D02*
X036184Y009088D01*
X036656Y009088D02*
X036656Y008852D01*
X037184Y008852D02*
X037184Y009088D01*
X037656Y009088D02*
X037656Y008852D01*
X038184Y008852D02*
X038184Y009088D01*
X038656Y009088D02*
X038656Y008852D01*
X039184Y008852D02*
X039184Y009088D01*
X039656Y009088D02*
X039656Y008852D01*
X040184Y008852D02*
X040184Y009088D01*
X040656Y009088D02*
X040656Y008852D01*
X034855Y013500D02*
X034758Y013500D01*
X034710Y013548D01*
X034710Y013645D01*
X034758Y013693D01*
X034855Y013693D01*
X034903Y013645D01*
X034903Y013597D01*
X034710Y013597D01*
X034586Y013693D02*
X034538Y013693D01*
X034441Y013597D01*
X034441Y013693D02*
X034441Y013500D01*
X034313Y013500D02*
X034167Y013500D01*
X034119Y013548D01*
X034167Y013597D01*
X034313Y013597D01*
X034313Y013645D02*
X034313Y013500D01*
X034313Y013645D02*
X034264Y013693D01*
X034167Y013693D01*
X033990Y013693D02*
X033990Y013548D01*
X033942Y013500D01*
X033894Y013548D01*
X033845Y013500D01*
X033797Y013548D01*
X033797Y013693D01*
X033668Y013693D02*
X033523Y013693D01*
X033474Y013645D01*
X033474Y013548D01*
X033523Y013500D01*
X033668Y013500D01*
X033668Y013790D01*
X033351Y013693D02*
X033303Y013693D01*
X033206Y013597D01*
X033206Y013693D02*
X033206Y013500D01*
X033077Y013500D02*
X032932Y013500D01*
X032884Y013548D01*
X032932Y013597D01*
X033077Y013597D01*
X033077Y013645D02*
X033077Y013500D01*
X033077Y013645D02*
X033029Y013693D01*
X032932Y013693D01*
X032755Y013645D02*
X032561Y013645D01*
X032561Y013500D02*
X032561Y013790D01*
X032755Y013790D02*
X032755Y013500D01*
X032110Y013500D02*
X032110Y013645D01*
X032062Y013693D01*
X031917Y013693D01*
X031917Y013500D01*
X031788Y013597D02*
X031595Y013597D01*
X031595Y013645D02*
X031643Y013693D01*
X031740Y013693D01*
X031788Y013645D01*
X031788Y013597D01*
X031740Y013500D02*
X031643Y013500D01*
X031595Y013548D01*
X031595Y013645D01*
X031466Y013645D02*
X031466Y013548D01*
X031417Y013500D01*
X031272Y013500D01*
X031272Y013403D02*
X031272Y013693D01*
X031417Y013693D01*
X031466Y013645D01*
X031143Y013548D02*
X031143Y013742D01*
X031095Y013790D01*
X030998Y013790D01*
X030950Y013742D01*
X030950Y013548D01*
X030998Y013500D01*
X031095Y013500D01*
X031143Y013548D01*
X026920Y015570D02*
X026795Y015570D01*
X026920Y015570D02*
X026920Y017870D01*
X026920Y017883D02*
X026795Y017883D01*
X026045Y017883D02*
X025795Y017883D01*
X025045Y017883D02*
X024795Y017883D01*
X024045Y017883D02*
X023795Y017883D01*
X023045Y017883D02*
X022795Y017883D01*
X022045Y017883D02*
X021795Y017883D01*
X021045Y017883D02*
X020795Y017883D01*
X020045Y017883D02*
X019795Y017883D01*
X019045Y017883D02*
X018920Y017883D01*
X018920Y017870D02*
X018920Y017120D01*
X018959Y017118D01*
X018998Y017112D01*
X019036Y017103D01*
X019073Y017090D01*
X019109Y017073D01*
X019142Y017053D01*
X019174Y017029D01*
X019203Y017003D01*
X019229Y016974D01*
X019253Y016942D01*
X019273Y016909D01*
X019290Y016873D01*
X019303Y016836D01*
X019312Y016798D01*
X019318Y016759D01*
X019320Y016720D01*
X019318Y016681D01*
X019312Y016642D01*
X019303Y016604D01*
X019290Y016567D01*
X019273Y016531D01*
X019253Y016498D01*
X019229Y016466D01*
X019203Y016437D01*
X019174Y016411D01*
X019142Y016387D01*
X019109Y016367D01*
X019073Y016350D01*
X019036Y016337D01*
X018998Y016328D01*
X018959Y016322D01*
X018920Y016320D01*
X018920Y015570D01*
X019045Y015570D01*
X019795Y015570D02*
X020045Y015570D01*
X020795Y015570D02*
X021045Y015570D01*
X021795Y015570D02*
X022045Y015570D01*
X022795Y015570D02*
X023045Y015570D01*
X023795Y015570D02*
X024045Y015570D01*
X024795Y015570D02*
X025045Y015570D01*
X025795Y015570D02*
X026045Y015570D01*
X024288Y012706D02*
X024052Y012706D01*
X024052Y012234D02*
X024288Y012234D01*
X017570Y018795D02*
X017570Y019895D01*
X017568Y019912D01*
X017564Y019929D01*
X017557Y019945D01*
X017547Y019959D01*
X017534Y019972D01*
X017520Y019982D01*
X017504Y019989D01*
X017487Y019993D01*
X017470Y019995D01*
X016870Y019995D01*
X016853Y019993D01*
X016836Y019989D01*
X016820Y019982D01*
X016806Y019972D01*
X016793Y019959D01*
X016783Y019945D01*
X016776Y019929D01*
X016772Y019912D01*
X016770Y019895D01*
X016770Y018795D01*
X016772Y018778D01*
X016776Y018761D01*
X016783Y018745D01*
X016793Y018731D01*
X016806Y018718D01*
X016820Y018708D01*
X016836Y018701D01*
X016853Y018697D01*
X016870Y018695D01*
X017470Y018695D01*
X017487Y018697D01*
X017504Y018701D01*
X017520Y018708D01*
X017534Y018718D01*
X017547Y018731D01*
X017557Y018745D01*
X017564Y018761D01*
X017568Y018778D01*
X017570Y018795D01*
X018989Y019234D02*
X019226Y019234D01*
X019226Y019706D02*
X018989Y019706D01*
X019170Y020970D02*
X018670Y020970D01*
X018420Y021220D01*
X018170Y020970D01*
X017670Y020970D01*
X017420Y021220D01*
X017170Y020970D01*
X016670Y020970D01*
X016420Y021220D01*
X016170Y020970D01*
X015670Y020970D01*
X015420Y021220D01*
X015170Y020970D01*
X014670Y020970D01*
X014420Y021220D01*
X014420Y021720D01*
X014670Y021970D01*
X015170Y021970D01*
X015420Y021720D01*
X015670Y021970D01*
X016170Y021970D01*
X016420Y021720D01*
X016420Y021220D01*
X016420Y021720D02*
X016670Y021970D01*
X017170Y021970D01*
X017420Y021720D01*
X017670Y021970D01*
X018170Y021970D01*
X018420Y021720D01*
X018670Y021970D01*
X019170Y021970D01*
X019420Y021720D01*
X019420Y021220D01*
X019170Y020970D01*
X019420Y021220D02*
X019670Y020970D01*
X020170Y020970D01*
X020420Y021220D01*
X020670Y020970D01*
X021170Y020970D01*
X021420Y021220D01*
X021670Y020970D01*
X022170Y020970D01*
X022420Y021220D01*
X022420Y021720D01*
X022170Y021970D01*
X021670Y021970D01*
X021420Y021720D01*
X021420Y021220D01*
X021420Y021720D02*
X021170Y021970D01*
X020670Y021970D01*
X020420Y021720D01*
X020420Y021220D01*
X020420Y021720D02*
X020170Y021970D01*
X019670Y021970D01*
X019420Y021720D01*
X018420Y021720D02*
X018420Y021220D01*
X017420Y021220D02*
X017420Y021720D01*
X015420Y021720D02*
X015420Y021220D01*
X015552Y018581D02*
X015788Y018581D01*
X015788Y018109D02*
X015552Y018109D01*
X015552Y017706D02*
X015788Y017706D01*
X015788Y017234D02*
X015552Y017234D01*
X022420Y021220D02*
X022670Y020970D01*
X023170Y020970D01*
X023420Y021220D01*
X023670Y020970D01*
X024170Y020970D01*
X024420Y021220D01*
X024420Y021720D01*
X024170Y021970D01*
X023670Y021970D01*
X023420Y021720D01*
X023420Y021220D01*
X023420Y021720D02*
X023170Y021970D01*
X022670Y021970D01*
X022420Y021720D01*
X022420Y021220D01*
X024420Y021220D02*
X024670Y020970D01*
X025170Y020970D01*
X025420Y021220D01*
X025670Y020970D01*
X026170Y020970D01*
X026420Y021220D01*
X026670Y020970D01*
X027170Y020970D01*
X027420Y021220D01*
X027420Y021720D01*
X027170Y021970D01*
X026670Y021970D01*
X026420Y021720D01*
X026420Y021220D01*
X026420Y021720D02*
X026170Y021970D01*
X025670Y021970D01*
X025420Y021720D01*
X025420Y021220D01*
X025420Y021720D02*
X025170Y021970D01*
X024670Y021970D01*
X024420Y021720D01*
X027420Y021720D02*
X027670Y021970D01*
X028170Y021970D01*
X028420Y021720D01*
X028670Y021970D01*
X029170Y021970D01*
X029420Y021720D01*
X029670Y021970D01*
X030170Y021970D01*
X030420Y021720D01*
X030420Y021220D01*
X030170Y020970D01*
X029670Y020970D01*
X029420Y021220D01*
X029170Y020970D01*
X028670Y020970D01*
X028420Y021220D01*
X028170Y020970D01*
X027670Y020970D01*
X027420Y021220D01*
X028420Y021220D02*
X028420Y021720D01*
X029420Y021720D02*
X029420Y021220D01*
X026170Y025970D02*
X025670Y025970D01*
X025420Y026220D01*
X025170Y025970D01*
X024670Y025970D01*
X024420Y026220D01*
X024170Y025970D01*
X023670Y025970D01*
X023420Y026220D01*
X023170Y025970D01*
X022670Y025970D01*
X022420Y026220D01*
X022170Y025970D01*
X021670Y025970D01*
X021420Y026220D01*
X021170Y025970D01*
X020670Y025970D01*
X020420Y026220D01*
X020420Y026720D01*
X020670Y026970D01*
X021170Y026970D01*
X021420Y026720D01*
X021670Y026970D01*
X022170Y026970D01*
X022420Y026720D01*
X022670Y026970D01*
X023170Y026970D01*
X023420Y026720D01*
X023670Y026970D01*
X024170Y026970D01*
X024420Y026720D01*
X024670Y026970D01*
X025170Y026970D01*
X025420Y026720D01*
X025670Y026970D01*
X026170Y026970D01*
X026420Y026720D01*
X026420Y026220D01*
X026170Y025970D01*
X019420Y026220D02*
X019170Y025970D01*
X018670Y025970D01*
X018420Y026220D01*
X018170Y025970D01*
X017670Y025970D01*
X017420Y026220D01*
X017170Y025970D01*
X016670Y025970D01*
X016420Y026220D01*
X016170Y025970D01*
X015670Y025970D01*
X015420Y026220D01*
X015170Y025970D01*
X014670Y025970D01*
X014420Y026220D01*
X014170Y025970D01*
X013670Y025970D01*
X013420Y026220D01*
X013420Y026720D01*
X013670Y026970D01*
X014170Y026970D01*
X014420Y026720D01*
X014670Y026970D01*
X015170Y026970D01*
X015420Y026720D01*
X015670Y026970D01*
X016170Y026970D01*
X016420Y026720D01*
X016670Y026970D01*
X017170Y026970D01*
X017420Y026720D01*
X017670Y026970D01*
X018170Y026970D01*
X018420Y026720D01*
X018670Y026970D01*
X019170Y026970D01*
X019420Y026720D01*
X019420Y026220D01*
D15*
X013420Y026220D02*
X013420Y026720D01*
X013170Y026970D01*
X012670Y026970D01*
X012420Y026970D01*
X012420Y026720D01*
X012670Y026970D01*
X012420Y026970D02*
X012170Y026970D01*
X011670Y026970D01*
X011420Y026720D01*
X011420Y026970D01*
X011170Y026970D01*
X010670Y026970D01*
X010420Y026720D01*
X010420Y026970D01*
X010170Y026970D01*
X009670Y026970D01*
X009420Y026720D01*
X009420Y026970D01*
X009170Y026970D01*
X008670Y026970D01*
X008420Y026720D01*
X008420Y026970D01*
X008170Y026970D01*
X007670Y026970D01*
X007420Y026720D01*
X007420Y026970D01*
X007170Y026970D01*
X006670Y026970D01*
X006420Y026720D01*
X006420Y026970D01*
X006170Y026970D01*
X005670Y026970D01*
X005420Y026720D01*
X005420Y026970D01*
X005170Y026970D01*
X004670Y026970D01*
X004420Y026720D01*
X004420Y026970D01*
X004170Y026970D01*
X003670Y026970D01*
X003420Y026720D01*
X003420Y026970D01*
X003170Y026970D01*
X003420Y026720D01*
X003420Y026970D02*
X003670Y026970D01*
X003170Y026970D02*
X002670Y026970D01*
X002420Y026720D01*
X002420Y026220D01*
X002670Y025970D01*
X003170Y025970D01*
X003420Y026220D01*
X003670Y025970D01*
X004170Y025970D01*
X004420Y026220D01*
X004420Y025970D01*
X004670Y025970D01*
X005170Y025970D01*
X005420Y026220D01*
X005420Y025970D01*
X005670Y025970D01*
X006170Y025970D01*
X006420Y026220D01*
X006420Y025970D01*
X006670Y025970D01*
X007170Y025970D01*
X007420Y025970D01*
X007420Y026220D01*
X007170Y025970D01*
X007420Y025970D02*
X007670Y025970D01*
X007420Y026220D01*
X007670Y025970D02*
X008170Y025970D01*
X008420Y026220D01*
X008420Y025970D01*
X008170Y025970D01*
X008420Y025970D02*
X008670Y025970D01*
X008420Y026220D01*
X008670Y025970D02*
X009170Y025970D01*
X009420Y025970D01*
X009420Y026220D01*
X009170Y025970D01*
X009420Y025970D02*
X009670Y025970D01*
X009420Y026220D01*
X009670Y025970D02*
X010170Y025970D01*
X010420Y026220D01*
X010420Y025970D01*
X010670Y025970D01*
X010420Y026220D01*
X010420Y025970D02*
X010170Y025970D01*
X010670Y025970D02*
X011170Y025970D01*
X011420Y025970D01*
X011420Y026220D01*
X011170Y025970D01*
X011420Y025970D02*
X011670Y025970D01*
X011420Y026220D01*
X011670Y025970D02*
X012170Y025970D01*
X012420Y026220D01*
X012420Y025970D01*
X012670Y025970D01*
X012420Y026220D01*
X012420Y025970D02*
X012170Y025970D01*
X012670Y025970D02*
X013170Y025970D01*
X013420Y026220D01*
X012420Y026720D02*
X012170Y026970D01*
X011670Y026970D02*
X011420Y026970D01*
X011170Y026970D02*
X011420Y026720D01*
X010670Y026970D02*
X010420Y026970D01*
X010170Y026970D02*
X010420Y026720D01*
X009670Y026970D02*
X009420Y026970D01*
X009170Y026970D02*
X009420Y026720D01*
X008670Y026970D02*
X008420Y026970D01*
X008170Y026970D02*
X008420Y026720D01*
X007670Y026970D02*
X007420Y026970D01*
X007170Y026970D02*
X007420Y026720D01*
X006670Y026970D02*
X006420Y026970D01*
X006170Y026970D02*
X006420Y026720D01*
X006420Y026220D02*
X006670Y025970D01*
X006420Y025970D02*
X006170Y025970D01*
X005670Y025970D02*
X005420Y026220D01*
X005420Y025970D02*
X005170Y025970D01*
X004670Y025970D02*
X004420Y026220D01*
X004420Y025970D02*
X004170Y025970D01*
X003670Y025970D02*
X003420Y025970D01*
X003420Y026220D01*
X003420Y025970D02*
X003170Y025970D01*
X004170Y026970D02*
X004420Y026720D01*
X004420Y026970D02*
X004670Y026970D01*
X005170Y026970D02*
X005420Y026720D01*
X005420Y026970D02*
X005670Y026970D01*
X005670Y020970D02*
X005420Y020970D01*
X005420Y020720D01*
X005670Y020970D01*
X006170Y020970D01*
X006420Y020720D01*
X006670Y020970D01*
X007170Y020970D01*
X007420Y020720D01*
X007420Y020970D01*
X007670Y020970D01*
X008170Y020970D01*
X008670Y020970D01*
X008420Y020720D01*
X008170Y020970D01*
X007670Y020970D02*
X007420Y020720D01*
X007420Y020970D02*
X007170Y020970D01*
X006670Y020970D02*
X006420Y020970D01*
X006420Y020720D01*
X006420Y020970D02*
X006170Y020970D01*
X005420Y020970D02*
X005170Y020970D01*
X005420Y020720D01*
X005170Y020970D02*
X004670Y020970D01*
X004420Y020720D01*
X004420Y020970D01*
X004670Y020970D01*
X004420Y020970D02*
X004170Y020970D01*
X004420Y020720D01*
X004170Y020970D02*
X003670Y020970D01*
X003420Y020970D01*
X003420Y020720D01*
X003670Y020970D01*
X003420Y020970D02*
X003170Y020970D01*
X003420Y020720D01*
X003170Y020970D02*
X002670Y020970D01*
X002420Y020720D01*
X002420Y020220D01*
X002670Y019970D01*
X003170Y019970D01*
X003420Y020220D01*
X003670Y019970D01*
X003420Y019970D01*
X003420Y020220D01*
X003420Y019970D02*
X003170Y019970D01*
X003670Y019970D02*
X004170Y019970D01*
X004420Y020220D01*
X004670Y019970D01*
X005170Y019970D01*
X005420Y019970D01*
X005670Y019970D01*
X005420Y020220D01*
X005170Y019970D01*
X005420Y019970D02*
X005420Y020220D01*
X005670Y019970D02*
X006170Y019970D01*
X006420Y020220D01*
X006420Y019970D01*
X006670Y019970D01*
X006420Y020220D01*
X006420Y019970D02*
X006170Y019970D01*
X006670Y019970D02*
X007170Y019970D01*
X007420Y019970D01*
X007420Y020220D01*
X007170Y019970D01*
X007420Y019970D02*
X007670Y019970D01*
X007420Y020220D01*
X007670Y019970D02*
X008170Y019970D01*
X008420Y020220D01*
X008670Y019970D01*
X009170Y019970D01*
X009420Y020220D01*
X009670Y019970D01*
X010170Y019970D01*
X010420Y019970D01*
X010670Y019970D01*
X010420Y020220D01*
X010420Y019970D01*
X010420Y020220D02*
X010170Y019970D01*
X009670Y019970D02*
X009420Y019970D01*
X009170Y019970D01*
X009420Y019970D02*
X009420Y020220D01*
X009420Y020720D02*
X009420Y020970D01*
X009170Y020970D01*
X009420Y020720D01*
X009670Y020970D01*
X010170Y020970D01*
X010420Y020720D01*
X010420Y020970D01*
X010670Y020970D01*
X011170Y020970D01*
X011420Y020720D01*
X011670Y020970D01*
X012170Y020970D01*
X012420Y020970D01*
X012420Y020720D01*
X012670Y020970D01*
X013170Y020970D01*
X013420Y020720D01*
X013420Y020220D01*
X013170Y019970D01*
X012670Y019970D01*
X012420Y019970D01*
X012420Y020220D01*
X012670Y019970D01*
X012420Y019970D02*
X012170Y019970D01*
X012420Y020220D01*
X012170Y019970D02*
X011670Y019970D01*
X011420Y019970D01*
X011170Y019970D01*
X010670Y019970D01*
X011170Y019970D02*
X011420Y020220D01*
X011670Y019970D01*
X011420Y019970D02*
X011420Y020220D01*
X011420Y020720D02*
X011420Y020970D01*
X011670Y020970D01*
X011420Y020970D02*
X011170Y020970D01*
X010670Y020970D02*
X010420Y020720D01*
X010420Y020970D02*
X010170Y020970D01*
X009670Y020970D02*
X009420Y020970D01*
X009170Y020970D02*
X008670Y020970D01*
X008420Y020220D02*
X008420Y019970D01*
X008170Y019970D01*
X008420Y019970D02*
X008670Y019970D01*
X012170Y020970D02*
X012420Y020720D01*
X012420Y020970D02*
X012670Y020970D01*
X018023Y016838D02*
X018023Y016685D01*
X004670Y019970D02*
X004420Y019970D01*
X004420Y020220D01*
X004420Y019970D02*
X004170Y019970D01*
D16*
X018101Y018295D02*
X018101Y016645D01*
X028420Y013230D02*
X028420Y012970D01*
X028720Y012920D01*
X028820Y012650D02*
X028660Y012410D01*
X028840Y012220D01*
X029080Y012390D01*
X029180Y012330D01*
X029380Y012780D01*
X029700Y012780D02*
X029890Y012330D01*
X029990Y012390D01*
X030230Y012220D01*
X030420Y012410D01*
X030250Y012650D01*
X030350Y012920D02*
X030650Y012970D01*
X030650Y013230D01*
X030350Y013290D01*
X030240Y013540D02*
X030420Y013800D01*
X030230Y013980D01*
X029970Y013800D01*
X029720Y013900D02*
X029670Y014220D01*
X029400Y014220D01*
X029350Y013900D01*
X029100Y013800D02*
X028840Y013980D01*
X028650Y013800D01*
X028830Y013540D01*
X028720Y013290D02*
X028420Y013230D01*
X029103Y013803D02*
X029148Y013828D01*
X029195Y013851D01*
X029243Y013870D01*
X029292Y013887D01*
X029342Y013900D01*
X029380Y012790D02*
X029347Y012808D01*
X029317Y012829D01*
X029288Y012853D01*
X029262Y012880D01*
X029240Y012909D01*
X029220Y012941D01*
X029203Y012974D01*
X029190Y013009D01*
X029181Y013045D01*
X029175Y013082D01*
X029173Y013119D01*
X029175Y013156D01*
X029180Y013193D01*
X029190Y013229D01*
X029202Y013264D01*
X029219Y013298D01*
X029238Y013329D01*
X029261Y013359D01*
X029287Y013386D01*
X029315Y013410D01*
X029346Y013431D01*
X029378Y013449D01*
X029412Y013464D01*
X029448Y013475D01*
X029484Y013483D01*
X029521Y013487D01*
X029559Y013487D01*
X029596Y013483D01*
X029632Y013475D01*
X029668Y013464D01*
X029702Y013449D01*
X029734Y013431D01*
X029765Y013410D01*
X029793Y013386D01*
X029819Y013359D01*
X029842Y013329D01*
X029861Y013298D01*
X029878Y013264D01*
X029890Y013229D01*
X029900Y013193D01*
X029905Y013156D01*
X029907Y013119D01*
X029905Y013082D01*
X029899Y013045D01*
X029890Y013009D01*
X029877Y012974D01*
X029860Y012941D01*
X029840Y012909D01*
X029818Y012880D01*
X029792Y012853D01*
X029763Y012829D01*
X029733Y012808D01*
X029700Y012790D01*
X030250Y012650D02*
X030273Y012691D01*
X030294Y012734D01*
X030312Y012779D01*
X030327Y012824D01*
X030340Y012870D01*
X030350Y012917D01*
X030349Y013290D02*
X030334Y013342D01*
X030315Y013393D01*
X030293Y013443D01*
X030268Y013491D01*
X030239Y013538D01*
X029974Y013801D02*
X029927Y013828D01*
X029878Y013851D01*
X029828Y013871D01*
X029777Y013888D01*
X029725Y013902D01*
X028831Y013535D02*
X028804Y013488D01*
X028780Y013441D01*
X028759Y013392D01*
X028741Y013341D01*
X028727Y013290D01*
X028721Y012919D02*
X028734Y012863D01*
X028751Y012808D01*
X028772Y012755D01*
X028796Y012703D01*
X028824Y012653D01*
D17*
X018118Y018325D02*
X018075Y018270D01*
X018026Y018306D01*
X017975Y018340D01*
X017921Y018369D01*
X017866Y018396D01*
X017810Y018420D01*
X017752Y018439D01*
X017693Y018456D01*
X017633Y018469D01*
X017573Y018478D01*
X017512Y018483D01*
X017450Y018485D01*
X017389Y018483D01*
X017328Y018478D01*
X017268Y018468D01*
X017208Y018455D01*
X017149Y018439D01*
X017091Y018419D01*
X017035Y018396D01*
X016980Y018369D01*
X016926Y018339D01*
X016875Y018306D01*
X016826Y018270D01*
X016779Y018230D01*
X016734Y018189D01*
X016692Y018144D01*
X016653Y018097D01*
X016617Y018048D01*
X016583Y017997D01*
X016553Y017943D01*
X016526Y017888D01*
X016503Y017832D01*
X016483Y017774D01*
X016416Y017794D01*
X016416Y017795D01*
X016437Y017856D01*
X016462Y017917D01*
X016491Y017976D01*
X016523Y018033D01*
X016559Y018087D01*
X016598Y018140D01*
X016640Y018190D01*
X016685Y018238D01*
X016732Y018283D01*
X016782Y018325D01*
X016835Y018363D01*
X016890Y018399D01*
X016947Y018431D01*
X017006Y018460D01*
X017066Y018485D01*
X017128Y018506D01*
X017191Y018523D01*
X017255Y018537D01*
X017320Y018547D01*
X017385Y018553D01*
X017451Y018555D01*
X017516Y018553D01*
X017581Y018547D01*
X017646Y018537D01*
X017710Y018524D01*
X017773Y018506D01*
X017835Y018485D01*
X017895Y018460D01*
X017954Y018431D01*
X018011Y018399D01*
X018066Y018364D01*
X018119Y018325D01*
X018113Y018318D01*
X018061Y018356D01*
X018006Y018392D01*
X017950Y018423D01*
X017891Y018452D01*
X017831Y018477D01*
X017770Y018498D01*
X017708Y018515D01*
X017644Y018529D01*
X017580Y018538D01*
X017515Y018544D01*
X017450Y018546D01*
X017386Y018544D01*
X017321Y018538D01*
X017257Y018528D01*
X017193Y018515D01*
X017131Y018497D01*
X017070Y018476D01*
X017010Y018451D01*
X016951Y018423D01*
X016895Y018391D01*
X016840Y018356D01*
X016788Y018318D01*
X016738Y018276D01*
X016691Y018232D01*
X016646Y018184D01*
X016605Y018135D01*
X016566Y018082D01*
X016531Y018028D01*
X016499Y017971D01*
X016471Y017913D01*
X016446Y017853D01*
X016424Y017792D01*
X016433Y017789D01*
X016454Y017850D01*
X016479Y017910D01*
X016507Y017967D01*
X016539Y018023D01*
X016574Y018077D01*
X016612Y018129D01*
X016653Y018178D01*
X016697Y018225D01*
X016744Y018269D01*
X016794Y018310D01*
X016845Y018349D01*
X016899Y018383D01*
X016956Y018415D01*
X017013Y018443D01*
X017073Y018468D01*
X017134Y018489D01*
X017196Y018506D01*
X017259Y018519D01*
X017322Y018529D01*
X017386Y018535D01*
X017450Y018537D01*
X017515Y018535D01*
X017579Y018529D01*
X017642Y018520D01*
X017705Y018506D01*
X017767Y018489D01*
X017828Y018468D01*
X017888Y018444D01*
X017946Y018415D01*
X018002Y018384D01*
X018056Y018349D01*
X018108Y018311D01*
X018102Y018304D01*
X018051Y018342D01*
X017997Y018376D01*
X017941Y018408D01*
X017884Y018435D01*
X017825Y018460D01*
X017765Y018480D01*
X017703Y018497D01*
X017641Y018511D01*
X017578Y018520D01*
X017514Y018526D01*
X017450Y018528D01*
X017387Y018526D01*
X017323Y018520D01*
X017260Y018511D01*
X017198Y018497D01*
X017136Y018480D01*
X017076Y018459D01*
X017017Y018435D01*
X016960Y018407D01*
X016904Y018376D01*
X016851Y018341D01*
X016799Y018303D01*
X016750Y018263D01*
X016704Y018219D01*
X016660Y018172D01*
X016619Y018124D01*
X016581Y018072D01*
X016546Y018019D01*
X016515Y017963D01*
X016487Y017906D01*
X016462Y017847D01*
X016442Y017787D01*
X016450Y017784D01*
X016471Y017844D01*
X016495Y017902D01*
X016523Y017959D01*
X016554Y018014D01*
X016589Y018067D01*
X016626Y018118D01*
X016667Y018167D01*
X016710Y018213D01*
X016756Y018256D01*
X016805Y018296D01*
X016856Y018334D01*
X016909Y018368D01*
X016964Y018399D01*
X017021Y018427D01*
X017079Y018451D01*
X017139Y018472D01*
X017200Y018489D01*
X017262Y018502D01*
X017324Y018511D01*
X017387Y018517D01*
X017450Y018519D01*
X017514Y018517D01*
X017577Y018511D01*
X017639Y018502D01*
X017701Y018489D01*
X017762Y018472D01*
X017822Y018451D01*
X017880Y018427D01*
X017937Y018400D01*
X017992Y018369D01*
X018045Y018334D01*
X018096Y018297D01*
X018091Y018290D01*
X018040Y018327D01*
X017988Y018361D01*
X017933Y018392D01*
X017877Y018419D01*
X017819Y018443D01*
X017759Y018463D01*
X017699Y018480D01*
X017638Y018493D01*
X017576Y018503D01*
X017513Y018508D01*
X017450Y018510D01*
X017388Y018508D01*
X017325Y018502D01*
X017263Y018493D01*
X017202Y018480D01*
X017142Y018463D01*
X017082Y018442D01*
X017024Y018419D01*
X016968Y018391D01*
X016913Y018360D01*
X016861Y018326D01*
X016810Y018289D01*
X016762Y018249D01*
X016716Y018206D01*
X016673Y018161D01*
X016633Y018112D01*
X016596Y018062D01*
X016562Y018009D01*
X016531Y017955D01*
X016503Y017899D01*
X016479Y017841D01*
X016459Y017781D01*
X016467Y017779D01*
X016488Y017837D01*
X016512Y017895D01*
X016539Y017951D01*
X016570Y018005D01*
X016603Y018057D01*
X016640Y018107D01*
X016680Y018155D01*
X016723Y018200D01*
X016768Y018242D01*
X016816Y018282D01*
X016866Y018319D01*
X016918Y018353D01*
X016972Y018383D01*
X017028Y018410D01*
X017086Y018434D01*
X017144Y018454D01*
X017204Y018471D01*
X017265Y018484D01*
X017326Y018493D01*
X017388Y018499D01*
X017450Y018501D01*
X017513Y018499D01*
X017574Y018494D01*
X017636Y018484D01*
X017697Y018471D01*
X017757Y018455D01*
X017815Y018434D01*
X017873Y018411D01*
X017929Y018384D01*
X017983Y018353D01*
X018035Y018320D01*
X018085Y018283D01*
X018080Y018276D01*
X018030Y018312D01*
X017978Y018345D01*
X017925Y018376D01*
X017869Y018403D01*
X017812Y018426D01*
X017754Y018446D01*
X017695Y018463D01*
X017634Y018475D01*
X017573Y018485D01*
X017512Y018490D01*
X017450Y018492D01*
X017389Y018490D01*
X017328Y018485D01*
X017267Y018475D01*
X017206Y018462D01*
X017147Y018446D01*
X017089Y018426D01*
X017032Y018402D01*
X016976Y018375D01*
X016923Y018345D01*
X016871Y018312D01*
X016821Y018275D01*
X016774Y018236D01*
X016729Y018193D01*
X016687Y018149D01*
X016647Y018101D01*
X016611Y018052D01*
X016577Y018000D01*
X016547Y017946D01*
X016520Y017891D01*
X016496Y017834D01*
X016476Y017776D01*
X016602Y016795D02*
X016657Y016838D01*
X016696Y016791D01*
X016738Y016747D01*
X016783Y016706D01*
X016830Y016667D01*
X016879Y016631D01*
X016931Y016598D01*
X016984Y016569D01*
X017039Y016542D01*
X017095Y016519D01*
X017153Y016500D01*
X017212Y016484D01*
X017271Y016471D01*
X017332Y016462D01*
X017392Y016457D01*
X017453Y016455D01*
X017514Y016457D01*
X017575Y016463D01*
X017635Y016472D01*
X017695Y016485D01*
X017753Y016501D01*
X017811Y016521D01*
X017867Y016544D01*
X017922Y016571D01*
X017975Y016601D01*
X018026Y016634D01*
X018075Y016670D01*
X018118Y016615D01*
X018119Y016615D01*
X018066Y016576D01*
X018011Y016541D01*
X017955Y016509D01*
X017896Y016480D01*
X017836Y016456D01*
X017774Y016434D01*
X017712Y016417D01*
X017648Y016403D01*
X017583Y016393D01*
X017519Y016387D01*
X017453Y016385D01*
X017388Y016387D01*
X017323Y016393D01*
X017259Y016402D01*
X017195Y016416D01*
X017132Y016433D01*
X017071Y016454D01*
X017010Y016478D01*
X016952Y016507D01*
X016895Y016538D01*
X016840Y016574D01*
X016787Y016612D01*
X016737Y016653D01*
X016689Y016698D01*
X016644Y016745D01*
X016602Y016794D01*
X016609Y016800D01*
X016651Y016751D01*
X016695Y016704D01*
X016743Y016660D01*
X016793Y016619D01*
X016845Y016581D01*
X016899Y016546D01*
X016956Y016515D01*
X017014Y016487D01*
X017074Y016462D01*
X017135Y016441D01*
X017197Y016424D01*
X017261Y016411D01*
X017324Y016401D01*
X017389Y016396D01*
X017453Y016394D01*
X017518Y016396D01*
X017582Y016402D01*
X017646Y016412D01*
X017709Y016425D01*
X017772Y016443D01*
X017833Y016464D01*
X017892Y016489D01*
X017950Y016517D01*
X018007Y016549D01*
X018061Y016584D01*
X018113Y016622D01*
X018108Y016629D01*
X018056Y016591D01*
X018002Y016556D01*
X017946Y016525D01*
X017889Y016497D01*
X017829Y016472D01*
X017769Y016451D01*
X017707Y016434D01*
X017645Y016421D01*
X017581Y016411D01*
X017517Y016405D01*
X017453Y016403D01*
X017389Y016405D01*
X017326Y016410D01*
X017262Y016420D01*
X017199Y016433D01*
X017138Y016450D01*
X017077Y016471D01*
X017018Y016495D01*
X016960Y016523D01*
X016904Y016554D01*
X016850Y016588D01*
X016798Y016626D01*
X016749Y016667D01*
X016702Y016710D01*
X016658Y016757D01*
X016616Y016806D01*
X016623Y016811D01*
X016664Y016763D01*
X016708Y016717D01*
X016755Y016673D01*
X016804Y016633D01*
X016855Y016596D01*
X016909Y016562D01*
X016964Y016531D01*
X017021Y016503D01*
X017080Y016479D01*
X017140Y016459D01*
X017202Y016442D01*
X017264Y016429D01*
X017327Y016419D01*
X017390Y016414D01*
X017453Y016412D01*
X017517Y016414D01*
X017580Y016420D01*
X017643Y016430D01*
X017705Y016443D01*
X017766Y016460D01*
X017826Y016481D01*
X017885Y016505D01*
X017942Y016533D01*
X017997Y016564D01*
X018051Y016598D01*
X018102Y016636D01*
X018096Y016643D01*
X018046Y016606D01*
X017993Y016572D01*
X017938Y016541D01*
X017881Y016513D01*
X017823Y016489D01*
X017763Y016469D01*
X017703Y016452D01*
X017641Y016438D01*
X017579Y016429D01*
X017516Y016423D01*
X017453Y016421D01*
X017390Y016423D01*
X017328Y016428D01*
X017265Y016438D01*
X017204Y016451D01*
X017143Y016467D01*
X017083Y016488D01*
X017025Y016511D01*
X016968Y016539D01*
X016913Y016569D01*
X016860Y016603D01*
X016809Y016640D01*
X016761Y016680D01*
X016714Y016723D01*
X016671Y016769D01*
X016630Y016817D01*
X016637Y016822D01*
X016678Y016775D01*
X016721Y016729D01*
X016767Y016687D01*
X016815Y016647D01*
X016865Y016611D01*
X016918Y016577D01*
X016972Y016547D01*
X017029Y016520D01*
X017087Y016496D01*
X017146Y016476D01*
X017206Y016459D01*
X017267Y016446D01*
X017329Y016437D01*
X017391Y016432D01*
X017453Y016430D01*
X017516Y016432D01*
X017578Y016438D01*
X017640Y016447D01*
X017701Y016460D01*
X017761Y016477D01*
X017820Y016498D01*
X017877Y016521D01*
X017934Y016549D01*
X017988Y016579D01*
X018041Y016613D01*
X018091Y016650D01*
X018085Y016657D01*
X018035Y016621D01*
X017983Y016587D01*
X017929Y016557D01*
X017874Y016530D01*
X017817Y016506D01*
X017758Y016486D01*
X017698Y016469D01*
X017638Y016456D01*
X017577Y016447D01*
X017515Y016441D01*
X017453Y016439D01*
X017391Y016441D01*
X017330Y016446D01*
X017269Y016455D01*
X017208Y016468D01*
X017148Y016484D01*
X017090Y016504D01*
X017032Y016528D01*
X016977Y016555D01*
X016923Y016585D01*
X016870Y016618D01*
X016820Y016654D01*
X016772Y016694D01*
X016727Y016736D01*
X016684Y016781D01*
X016644Y016828D01*
X016651Y016833D01*
X016691Y016787D01*
X016733Y016742D01*
X016778Y016700D01*
X016826Y016662D01*
X016875Y016625D01*
X016927Y016592D01*
X016981Y016563D01*
X017036Y016536D01*
X017093Y016513D01*
X017151Y016493D01*
X017210Y016477D01*
X017270Y016464D01*
X017331Y016455D01*
X017392Y016450D01*
X017453Y016448D01*
X017515Y016450D01*
X017576Y016456D01*
X017636Y016465D01*
X017696Y016478D01*
X017755Y016494D01*
X017813Y016514D01*
X017870Y016538D01*
X017925Y016565D01*
X017979Y016595D01*
X018030Y016628D01*
X018080Y016664D01*
X016416Y017146D02*
X016483Y017166D01*
X016502Y017109D01*
X016526Y017053D01*
X016552Y016998D01*
X016582Y016945D01*
X016615Y016895D01*
X016651Y016846D01*
X016596Y016803D01*
X016596Y016802D01*
X016557Y016855D01*
X016522Y016909D01*
X016490Y016966D01*
X016462Y017024D01*
X016437Y017084D01*
X016416Y017145D01*
X016424Y017148D01*
X016445Y017087D01*
X016470Y017028D01*
X016498Y016970D01*
X016530Y016914D01*
X016565Y016860D01*
X016603Y016808D01*
X016610Y016813D01*
X016572Y016865D01*
X016538Y016918D01*
X016506Y016974D01*
X016478Y017031D01*
X016454Y017090D01*
X016433Y017151D01*
X016442Y017153D01*
X016462Y017094D01*
X016487Y017035D01*
X016514Y016978D01*
X016545Y016923D01*
X016580Y016870D01*
X016617Y016819D01*
X016624Y016825D01*
X016587Y016875D01*
X016553Y016928D01*
X016522Y016982D01*
X016495Y017039D01*
X016471Y017097D01*
X016450Y017156D01*
X016459Y017159D01*
X016479Y017100D01*
X016503Y017043D01*
X016530Y016987D01*
X016561Y016932D01*
X016594Y016880D01*
X016631Y016830D01*
X016638Y016836D01*
X016602Y016885D01*
X016568Y016937D01*
X016538Y016991D01*
X016511Y017046D01*
X016488Y017103D01*
X016467Y017161D01*
X016476Y017164D01*
X016496Y017106D01*
X016519Y017050D01*
X016546Y016995D01*
X016576Y016942D01*
X016609Y016891D01*
X016645Y016841D01*
X017127Y018505D02*
X017147Y018438D01*
X017089Y018418D01*
X017033Y018395D01*
X016978Y018368D01*
X016925Y018338D01*
X016873Y018304D01*
X016824Y018268D01*
X016777Y018229D01*
X016733Y018187D01*
X016691Y018142D01*
X016651Y018095D01*
X016615Y018046D01*
X016582Y017995D01*
X016552Y017941D01*
X016525Y017886D01*
X016502Y017830D01*
X016482Y017772D01*
X016466Y017713D01*
X016453Y017653D01*
X016443Y017593D01*
X016438Y017532D01*
X016436Y017471D01*
X016438Y017409D01*
X016443Y017348D01*
X016452Y017288D01*
X016465Y017228D01*
X016482Y017169D01*
X016501Y017111D01*
X016525Y017055D01*
X016552Y017000D01*
X016581Y016946D01*
X016615Y016895D01*
X016651Y016846D01*
X016596Y016803D01*
X016596Y016802D01*
X016557Y016855D01*
X016522Y016910D01*
X016490Y016967D01*
X016461Y017026D01*
X016436Y017086D01*
X016415Y017148D01*
X016397Y017211D01*
X016384Y017275D01*
X016374Y017340D01*
X016368Y017405D01*
X016366Y017471D01*
X016368Y017536D01*
X016374Y017601D01*
X016384Y017666D01*
X016398Y017730D01*
X016415Y017793D01*
X016436Y017855D01*
X016461Y017915D01*
X016490Y017974D01*
X016522Y018031D01*
X016558Y018086D01*
X016596Y018139D01*
X016638Y018189D01*
X016683Y018236D01*
X016731Y018281D01*
X016781Y018323D01*
X016834Y018362D01*
X016888Y018398D01*
X016945Y018430D01*
X017004Y018459D01*
X017065Y018484D01*
X017126Y018505D01*
X017129Y018497D01*
X017068Y018475D01*
X017008Y018450D01*
X016950Y018422D01*
X016893Y018390D01*
X016839Y018355D01*
X016786Y018316D01*
X016737Y018275D01*
X016689Y018230D01*
X016645Y018183D01*
X016604Y018133D01*
X016565Y018081D01*
X016530Y018026D01*
X016498Y017970D01*
X016470Y017911D01*
X016445Y017851D01*
X016424Y017790D01*
X016406Y017728D01*
X016393Y017664D01*
X016383Y017600D01*
X016377Y017535D01*
X016375Y017471D01*
X016377Y017406D01*
X016383Y017341D01*
X016392Y017277D01*
X016406Y017213D01*
X016423Y017151D01*
X016444Y017090D01*
X016469Y017030D01*
X016498Y016971D01*
X016529Y016915D01*
X016564Y016860D01*
X016603Y016808D01*
X016610Y016813D01*
X016572Y016865D01*
X016537Y016919D01*
X016506Y016975D01*
X016477Y017033D01*
X016453Y017093D01*
X016432Y017154D01*
X016415Y017216D01*
X016401Y017279D01*
X016392Y017342D01*
X016386Y017406D01*
X016384Y017471D01*
X016386Y017535D01*
X016392Y017599D01*
X016402Y017662D01*
X016415Y017725D01*
X016432Y017787D01*
X016453Y017848D01*
X016478Y017908D01*
X016506Y017965D01*
X016538Y018022D01*
X016572Y018076D01*
X016611Y018127D01*
X016652Y018177D01*
X016696Y018224D01*
X016743Y018268D01*
X016792Y018309D01*
X016844Y018347D01*
X016898Y018382D01*
X016954Y018414D01*
X017011Y018442D01*
X017071Y018467D01*
X017132Y018488D01*
X017134Y018479D01*
X017074Y018459D01*
X017015Y018434D01*
X016958Y018406D01*
X016902Y018375D01*
X016849Y018340D01*
X016797Y018302D01*
X016749Y018261D01*
X016702Y018217D01*
X016658Y018171D01*
X016618Y018122D01*
X016580Y018070D01*
X016545Y018017D01*
X016514Y017961D01*
X016486Y017904D01*
X016462Y017845D01*
X016441Y017785D01*
X016424Y017723D01*
X016410Y017661D01*
X016401Y017598D01*
X016395Y017534D01*
X016393Y017471D01*
X016395Y017407D01*
X016401Y017343D01*
X016410Y017280D01*
X016423Y017218D01*
X016441Y017156D01*
X016461Y017096D01*
X016486Y017037D01*
X016513Y016980D01*
X016545Y016924D01*
X016579Y016870D01*
X016617Y016819D01*
X016624Y016825D01*
X016587Y016876D01*
X016552Y016929D01*
X016521Y016984D01*
X016494Y017041D01*
X016470Y017099D01*
X016449Y017159D01*
X016432Y017220D01*
X016419Y017282D01*
X016410Y017344D01*
X016404Y017407D01*
X016402Y017471D01*
X016404Y017534D01*
X016410Y017597D01*
X016419Y017659D01*
X016432Y017721D01*
X016449Y017782D01*
X016470Y017842D01*
X016494Y017900D01*
X016522Y017957D01*
X016553Y018012D01*
X016587Y018065D01*
X016625Y018116D01*
X016665Y018165D01*
X016708Y018211D01*
X016754Y018254D01*
X016803Y018295D01*
X016854Y018332D01*
X016907Y018367D01*
X016962Y018398D01*
X017019Y018426D01*
X017077Y018450D01*
X017137Y018471D01*
X017140Y018462D01*
X017080Y018442D01*
X017023Y018418D01*
X016966Y018390D01*
X016912Y018359D01*
X016859Y018325D01*
X016809Y018288D01*
X016760Y018248D01*
X016715Y018205D01*
X016672Y018159D01*
X016632Y018111D01*
X016595Y018060D01*
X016561Y018008D01*
X016530Y017953D01*
X016502Y017897D01*
X016479Y017839D01*
X016458Y017779D01*
X016441Y017719D01*
X016428Y017658D01*
X016419Y017596D01*
X016413Y017533D01*
X016411Y017471D01*
X016413Y017408D01*
X016418Y017345D01*
X016428Y017283D01*
X016441Y017222D01*
X016458Y017162D01*
X016478Y017102D01*
X016502Y017044D01*
X016529Y016988D01*
X016560Y016933D01*
X016594Y016881D01*
X016631Y016830D01*
X016638Y016836D01*
X016601Y016886D01*
X016568Y016938D01*
X016537Y016992D01*
X016510Y017048D01*
X016487Y017106D01*
X016466Y017164D01*
X016450Y017224D01*
X016437Y017285D01*
X016427Y017347D01*
X016422Y017408D01*
X016420Y017471D01*
X016422Y017533D01*
X016428Y017595D01*
X016437Y017656D01*
X016450Y017717D01*
X016467Y017777D01*
X016487Y017835D01*
X016511Y017893D01*
X016538Y017949D01*
X016568Y018003D01*
X016602Y018055D01*
X016639Y018105D01*
X016679Y018153D01*
X016721Y018198D01*
X016766Y018241D01*
X016814Y018281D01*
X016864Y018318D01*
X016916Y018351D01*
X016970Y018382D01*
X017026Y018409D01*
X017084Y018433D01*
X017142Y018454D01*
X017145Y018445D01*
X017087Y018425D01*
X017030Y018401D01*
X016975Y018374D01*
X016921Y018344D01*
X016869Y018310D01*
X016820Y018274D01*
X016772Y018234D01*
X016728Y018192D01*
X016685Y018147D01*
X016646Y018100D01*
X016610Y018050D01*
X016576Y017998D01*
X016546Y017945D01*
X016519Y017889D01*
X016495Y017832D01*
X016475Y017774D01*
X016459Y017715D01*
X016446Y017654D01*
X016436Y017594D01*
X016431Y017532D01*
X016429Y017471D01*
X016431Y017409D01*
X016436Y017348D01*
X016446Y017287D01*
X016458Y017226D01*
X016475Y017167D01*
X016495Y017109D01*
X016518Y017052D01*
X016545Y016996D01*
X016575Y016943D01*
X016609Y016891D01*
X016645Y016841D01*
D18*
X002570Y006920D02*
X002570Y003460D01*
X005200Y002790D02*
X005200Y005210D01*
X005220Y006400D02*
X005220Y006940D01*
X004170Y006940D01*
X003050Y006920D02*
X002570Y006920D01*
X007570Y006920D02*
X007570Y003460D01*
X010200Y002790D02*
X010200Y005210D01*
X010220Y006400D02*
X010220Y006940D01*
X009170Y006940D01*
X008050Y006920D02*
X007570Y006920D01*
X012570Y006920D02*
X012570Y003460D01*
X015200Y002790D02*
X015200Y005210D01*
X015220Y006400D02*
X015220Y006940D01*
X014170Y006940D01*
X013050Y006920D02*
X012570Y006920D01*
X017570Y006920D02*
X017570Y003460D01*
X020200Y002790D02*
X020200Y005210D01*
X020220Y006400D02*
X020220Y006940D01*
X019170Y006940D01*
X018050Y006920D02*
X017570Y006920D01*
X022570Y006920D02*
X022570Y003460D01*
X025200Y002790D02*
X025200Y005210D01*
X025220Y006400D02*
X025220Y006940D01*
X024170Y006940D01*
X023050Y006920D02*
X022570Y006920D01*
X027570Y006920D02*
X027570Y003460D01*
X030200Y002790D02*
X030200Y005210D01*
X030220Y006400D02*
X030220Y006940D01*
X029170Y006940D01*
X028050Y006920D02*
X027570Y006920D01*
X032570Y006920D02*
X032570Y003460D01*
X035200Y002790D02*
X035200Y005210D01*
X035220Y006400D02*
X035220Y006940D01*
X034170Y006940D01*
X033050Y006920D02*
X032570Y006920D01*
X037570Y006920D02*
X037570Y003460D01*
X040200Y002790D02*
X040200Y005210D01*
X040220Y006400D02*
X040220Y006940D01*
X039170Y006940D01*
X038050Y006920D02*
X037570Y006920D01*
M02*
