G75*
G70*
%OFA0B0*%
%FSLAX24Y24*%
%IPPOS*%
%LPD*%
%AMOC8*
5,1,8,0,0,1.08239X$1,22.5*
%
%ADD10R,0.0472X0.0315*%
%ADD11R,0.0630X0.0460*%
%ADD12R,0.0315X0.0472*%
%ADD13R,0.0984X0.0787*%
%ADD14R,0.0787X0.0984*%
%ADD15R,0.0984X0.0472*%
D10*
X001420Y008616D03*
X001420Y009324D03*
X002420Y009324D03*
X002420Y008616D03*
X003420Y008616D03*
X003420Y009324D03*
X004420Y009324D03*
X004420Y008616D03*
X005420Y008616D03*
X005420Y009324D03*
X006420Y009324D03*
X006420Y008616D03*
X007420Y008616D03*
X007420Y009324D03*
X008420Y009324D03*
X008420Y008616D03*
X009420Y008616D03*
X009420Y009324D03*
X010420Y009324D03*
X010420Y008616D03*
X011420Y008616D03*
X011420Y009324D03*
X012420Y009324D03*
X012420Y008616D03*
X013420Y008616D03*
X013420Y009324D03*
X014420Y009324D03*
X014420Y008616D03*
X015420Y008616D03*
X015420Y009324D03*
X016420Y009324D03*
X016420Y008616D03*
X017420Y008616D03*
X017420Y009324D03*
X018420Y009324D03*
X018420Y008616D03*
X019420Y008616D03*
X019420Y009324D03*
X020420Y009324D03*
X020420Y008616D03*
X021420Y008616D03*
X021420Y009324D03*
X022420Y009324D03*
X022420Y008616D03*
X023420Y008616D03*
X023420Y009324D03*
X024420Y009324D03*
X024420Y008616D03*
X025420Y008616D03*
X025420Y009324D03*
X026420Y009324D03*
X026420Y008616D03*
X027420Y008616D03*
X027420Y009324D03*
X028420Y009324D03*
X028420Y008616D03*
X029420Y008616D03*
X029420Y009324D03*
X030420Y009324D03*
X030420Y008616D03*
X031420Y008616D03*
X031420Y009324D03*
X032420Y009324D03*
X032420Y008616D03*
X033420Y008616D03*
X033420Y009324D03*
X034420Y009324D03*
X034420Y008616D03*
X035420Y008616D03*
X035420Y009324D03*
X036420Y009324D03*
X036420Y008616D03*
X037420Y008616D03*
X037420Y009324D03*
X038420Y009324D03*
X038420Y008616D03*
X039420Y008616D03*
X039420Y009324D03*
X040420Y009324D03*
X040420Y008616D03*
D11*
X016670Y018920D03*
X016670Y019520D03*
X001420Y007270D03*
X001420Y006670D03*
D12*
X015316Y017470D03*
X016024Y017470D03*
X016024Y018345D03*
X015316Y018345D03*
X018753Y019470D03*
X019462Y019470D03*
X023816Y012470D03*
X024524Y012470D03*
D13*
X025278Y005826D03*
X027562Y002913D03*
X025278Y002204D03*
X022562Y002913D03*
X020278Y002204D03*
X017562Y002913D03*
X015278Y002204D03*
X012562Y002913D03*
X010278Y002204D03*
X007562Y002913D03*
X005278Y002204D03*
X002562Y002913D03*
X005278Y005826D03*
X010278Y005826D03*
X015278Y005826D03*
X020278Y005826D03*
X030278Y005826D03*
X032562Y002913D03*
X030278Y002204D03*
X035278Y002204D03*
X037562Y002913D03*
X040278Y002204D03*
X040278Y005826D03*
X035278Y005826D03*
D14*
X033625Y007421D03*
X038625Y007421D03*
X028625Y007421D03*
X023625Y007421D03*
X018625Y007421D03*
X013625Y007421D03*
X008625Y007421D03*
X003625Y007421D03*
D15*
X002562Y001811D03*
X007562Y001811D03*
X012562Y001811D03*
X017562Y001811D03*
X022562Y001811D03*
X027562Y001811D03*
X032562Y001811D03*
X037562Y001811D03*
M02*
